<?xml version="1.0" encoding="iso-8859-1"?>
<!-- Generator: Adobe Illustrator 19.1.0, SVG Export Plug-In . SVG Version: 6.00 Build 0)  -->
<svg version="1.1" xmlns="http://www.w3.org/2000/svg" xmlns:xlink="http://www.w3.org/1999/xlink" x="0px" y="0px"
	 viewBox="0 0 1024 1024" style="enable-background:new 0 0 1024 1024;" xml:space="preserve">
<g id="template">
	<g id="Hexigon">
		<g>
			<polygon style="fill:#42AA48;" points="257.289,953.174 2.577,512 257.289,70.828 766.711,70.828 1021.423,512 766.711,953.174 
							"/>
			<g>
				<path style="fill:#00A651;" d="M766.423,71.328L1020.845,512L766.423,952.673H257.577L3.155,512L257.577,71.328H766.423
					 M767,70.328H257L2,512l255,441.673h510L1022,512L767,70.328L767,70.328z"/>
			</g>
		</g>
	</g>
</g>
<g id="gasolene">
	<g>
		<path style="fill:#FFFFFF;" d="M706.299,256.799L706.299,256.799c0.433,1.184-0.176,2.494-1.36,2.927L571.422,308.54
			c-1.184,0.433-2.494-0.176-2.927-1.36l-0.88-2.406c-0.433-1.184-1.743-1.793-2.927-1.36l-27.36,10.003
			c-0.374,0.137-0.706,0.369-0.963,0.674l-47.866,56.875c-0.657,0.78-0.716,1.901-0.146,2.746l3.096,4.587
			c0.707,1.047,0.429,2.469-0.62,3.172l-117.762,78.99c-0.045,0.03-0.09,0.058-0.138,0.085c-0.956,0.548-11.787,6.906-16.809,16.437
			c-0.037,0.071-0.078,0.139-0.123,0.205L254.164,626.461c-0.71,1.041-0.442,2.461,0.599,3.172l33.534,22.877
			c1.041,0.71,2.461,0.442,3.171-0.599l101.901-149.37c1.987-2.912,4.268-4.248,4.708-4.488c0.059-0.032,0.115-0.067,0.171-0.104
			l117.855-79.052c1.045-0.701,2.459-0.424,3.163,0.619l1.19,1.763c0.701,1.039,2.109,1.318,3.154,0.625l14.487-9.617
			c0.74-0.491,1.698-0.509,2.455-0.045l45.466,27.861c3.233,1.981,7.194,2.377,10.755,1.075l18.268-6.679l157.764-57.68
			c1.184-0.433,1.793-1.743,1.36-2.927l-2.382-6.516L748.7,304.235c-0.433-1.184,0.176-2.494,1.36-2.927l0.479-0.175
			c1.184-0.433,1.793-1.743,1.36-2.927l-0.751-2.054l-17.196-47.033l-0.784-2.143c-0.433-1.184-1.743-1.793-2.927-1.36
			l-22.583,8.256C706.475,254.304,705.866,255.615,706.299,256.799z M621.756,422.227c-1.65,0.603-3.334-0.808-3.032-2.539
			c5.37-30.77,13.065-31.365,34.359-37.47c13.864-3.975,48.916-3.675,73.209-2.894c2.509,0.081,3.065,3.563,0.708,4.425
			L621.756,422.227z M725.813,310.173l22.636,61.913c0.573,1.568-0.677,3.198-2.34,3.057c-64.403-5.47-109.177,1.93-122.437,7.922
			c-8.369,3.782-10.895,19.307-11.605,30.566c-0.156,2.465-3.572,2.955-4.42,0.635l-20.388-55.765
			c-0.433-1.184,0.176-2.494,1.36-2.927l133.517-48.815c1.184-0.433,2.494,0.176,2.927,1.36L725.813,310.173z"/>
		
			<rect x="746.255" y="245.337" transform="matrix(0.9392 -0.3434 0.3434 0.9392 -46.8935 274.6921)" style="fill:#FFFFFF;" width="11.904" height="48.847"/>
		<path style="fill:#FFFFFF;" d="M290.774,698.727c0,14.912-8.284,19.5-18.503,19.5s-18.503-4.588-18.503-19.5
			s18.503-39.5,18.503-39.5S290.774,683.815,290.774,698.727z"/>
		<path style="fill:#FFFFFF;" d="M260.774,767.341c0,14.912-8.284,19.5-18.503,19.5c-10.219,0-18.503-4.588-18.503-19.5
			s18.503-39.5,18.503-39.5S260.774,752.429,260.774,767.341z"/>
		<g>
			<g>
				<path style="fill:#FFFFFF;" d="M773.555,239.885c-7.893,1.545-11.798,2.59-19.429,5.204
					c4.861,14.192,9.723,28.384,14.584,42.575c5.301-1.816,8.011-2.54,13.492-3.614C779.32,269.329,776.438,254.607,773.555,239.885
					z"/>
				<path style="fill:#FFFFFF;" d="M780.675,238.672c2.157,14.845,4.315,29.691,6.472,44.536c5.195-0.755,7.823-0.967,13.086-1.05
					c-0.238-14.999-0.476-29.999-0.714-44.998C791.939,237.279,788.155,237.585,780.675,238.672z"/>
			</g>
		</g>
	</g>
</g>
</svg>
