<?xml version="1.0" encoding="iso-8859-1"?>
<!-- Generator: Adobe Illustrator 19.1.0, SVG Export Plug-In . SVG Version: 6.00 Build 0)  -->
<svg version="1.1" xmlns="http://www.w3.org/2000/svg" xmlns:xlink="http://www.w3.org/1999/xlink" x="0px" y="0px"
	 viewBox="0 0 1024 1024" style="enable-background:new 0 0 1024 1024;" xml:space="preserve">
<g id="template">
	<g id="Background" style="display:none;">
		<rect style="display:inline;fill:#939598;" width="1024" height="1024"/>
	</g>
	<g id="Inner_mask" style="display:none;">
		<g style="display:inline;">
			<defs>
				<path id="SVGID_1_" d="M0,793.565C0,920.834,103.777,1024,231.793,1024l560.39-0.099c128.008,0,231.793-103.186,231.793-230.435
					V230.455C1023.975,103.186,920.198,0,792.183,0l-560.39,0.113C103.784,0.113,0,103.285,0,230.56V793.565z"/>
			</defs>
			<use xlink:href="#SVGID_1_"  style="overflow:visible;fill:#FFFFFF;"/>
			<clipPath id="SVGID_2_">
				<use xlink:href="#SVGID_1_"  style="overflow:visible;"/>
			</clipPath>
			<rect style="clip-path:url(#SVGID_2_);fill:#FFFFFF;" width="1024" height="1024"/>
		</g>
	</g>
	<g id="Hexigon">
		<g>
			<polygon style="fill:#42AA48;" points="257.289,953.174 2.577,512 257.289,70.828 766.711,70.828 1021.423,512 766.711,953.174 
							"/>
			<g>
				<path style="fill:#00A651;" d="M766.423,71.328L1020.845,512L766.423,952.673H257.577L3.155,512L257.577,71.328H766.423
					 M767,70.328H257L2,512l255,441.673h510L1022,512L767,70.328L767,70.328z"/>
			</g>
		</g>
	</g>
	<g id="Guide" style="display:none;">
		<g style="display:inline;">
			<g>
				
					<line style="opacity:0.2;fill:none;stroke:#010101;stroke-width:3;stroke-miterlimit:10;" x1="69.069" y1="1.48" x2="69.069" y2="1022.501"/>
				
					<line style="opacity:0.2;fill:none;stroke:#010101;stroke-width:3;stroke-miterlimit:10;" x1="1022.498" y1="955.334" x2="1.502" y2="955.334"/>
				
					<line style="opacity:0.2;fill:none;stroke:#010101;stroke-width:3;stroke-miterlimit:10;" x1="1022.498" y1="68.667" x2="1.502" y2="68.667"/>
				
					<line style="opacity:0.2;fill:none;stroke:#010101;stroke-width:3;stroke-miterlimit:10;" x1="1024" y1="511.997" x2="0" y2="511.997"/>
				
					<line style="opacity:0.2;fill:none;stroke:#010101;stroke-width:3;stroke-miterlimit:10;" x1="1022.498" y1="1022.501" x2="1.502" y2="1.48"/>
				
					<line style="opacity:0.2;fill:none;stroke:#010101;stroke-width:3;stroke-miterlimit:10;" x1="1022.498" y1="1.48" x2="1.502" y2="1022.501"/>
				
					<line style="opacity:0.2;fill:none;stroke:#010101;stroke-width:3;stroke-miterlimit:10;" x1="1024" y1="766.114" x2="0" y2="766.114"/>
				<line style="opacity:0.2;fill:none;stroke:#010101;stroke-width:3;stroke-miterlimit:10;" x1="1024" y1="256" x2="0" y2="256"/>
				
					<line style="opacity:0.2;fill:none;stroke:#010101;stroke-width:3;stroke-miterlimit:10;" x1="954.931" y1="1022.501" x2="954.931" y2="1.48"/>
				<line style="opacity:0.2;fill:none;stroke:#010101;stroke-width:3;stroke-miterlimit:10;" x1="512" y1="1024" x2="512" y2="0"/>
				<line style="opacity:0.2;fill:none;stroke:#010101;stroke-width:3;stroke-miterlimit:10;" x1="767" y1="1024" x2="767" y2="0"/>
				<line style="opacity:0.2;fill:none;stroke:#010101;stroke-width:3;stroke-miterlimit:10;" x1="257" y1="1024" x2="257" y2="0"/>
				<path style="opacity:0.2;fill:none;stroke:#010101;stroke-width:3;stroke-miterlimit:10;" d="M912.412,511.998
					c0,219.845-179.278,398.07-400.412,398.07s-400.412-178.224-400.412-398.07c0-219.855,179.278-398.078,400.412-398.078
					S912.412,292.143,912.412,511.998z"/>
				<path style="opacity:0.2;fill:none;stroke:#010101;stroke-width:3;stroke-miterlimit:10;" d="M954.931,511.997
					c0,244.85-198.306,443.337-442.931,443.337S69.069,756.847,69.069,511.997c0-244.862,198.306-443.33,442.931-443.33
					S954.931,267.135,954.931,511.997z"/>
			</g>
			<path style="opacity:0.2;fill:none;stroke:#010101;stroke-width:3;stroke-miterlimit:10;" d="M0,793.565
				C0,920.834,103.777,1024,231.793,1024l560.39-0.099c128.008,0,231.793-103.186,231.793-230.435V230.455
				C1023.975,103.186,920.198,0,792.183,0l-560.39,0.113C103.784,0.113,0,103.285,0,230.56V793.565z"/>
			<circle style="opacity:0.2;fill:none;stroke:#010101;stroke-width:3;stroke-miterlimit:10;" cx="512" cy="512" r="512"/>
			<polygon style="opacity:0.2;fill:none;stroke:#010101;stroke-width:3;stroke-miterlimit:10;" points="256,955.405 0,512 
				256,68.595 768,68.595 1024,512 768,955.405 			"/>
		</g>
	</g>
	<g id="Outter_mask" style="display:none;">
		<path style="display:inline;fill:#FFFFFF;" d="M0,230.56C0,103.285,103.784,0.113,231.793,0.113L792.183,0
			c128.015,0,231.793,103.186,231.793,230.455v563.011c0,127.249-103.784,230.435-231.793,230.435L231.793,1024
			C103.777,1024,0,920.834,0,793.565V230.56z M1024,0H0v1024h1024V0z"/>
	</g>
</g>
<g id="coniferous">
	<g>
		<path style="fill:#FFFFFF;" d="M513.408,129.417c22.86,56.025,76.603,157.163,144.085,177.667
			c-4.698,9.863-16.467,25.512-43.811,25.512h-0.008c-14.065-0.002-30.7-4.033-49.438-11.984l-6.924-2.703l-3.849,6.322
			c-0.351,0.573-8.92,14.057-40.054,14.057s-39.707-13.484-39.962-13.886l-3.866-7.102l-7.313,3.452
			c-17.885,8.441-33.95,12.72-47.748,12.72c-26.621,0-39.356-16.266-44.74-26.531C437.047,286.122,490.598,185.317,513.408,129.417z
			"/>
		<path style="fill:#FFFFFF;" d="M442.856,346.381c6.729-1.853,13.678-4.255,20.89-7.37c6.878,6.807,21.604,16.413,49.936,16.413
			c28.587,0,43.322-9.779,50.116-16.597c6.703,2.622,13.156,4.709,19.403,6.382c21.276,33.033,58.51,76.276,118.834,104.815
			c-4.753,8.8-17.488,23.755-49.125,23.755c-13.886,0-30.047-2.864-48.041-8.512l-5.359-1.663l-3.677,4.225
			c-0.188,0.215-19.031,21.533-42.1,21.533c-11.948,0-23.395-5.863-34.009-17.431l-6.313-6.876l-6.313,6.876
			c-10.614,11.568-22.06,17.431-34.009,17.431c-23.069,0-41.912-21.318-42.088-21.519l-3.677-4.263l-5.372,1.686
			c-17.994,5.648-34.16,8.512-48.045,8.512c-31.649,0-44.372-14.94-49.125-23.755C384.396,421.822,421.458,379.261,442.856,346.381z
			"/>
		<path style="fill:#FFFFFF;" d="M410.63,486.158c3.714-0.875,7.503-1.872,11.372-3c7.978,7.683,27.181,23.343,51.087,23.343
			c14.446,0,27.976-5.614,40.322-16.714c12.346,11.099,25.876,16.714,40.322,16.714c23.91,0,43.108-15.659,51.087-23.343
			c4.044,1.179,7.993,2.2,11.868,3.104c10.791,24.253,47.103,87.924,139.163,113.84c-4.271,10.273-14.931,27.123-38.942,27.121
			h-0.004c-15.718-0.002-34.917-6.874-57.065-20.429l-5.351-3.274l-4.736,4.11c-0.192,0.167-19.45,16.628-44.313,16.628
			c-14.287,0-27.759-5.566-40.038-16.544l-6.752-5.981l-5.656,7.026c-0.151,0.184-15.149,18.462-39.356,18.462
			s-39.205-18.278-39.331-18.431l-5.644-7.146l-6.79,6.068c-12.279,10.978-25.75,16.544-40.038,16.544
			c-24.65,0-44.142-16.477-44.318-16.628l-4.736-4.11l-5.351,3.274c-22.152,13.557-41.351,20.429-57.065,20.429
			c-24.014,0-34.678-16.86-38.946-27.121C363.614,574.148,399.898,510.331,410.63,486.158z"/>
		<path style="fill:#FFFFFF;" d="M560.531,864.721h-94.249v-94.539c8.964,5.17,26.175,13.141,47.358,13.141
			c19.775,0,37.563-8.025,46.892-13.12V864.721z"/>
		<path style="fill:#FFFFFF;" d="M732.238,760.89h-0.013c-15.68-0.002-34.411-4.926-55.676-14.634l-5.765-2.632l-4.205,4.738
			c-0.213,0.241-21.696,24.054-51.898,24.054c-15.873,0-31.599-6.673-46.748-19.835l-4.991-4.318l-5.456,3.707
			c-0.209,0.142-21.19,14.216-44.079,14.216c-24.721,0-43.581-13.85-43.749-13.976l-5.539-4.184l-5.242,4.554
			c-15.149,13.162-30.875,19.835-46.748,19.835c-29.968,0-51.693-23.83-51.894-24.054l-4.205-4.736l-5.765,2.629
			c-21.27,9.71-40,14.634-55.676,14.634c-26.123,0-38.142-14.013-43.263-23.393c86.027-19.614,125.082-70.245,141.517-101.588
			c8.275,3.127,18.056,5.485,28.764,5.485c16.124,0,31.264-5.269,45.104-15.682c8.175,7.401,24.286,18.647,46.698,18.647
			c22.412,0,38.523-11.246,46.698-18.647c13.84,10.413,28.98,15.682,45.104,15.682c10.707,0,20.485-2.357,28.759-5.483
			c16.442,31.354,55.519,82.01,141.611,101.607C770.56,746.898,758.65,760.89,732.238,760.89z"/>
	</g>
</g>
</svg>
