<?xml version="1.0" encoding="iso-8859-1"?>
<!-- Generator: Adobe Illustrator 19.1.0, SVG Export Plug-In . SVG Version: 6.00 Build 0)  -->
<svg version="1.1" xmlns="http://www.w3.org/2000/svg" xmlns:xlink="http://www.w3.org/1999/xlink" x="0px" y="0px"
	 viewBox="0 0 1024 1024" style="enable-background:new 0 0 1024 1024;" xml:space="preserve">
<g id="template">
	<g id="Background" style="display:none;">
		<rect style="display:inline;fill:#939598;" width="1024" height="1024"/>
	</g>
	<g id="Inner_mask" style="display:none;">
		<g style="display:inline;">
			<defs>
				<path id="SVGID_1_" d="M0,793.565C0,920.834,103.777,1024,231.793,1024l560.39-0.099c128.008,0,231.793-103.186,231.793-230.435
					V230.455C1023.975,103.186,920.198,0,792.183,0l-560.39,0.113C103.784,0.113,0,103.285,0,230.56V793.565z"/>
			</defs>
			<use xlink:href="#SVGID_1_"  style="overflow:visible;fill:#FFFFFF;"/>
			<clipPath id="SVGID_2_">
				<use xlink:href="#SVGID_1_"  style="overflow:visible;"/>
			</clipPath>
			<rect style="clip-path:url(#SVGID_2_);fill:#FFFFFF;" width="1024" height="1024"/>
		</g>
	</g>
	<g id="Hexigon">
		<g>
			<polygon style="fill:#42AA48;" points="257.289,953.174 2.577,512 257.289,70.828 766.711,70.828 1021.423,512 766.711,953.174 
							"/>
			<g>
				<path style="fill:#00A651;" d="M766.423,71.328L1020.845,512L766.423,952.673H257.577L3.155,512L257.577,71.328H766.423
					 M767,70.328H257L2,512l255,441.673h510L1022,512L767,70.328L767,70.328z"/>
			</g>
		</g>
	</g>
	<g id="Guide" style="display:none;">
		<g style="display:inline;">
			<g>
				
					<line style="opacity:0.2;fill:none;stroke:#010101;stroke-width:3;stroke-miterlimit:10;" x1="69.069" y1="1.48" x2="69.069" y2="1022.501"/>
				
					<line style="opacity:0.2;fill:none;stroke:#010101;stroke-width:3;stroke-miterlimit:10;" x1="1022.498" y1="955.334" x2="1.502" y2="955.334"/>
				
					<line style="opacity:0.2;fill:none;stroke:#010101;stroke-width:3;stroke-miterlimit:10;" x1="1022.498" y1="68.667" x2="1.502" y2="68.667"/>
				
					<line style="opacity:0.2;fill:none;stroke:#010101;stroke-width:3;stroke-miterlimit:10;" x1="1024" y1="511.997" x2="0" y2="511.997"/>
				
					<line style="opacity:0.2;fill:none;stroke:#010101;stroke-width:3;stroke-miterlimit:10;" x1="1022.498" y1="1022.501" x2="1.502" y2="1.48"/>
				
					<line style="opacity:0.2;fill:none;stroke:#010101;stroke-width:3;stroke-miterlimit:10;" x1="1022.498" y1="1.48" x2="1.502" y2="1022.501"/>
				
					<line style="opacity:0.2;fill:none;stroke:#010101;stroke-width:3;stroke-miterlimit:10;" x1="1024" y1="766.114" x2="0" y2="766.114"/>
				<line style="opacity:0.2;fill:none;stroke:#010101;stroke-width:3;stroke-miterlimit:10;" x1="1024" y1="256" x2="0" y2="256"/>
				
					<line style="opacity:0.2;fill:none;stroke:#010101;stroke-width:3;stroke-miterlimit:10;" x1="954.931" y1="1022.501" x2="954.931" y2="1.48"/>
				<line style="opacity:0.2;fill:none;stroke:#010101;stroke-width:3;stroke-miterlimit:10;" x1="512" y1="1024" x2="512" y2="0"/>
				<line style="opacity:0.2;fill:none;stroke:#010101;stroke-width:3;stroke-miterlimit:10;" x1="767" y1="1024" x2="767" y2="0"/>
				<line style="opacity:0.2;fill:none;stroke:#010101;stroke-width:3;stroke-miterlimit:10;" x1="257" y1="1024" x2="257" y2="0"/>
				<path style="opacity:0.2;fill:none;stroke:#010101;stroke-width:3;stroke-miterlimit:10;" d="M912.412,511.998
					c0,219.845-179.278,398.07-400.412,398.07s-400.412-178.224-400.412-398.07c0-219.855,179.278-398.078,400.412-398.078
					S912.412,292.143,912.412,511.998z"/>
				<path style="opacity:0.2;fill:none;stroke:#010101;stroke-width:3;stroke-miterlimit:10;" d="M954.931,511.997
					c0,244.85-198.306,443.337-442.931,443.337S69.069,756.847,69.069,511.997c0-244.862,198.306-443.33,442.931-443.33
					S954.931,267.135,954.931,511.997z"/>
			</g>
			<path style="opacity:0.2;fill:none;stroke:#010101;stroke-width:3;stroke-miterlimit:10;" d="M0,793.565
				C0,920.834,103.777,1024,231.793,1024l560.39-0.099c128.008,0,231.793-103.186,231.793-230.435V230.455
				C1023.975,103.186,920.198,0,792.183,0l-560.39,0.113C103.784,0.113,0,103.285,0,230.56V793.565z"/>
			<circle style="opacity:0.2;fill:none;stroke:#010101;stroke-width:3;stroke-miterlimit:10;" cx="512" cy="512" r="512"/>
			<polygon style="opacity:0.2;fill:none;stroke:#010101;stroke-width:3;stroke-miterlimit:10;" points="256,955.405 0,512 
				256,68.595 768,68.595 1024,512 768,955.405 			"/>
		</g>
	</g>
	<g id="Outter_mask" style="display:none;">
		<path style="display:inline;fill:#FFFFFF;" d="M0,230.56C0,103.285,103.784,0.113,231.793,0.113L792.183,0
			c128.015,0,231.793,103.186,231.793,230.455v563.011c0,127.249-103.784,230.435-231.793,230.435L231.793,1024
			C103.777,1024,0,920.834,0,793.565V230.56z M1024,0H0v1024h1024V0z"/>
	</g>
</g>
<g id="galocal">
	<path id="galocal_1_" style="fill:#FFFFFF;" d="M559.145,183.533l-9.995,17.405c0,0-34.305,24.446-13.036,31.42
		c21.269,6.974,20.26,34.555,34.932,30.645c14.672-3.91,17.895,0.619,17.895,0.619c37.687,78.203,77.95,102.538,77.95,102.538
		s95.421,96.024,106.938,150.013s40.252,23.949,34.528,43.731c-5.724,19.782,2.738,12.218,3.772,35.183
		c1.034,22.965,33.504,30.097,42.932,34.236s-12.549,14.891-15.922,18.366c-3.373,3.475-13.537,13.321-20.529,23.372
		c-6.992,10.051-14.516,28.089-14.516,28.089s-1.817,24.296-10.38,33.926c-8.564,9.63-6.37,19.525-8.162,23.849
		c-1.793,4.324-3.896,11.178-3.874,15.344s-0.583,3.098-3.06,12.329s-8.482,21.479-8.022,25.516c0.46,4.037,4.046,9.655,4.046,9.655
		c1.342,2.409,1.128,3.293,1.143,5.052c0.016,1.762-1.075,3.093-2.834,3.327c-1.759,0.237-2.436-1.52-3.959,0.475
		c-1.523,1.995-3.504,2.012-5.486,2.029c-1.981,0.017-4.392,1.358-5.921,2.693c-1.53,1.334-4.609,1.802-5.496,1.149
		c-0.886-0.654-1.553-1.308-3.308-0.633c-1.755,0.676-3.513,1.132-3.534-1.291c-0.021-2.423-1.35-3.513-3.546-2.833
		c-2.197,0.679-4.826,2.023-5.941,0.492c-1.115-1.531-2.88-2.176-4.642-2.161s-3.537-1.51-3.772-3.271
		c-0.234-1.76,0.415-3.087-1.574-3.95c-1.99-0.865-2.673-3.502-4.203-2.168c-1.53,1.334-5.517-1.493-5.937,0.933
		c-0.419,2.424,0.034,3.744-1.721,4.639c-1.754,0.895-2.632,1.122-4.191-0.846c-1.558-1.969-3.083-0.194-3.065,2.008
		c0.019,2.203-0.842,4.411-1.932,5.741c-1.09,1.331-1.298,2.876-0.404,4.408c0.895,1.533,0.689,3.294,0.704,5.056
		c0.016,1.762,1.349,3.072,1.168,7.697c-0.181,4.625-1.917,7.724-1.674,10.364c0.244,2.64-1.721,4.638-1.702,6.839
		c0.019,2.201-2.166,4.203-2.585,6.627c-0.419,2.427-2.382,4.644-3.248,6.414c-0.865,1.767-3.277,3.109-4.806,4.443
		c-1.529,1.334-4.17,1.359-5.714,1.151c-1.544-0.207-3.296,0.688-5.081-1.938c-1.785-2.627,0.836-5.292-2.056-8.788
		c-2.893-3.5-3.576-6.134-4.261-8.992c-0.685-2.855-0.924-5.056-0.924-5.056L326.11,842.321l-8.729-34.667
		c0,0-3.392-11.833-18.947-46.67c0,0-3.421-12.58,4.272-35.975s-5.03-32.395-5.03-32.395s-17.256-34.342,25.147-87.551
		c0,0,6.638-9.633-6.733-18.728s-26.423-91.584-26.423-91.584l-49.997-310.906L559.145,183.533"/>
</g>
</svg>
