<?xml version="1.0" encoding="iso-8859-1"?>
<!-- Generator: Adobe Illustrator 19.1.0, SVG Export Plug-In . SVG Version: 6.00 Build 0)  -->
<svg version="1.1" xmlns="http://www.w3.org/2000/svg" xmlns:xlink="http://www.w3.org/1999/xlink" x="0px" y="0px"
	 viewBox="0 0 1024 1024" style="enable-background:new 0 0 1024 1024;" xml:space="preserve">
<g id="template">
	<g id="Background" style="display:none;">
		<rect style="display:inline;fill:#939598;" width="1024" height="1024"/>
	</g>
	<g id="Inner_mask" style="display:none;">
		<g style="display:inline;">
			<defs>
				<path id="SVGID_1_" d="M0,793.565C0,920.834,103.777,1024,231.793,1024l560.39-0.099c128.008,0,231.793-103.186,231.793-230.435
					V230.455C1023.975,103.186,920.198,0,792.183,0l-560.39,0.113C103.784,0.113,0,103.285,0,230.56V793.565z"/>
			</defs>
			<use xlink:href="#SVGID_1_"  style="overflow:visible;fill:#FFFFFF;"/>
			<clipPath id="SVGID_2_">
				<use xlink:href="#SVGID_1_"  style="overflow:visible;"/>
			</clipPath>
			<rect style="clip-path:url(#SVGID_2_);fill:#FFFFFF;" width="1024" height="1024"/>
		</g>
	</g>
	<g id="Hexigon">
		<g>
			<polygon style="fill:#42AA48;" points="257.289,953.174 2.577,512 257.289,70.828 766.711,70.828 1021.423,512 766.711,953.174 
							"/>
			<g>
				<path style="fill:#00A651;" d="M766.423,71.328L1020.845,512L766.423,952.673H257.577L3.155,512L257.577,71.328H766.423
					 M767,70.328H257L2,512l255,441.673h510L1022,512L767,70.328L767,70.328z"/>
			</g>
		</g>
	</g>
	<g id="Guide" style="display:none;">
		<g style="display:inline;">
			<g>
				
					<line style="opacity:0.2;fill:none;stroke:#010101;stroke-width:3;stroke-miterlimit:10;" x1="69.069" y1="1.48" x2="69.069" y2="1022.501"/>
				
					<line style="opacity:0.2;fill:none;stroke:#010101;stroke-width:3;stroke-miterlimit:10;" x1="1022.498" y1="955.334" x2="1.502" y2="955.334"/>
				
					<line style="opacity:0.2;fill:none;stroke:#010101;stroke-width:3;stroke-miterlimit:10;" x1="1022.498" y1="68.667" x2="1.502" y2="68.667"/>
				
					<line style="opacity:0.2;fill:none;stroke:#010101;stroke-width:3;stroke-miterlimit:10;" x1="1024" y1="511.997" x2="0" y2="511.997"/>
				
					<line style="opacity:0.2;fill:none;stroke:#010101;stroke-width:3;stroke-miterlimit:10;" x1="1022.498" y1="1022.501" x2="1.502" y2="1.48"/>
				
					<line style="opacity:0.2;fill:none;stroke:#010101;stroke-width:3;stroke-miterlimit:10;" x1="1022.498" y1="1.48" x2="1.502" y2="1022.501"/>
				
					<line style="opacity:0.2;fill:none;stroke:#010101;stroke-width:3;stroke-miterlimit:10;" x1="1024" y1="766.114" x2="0" y2="766.114"/>
				<line style="opacity:0.2;fill:none;stroke:#010101;stroke-width:3;stroke-miterlimit:10;" x1="1024" y1="256" x2="0" y2="256"/>
				
					<line style="opacity:0.2;fill:none;stroke:#010101;stroke-width:3;stroke-miterlimit:10;" x1="954.931" y1="1022.501" x2="954.931" y2="1.48"/>
				<line style="opacity:0.2;fill:none;stroke:#010101;stroke-width:3;stroke-miterlimit:10;" x1="512" y1="1024" x2="512" y2="0"/>
				<line style="opacity:0.2;fill:none;stroke:#010101;stroke-width:3;stroke-miterlimit:10;" x1="767" y1="1024" x2="767" y2="0"/>
				<line style="opacity:0.2;fill:none;stroke:#010101;stroke-width:3;stroke-miterlimit:10;" x1="257" y1="1024" x2="257" y2="0"/>
				<path style="opacity:0.2;fill:none;stroke:#010101;stroke-width:3;stroke-miterlimit:10;" d="M912.412,511.998
					c0,219.845-179.278,398.07-400.412,398.07s-400.412-178.224-400.412-398.07c0-219.855,179.278-398.078,400.412-398.078
					S912.412,292.143,912.412,511.998z"/>
				<path style="opacity:0.2;fill:none;stroke:#010101;stroke-width:3;stroke-miterlimit:10;" d="M954.931,511.997
					c0,244.85-198.306,443.337-442.931,443.337S69.069,756.847,69.069,511.997c0-244.862,198.306-443.33,442.931-443.33
					S954.931,267.135,954.931,511.997z"/>
			</g>
			<path style="opacity:0.2;fill:none;stroke:#010101;stroke-width:3;stroke-miterlimit:10;" d="M0,793.565
				C0,920.834,103.777,1024,231.793,1024l560.39-0.099c128.008,0,231.793-103.186,231.793-230.435V230.455
				C1023.975,103.186,920.198,0,792.183,0l-560.39,0.113C103.784,0.113,0,103.285,0,230.56V793.565z"/>
			<circle style="opacity:0.2;fill:none;stroke:#010101;stroke-width:3;stroke-miterlimit:10;" cx="512" cy="512" r="512"/>
			<polygon style="opacity:0.2;fill:none;stroke:#010101;stroke-width:3;stroke-miterlimit:10;" points="256,955.405 0,512 
				256,68.595 768,68.595 1024,512 768,955.405 			"/>
		</g>
	</g>
	<g id="Outter_mask" style="display:none;">
		<path style="display:inline;fill:#FFFFFF;" d="M0,230.56C0,103.285,103.784,0.113,231.793,0.113L792.183,0
			c128.015,0,231.793,103.186,231.793,230.455v563.011c0,127.249-103.784,230.435-231.793,230.435L231.793,1024
			C103.777,1024,0,920.834,0,793.565V230.56z M1024,0H0v1024h1024V0z"/>
	</g>
</g>
<g id="instrument">
	<g>
		<path style="fill:#FFFFFF;" d="M660.295,234.036c9.049,5.277,11.203,12.468,12.468,13.461c1.268,0.994,3.894-4.012,3.894-4.012
			l18.134,10.474l6.194-9.355l-18.922-10.929c0,0,3.46-3.259-0.806-4.144c-4.266-0.886-13.697-3.971-17.081-5.395
			C660.791,222.708,651.249,228.763,660.295,234.036z"/>
		<path style="fill:#FFFFFF;" d="M733.131,198.895l-2.345-1.355c-4.575,5.048-20.756,15.594-20.756,15.594l6.357,3.672
			C721,212.168,727.461,205.474,733.131,198.895z"/>
		<path style="fill:#FFFFFF;" d="M647.389,287.79c2.459-0.16,7.121-6.413,7.121-6.413l15.896,9.185l6.288-9.511l-17.084-9.866
			c5.204-8.56-1.226-10.171-4.971-12.336c-3.745-2.164-11.662-6.208-19.599,7.083C627.099,279.224,644.933,287.947,647.389,287.79z"
			/>
		<path style="fill:#FFFFFF;" d="M721.083,202.976l-5.516-3.186c-1.938,6.767-5.496,9.515-5.496,9.515l1.08,0.622
			C713.521,208.34,717.415,205.682,721.083,202.976z"/>
		<path style="fill:#FFFFFF;" d="M755.016,235.266c0,0,0.604-4.457,5.496-9.515l-5.516-3.189c-0.511,4.533-0.868,9.23-1.06,12.079
			L755.016,235.266z"/>
		<path style="fill:#FFFFFF;" d="M745.362,233.539l6.361,3.675c0,0,1.049-19.29,3.133-25.772l-2.345-1.355
			C749.646,218.286,747.075,227.231,745.362,233.539z"/>
		<path style="fill:#FFFFFF;" d="M454.403,761.38c-7.358-2.529-20.704-7.337-26.912-10.922
			c-6.204-3.582-17.039-12.742-22.903-17.852c-1.452,13.513-6.17,49.103-17.348,70.7c-11.554,22.326-31.998,53.383-37.893,62.23
			l17.522,10.119c4.718-9.529,21.402-42.756,34.964-63.919C414.954,791.262,443.426,769.387,454.403,761.38z"/>
		<path style="fill:#FFFFFF;" d="M759.292,249.095c-2.456,0.156-7.118,6.409-7.118,6.409l-16.028-9.258l-5.061,10.217l15.99,9.233
			c-5.207,8.56,1.223,10.171,4.968,12.336c3.745,2.164,11.662,6.208,19.603-7.083C779.583,257.658,761.748,248.935,759.292,249.095z
			"/>
		<path style="fill:#FFFFFF;" d="M741.138,238.417c2.081-8.052,7.476-27.909,13.121-40.335l-11.603-6.701
			c-7.941,11.099-22.445,25.696-28.381,31.522l3.238,1.872l-49.36,74.097l1.959,2.105L475.677,605.828l53.014,30.619
			l166.891-320.761l2.8,0.646l39.518-79.784L741.138,238.417z"/>
		<path style="fill:#FFFFFF;" d="M751.626,303.034c-9.049-5.273-11.203-12.468-12.471-13.461c-1.264-0.994-3.891,4.012-3.891,4.012
			l-17.546-10.133l-4.982,10.057l17.123,9.887c0,0-3.46,3.258,0.806,4.148c4.266,0.886,13.697,3.967,17.081,5.395
			C751.125,314.365,760.672,308.307,751.626,303.034z"/>
		<path style="fill:#FFFFFF;" d="M617.681,477.247l-86.78,166.786L468,607.704l101.099-158.512
			c-63.895-24.89-101.926,8.462-114.286,28.649c-13.916,22.722-18.391,56.419-23.219,65.461
			c-4.825,9.042-11.075,13.715-11.075,13.715s41.297,0.191-1.007,62.512c-42.305,62.321-65.784,10.116-66.781,24.133
			c-0.994,14.014-7.927,19.87-26.624,33.127c-18.696,13.256-28.972,36.503-28.972,36.503
			c-42.701,77.14,17.734,131.551,46.077,151.588c0.577-0.855,25.873-38.386,39.175-64.086
			c13.208-25.516,17.237-73.514,17.275-73.997c0.083-1.032,0.747-1.931,1.713-2.317c0.966-0.382,2.067-0.188,2.838,0.507
			c0.174,0.16,17.88,16.046,26.012,20.742c8.132,4.697,30.737,12.093,30.966,12.165c0.987,0.32,1.702,1.178,1.855,2.206
			c0.149,1.028-0.299,2.05-1.15,2.64c-0.4,0.274-39.96,27.749-55.46,51.941c-15.618,24.369-35.482,65.03-35.934,65.961
			c31.518,14.535,108.85,39.689,154.326-35.847c0,0,15.004-20.517,17.143-43.336c2.14-22.82,3.745-31.751,15.389-39.616
			c11.641-7.868-45.313-2.116-12.471-69.901c32.842-67.789,53.643-32.116,53.643-32.116s0.924-7.747,6.347-16.445
			c5.419-8.702,32.366-29.417,45.098-52.823C661.285,569.766,671.171,520.156,617.681,477.247z M456.578,641.727
			c-2.477,4.287-6.343,2.446-6.343,2.446s-3.147-2.407-0.924-6.249c2.22-3.846,4.731-2.393,4.731-2.393
			c1.351-3.363-4.217-17.619-16.49,3.293c-12.273,20.909-23.118,39.685-33.509,47.091c-10.39,7.406-29.549-3.46-23.657-13.663
			c5.892-10.203,9.06-8.174,10.474-7.556c1.417,0.622,4.603,3.644,2.466,7.34c-2.133,3.696-5.878,2.324-5.878,2.324
			c-4.488,4.704-1.872,7-1.872,7s13.437,9.338,33.658-25.675c20.221-35.013,29.337-32.189,34.363-29.285
			C458.624,629.304,459.051,637.437,456.578,641.727z M513.712,710.252c-20.221,35.013-5.419,41.985-5.419,41.985
			s3.297,1.119,5.127-5.12c0,0-3.06-2.557-0.924-6.253c2.133-3.696,6.343-2.449,7.59-1.532c1.244,0.914,4.582,2.647-1.31,12.85
			c-5.895,10.199-24.88-0.962-23.657-13.666c1.223-12.7,12.068-31.477,24.046-52.559c11.978-21.079-3.154-18.776-5.391-15.928
			c0,0,2.515,1.452,0.295,5.298c-2.223,3.842-5.878,2.321-5.878,2.321s-3.526-2.428-1.049-6.718
			c2.473-4.287,9.734-7.979,14.764-5.075C526.934,668.753,533.933,675.239,513.712,710.252z"/>
	</g>
</g>
</svg>
