<?xml version="1.0" encoding="iso-8859-1"?>
<!-- Generator: Adobe Illustrator 19.1.0, SVG Export Plug-In . SVG Version: 6.00 Build 0)  -->
<svg version="1.1" xmlns="http://www.w3.org/2000/svg" xmlns:xlink="http://www.w3.org/1999/xlink" x="0px" y="0px"
	 viewBox="0 0 1024 1024" style="enable-background:new 0 0 1024 1024;" xml:space="preserve">
<g id="template">
	<g id="Hexigon">
		<g>
			<polygon style="fill:#42AA48;" points="257.289,953.174 2.577,512 257.289,70.828 766.711,70.828 1021.423,512 766.711,953.174 
							"/>
			<g>
				<path style="fill:#00A651;" d="M766.423,71.328L1020.845,512L766.423,952.673H257.577L3.155,512L257.577,71.328H766.423
					 M767,70.328H257L2,512l255,441.673h510L1022,512L767,70.328L767,70.328z"/>
			</g>
		</g>
	</g>
</g>
<g id="carbonstorage">
	<g>
		<path style="fill:#FFFFFF;" d="M515.674,446.872c-8.024,0-14.467,2.841-19.329,8.522c-4.861,5.681-7.288,15.082-7.288,28.202
			c0,13.003,2.414,22.345,7.246,28.026c4.832,5.681,11.405,8.522,19.722,8.522c8.551,0,15.17-2.782,19.856-8.346
			c4.686-5.564,7.029-15.551,7.029-29.959c0-12.124-2.443-20.983-7.334-26.577C530.685,449.671,524.05,446.872,515.674,446.872z"/>
		<path style="fill:#FFFFFF;" d="M767.149,225.161c-24.399,42.772-126.446,38.423-189.928,35.538
			c-63.481-2.885-213.738-20.757-308.959,135.059c-95.221,155.818,37.512,297.207,37.512,297.207
			c-11.542,46.167-71.901,72.137-71.901,72.137c5.663,63.692,63.244,51.94,63.244,51.94c20.199-69.252,77.909-83.682,77.909-83.682
			c369.343,92.338,402.513-206.911,411.248-280.259C795.318,377.155,772.326,291.737,767.149,225.161z M423.868,530.072
			c-5.037,6.56-11.292,11.509-18.76,14.848s-16.969,5.008-28.507,5.008c-13.999,0-25.437-2.033-34.31-6.102
			c-8.874-4.069-16.53-11.223-22.972-21.466c-6.443-10.244-9.664-23.355-9.664-39.335c0-21.305,5.665-37.68,16.998-49.122
			c11.334-11.444,27.365-17.166,48.1-17.166c16.224,0,28.98,3.28,38.264,9.84c9.284,6.56,16.182,16.634,20.692,30.223l-35.143,7.819
			c-1.23-3.924-2.519-6.794-3.866-8.61c-2.226-3.046-4.953-5.389-8.175-7.029c-3.221-1.64-6.819-2.46-10.802-2.46
			c-9.02,0-15.931,3.627-20.734,10.882c-3.631,5.382-5.447,13.835-5.447,25.359c0,14.277,2.167,24.06,6.501,29.355
			c4.334,5.294,10.426,7.941,18.274,7.941c7.614,0,13.367-2.138,17.262-6.414s6.719-10.484,8.476-18.626l34.883,10.543
			C432.595,515.341,428.905,523.512,423.868,530.072z M575.112,519.398c-5.066,9.635-12.388,17.132-21.964,22.491
			c-9.576,5.359-21.508,8.039-35.8,8.039c-14.526,0-26.549-2.314-36.067-6.941c-9.518-4.627-17.233-11.949-23.148-21.964
			c-5.916-10.016-8.878-22.55-8.878-37.603c0-21.027,5.857-37.398,17.571-49.112c11.714-11.714,28.031-17.571,48.94-17.571
			c21.437,0,37.954,5.755,49.551,17.264s17.396,27.631,17.396,48.365C582.713,497.419,580.178,509.765,575.112,519.398z
			 M684.284,604.495h-81.799c0.937-8.077,3.782-15.674,8.535-22.793c4.753-7.116,13.668-15.517,26.742-25.202
			c7.991-5.935,13.099-10.442,15.329-13.522c2.234-3.079,3.347-6.001,3.347-8.769c0-2.989-1.104-5.543-3.313-7.664
			c-2.209-2.119-4.987-3.18-8.334-3.18c-3.481,0-6.326,1.094-8.535,3.28c-2.209,2.188-3.69,6.047-4.451,11.58l-27.311-2.209
			c1.071-7.675,3.037-13.666,5.891-17.973c2.857-4.305,6.886-7.608,12.082-9.907c5.2-2.297,12.396-3.447,21.588-3.447
			c9.597,0,17.061,1.094,22.391,3.28c5.334,2.188,9.53,5.545,12.584,10.074c3.058,4.531,4.585,9.606,4.585,15.229
			c0,5.981-1.749,11.693-5.255,17.136c-3.502,5.445-9.873,11.426-19.111,17.94c-5.489,3.795-9.158,6.449-11.011,7.966
			c-1.849,1.519-4.025,3.504-6.527,5.958h42.573V604.495z"/>
	</g>
</g>
</svg>
