<?xml version="1.0" encoding="iso-8859-1"?>
<!-- Generator: Adobe Illustrator 19.1.0, SVG Export Plug-In . SVG Version: 6.00 Build 0)  -->
<svg version="1.1" xmlns="http://www.w3.org/2000/svg" xmlns:xlink="http://www.w3.org/1999/xlink" x="0px" y="0px"
	 viewBox="0 0 1024 1024" style="enable-background:new 0 0 1024 1024;" xml:space="preserve">
<g id="template">
	<g id="Hexigon">
		<g>
			<polygon style="fill:#42AA48;" points="257.289,953.174 2.577,512 257.289,70.828 766.711,70.828 1021.423,512 766.711,953.174 
							"/>
			<g>
				<path style="fill:#00A651;" d="M766.423,71.328L1020.845,512L766.423,952.673H257.577L3.155,512L257.577,71.328H766.423
					 M767,70.328H257L2,512l255,441.673h510L1022,512L767,70.328L767,70.328z"/>
			</g>
		</g>
	</g>
</g>
<g id="lobedsimpleleaf">
	<path style="fill:#FFFFFF;" d="M710.474,266.696c-35.397,0-39.192,1.266-73.323,35.397c-34.131,34.131-49.3,59.416-65.735,49.304
		c-16.435-10.116,30.341-68.267,41.716-88.492c11.378-20.229,29.075-50.566,30.341-79.641c1.266-29.079-5.056-58.154-53.094-58.154
		h-73.323h-10.112h-73.319c-48.038,0-54.36,29.075-53.098,58.154c1.266,29.075,18.963,59.412,30.341,79.641
		c11.378,20.225,58.15,78.375,41.716,88.492c-16.435,10.112-31.603-15.173-65.735-49.304
		c-34.131-34.131-37.925-35.397-73.323-35.397s-29.075,45.51-26.547,79.645c2.528,34.131,41.72,72.057,88.492,109.978
		c46.776,37.925-3.79,40.454-42.982,40.454c-39.188,0-26.547,32.869-27.809,69.529c-1.266,36.659,78.375,64.473,125.151,87.229
		c46.772,22.753,68.263,67.001,68.263,67.001v178.245c0,0,0,10.112,8.85,10.112h10.112c8.85,0,8.85-10.112,8.85-10.112V720.532
		c0,0,21.491-44.248,68.263-67.001c46.776-22.757,126.417-50.57,125.151-87.229c-1.262-36.659,11.379-69.529-27.809-69.529
		c-39.192,0-89.754-2.528-42.982-40.454c46.772-37.921,85.963-75.847,88.492-109.978
		C739.549,312.206,745.871,266.696,710.474,266.696z"/>
</g>
</svg>
