<?xml version="1.0" encoding="iso-8859-1"?>
<!-- Generator: Adobe Illustrator 19.1.0, SVG Export Plug-In . SVG Version: 6.00 Build 0)  -->
<svg version="1.1" xmlns="http://www.w3.org/2000/svg" xmlns:xlink="http://www.w3.org/1999/xlink" x="0px" y="0px"
	 viewBox="0 0 1024 1024" style="enable-background:new 0 0 1024 1024;" xml:space="preserve">
<g id="template">
	<g id="Background" style="display:none;">
		<rect style="display:inline;fill:#939598;" width="1024" height="1024"/>
	</g>
	<g id="Inner_mask" style="display:none;">
		<g style="display:inline;">
			<defs>
				<path id="SVGID_1_" d="M0,793.565C0,920.834,103.777,1024,231.793,1024l560.39-0.099c128.008,0,231.793-103.186,231.793-230.435
					V230.455C1023.975,103.186,920.198,0,792.183,0l-560.39,0.113C103.784,0.113,0,103.285,0,230.56V793.565z"/>
			</defs>
			<use xlink:href="#SVGID_1_"  style="overflow:visible;fill:#FFFFFF;"/>
			<clipPath id="SVGID_2_">
				<use xlink:href="#SVGID_1_"  style="overflow:visible;"/>
			</clipPath>
			<rect style="clip-path:url(#SVGID_2_);fill:#FFFFFF;" width="1024" height="1024"/>
		</g>
	</g>
	<g id="Hexigon">
		<g>
			<polygon style="fill:#42AA48;" points="257.289,953.174 2.577,512 257.289,70.828 766.711,70.828 1021.423,512 766.711,953.174 
							"/>
			<g>
				<path style="fill:#00A651;" d="M766.423,71.328L1020.845,512L766.423,952.673H257.577L3.155,512L257.577,71.328H766.423
					 M767,70.328H257L2,512l255,441.673h510L1022,512L767,70.328L767,70.328z"/>
			</g>
		</g>
	</g>
	<g id="Guide" style="display:none;">
		<g style="display:inline;">
			<g>
				
					<line style="opacity:0.2;fill:none;stroke:#010101;stroke-width:3;stroke-miterlimit:10;" x1="69.069" y1="1.48" x2="69.069" y2="1022.501"/>
				
					<line style="opacity:0.2;fill:none;stroke:#010101;stroke-width:3;stroke-miterlimit:10;" x1="1022.498" y1="955.334" x2="1.502" y2="955.334"/>
				
					<line style="opacity:0.2;fill:none;stroke:#010101;stroke-width:3;stroke-miterlimit:10;" x1="1022.498" y1="68.667" x2="1.502" y2="68.667"/>
				
					<line style="opacity:0.2;fill:none;stroke:#010101;stroke-width:3;stroke-miterlimit:10;" x1="1024" y1="511.997" x2="0" y2="511.997"/>
				
					<line style="opacity:0.2;fill:none;stroke:#010101;stroke-width:3;stroke-miterlimit:10;" x1="1022.498" y1="1022.501" x2="1.502" y2="1.48"/>
				
					<line style="opacity:0.2;fill:none;stroke:#010101;stroke-width:3;stroke-miterlimit:10;" x1="1022.498" y1="1.48" x2="1.502" y2="1022.501"/>
				
					<line style="opacity:0.2;fill:none;stroke:#010101;stroke-width:3;stroke-miterlimit:10;" x1="1024" y1="766.114" x2="0" y2="766.114"/>
				<line style="opacity:0.2;fill:none;stroke:#010101;stroke-width:3;stroke-miterlimit:10;" x1="1024" y1="256" x2="0" y2="256"/>
				
					<line style="opacity:0.2;fill:none;stroke:#010101;stroke-width:3;stroke-miterlimit:10;" x1="954.931" y1="1022.501" x2="954.931" y2="1.48"/>
				<line style="opacity:0.2;fill:none;stroke:#010101;stroke-width:3;stroke-miterlimit:10;" x1="512" y1="1024" x2="512" y2="0"/>
				<line style="opacity:0.2;fill:none;stroke:#010101;stroke-width:3;stroke-miterlimit:10;" x1="767" y1="1024" x2="767" y2="0"/>
				<line style="opacity:0.2;fill:none;stroke:#010101;stroke-width:3;stroke-miterlimit:10;" x1="257" y1="1024" x2="257" y2="0"/>
				<path style="opacity:0.2;fill:none;stroke:#010101;stroke-width:3;stroke-miterlimit:10;" d="M912.412,511.998
					c0,219.845-179.278,398.07-400.412,398.07s-400.412-178.224-400.412-398.07c0-219.855,179.278-398.078,400.412-398.078
					S912.412,292.143,912.412,511.998z"/>
				<path style="opacity:0.2;fill:none;stroke:#010101;stroke-width:3;stroke-miterlimit:10;" d="M954.931,511.997
					c0,244.85-198.306,443.337-442.931,443.337S69.069,756.847,69.069,511.997c0-244.862,198.306-443.33,442.931-443.33
					S954.931,267.135,954.931,511.997z"/>
			</g>
			<path style="opacity:0.2;fill:none;stroke:#010101;stroke-width:3;stroke-miterlimit:10;" d="M0,793.565
				C0,920.834,103.777,1024,231.793,1024l560.39-0.099c128.008,0,231.793-103.186,231.793-230.435V230.455
				C1023.975,103.186,920.198,0,792.183,0l-560.39,0.113C103.784,0.113,0,103.285,0,230.56V793.565z"/>
			<circle style="opacity:0.2;fill:none;stroke:#010101;stroke-width:3;stroke-miterlimit:10;" cx="512" cy="512" r="512"/>
			<polygon style="opacity:0.2;fill:none;stroke:#010101;stroke-width:3;stroke-miterlimit:10;" points="256,955.405 0,512 
				256,68.595 768,68.595 1024,512 768,955.405 			"/>
		</g>
	</g>
	<g id="Outter_mask" style="display:none;">
		<path style="display:inline;fill:#FFFFFF;" d="M0,230.56C0,103.285,103.784,0.113,231.793,0.113L792.183,0
			c128.015,0,231.793,103.186,231.793,230.455v563.011c0,127.249-103.784,230.435-231.793,230.435L231.793,1024
			C103.777,1024,0,920.834,0,793.565V230.56z M1024,0H0v1024h1024V0z"/>
	</g>
</g>
<g id="timber">
	<g>
		<path style="fill:none;" d="M237.695,698.59c44.91,0,81.446-39.585,81.446-88.24c0-48.656-36.537-88.24-81.446-88.24
			c-29.535,0-55.446,17.123-69.727,42.686l6.915,5.041c12.715-23.466,36.104-39.243,62.812-39.243
			c40.232,0,72.962,35.778,72.962,79.756s-32.73,79.756-72.962,79.756s-72.962-35.779-72.962-79.756
			c0-12.115,2.495-23.601,6.936-33.895l-7.576-3.85c-5.023,11.451-7.844,24.246-7.844,37.745
			C156.249,659.005,192.786,698.59,237.695,698.59z"/>
		<path style="fill:none;" d="M237.695,646.899c18.712,0,33.936-16.396,33.936-36.549c0-20.154-15.224-36.549-33.936-36.549
			c-13.123,0-24.506,8.079-30.15,19.847l4.698,3.425l-5.077-2.58c-2.16,4.804-3.407,10.17-3.407,15.856
			C203.76,630.503,218.983,646.899,237.695,646.899z M237.695,582.285c14.034,0,25.452,12.59,25.452,28.065
			c0,15.475-11.418,28.065-25.452,28.065s-25.452-12.59-25.452-28.065C212.244,594.875,223.661,582.285,237.695,582.285z"/>
		<path style="fill:none;" d="M237.695,669.975c30.407,0,55.146-26.748,55.146-59.625c0-32.878-24.739-59.625-55.146-59.625
			c-20.448,0-38.319,12.105-47.841,30.027l6.922,5.046c7.94-15.832,23.303-26.589,40.919-26.589
			c25.729,0,46.662,22.942,46.662,51.142c0,28.199-20.932,51.141-46.662,51.141s-46.662-22.941-46.662-51.141
			c0-7.79,1.604-15.175,4.458-21.789l-7.575-3.849c-3.438,7.771-5.367,16.465-5.367,25.639
			C182.55,643.227,207.288,669.975,237.695,669.975z"/>
		<path style="fill:#FFFFFF;" d="M237.695,690.106c40.232,0,72.962-35.779,72.962-79.756s-32.73-79.756-72.962-79.756
			c-26.708,0-50.096,15.777-62.812,39.243l14.971,10.914c9.522-17.922,27.393-30.027,47.841-30.027
			c30.407,0,55.146,26.748,55.146,59.625c0,32.877-24.739,59.625-55.146,59.625s-55.146-26.748-55.146-59.625
			c0-9.173,1.93-17.867,5.367-25.639l-16.248-8.257c-4.441,10.294-6.936,21.78-6.936,33.895
			C164.733,654.328,197.464,690.106,237.695,690.106z"/>
		<path style="fill:#FFFFFF;" d="M237.695,638.415c14.034,0,25.452-12.59,25.452-28.065c0-15.475-11.418-28.065-25.452-28.065
			s-25.452,12.59-25.452,28.065C212.244,625.825,223.661,638.415,237.695,638.415z"/>
		<path style="fill:#FFFFFF;" d="M237.695,661.491c25.729,0,46.662-22.941,46.662-51.141c0-28.199-20.932-51.142-46.662-51.142
			c-17.616,0-32.979,10.757-40.919,26.589l10.769,7.851c5.644-11.769,17.027-19.847,30.15-19.847
			c18.712,0,33.936,16.395,33.936,36.549c0,20.153-15.224,36.549-33.936,36.549s-33.936-16.396-33.936-36.549
			c0-5.686,1.247-11.052,3.407-15.856l-11.675-5.933c-2.855,6.615-4.458,13.999-4.458,21.789
			C191.034,638.549,211.966,661.491,237.695,661.491z"/>
		<path style="fill:#FFFFFF;" d="M892.354,413.65c0-63.724-47.48-115.382-106.05-115.382c-14.568,0-28.448,3.201-41.084,8.983
			l-0.001-0.003l-538.9,192.855l0.001,0.002c-24.724,8.32-45.568,26.223-58.902,49.708l20.551,14.982
			c14.281-25.562,40.192-42.686,69.727-42.686c44.91,0,81.446,39.584,81.446,88.24c0,48.655-36.537,88.24-81.446,88.24
			s-81.446-39.585-81.446-88.24c0-13.499,2.821-26.294,7.844-37.745l-22.375-11.37c-6.455,14.903-10.073,31.548-10.073,49.115
			c0,63.724,47.48,115.382,106.05,115.382c15.514,0,30.235-3.655,43.517-10.168l530.716-189.926l-0.005-0.017
			C858.112,513.152,892.354,467.76,892.354,413.65z M734.394,358.259c0.559-0.786,1.253-1.743,2.156-2.743
			c0.875-1.031,1.939-2.125,3.163-3.253c0.624-0.552,1.273-1.128,1.946-1.723c0.675-0.598,1.447-1.106,2.204-1.69
			c1.507-1.185,3.219-2.233,4.987-3.344c0.887-0.548,1.837-1.009,2.78-1.518c0.953-0.484,1.89-1.051,2.902-1.452
			c2.005-0.849,4.013-1.821,6.12-2.49c2.1-0.689,4.177-1.469,6.3-1.935c2.109-0.512,4.167-1.1,6.213-1.379
			c2.034-0.337,4.004-0.634,5.874-0.855c1.877-0.173,3.657-0.272,5.296-0.356c0.819-0.039,1.601-0.1,2.347-0.116
			c0.749,0.021,1.46,0.04,2.128,0.059c1.332,0.025,2.495,0.099,3.449,0.149c1.908,0.108,2.994,0.231,2.994,0.231
			s-1.061,0.321-2.909,0.778c-0.924,0.225-2.043,0.511-3.326,0.778c-1.286,0.26-2.724,0.608-4.281,1.015
			c-1.559,0.398-3.243,0.822-5.03,1.201c-1.76,0.482-3.617,0.99-5.537,1.515c-1.937,0.442-3.856,1.166-5.853,1.724
			c-2.003,0.55-3.964,1.303-5.952,1.981c-2.018,0.606-3.907,1.514-5.852,2.213c-1.907,0.781-3.747,1.633-5.547,2.428
			c-1.733,0.909-3.508,1.641-5.058,2.558c-1.595,0.853-3.063,1.722-4.426,2.538c-0.699,0.387-1.287,0.857-1.911,1.234
			c-0.616,0.387-1.202,0.756-1.718,1.144c-1.061,0.747-1.982,1.415-2.723,1.996c-0.723,0.592-1.33,1.045-1.697,1.389
			c-0.384,0.341-0.589,0.522-0.589,0.522S733.291,359.852,734.394,358.259z M696.234,407.56c0.559-0.786,1.253-1.743,2.156-2.743
			c0.875-1.031,1.939-2.125,3.163-3.253c0.624-0.552,1.273-1.128,1.946-1.723c0.675-0.598,1.447-1.106,2.204-1.69
			c1.507-1.185,3.219-2.233,4.987-3.344c0.887-0.548,1.837-1.009,2.78-1.518c0.953-0.484,1.89-1.051,2.902-1.453
			c2.005-0.849,4.013-1.821,6.12-2.49c2.1-0.689,4.176-1.469,6.3-1.935c2.109-0.512,4.167-1.1,6.213-1.379
			c2.034-0.337,4.004-0.634,5.874-0.855c1.877-0.173,3.657-0.272,5.296-0.356c0.819-0.039,1.6-0.1,2.347-0.116
			c0.749,0.021,1.46,0.04,2.128,0.059c1.332,0.025,2.495,0.099,3.449,0.15c1.909,0.108,2.994,0.231,2.994,0.231
			s-1.061,0.322-2.909,0.778c-0.925,0.225-2.043,0.511-3.326,0.778c-1.286,0.26-2.724,0.608-4.281,1.015
			c-1.559,0.398-3.243,0.822-5.03,1.201c-1.76,0.482-3.616,0.99-5.537,1.515c-1.937,0.442-3.856,1.166-5.853,1.724
			c-2.003,0.55-3.964,1.303-5.952,1.981c-2.018,0.606-3.907,1.514-5.852,2.213c-1.907,0.781-3.747,1.633-5.547,2.428
			c-1.733,0.909-3.508,1.641-5.058,2.558c-1.595,0.853-3.063,1.722-4.426,2.538c-0.699,0.387-1.287,0.857-1.911,1.234
			c-0.615,0.387-1.202,0.756-1.717,1.143c-1.061,0.747-1.982,1.415-2.723,1.996c-0.723,0.593-1.33,1.045-1.697,1.389
			c-0.384,0.341-0.589,0.522-0.589,0.522S695.131,409.154,696.234,407.56z M624.394,395.053c0.559-0.786,1.253-1.743,2.156-2.743
			c0.875-1.031,1.939-2.125,3.163-3.253c0.624-0.552,1.273-1.128,1.946-1.723c0.675-0.597,1.447-1.106,2.204-1.69
			c1.507-1.185,3.22-2.233,4.987-3.344c0.887-0.548,1.837-1.009,2.78-1.518c0.953-0.484,1.89-1.051,2.902-1.453
			c2.004-0.849,4.013-1.821,6.12-2.49c2.1-0.689,4.177-1.469,6.3-1.935c2.109-0.512,4.167-1.1,6.213-1.379
			c2.034-0.337,4.004-0.634,5.874-0.855c1.877-0.173,3.657-0.272,5.296-0.356c0.819-0.039,1.601-0.1,2.347-0.116
			c0.749,0.021,1.46,0.04,2.128,0.059c1.332,0.025,2.495,0.099,3.449,0.15c1.908,0.108,2.994,0.231,2.994,0.231
			s-1.061,0.322-2.909,0.778c-0.924,0.225-2.043,0.511-3.326,0.778c-1.286,0.26-2.724,0.609-4.281,1.015
			c-1.559,0.399-3.243,0.822-5.03,1.201c-1.76,0.482-3.617,0.99-5.537,1.515c-1.937,0.442-3.856,1.166-5.853,1.724
			c-2.003,0.55-3.964,1.303-5.952,1.981c-2.018,0.606-3.907,1.514-5.853,2.213c-1.907,0.781-3.747,1.633-5.547,2.428
			c-1.733,0.909-3.508,1.641-5.058,2.558c-1.595,0.853-3.063,1.722-4.426,2.538c-0.699,0.387-1.287,0.857-1.911,1.234
			c-0.616,0.387-1.202,0.756-1.718,1.144c-1.061,0.747-1.982,1.415-2.723,1.996c-0.723,0.592-1.33,1.045-1.697,1.389
			c-0.384,0.341-0.589,0.522-0.589,0.522S623.291,396.646,624.394,395.053z M586.234,444.354c0.559-0.786,1.253-1.743,2.156-2.743
			c0.875-1.031,1.939-2.125,3.163-3.253c0.624-0.552,1.273-1.128,1.946-1.723c0.675-0.598,1.447-1.106,2.204-1.69
			c1.507-1.185,3.22-2.233,4.987-3.344c0.887-0.548,1.837-1.009,2.78-1.518c0.953-0.484,1.89-1.051,2.902-1.453
			c2.005-0.849,4.013-1.821,6.12-2.49c2.1-0.689,4.176-1.469,6.3-1.935c2.109-0.512,4.167-1.1,6.213-1.379
			c2.034-0.337,4.004-0.634,5.874-0.855c1.877-0.173,3.657-0.272,5.296-0.356c0.819-0.039,1.601-0.1,2.347-0.116
			c0.749,0.021,1.46,0.04,2.128,0.059c1.332,0.025,2.495,0.099,3.449,0.15c1.908,0.108,2.994,0.231,2.994,0.231
			s-1.061,0.321-2.909,0.778c-0.924,0.225-2.043,0.511-3.326,0.778c-1.286,0.26-2.724,0.608-4.281,1.015
			c-1.559,0.399-3.243,0.822-5.03,1.201c-1.76,0.482-3.616,0.99-5.537,1.515c-1.937,0.442-3.856,1.166-5.853,1.724
			c-2.003,0.55-3.964,1.303-5.952,1.981c-2.018,0.606-3.907,1.514-5.852,2.213c-1.907,0.781-3.747,1.633-5.547,2.428
			c-1.733,0.909-3.508,1.641-5.058,2.558c-1.595,0.853-3.063,1.722-4.426,2.538c-0.699,0.387-1.287,0.857-1.911,1.234
			c-0.615,0.387-1.202,0.756-1.718,1.144c-1.061,0.747-1.982,1.415-2.723,1.996c-0.723,0.592-1.33,1.045-1.697,1.389
			c-0.384,0.341-0.589,0.522-0.589,0.522S585.131,445.948,586.234,444.354z M514.394,431.847c0.559-0.786,1.253-1.743,2.156-2.743
			c0.875-1.031,1.939-2.125,3.163-3.253c0.624-0.552,1.273-1.128,1.946-1.723c0.675-0.598,1.447-1.106,2.204-1.69
			c1.507-1.185,3.219-2.233,4.987-3.344c0.887-0.548,1.837-1.009,2.78-1.518c0.953-0.484,1.89-1.051,2.902-1.453
			c2.005-0.849,4.013-1.821,6.12-2.49c2.1-0.689,4.177-1.469,6.3-1.935c2.109-0.512,4.167-1.1,6.213-1.379
			c2.034-0.337,4.004-0.634,5.874-0.855c1.877-0.173,3.657-0.272,5.296-0.355c0.819-0.039,1.601-0.1,2.347-0.116
			c0.749,0.021,1.46,0.04,2.128,0.059c1.332,0.025,2.495,0.099,3.449,0.15c1.908,0.108,2.994,0.231,2.994,0.231
			s-1.061,0.322-2.909,0.778c-0.924,0.225-2.043,0.511-3.326,0.778c-1.286,0.26-2.724,0.608-4.281,1.015
			c-1.56,0.398-3.243,0.822-5.03,1.201c-1.76,0.482-3.617,0.99-5.537,1.515c-1.937,0.442-3.856,1.166-5.853,1.724
			c-2.003,0.55-3.964,1.303-5.952,1.981c-2.018,0.606-3.907,1.514-5.853,2.213c-1.907,0.781-3.747,1.633-5.547,2.428
			c-1.733,0.909-3.508,1.641-5.058,2.558c-1.595,0.853-3.063,1.722-4.426,2.538c-0.699,0.387-1.287,0.857-1.911,1.234
			c-0.616,0.387-1.202,0.756-1.718,1.143c-1.061,0.747-1.982,1.415-2.723,1.996c-0.723,0.592-1.33,1.045-1.697,1.389
			c-0.384,0.341-0.589,0.522-0.589,0.522S513.291,433.44,514.394,431.847z M476.234,481.148c0.559-0.786,1.253-1.743,2.156-2.743
			c0.875-1.031,1.939-2.125,3.163-3.253c0.624-0.552,1.273-1.128,1.946-1.723c0.675-0.597,1.447-1.106,2.204-1.69
			c1.507-1.185,3.22-2.233,4.987-3.344c0.887-0.548,1.837-1.009,2.78-1.518c0.953-0.484,1.89-1.051,2.902-1.453
			c2.005-0.849,4.013-1.821,6.12-2.49c2.1-0.689,4.176-1.469,6.3-1.935c2.109-0.512,4.167-1.1,6.213-1.379
			c2.034-0.337,4.004-0.634,5.874-0.855c1.877-0.173,3.657-0.272,5.296-0.356c0.819-0.039,1.6-0.1,2.347-0.116
			c0.749,0.021,1.46,0.04,2.128,0.059c1.332,0.025,2.495,0.099,3.449,0.15c1.909,0.108,2.994,0.231,2.994,0.231
			s-1.061,0.322-2.909,0.778c-0.924,0.225-2.043,0.511-3.326,0.778c-1.286,0.26-2.724,0.609-4.281,1.015
			c-1.56,0.399-3.243,0.822-5.03,1.201c-1.76,0.482-3.616,0.99-5.537,1.515c-1.937,0.442-3.856,1.166-5.853,1.724
			c-2.003,0.55-3.964,1.303-5.952,1.981c-2.018,0.606-3.907,1.514-5.852,2.213c-1.907,0.781-3.747,1.633-5.547,2.428
			c-1.733,0.909-3.508,1.642-5.058,2.558c-1.595,0.853-3.063,1.722-4.426,2.538c-0.699,0.387-1.287,0.857-1.911,1.234
			c-0.615,0.387-1.202,0.756-1.717,1.144c-1.061,0.747-1.982,1.415-2.723,1.996c-0.723,0.592-1.33,1.045-1.697,1.389
			c-0.384,0.341-0.589,0.522-0.589,0.522S475.131,482.742,476.234,481.148z M404.394,468.641c0.559-0.786,1.253-1.743,2.156-2.743
			c0.875-1.031,1.939-2.125,3.163-3.253c0.624-0.552,1.273-1.128,1.946-1.723c0.675-0.598,1.447-1.106,2.204-1.69
			c1.507-1.185,3.22-2.233,4.987-3.344c0.887-0.548,1.837-1.009,2.78-1.518c0.953-0.484,1.89-1.051,2.902-1.453
			c2.004-0.849,4.013-1.821,6.12-2.49c2.1-0.689,4.177-1.469,6.3-1.935c2.109-0.512,4.167-1.1,6.213-1.379
			c2.034-0.337,4.004-0.634,5.874-0.855c1.877-0.173,3.657-0.272,5.296-0.356c0.819-0.039,1.601-0.1,2.347-0.116
			c0.749,0.021,1.46,0.04,2.128,0.059c1.332,0.025,2.495,0.099,3.449,0.15c1.908,0.108,2.994,0.231,2.994,0.231
			s-1.061,0.321-2.909,0.778c-0.924,0.225-2.043,0.511-3.326,0.778c-1.286,0.26-2.724,0.608-4.281,1.015
			c-1.559,0.399-3.243,0.822-5.03,1.201c-1.76,0.482-3.617,0.99-5.537,1.515c-1.937,0.442-3.856,1.166-5.853,1.724
			c-2.003,0.55-3.964,1.303-5.952,1.981c-2.018,0.606-3.907,1.514-5.853,2.213c-1.907,0.781-3.747,1.633-5.547,2.428
			c-1.733,0.909-3.508,1.641-5.058,2.558c-1.595,0.853-3.063,1.722-4.426,2.538c-0.699,0.387-1.287,0.857-1.911,1.234
			c-0.616,0.387-1.202,0.756-1.718,1.144c-1.061,0.747-1.982,1.415-2.723,1.996c-0.723,0.592-1.33,1.045-1.697,1.389
			c-0.384,0.341-0.589,0.522-0.589,0.522S403.291,470.234,404.394,468.641z M366.234,517.943c0.559-0.786,1.253-1.743,2.156-2.743
			c0.875-1.031,1.939-2.125,3.163-3.253c0.624-0.552,1.273-1.128,1.946-1.723c0.675-0.598,1.447-1.106,2.204-1.69
			c1.507-1.185,3.219-2.233,4.987-3.344c0.887-0.548,1.837-1.009,2.78-1.518c0.953-0.484,1.89-1.051,2.902-1.453
			c2.005-0.849,4.013-1.821,6.12-2.49c2.1-0.689,4.176-1.469,6.3-1.935c2.109-0.512,4.167-1.1,6.213-1.379
			c2.034-0.337,4.004-0.634,5.874-0.855c1.877-0.173,3.657-0.272,5.296-0.356c0.819-0.039,1.6-0.1,2.347-0.116
			c0.749,0.021,1.46,0.04,2.128,0.059c1.332,0.025,2.495,0.099,3.449,0.15c1.908,0.108,2.994,0.231,2.994,0.231
			s-1.061,0.322-2.909,0.778c-0.925,0.225-2.043,0.511-3.326,0.778c-1.286,0.26-2.724,0.608-4.281,1.015
			c-1.559,0.399-3.243,0.822-5.03,1.201c-1.76,0.482-3.616,0.99-5.537,1.515c-1.937,0.442-3.856,1.166-5.853,1.724
			c-2.003,0.55-3.964,1.303-5.952,1.981c-2.018,0.606-3.907,1.514-5.853,2.213c-1.907,0.781-3.747,1.633-5.547,2.428
			c-1.733,0.909-3.508,1.641-5.058,2.558c-1.595,0.853-3.063,1.722-4.426,2.538c-0.699,0.387-1.287,0.857-1.911,1.234
			c-0.616,0.387-1.202,0.756-1.718,1.143c-1.061,0.747-1.982,1.415-2.723,1.996c-0.723,0.593-1.33,1.045-1.697,1.389
			c-0.384,0.341-0.589,0.522-0.589,0.522S365.131,519.536,366.234,517.943z M322.363,492.014c-2.018,0.606-3.907,1.514-5.853,2.213
			c-1.907,0.781-3.747,1.633-5.547,2.428c-1.733,0.909-3.508,1.641-5.058,2.558c-1.595,0.853-3.063,1.722-4.426,2.538
			c-0.699,0.387-1.287,0.857-1.911,1.234c-0.616,0.387-1.202,0.756-1.718,1.144c-1.061,0.747-1.982,1.415-2.723,1.996
			c-0.723,0.592-1.33,1.045-1.697,1.389c-0.384,0.341-0.589,0.522-0.589,0.522s0.449-1.008,1.552-2.601
			c0.559-0.786,1.253-1.743,2.156-2.743c0.875-1.031,1.939-2.125,3.163-3.253c0.624-0.552,1.273-1.128,1.946-1.723
			c0.675-0.597,1.447-1.106,2.204-1.69c1.507-1.185,3.22-2.233,4.987-3.344c0.887-0.548,1.837-1.009,2.78-1.518
			c0.953-0.484,1.89-1.051,2.902-1.453c2.004-0.849,4.013-1.821,6.12-2.49c2.1-0.689,4.177-1.469,6.3-1.935
			c2.109-0.512,4.167-1.1,6.213-1.379c2.034-0.337,4.004-0.634,5.874-0.855c1.877-0.173,3.657-0.272,5.296-0.356
			c0.819-0.039,1.601-0.1,2.347-0.116c0.749,0.021,1.46,0.04,2.128,0.059c1.332,0.025,2.495,0.099,3.449,0.15
			c1.908,0.108,2.994,0.231,2.994,0.231s-1.061,0.322-2.909,0.778c-0.924,0.225-2.043,0.511-3.326,0.778
			c-1.286,0.26-2.724,0.609-4.281,1.015c-1.559,0.399-3.243,0.822-5.03,1.201c-1.76,0.482-3.617,0.99-5.537,1.515
			c-1.937,0.442-3.856,1.166-5.853,1.724C326.312,490.583,324.35,491.336,322.363,492.014z M362.997,553.823
			c-2.018,0.607-3.907,1.514-5.853,2.213c-1.907,0.781-3.747,1.633-5.547,2.428c-1.733,0.909-3.508,1.641-5.058,2.558
			c-1.595,0.853-3.063,1.722-4.426,2.538c-0.699,0.387-1.287,0.857-1.911,1.234c-0.615,0.387-1.202,0.756-1.718,1.144
			c-1.061,0.747-1.982,1.415-2.723,1.996c-0.723,0.592-1.33,1.045-1.697,1.389c-0.384,0.341-0.589,0.522-0.589,0.522
			s0.449-1.008,1.552-2.601c0.559-0.786,1.253-1.743,2.156-2.743c0.875-1.031,1.939-2.125,3.163-3.253
			c0.624-0.552,1.273-1.128,1.946-1.723c0.675-0.597,1.447-1.106,2.204-1.69c1.507-1.185,3.219-2.233,4.987-3.344
			c0.887-0.548,1.837-1.009,2.78-1.518c0.953-0.484,1.89-1.051,2.902-1.453c2.005-0.849,4.013-1.821,6.12-2.49
			c2.1-0.689,4.176-1.469,6.3-1.935c2.109-0.512,4.167-1.1,6.213-1.379c2.034-0.337,4.004-0.634,5.874-0.855
			c1.877-0.173,3.657-0.272,5.296-0.356c0.819-0.039,1.6-0.1,2.347-0.116c0.749,0.021,1.46,0.04,2.128,0.059
			c1.332,0.025,2.495,0.099,3.449,0.15c1.908,0.108,2.994,0.231,2.994,0.231s-1.061,0.322-2.909,0.778
			c-0.924,0.225-2.043,0.511-3.326,0.778c-1.286,0.26-2.724,0.608-4.281,1.015c-1.559,0.398-3.243,0.822-5.03,1.201
			c-1.76,0.482-3.616,0.99-5.537,1.515c-1.937,0.442-3.856,1.166-5.853,1.724C366.947,552.392,364.985,553.145,362.997,553.823z
			 M433.613,607.418c-0.924,0.225-2.043,0.511-3.326,0.778c-1.286,0.26-2.723,0.608-4.281,1.015
			c-1.559,0.398-3.243,0.822-5.03,1.201c-1.76,0.482-3.616,0.99-5.537,1.515c-1.937,0.442-3.856,1.166-5.853,1.724
			c-2.003,0.55-3.964,1.303-5.952,1.981c-2.018,0.607-3.907,1.514-5.853,2.213c-1.907,0.781-3.747,1.633-5.547,2.428
			c-1.733,0.909-3.508,1.641-5.058,2.558c-1.595,0.853-3.063,1.722-4.426,2.538c-0.699,0.387-1.287,0.857-1.911,1.234
			c-0.616,0.387-1.202,0.756-1.718,1.144c-1.061,0.747-1.982,1.415-2.723,1.996c-0.723,0.592-1.33,1.045-1.697,1.389
			c-0.384,0.341-0.589,0.522-0.589,0.522s0.449-1.008,1.552-2.601c0.559-0.786,1.253-1.743,2.156-2.743
			c0.875-1.031,1.939-2.125,3.163-3.253c0.624-0.552,1.273-1.128,1.946-1.723c0.675-0.598,1.447-1.106,2.204-1.69
			c1.507-1.185,3.22-2.233,4.987-3.344c0.887-0.548,1.837-1.009,2.78-1.518c0.953-0.484,1.89-1.051,2.902-1.453
			c2.005-0.849,4.013-1.821,6.12-2.49c2.1-0.689,4.176-1.469,6.3-1.935c2.109-0.512,4.167-1.1,6.213-1.379
			c2.034-0.337,4.004-0.634,5.874-0.855c1.877-0.173,3.657-0.272,5.296-0.356c0.819-0.039,1.6-0.1,2.347-0.116
			c0.749,0.021,1.46,0.04,2.128,0.059c1.332,0.025,2.495,0.099,3.449,0.15c1.908,0.108,2.994,0.231,2.994,0.231
			S435.461,606.961,433.613,607.418z M464.818,558.116c-0.924,0.225-2.043,0.511-3.326,0.778c-1.286,0.26-2.723,0.608-4.281,1.015
			c-1.559,0.398-3.243,0.822-5.03,1.201c-1.76,0.482-3.617,0.99-5.537,1.515c-1.937,0.442-3.856,1.166-5.853,1.724
			c-2.003,0.55-3.964,1.303-5.952,1.981c-2.018,0.606-3.907,1.514-5.853,2.213c-1.907,0.781-3.747,1.633-5.547,2.428
			c-1.733,0.909-3.508,1.641-5.058,2.558c-1.595,0.853-3.063,1.722-4.426,2.538c-0.699,0.387-1.287,0.857-1.911,1.234
			c-0.616,0.387-1.202,0.756-1.718,1.143c-1.061,0.747-1.982,1.415-2.723,1.996c-0.723,0.592-1.33,1.045-1.697,1.389
			c-0.384,0.341-0.589,0.522-0.589,0.522s0.449-1.008,1.552-2.601c0.559-0.786,1.253-1.743,2.156-2.743
			c0.875-1.031,1.939-2.125,3.163-3.253c0.624-0.552,1.273-1.128,1.946-1.723c0.675-0.598,1.447-1.106,2.204-1.69
			c1.507-1.185,3.22-2.233,4.987-3.344c0.887-0.548,1.837-1.009,2.78-1.518c0.953-0.484,1.89-1.051,2.902-1.453
			c2.005-0.849,4.013-1.821,6.12-2.49c2.1-0.689,4.176-1.469,6.3-1.935c2.109-0.512,4.167-1.1,6.213-1.379
			c2.034-0.337,4.004-0.634,5.874-0.855c1.877-0.173,3.657-0.272,5.296-0.356c0.819-0.039,1.6-0.1,2.347-0.116
			c0.749,0.021,1.46,0.04,2.128,0.059c1.332,0.025,2.495,0.099,3.449,0.15c1.908,0.108,2.994,0.231,2.994,0.231
			S466.666,557.659,464.818,558.116z M472.998,517.029c-2.018,0.606-3.907,1.514-5.853,2.213c-1.907,0.781-3.747,1.633-5.547,2.428
			c-1.733,0.909-3.508,1.641-5.058,2.558c-1.595,0.853-3.063,1.722-4.426,2.538c-0.699,0.387-1.287,0.857-1.911,1.234
			c-0.615,0.387-1.202,0.756-1.717,1.144c-1.061,0.747-1.982,1.415-2.723,1.996c-0.723,0.592-1.33,1.045-1.697,1.389
			c-0.384,0.341-0.589,0.522-0.589,0.522s0.449-1.008,1.552-2.601c0.559-0.786,1.253-1.743,2.156-2.743
			c0.875-1.031,1.939-2.125,3.163-3.253c0.624-0.552,1.273-1.128,1.946-1.723c0.675-0.598,1.447-1.106,2.204-1.69
			c1.507-1.185,3.22-2.233,4.987-3.344c0.887-0.548,1.837-1.009,2.78-1.518c0.953-0.484,1.89-1.051,2.902-1.453
			c2.005-0.849,4.013-1.821,6.12-2.49c2.1-0.689,4.176-1.469,6.3-1.935c2.109-0.512,4.167-1.1,6.213-1.379
			c2.034-0.337,4.004-0.634,5.874-0.855c1.877-0.173,3.657-0.272,5.296-0.356c0.819-0.039,1.6-0.1,2.347-0.116
			c0.749,0.021,1.46,0.04,2.128,0.059c1.332,0.025,2.495,0.099,3.449,0.15c1.908,0.108,2.994,0.231,2.994,0.231
			s-1.061,0.321-2.909,0.778c-0.924,0.225-2.043,0.511-3.326,0.778c-1.286,0.26-2.724,0.608-4.281,1.015
			c-1.559,0.399-3.243,0.822-5.03,1.201c-1.76,0.482-3.616,0.99-5.537,1.515c-1.937,0.442-3.856,1.166-5.853,1.724
			C476.947,515.598,474.986,516.351,472.998,517.029z M543.613,570.624c-0.925,0.225-2.043,0.511-3.326,0.778
			c-1.286,0.26-2.723,0.608-4.281,1.015c-1.559,0.399-3.243,0.822-5.03,1.201c-1.76,0.482-3.616,0.99-5.537,1.515
			c-1.937,0.442-3.856,1.166-5.853,1.724c-2.003,0.55-3.964,1.303-5.952,1.981c-2.018,0.606-3.907,1.514-5.853,2.213
			c-1.907,0.781-3.747,1.633-5.547,2.428c-1.733,0.909-3.508,1.641-5.058,2.558c-1.595,0.853-3.063,1.722-4.426,2.538
			c-0.699,0.387-1.287,0.857-1.911,1.234c-0.616,0.387-1.202,0.756-1.718,1.144c-1.061,0.747-1.982,1.415-2.723,1.996
			c-0.723,0.592-1.33,1.045-1.697,1.389c-0.384,0.341-0.589,0.522-0.589,0.522s0.449-1.008,1.552-2.601
			c0.559-0.786,1.253-1.743,2.156-2.743c0.875-1.031,1.939-2.125,3.163-3.253c0.624-0.552,1.273-1.128,1.946-1.723
			c0.675-0.598,1.447-1.106,2.204-1.69c1.507-1.185,3.219-2.233,4.987-3.344c0.887-0.548,1.837-1.009,2.78-1.518
			c0.953-0.484,1.89-1.051,2.902-1.453c2.005-0.849,4.013-1.821,6.12-2.49c2.1-0.689,4.176-1.469,6.3-1.935
			c2.109-0.512,4.167-1.1,6.213-1.379c2.034-0.337,4.004-0.634,5.874-0.855c1.877-0.173,3.657-0.272,5.296-0.356
			c0.819-0.039,1.6-0.1,2.347-0.116c0.749,0.021,1.46,0.041,2.128,0.059c1.332,0.025,2.495,0.099,3.449,0.15
			c1.908,0.108,2.994,0.231,2.994,0.231S545.461,570.167,543.613,570.624z M574.818,521.322c-0.924,0.225-2.043,0.511-3.326,0.778
			c-1.286,0.26-2.723,0.609-4.281,1.015c-1.559,0.399-3.243,0.822-5.03,1.201c-1.76,0.482-3.617,0.99-5.537,1.515
			c-1.937,0.442-3.856,1.166-5.853,1.724c-2.003,0.55-3.964,1.303-5.952,1.981c-2.018,0.606-3.907,1.514-5.853,2.213
			c-1.907,0.781-3.747,1.633-5.547,2.428c-1.733,0.909-3.508,1.641-5.058,2.558c-1.595,0.853-3.063,1.722-4.426,2.538
			c-0.699,0.387-1.287,0.857-1.911,1.234c-0.616,0.387-1.202,0.756-1.718,1.144c-1.061,0.747-1.982,1.415-2.723,1.996
			c-0.723,0.593-1.33,1.045-1.697,1.389c-0.384,0.341-0.589,0.522-0.589,0.522s0.449-1.008,1.552-2.601
			c0.559-0.786,1.253-1.743,2.156-2.743c0.875-1.031,1.939-2.125,3.163-3.253c0.624-0.552,1.273-1.128,1.946-1.723
			c0.675-0.597,1.447-1.106,2.204-1.69c1.507-1.185,3.219-2.233,4.987-3.344c0.887-0.548,1.837-1.009,2.78-1.518
			c0.953-0.484,1.89-1.051,2.903-1.453c2.005-0.849,4.013-1.821,6.12-2.49c2.1-0.689,4.176-1.469,6.3-1.935
			c2.109-0.512,4.167-1.1,6.213-1.379c2.034-0.337,4.004-0.634,5.874-0.855c1.877-0.173,3.657-0.272,5.296-0.356
			c0.819-0.039,1.6-0.1,2.347-0.116c0.749,0.021,1.46,0.04,2.128,0.059c1.332,0.025,2.495,0.099,3.449,0.15
			c1.908,0.108,2.994,0.231,2.994,0.231S576.667,520.865,574.818,521.322z M582.998,480.235c-2.018,0.606-3.907,1.514-5.853,2.213
			c-1.907,0.781-3.747,1.633-5.547,2.428c-1.733,0.909-3.508,1.641-5.058,2.558c-1.595,0.853-3.063,1.722-4.426,2.538
			c-0.699,0.387-1.287,0.857-1.911,1.234c-0.615,0.387-1.202,0.756-1.718,1.144c-1.061,0.747-1.982,1.415-2.723,1.996
			c-0.723,0.593-1.33,1.045-1.697,1.389c-0.384,0.341-0.589,0.522-0.589,0.522s0.449-1.008,1.552-2.601
			c0.559-0.786,1.253-1.743,2.156-2.743c0.875-1.031,1.939-2.125,3.163-3.253c0.624-0.552,1.273-1.128,1.946-1.723
			c0.675-0.598,1.447-1.106,2.204-1.69c1.507-1.185,3.219-2.233,4.987-3.344c0.887-0.548,1.837-1.009,2.78-1.518
			c0.953-0.484,1.89-1.051,2.903-1.453c2.005-0.849,4.013-1.821,6.12-2.49c2.1-0.689,4.176-1.469,6.3-1.935
			c2.109-0.512,4.167-1.1,6.213-1.379c2.034-0.337,4.004-0.634,5.874-0.855c1.877-0.173,3.657-0.272,5.296-0.356
			c0.819-0.039,1.6-0.1,2.347-0.116c0.749,0.021,1.46,0.04,2.128,0.059c1.332,0.025,2.495,0.099,3.449,0.15
			c1.909,0.108,2.994,0.231,2.994,0.231s-1.061,0.322-2.909,0.778c-0.924,0.225-2.043,0.511-3.326,0.778
			c-1.286,0.26-2.724,0.608-4.281,1.015c-1.56,0.399-3.243,0.822-5.03,1.201c-1.76,0.482-3.616,0.99-5.537,1.515
			c-1.937,0.442-3.856,1.166-5.853,1.724C586.947,478.804,584.986,479.557,582.998,480.235z M653.613,533.83
			c-0.924,0.225-2.043,0.511-3.326,0.778c-1.286,0.26-2.723,0.608-4.281,1.015c-1.559,0.398-3.243,0.822-5.03,1.201
			c-1.76,0.482-3.616,0.99-5.537,1.515c-1.937,0.442-3.856,1.166-5.853,1.724c-2.003,0.55-3.964,1.303-5.952,1.981
			c-2.018,0.606-3.907,1.514-5.853,2.213c-1.907,0.781-3.747,1.633-5.547,2.428c-1.733,0.909-3.508,1.641-5.058,2.558
			c-1.595,0.853-3.063,1.722-4.426,2.538c-0.699,0.387-1.287,0.857-1.911,1.234c-0.616,0.387-1.202,0.756-1.718,1.143
			c-1.061,0.747-1.982,1.415-2.723,1.996c-0.723,0.593-1.33,1.045-1.697,1.389c-0.384,0.341-0.589,0.522-0.589,0.522
			s0.449-1.008,1.552-2.601c0.559-0.786,1.253-1.743,2.156-2.743c0.875-1.031,1.939-2.125,3.163-3.253
			c0.624-0.552,1.273-1.128,1.946-1.723c0.675-0.598,1.447-1.106,2.204-1.69c1.507-1.185,3.219-2.233,4.987-3.344
			c0.887-0.548,1.837-1.009,2.78-1.518c0.953-0.484,1.89-1.051,2.903-1.453c2.005-0.849,4.013-1.821,6.12-2.49
			c2.1-0.689,4.176-1.469,6.3-1.935c2.109-0.512,4.167-1.1,6.213-1.379c2.034-0.337,4.004-0.634,5.874-0.855
			c1.877-0.173,3.657-0.272,5.296-0.355c0.819-0.039,1.6-0.1,2.347-0.116c0.749,0.021,1.46,0.041,2.128,0.059
			c1.332,0.025,2.495,0.099,3.449,0.15c1.909,0.108,2.994,0.231,2.994,0.231S655.461,533.373,653.613,533.83z M684.819,484.528
			c-0.924,0.225-2.043,0.511-3.326,0.778c-1.286,0.26-2.723,0.608-4.281,1.015c-1.559,0.399-3.243,0.822-5.03,1.202
			c-1.76,0.482-3.617,0.99-5.537,1.515c-1.937,0.442-3.856,1.166-5.853,1.724c-2.003,0.55-3.964,1.303-5.952,1.981
			c-2.018,0.606-3.907,1.514-5.853,2.213c-1.907,0.781-3.747,1.633-5.547,2.428c-1.733,0.909-3.508,1.642-5.058,2.558
			c-1.595,0.853-3.063,1.722-4.426,2.538c-0.699,0.387-1.287,0.857-1.911,1.234c-0.616,0.387-1.202,0.756-1.718,1.144
			c-1.061,0.747-1.982,1.415-2.723,1.996c-0.723,0.592-1.33,1.045-1.697,1.389c-0.384,0.341-0.589,0.522-0.589,0.522
			s0.449-1.008,1.552-2.601c0.559-0.786,1.253-1.743,2.156-2.743c0.875-1.031,1.939-2.125,3.163-3.253
			c0.624-0.552,1.273-1.128,1.946-1.723c0.675-0.598,1.447-1.106,2.204-1.69c1.507-1.185,3.219-2.233,4.987-3.344
			c0.887-0.548,1.837-1.009,2.78-1.518c0.953-0.484,1.89-1.051,2.902-1.452c2.005-0.849,4.013-1.821,6.12-2.49
			c2.1-0.689,4.176-1.469,6.3-1.935c2.109-0.512,4.167-1.1,6.213-1.379c2.034-0.337,4.004-0.634,5.874-0.855
			c1.877-0.173,3.657-0.272,5.296-0.356c0.819-0.039,1.601-0.1,2.347-0.116c0.749,0.021,1.46,0.04,2.128,0.059
			c1.332,0.025,2.495,0.099,3.449,0.15c1.908,0.108,2.994,0.231,2.994,0.231S686.667,484.071,684.819,484.528z M692.998,443.441
			c-2.018,0.606-3.907,1.514-5.852,2.213c-1.907,0.781-3.747,1.633-5.547,2.428c-1.733,0.909-3.508,1.641-5.058,2.558
			c-1.595,0.853-3.063,1.722-4.426,2.538c-0.699,0.387-1.287,0.857-1.911,1.234c-0.615,0.387-1.202,0.756-1.718,1.144
			c-1.061,0.747-1.982,1.415-2.723,1.996c-0.723,0.592-1.33,1.045-1.697,1.389c-0.384,0.341-0.589,0.522-0.589,0.522
			s0.449-1.008,1.552-2.601c0.559-0.786,1.253-1.743,2.156-2.743c0.875-1.031,1.939-2.125,3.163-3.253
			c0.624-0.552,1.273-1.128,1.946-1.723c0.675-0.597,1.447-1.106,2.204-1.69c1.507-1.185,3.22-2.233,4.987-3.344
			c0.887-0.548,1.837-1.009,2.78-1.518c0.953-0.484,1.89-1.051,2.902-1.453c2.005-0.849,4.013-1.821,6.12-2.49
			c2.1-0.689,4.176-1.469,6.3-1.935c2.109-0.512,4.167-1.1,6.213-1.379c2.034-0.337,4.004-0.634,5.874-0.855
			c1.877-0.173,3.657-0.272,5.296-0.356c0.819-0.039,1.6-0.1,2.347-0.116c0.749,0.021,1.46,0.04,2.128,0.059
			c1.332,0.025,2.495,0.099,3.449,0.15c1.908,0.108,2.994,0.231,2.994,0.231s-1.061,0.322-2.909,0.778
			c-0.924,0.225-2.043,0.511-3.326,0.778c-1.286,0.26-2.724,0.608-4.281,1.015c-1.559,0.398-3.243,0.822-5.03,1.201
			c-1.76,0.482-3.616,0.99-5.537,1.515c-1.937,0.442-3.856,1.166-5.853,1.724C696.947,442.01,694.986,442.763,692.998,443.441z
			 M763.613,497.036c-0.924,0.225-2.043,0.511-3.326,0.778c-1.286,0.26-2.723,0.609-4.281,1.015
			c-1.559,0.399-3.243,0.822-5.03,1.201c-1.76,0.482-3.616,0.99-5.537,1.515c-1.937,0.442-3.856,1.166-5.853,1.724
			c-2.003,0.55-3.964,1.303-5.952,1.981c-2.018,0.606-3.907,1.514-5.853,2.213c-1.907,0.781-3.747,1.633-5.547,2.428
			c-1.733,0.909-3.508,1.641-5.058,2.558c-1.595,0.853-3.063,1.722-4.426,2.538c-0.699,0.387-1.287,0.857-1.911,1.234
			c-0.616,0.387-1.202,0.756-1.718,1.144c-1.061,0.747-1.982,1.415-2.723,1.996c-0.723,0.592-1.33,1.045-1.697,1.389
			c-0.384,0.341-0.589,0.522-0.589,0.522s0.449-1.008,1.552-2.601c0.559-0.786,1.253-1.743,2.156-2.743
			c0.875-1.031,1.939-2.125,3.163-3.253c0.624-0.552,1.273-1.128,1.946-1.723c0.675-0.597,1.447-1.106,2.204-1.69
			c1.507-1.185,3.219-2.233,4.987-3.344c0.887-0.548,1.837-1.009,2.78-1.518c0.953-0.484,1.89-1.051,2.902-1.453
			c2.005-0.849,4.013-1.821,6.12-2.49c2.1-0.689,4.176-1.469,6.3-1.935c2.109-0.512,4.167-1.1,6.213-1.379
			c2.034-0.337,4.004-0.634,5.874-0.855c1.877-0.173,3.657-0.272,5.296-0.356c0.819-0.039,1.601-0.1,2.347-0.116
			c0.749,0.021,1.46,0.04,2.128,0.059c1.332,0.025,2.495,0.099,3.449,0.15c1.908,0.108,2.994,0.231,2.994,0.231
			S765.462,496.579,763.613,497.036z M794.819,447.734c-0.924,0.225-2.043,0.511-3.326,0.778c-1.286,0.26-2.723,0.608-4.281,1.015
			c-1.559,0.399-3.243,0.822-5.03,1.201c-1.76,0.482-3.617,0.99-5.537,1.515c-1.937,0.442-3.856,1.166-5.853,1.724
			c-2.003,0.55-3.964,1.303-5.952,1.981c-2.018,0.606-3.907,1.514-5.853,2.213c-1.907,0.781-3.747,1.633-5.547,2.428
			c-1.733,0.909-3.508,1.641-5.058,2.558c-1.595,0.853-3.063,1.722-4.426,2.538c-0.699,0.387-1.287,0.857-1.911,1.234
			c-0.616,0.387-1.202,0.756-1.718,1.144c-1.061,0.747-1.982,1.415-2.723,1.996c-0.723,0.592-1.33,1.045-1.697,1.389
			c-0.384,0.341-0.589,0.522-0.589,0.522s0.449-1.008,1.552-2.601c0.559-0.786,1.253-1.743,2.156-2.743
			c0.875-1.031,1.939-2.125,3.163-3.253c0.624-0.552,1.273-1.128,1.946-1.723c0.675-0.598,1.447-1.106,2.204-1.69
			c1.507-1.185,3.219-2.233,4.987-3.344c0.887-0.548,1.837-1.009,2.78-1.518c0.953-0.484,1.89-1.051,2.902-1.453
			c2.005-0.849,4.013-1.821,6.12-2.49c2.1-0.689,4.176-1.469,6.3-1.935c2.109-0.512,4.167-1.1,6.213-1.379
			c2.034-0.337,4.004-0.634,5.874-0.855c1.877-0.173,3.657-0.272,5.296-0.356c0.819-0.039,1.6-0.1,2.347-0.116
			c0.749,0.021,1.46,0.04,2.128,0.059c1.332,0.025,2.495,0.099,3.449,0.15c1.908,0.108,2.994,0.231,2.994,0.231
			S796.667,447.277,794.819,447.734z M808.951,404.666c-2.003,0.55-3.964,1.303-5.952,1.981c-2.018,0.606-3.907,1.514-5.852,2.213
			c-1.907,0.781-3.747,1.633-5.547,2.428c-1.733,0.909-3.508,1.641-5.058,2.558c-1.595,0.853-3.063,1.722-4.426,2.538
			c-0.699,0.387-1.287,0.857-1.911,1.234c-0.615,0.387-1.202,0.756-1.717,1.144c-1.061,0.747-1.982,1.415-2.723,1.996
			c-0.723,0.592-1.33,1.045-1.697,1.389c-0.384,0.341-0.589,0.522-0.589,0.522s0.449-1.008,1.552-2.601
			c0.559-0.786,1.253-1.743,2.156-2.743c0.875-1.031,1.939-2.125,3.163-3.253c0.624-0.552,1.273-1.128,1.946-1.723
			c0.675-0.598,1.447-1.106,2.204-1.69c1.507-1.185,3.219-2.233,4.987-3.344c0.887-0.548,1.837-1.009,2.78-1.518
			c0.953-0.484,1.89-1.051,2.902-1.453c2.005-0.849,4.013-1.821,6.12-2.49c2.1-0.689,4.176-1.469,6.3-1.935
			c2.109-0.512,4.167-1.1,6.213-1.379c2.034-0.337,4.004-0.634,5.874-0.855c1.877-0.173,3.657-0.272,5.296-0.356
			c0.819-0.039,1.6-0.1,2.347-0.116c0.749,0.021,1.46,0.04,2.128,0.059c1.332,0.025,2.495,0.099,3.449,0.15
			c1.908,0.108,2.994,0.231,2.994,0.231s-1.061,0.321-2.909,0.778c-0.925,0.225-2.043,0.511-3.326,0.778
			c-1.286,0.26-2.723,0.608-4.281,1.015c-1.559,0.399-3.243,0.822-5.03,1.201c-1.76,0.482-3.616,0.99-5.537,1.515
			C812.867,403.384,810.948,404.109,808.951,404.666z M849.586,466.475c-2.003,0.55-3.964,1.303-5.952,1.981
			c-2.018,0.606-3.907,1.514-5.852,2.213c-1.907,0.781-3.747,1.633-5.547,2.428c-1.733,0.909-3.508,1.642-5.058,2.558
			c-1.595,0.853-3.063,1.722-4.426,2.538c-0.699,0.387-1.287,0.857-1.911,1.234c-0.616,0.387-1.202,0.756-1.718,1.144
			c-1.061,0.747-1.982,1.415-2.723,1.996c-0.723,0.592-1.33,1.045-1.697,1.389c-0.384,0.341-0.589,0.522-0.589,0.522
			s0.449-1.008,1.552-2.601c0.559-0.786,1.253-1.743,2.156-2.743c0.875-1.031,1.939-2.125,3.163-3.253
			c0.624-0.552,1.273-1.128,1.946-1.723c0.675-0.598,1.447-1.106,2.204-1.69c1.507-1.185,3.219-2.233,4.987-3.344
			c0.887-0.548,1.837-1.009,2.78-1.518c0.953-0.484,1.89-1.051,2.902-1.452c2.005-0.849,4.013-1.821,6.12-2.49
			c2.1-0.689,4.177-1.469,6.3-1.935c2.109-0.512,4.167-1.1,6.213-1.379c2.034-0.337,4.004-0.634,5.874-0.855
			c1.877-0.173,3.657-0.272,5.296-0.356c0.819-0.039,1.6-0.1,2.347-0.116c0.749,0.021,1.46,0.04,2.128,0.059
			c1.332,0.025,2.495,0.099,3.449,0.149c1.908,0.108,2.994,0.231,2.994,0.231s-1.061,0.321-2.909,0.778
			c-0.924,0.225-2.043,0.511-3.326,0.778c-1.285,0.26-2.723,0.608-4.281,1.015c-1.559,0.399-3.243,0.822-5.03,1.201
			c-1.76,0.482-3.617,0.99-5.537,1.515C853.502,465.193,851.583,465.918,849.586,466.475z"/>
	</g>
</g>
</svg>
