<?xml version="1.0" encoding="iso-8859-1"?>
<!-- Generator: Adobe Illustrator 19.1.0, SVG Export Plug-In . SVG Version: 6.00 Build 0)  -->
<svg version="1.1" xmlns="http://www.w3.org/2000/svg" xmlns:xlink="http://www.w3.org/1999/xlink" x="0px" y="0px"
	 viewBox="0 0 1024 1024" style="enable-background:new 0 0 1024 1024;" xml:space="preserve">
<g id="template">
	<g id="Hexigon">
		<g>
			<polygon style="fill:#42AA48;" points="257.289,953.174 2.577,512 257.289,70.828 766.711,70.828 1021.423,512 766.711,953.174 
							"/>
			<g>
				<path style="fill:#00A651;" d="M766.423,71.328L1020.845,512L766.423,952.673H257.577L3.155,512L257.577,71.328H766.423
					 M767,70.328H257L2,512l255,441.673h510L1022,512L767,70.328L767,70.328z"/>
			</g>
		</g>
	</g>
</g>
<g id="dbh">
	<path style="fill:#FFFFFF;" d="M754.618,269.179c-63.571-24.217-99.897-90.815-175.576-111.836
		c-75.679-21.019-180.896,7.052-196.032,43.378c-15.136,36.327-76.728,77.061-158.462,128.522
		c-81.733,51.461-120.979,106.035-29.956,278.979c60.543,115.032,51.462,193.739,169.521,219.469
		c118.06,25.732,217.957,25.732,308.772-19.676c90.815-45.407,169.521-75.68,202.82-239.146
		C909.004,405.401,818.189,293.396,754.618,269.179z M677.462,597.113l0.036-70.802H353.73l-0.036,70.802L219.932,500.5
		l133.861-96.4l-0.037,70.802h323.768l0.037-70.802l133.763,96.613L677.462,597.113z"/>
</g>
</svg>
