<?xml version="1.0" encoding="iso-8859-1"?>
<!-- Generator: Adobe Illustrator 19.1.0, SVG Export Plug-In . SVG Version: 6.00 Build 0)  -->
<svg version="1.1" xmlns="http://www.w3.org/2000/svg" xmlns:xlink="http://www.w3.org/1999/xlink" x="0px" y="0px"
	 viewBox="0 0 1024 1024" style="enable-background:new 0 0 1024 1024;" xml:space="preserve">
<g id="template">
	<g id="Hexigon">
		<g>
			<polygon style="fill:#42AA48;" points="257.289,953.174 2.577,512 257.289,70.828 766.711,70.828 1021.423,512 766.711,953.174 
							"/>
			<g>
				<path style="fill:#00A651;" d="M766.423,71.328L1020.845,512L766.423,952.673H257.577L3.155,512L257.577,71.328H766.423
					 M767,70.328H257L2,512l255,441.673h510L1022,512L767,70.328L767,70.328z"/>
			</g>
		</g>
	</g>
</g>
<g id="leafbiomass">
	<path style="fill:#FFFFFF;" d="M683.734,284.968H625.44c1.509-7.158,2.317-14.574,2.317-22.18
		c0-59.069-47.886-106.955-106.957-106.955s-106.957,47.886-106.957,106.955c0,7.606,0.807,15.021,2.317,22.18h-58.294
		L197.931,696.245h645.737L683.734,284.968z M520.8,209.811c29.259,0,52.978,23.719,52.978,52.978c0,7.93-1.791,15.425-4.913,22.18
		h-96.131c-3.122-6.755-4.913-14.25-4.913-22.18C467.822,233.53,491.541,209.811,520.8,209.811z M610.686,540.496
		c-65.724,70.654-148.702,112.553-185.672,70.654c0,0,4.929-47.65,52.58-60.795s87.907-35.327,109.267-73.942
		c0,0-47.65,23.826-107.624,32.043c-59.974,8.215-85.442,68.189-83.799,94.477c0,0-72.297-80.512,29.576-144.594
		s142.951,4.928,225.107-82.157C650.122,376.182,676.412,469.84,610.686,540.496z"/>
</g>
</svg>
