<?xml version="1.0" encoding="iso-8859-1"?>
<!-- Generator: Adobe Illustrator 19.1.0, SVG Export Plug-In . SVG Version: 6.00 Build 0)  -->
<svg version="1.1" xmlns="http://www.w3.org/2000/svg" xmlns:xlink="http://www.w3.org/1999/xlink" x="0px" y="0px"
	 viewBox="0 0 1024 1024" style="enable-background:new 0 0 1024 1024;" xml:space="preserve">
<g id="template">
	<g id="Background" style="display:none;">
		<rect style="display:inline;fill:#939598;" width="1024" height="1024"/>
	</g>
	<g id="Inner_mask" style="display:none;">
		<g style="display:inline;">
			<defs>
				<path id="SVGID_1_" d="M0,793.565C0,920.834,103.777,1024,231.793,1024l560.39-0.099c128.008,0,231.793-103.186,231.793-230.435
					V230.455C1023.975,103.186,920.198,0,792.183,0l-560.39,0.113C103.784,0.113,0,103.285,0,230.56V793.565z"/>
			</defs>
			<use xlink:href="#SVGID_1_"  style="overflow:visible;fill:#FFFFFF;"/>
			<clipPath id="SVGID_2_">
				<use xlink:href="#SVGID_1_"  style="overflow:visible;"/>
			</clipPath>
			<rect style="clip-path:url(#SVGID_2_);fill:#FFFFFF;" width="1024" height="1024"/>
		</g>
	</g>
	<g id="Hexigon">
		<g>
			<polygon style="fill:#42AA48;" points="257.289,953.174 2.577,512 257.289,70.828 766.711,70.828 1021.423,512 766.711,953.174 
							"/>
			<g>
				<path style="fill:#00A651;" d="M766.423,71.328L1020.845,512L766.423,952.673H257.577L3.155,512L257.577,71.328H766.423
					 M767,70.328H257L2,512l255,441.673h510L1022,512L767,70.328L767,70.328z"/>
			</g>
		</g>
	</g>
	<g id="Guide" style="display:none;">
		<g style="display:inline;">
			<g>
				
					<line style="opacity:0.2;fill:none;stroke:#010101;stroke-width:3;stroke-miterlimit:10;" x1="69.069" y1="1.48" x2="69.069" y2="1022.501"/>
				
					<line style="opacity:0.2;fill:none;stroke:#010101;stroke-width:3;stroke-miterlimit:10;" x1="1022.498" y1="955.334" x2="1.502" y2="955.334"/>
				
					<line style="opacity:0.2;fill:none;stroke:#010101;stroke-width:3;stroke-miterlimit:10;" x1="1022.498" y1="68.667" x2="1.502" y2="68.667"/>
				
					<line style="opacity:0.2;fill:none;stroke:#010101;stroke-width:3;stroke-miterlimit:10;" x1="1024" y1="511.997" x2="0" y2="511.997"/>
				
					<line style="opacity:0.2;fill:none;stroke:#010101;stroke-width:3;stroke-miterlimit:10;" x1="1022.498" y1="1022.501" x2="1.502" y2="1.48"/>
				
					<line style="opacity:0.2;fill:none;stroke:#010101;stroke-width:3;stroke-miterlimit:10;" x1="1022.498" y1="1.48" x2="1.502" y2="1022.501"/>
				
					<line style="opacity:0.2;fill:none;stroke:#010101;stroke-width:3;stroke-miterlimit:10;" x1="1024" y1="766.114" x2="0" y2="766.114"/>
				<line style="opacity:0.2;fill:none;stroke:#010101;stroke-width:3;stroke-miterlimit:10;" x1="1024" y1="256" x2="0" y2="256"/>
				
					<line style="opacity:0.2;fill:none;stroke:#010101;stroke-width:3;stroke-miterlimit:10;" x1="954.931" y1="1022.501" x2="954.931" y2="1.48"/>
				<line style="opacity:0.2;fill:none;stroke:#010101;stroke-width:3;stroke-miterlimit:10;" x1="512" y1="1024" x2="512" y2="0"/>
				<line style="opacity:0.2;fill:none;stroke:#010101;stroke-width:3;stroke-miterlimit:10;" x1="767" y1="1024" x2="767" y2="0"/>
				<line style="opacity:0.2;fill:none;stroke:#010101;stroke-width:3;stroke-miterlimit:10;" x1="257" y1="1024" x2="257" y2="0"/>
				<path style="opacity:0.2;fill:none;stroke:#010101;stroke-width:3;stroke-miterlimit:10;" d="M912.412,511.998
					c0,219.845-179.278,398.07-400.412,398.07s-400.412-178.224-400.412-398.07c0-219.855,179.278-398.078,400.412-398.078
					S912.412,292.143,912.412,511.998z"/>
				<path style="opacity:0.2;fill:none;stroke:#010101;stroke-width:3;stroke-miterlimit:10;" d="M954.931,511.997
					c0,244.85-198.306,443.337-442.931,443.337S69.069,756.847,69.069,511.997c0-244.862,198.306-443.33,442.931-443.33
					S954.931,267.135,954.931,511.997z"/>
			</g>
			<path style="opacity:0.2;fill:none;stroke:#010101;stroke-width:3;stroke-miterlimit:10;" d="M0,793.565
				C0,920.834,103.777,1024,231.793,1024l560.39-0.099c128.008,0,231.793-103.186,231.793-230.435V230.455
				C1023.975,103.186,920.198,0,792.183,0l-560.39,0.113C103.784,0.113,0,103.285,0,230.56V793.565z"/>
			<circle style="opacity:0.2;fill:none;stroke:#010101;stroke-width:3;stroke-miterlimit:10;" cx="512" cy="512" r="512"/>
			<polygon style="opacity:0.2;fill:none;stroke:#010101;stroke-width:3;stroke-miterlimit:10;" points="256,955.405 0,512 
				256,68.595 768,68.595 1024,512 768,955.405 			"/>
		</g>
	</g>
	<g id="Outter_mask" style="display:none;">
		<path style="display:inline;fill:#FFFFFF;" d="M0,230.56C0,103.285,103.784,0.113,231.793,0.113L792.183,0
			c128.015,0,231.793,103.186,231.793,230.455v563.011c0,127.249-103.784,230.435-231.793,230.435L231.793,1024
			C103.777,1024,0,920.834,0,793.565V230.56z M1024,0H0v1024h1024V0z"/>
	</g>
</g>
<g id="seasoning">
	<path style="fill:none;stroke:#000000;stroke-miterlimit:10;" d="M111.588-642.922"/>
	<g>
		<g>
			
				<ellipse transform="matrix(0.6985 -0.7156 0.7156 0.6985 -454.9915 426.8817)" style="fill:none;" cx="279.155" cy="753.454" rx="2.598" ry="3.589"/>
			
				<ellipse transform="matrix(-0.6985 0.7156 -0.7156 -0.6985 1092.3184 1075.0853)" style="fill:none;" cx="319.704" cy="767.628" rx="2.598" ry="3.589"/>
			
				<ellipse transform="matrix(-0.6985 0.7156 -0.7156 -0.6985 1085.3101 1092.9077)" style="fill:none;" cx="312.446" cy="775.063" rx="2.598" ry="3.589"/>
			
				<ellipse transform="matrix(0.6985 -0.7156 0.7156 0.6985 -458.427 435.6186)" style="fill:none;" cx="287.806" cy="761.9" rx="2.598" ry="3.589"/>
			
				<ellipse transform="matrix(-0.7156 -0.6985 0.6985 -0.7156 -34.183 1481.8359)" style="fill:none;" cx="284.598" cy="747.877" rx="3.589" ry="2.598"/>
			
				<ellipse transform="matrix(-0.6985 0.7156 -0.7156 -0.6985 1045.8265 1052.9451)" style="fill:none;" cx="301.122" cy="746.765" rx="2.598" ry="3.589"/>
			
				<ellipse transform="matrix(-0.6985 0.7156 -0.7156 -0.6985 1065.8069 1074.9495)" style="fill:none;" cx="306.477" cy="761.975" rx="2.598" ry="3.589"/>
			
				<ellipse transform="matrix(-0.6985 0.7156 -0.7156 -0.6985 1060.5508 1088.3163)" style="fill:none;" cx="301.033" cy="767.552" rx="2.598" ry="3.589"/>
			
				<ellipse transform="matrix(-0.7156 -0.6985 0.6985 -0.7156 -20.829 1500.4478)" style="fill:none;" cx="295.064" cy="754.464" rx="3.589" ry="2.598"/>
			
				<ellipse transform="matrix(-0.6985 0.7156 -0.7156 -0.6985 1117.4797 1086.2655)" style="fill:none;" cx="329.93" cy="778.518" rx="2.598" ry="3.589"/>
			
				<ellipse transform="matrix(0.6985 -0.7156 0.7156 0.6985 -437.8528 400.5206)" style="fill:none;" cx="256.437" cy="719.932" rx="2.598" ry="3.589"/>
			
				<ellipse transform="matrix(0.6985 -0.7156 0.7156 0.6985 -429.4164 394.2231)" style="fill:none;" cx="253.181" cy="706.77" rx="2.598" ry="3.589"/>
			
				<ellipse transform="matrix(0.6985 -0.7156 0.7156 0.6985 -430.8138 403.2885)" style="fill:none;" cx="263.241" cy="712.961" rx="2.598" ry="3.589"/>
			
				<ellipse transform="matrix(-0.6985 0.7156 -0.7156 -0.6985 1001.6036 1035.5554)" style="fill:none;" cx="282.673" cy="728.755" rx="2.598" ry="3.589"/>
			
				<ellipse transform="matrix(0.7156 0.6985 -0.6985 0.7156 597.636 10.0093)" style="fill:none;" cx="286.527" cy="738.87" rx="3.589" ry="2.598"/>
			
				<ellipse transform="matrix(0.6985 -0.7156 0.7156 0.6985 -436.89 409.0955)" style="fill:none;" cx="267.095" cy="723.077" rx="2.598" ry="3.589"/>
			
				<ellipse transform="matrix(0.6985 -0.7156 0.7156 0.6985 -448.8217 422.2148)" style="fill:none;" cx="276.7" cy="743.797" rx="2.598" ry="3.589"/>
			
				<ellipse transform="matrix(0.6985 -0.7156 0.7156 0.6985 -441.3853 419.1494)" style="fill:none;" cx="276.78" cy="733.439" rx="2.598" ry="3.589"/>
			
				<ellipse transform="matrix(0.6985 -0.7156 0.7156 0.6985 -446.6728 411.2383)" style="fill:none;" cx="264.747" cy="735.759" rx="2.598" ry="3.589"/>
			<path style="fill:#FFFFFF;" d="M334.272,561.551l-33.094,17.535c25.312,19.846,53.009,44.28,80.562,71.178
				c27.553,26.898,52.646,53.999,73.095,78.826l16.491-33.02c-18.36-21.827-41.028-46.292-67.54-72.174
				C378.952,599.652,355.445,578.754,334.272,561.551z"/>
			<path style="fill:#FFFFFF;" d="M355.738,539.641l-19.114,19.579c22.206,18.08,45.89,39.293,69.468,62.311
				c25.047,24.452,48.061,49.071,67.403,71.998l19.11-19.576c-18.335-21.784-40.953-46.189-67.397-72.004
				C400.393,577.723,376.9,556.837,355.738,539.641z"/>
			<path style="fill:#FFFFFF;" d="M296.153,581.871c-6.697,2.706-12.704,6.604-17.756,11.779
				c-28.862,29.565-25.447,98.716,19.348,142.446s114.008,45.481,142.87,15.916c5.052-5.175,8.804-11.274,11.348-18.034
				c-18.514-24.652-42.872-52.459-72.604-81.484C349.629,623.469,321.244,599.787,296.153,581.871z M307.601,703.013
				c1.419,1.385,1.756,3.34,0.754,4.366c-1.002,1.027-2.965,0.736-4.383-0.649c-1.419-1.385-1.756-3.34-0.754-4.366
				C304.22,701.338,306.183,701.628,307.601,703.013z M274.48,684.746c-1.419-1.385-1.756-3.34-0.754-4.366
				c1.002-1.027,2.964-0.736,4.383,0.649c1.419,1.385,1.756,3.34,0.754,4.366C277.86,686.421,275.898,686.131,274.48,684.746z
				 M277.736,697.908c-1.419-1.385-1.756-3.34-0.754-4.366c1.002-1.027,2.964-0.736,4.383,0.649c1.419,1.385,1.756,3.34,0.754,4.366
				C281.117,699.583,279.154,699.292,277.736,697.908z M284.54,690.937c-1.419-1.385-1.756-3.34-0.754-4.366
				c1.002-1.027,2.964-0.736,4.383,0.649c1.419,1.385,1.756,3.34,0.754,4.366C287.921,692.613,285.959,692.322,284.54,690.937z
				 M288.394,701.053c-1.419-1.385-1.756-3.34-0.754-4.366c1.002-1.026,2.964-0.736,4.383,0.649c1.419,1.385,1.756,3.34,0.754,4.366
				C291.775,702.728,289.813,702.437,288.394,701.053z M286.046,713.735c-1.419-1.385-1.756-3.34-0.754-4.366
				c1.002-1.027,2.964-0.736,4.383,0.649c1.419,1.385,1.756,3.34,0.754,4.366C289.427,715.41,287.465,715.119,286.046,713.735z
				 M298.079,711.415c-1.419-1.385-1.756-3.34-0.754-4.366c1.002-1.026,2.965-0.736,4.383,0.649c1.419,1.385,1.756,3.34,0.754,4.366
				S299.498,712.8,298.079,711.415z M297.999,721.773c-1.419-1.385-1.756-3.34-0.754-4.366c1.002-1.027,2.964-0.736,4.383,0.649
				c1.419,1.385,1.756,3.34,0.754,4.366C301.38,723.449,299.418,723.158,297.999,721.773z M307.072,712.48
				c1.002-1.027,2.965-0.736,4.383,0.649c1.419,1.385,1.756,3.34,0.754,4.366c-1.002,1.027-2.965,0.736-4.383-0.649
				C306.408,715.461,306.07,713.506,307.072,712.48z M300.453,731.43c-1.419-1.385-1.756-3.34-0.754-4.366
				c1.002-1.027,2.964-0.736,4.383,0.649c1.419,1.385,1.756,3.34,0.754,4.366S301.872,732.814,300.453,731.43z M309.105,739.876
				c-1.419-1.385-1.756-3.34-0.754-4.366s2.965-0.736,4.383,0.649c1.419,1.385,1.756,3.34,0.754,4.366
				S310.524,741.26,309.105,739.876z M354.858,752.776c1.419,1.385,1.756,3.34,0.754,4.366s-2.965,0.736-4.383-0.649
				c-1.419-1.385-1.756-3.34-0.754-4.366S353.439,751.392,354.858,752.776z M344.632,741.886c1.419,1.385,1.756,3.34,0.754,4.366
				c-1.002,1.027-2.964,0.736-4.383-0.649c-1.419-1.385-1.756-3.34-0.754-4.366C341.251,740.211,343.214,740.501,344.632,741.886z
				 M337.374,749.321c1.419,1.385,1.756,3.34,0.754,4.366s-2.964,0.736-4.383-0.649c-1.419-1.385-1.756-3.34-0.754-4.366
				S335.955,747.936,337.374,749.321z M331.405,736.234c1.419,1.385,1.756,3.34,0.754,4.366c-1.002,1.027-2.964,0.736-4.383-0.649
				c-1.419-1.385-1.756-3.34-0.754-4.366C328.024,734.559,329.986,734.849,331.405,736.234z M325.961,741.81
				c1.419,1.385,1.756,3.34,0.754,4.366c-1.002,1.027-2.964,0.736-4.383-0.649c-1.419-1.385-1.756-3.34-0.754-4.366
				C322.58,740.135,324.543,740.425,325.961,741.81z M320.746,733.089c-1.002,1.027-2.965,0.736-4.383-0.649
				c-1.419-1.385-1.756-3.34-0.754-4.366c1.002-1.027,2.964-0.736,4.383,0.649C321.411,730.108,321.749,732.063,320.746,733.089z
				 M326.05,721.023c1.419,1.385,1.756,3.34,0.754,4.366c-1.002,1.027-2.964,0.736-4.383-0.649s-1.756-3.34-0.754-4.366
				C322.669,719.348,324.631,719.638,326.05,721.023z M310.28,726.502c-1.002,1.026-2.965,0.736-4.383-0.649
				c-1.419-1.385-1.756-3.34-0.754-4.366c1.002-1.027,2.964-0.736,4.383,0.649C310.945,723.521,311.282,725.475,310.28,726.502z"/>
			<path style="fill:#FFFFFF;" d="M427.516,599.586c25.116,24.519,48.188,49.206,67.562,72.187l22.379-0.708
				c-19.653-24.241-45.162-52.262-75.804-82.175c-30.642-29.913-59.269-54.74-83.976-73.805l-0.164,21.756
				C379.874,555.015,403.748,576.383,427.516,599.586z"/>
			<path style="fill:#FFFFFF;" d="M357.908,512.352c26.847,20.204,56.453,45.882,85.752,74.483
				c29.298,28.602,55.68,57.582,76.525,83.934L867.531,333.71c0,0,1.405-28.997-75.328-103.906s-105.688-72.807-105.688-72.807
				L357.908,512.352z M774.566,245.977c70.137,68.47,68.249,95.592,68.249,95.592l-86.102,83.741
				c-50.077-4.245-125.996,0.449-208.238,14.54c-55.319,9.478-105.081,21.767-144.19,34.833l273.074-294.635
				C677.359,180.048,704.429,177.507,774.566,245.977z"/>
		</g>
		<g>
			<ellipse style="fill:#FFFFFF;" cx="262.692" cy="741.998" rx="2.041" ry="3.888"/>
			<ellipse style="fill:#FFFFFF;" cx="299.408" cy="745.886" rx="2.041" ry="3.888"/>
			
				<ellipse transform="matrix(0.9922 0.125 -0.125 0.9922 94.4467 -29.465)" style="fill:#FFFFFF;" cx="282.111" cy="738.172" rx="2.041" ry="3.888"/>
			<ellipse style="fill:#FFFFFF;" cx="260.651" cy="713.004" rx="2.041" ry="3.888"/>
			
				<ellipse transform="matrix(0.8861 0.4635 -0.4635 0.8861 401.0953 -50.0808)" style="fill:#FFFFFF;" cx="302.453" cy="791.118" rx="2.785" ry="3.848"/>
			
				<ellipse transform="matrix(0.8861 0.4635 -0.4635 0.8861 388.1678 -47.2552)" style="fill:#FFFFFF;" cx="290.24" cy="766.226" rx="2.785" ry="3.848"/>
			<ellipse style="fill:#FFFFFF;" cx="292.281" cy="820.665" rx="2.041" ry="3.888"/>
			<ellipse style="fill:#FFFFFF;" cx="319.718" cy="794.765" rx="2.041" ry="3.888"/>
			
				<ellipse transform="matrix(0.9922 0.125 -0.125 0.9922 97.7843 -26.569)" style="fill:#FFFFFF;" cx="260.693" cy="766.226" rx="2.041" ry="3.888"/>
			
				<ellipse transform="matrix(0.8861 0.4635 -0.4635 0.8861 396.1021 -37.0634)" style="fill:#FFFFFF;" cx="273.469" cy="787.467" rx="2.785" ry="3.848"/>
			
				<ellipse transform="matrix(0.9922 0.125 -0.125 0.9922 102.8658 -27.5045)" style="fill:#FFFFFF;" cx="270.691" cy="806.267" rx="2.041" ry="3.888"/>
			
				<ellipse transform="matrix(0.9583 -0.2858 0.2858 0.9583 -226.0186 123.4913)" style="fill:#FFFFFF;" cx="310.016" cy="835.983" rx="2.041" ry="3.888"/>
			
				<ellipse transform="matrix(0.8861 0.4635 -0.4635 0.8861 429.2576 -45.8984)" style="fill:#FFFFFF;" cx="308.024" cy="850.515" rx="2.785" ry="3.848"/>
			
				<ellipse transform="matrix(0.8861 0.4635 -0.4635 0.8861 405.3065 -67.6998)" style="fill:#FFFFFF;" cx="340.41" cy="790.878" rx="2.785" ry="3.848"/>
			<ellipse style="fill:#FFFFFF;" cx="333.125" cy="824.553" rx="2.041" ry="3.888"/>
			
				<ellipse transform="matrix(0.8861 0.4635 -0.4635 0.8861 412.5052 -52.4905)" style="fill:#FFFFFF;" cx="313.062" cy="813.131" rx="2.785" ry="3.848"/>
			
				<ellipse transform="matrix(0.8459 0.5334 -0.5334 0.8459 461.0509 -54.043)" style="fill:#FFFFFF;" cx="324.033" cy="770.706" rx="2.785" ry="3.848"/>
		</g>
	</g>
</g>
</svg>
