<?xml version="1.0" encoding="iso-8859-1"?>
<!-- Generator: Adobe Illustrator 19.1.0, SVG Export Plug-In . SVG Version: 6.00 Build 0)  -->
<svg version="1.1" xmlns="http://www.w3.org/2000/svg" xmlns:xlink="http://www.w3.org/1999/xlink" x="0px" y="0px"
	 viewBox="0 0 1024 1024" style="enable-background:new 0 0 1024 1024;" xml:space="preserve">
<g id="template">
	<g id="Background" style="display:none;">
		<rect style="display:inline;fill:#939598;" width="1024" height="1024"/>
	</g>
	<g id="Inner_mask" style="display:none;">
		<g style="display:inline;">
			<defs>
				<path id="SVGID_1_" d="M0,793.565C0,920.834,103.777,1024,231.793,1024l560.39-0.099c128.008,0,231.793-103.186,231.793-230.435
					V230.455C1023.975,103.186,920.198,0,792.183,0l-560.39,0.113C103.784,0.113,0,103.285,0,230.56V793.565z"/>
			</defs>
			<use xlink:href="#SVGID_1_"  style="overflow:visible;fill:#FFFFFF;"/>
			<clipPath id="SVGID_2_">
				<use xlink:href="#SVGID_1_"  style="overflow:visible;"/>
			</clipPath>
			<rect style="clip-path:url(#SVGID_2_);fill:#FFFFFF;" width="1024" height="1024"/>
		</g>
	</g>
	<g id="Hexigon">
		<g>
			<polygon style="fill:#42AA48;" points="257.289,953.174 2.577,512 257.289,70.828 766.711,70.828 1021.423,512 766.711,953.174 
							"/>
			<g>
				<path style="fill:#00A651;" d="M766.423,71.328L1020.845,512L766.423,952.673H257.577L3.155,512L257.577,71.328H766.423
					 M767,70.328H257L2,512l255,441.673h510L1022,512L767,70.328L767,70.328z"/>
			</g>
		</g>
	</g>
	<g id="Guide" style="display:none;">
		<g style="display:inline;">
			<g>
				
					<line style="opacity:0.2;fill:none;stroke:#010101;stroke-width:3;stroke-miterlimit:10;" x1="69.069" y1="1.48" x2="69.069" y2="1022.501"/>
				
					<line style="opacity:0.2;fill:none;stroke:#010101;stroke-width:3;stroke-miterlimit:10;" x1="1022.498" y1="955.334" x2="1.502" y2="955.334"/>
				
					<line style="opacity:0.2;fill:none;stroke:#010101;stroke-width:3;stroke-miterlimit:10;" x1="1022.498" y1="68.667" x2="1.502" y2="68.667"/>
				
					<line style="opacity:0.2;fill:none;stroke:#010101;stroke-width:3;stroke-miterlimit:10;" x1="1024" y1="511.997" x2="0" y2="511.997"/>
				
					<line style="opacity:0.2;fill:none;stroke:#010101;stroke-width:3;stroke-miterlimit:10;" x1="1022.498" y1="1022.501" x2="1.502" y2="1.48"/>
				
					<line style="opacity:0.2;fill:none;stroke:#010101;stroke-width:3;stroke-miterlimit:10;" x1="1022.498" y1="1.48" x2="1.502" y2="1022.501"/>
				
					<line style="opacity:0.2;fill:none;stroke:#010101;stroke-width:3;stroke-miterlimit:10;" x1="1024" y1="766.114" x2="0" y2="766.114"/>
				<line style="opacity:0.2;fill:none;stroke:#010101;stroke-width:3;stroke-miterlimit:10;" x1="1024" y1="256" x2="0" y2="256"/>
				
					<line style="opacity:0.2;fill:none;stroke:#010101;stroke-width:3;stroke-miterlimit:10;" x1="954.931" y1="1022.501" x2="954.931" y2="1.48"/>
				<line style="opacity:0.2;fill:none;stroke:#010101;stroke-width:3;stroke-miterlimit:10;" x1="512" y1="1024" x2="512" y2="0"/>
				<line style="opacity:0.2;fill:none;stroke:#010101;stroke-width:3;stroke-miterlimit:10;" x1="767" y1="1024" x2="767" y2="0"/>
				<line style="opacity:0.2;fill:none;stroke:#010101;stroke-width:3;stroke-miterlimit:10;" x1="257" y1="1024" x2="257" y2="0"/>
				<path style="opacity:0.2;fill:none;stroke:#010101;stroke-width:3;stroke-miterlimit:10;" d="M912.412,511.998
					c0,219.845-179.278,398.07-400.412,398.07s-400.412-178.224-400.412-398.07c0-219.855,179.278-398.078,400.412-398.078
					S912.412,292.143,912.412,511.998z"/>
				<path style="opacity:0.2;fill:none;stroke:#010101;stroke-width:3;stroke-miterlimit:10;" d="M954.931,511.997
					c0,244.85-198.306,443.337-442.931,443.337S69.069,756.847,69.069,511.997c0-244.862,198.306-443.33,442.931-443.33
					S954.931,267.135,954.931,511.997z"/>
			</g>
			<path style="opacity:0.2;fill:none;stroke:#010101;stroke-width:3;stroke-miterlimit:10;" d="M0,793.565
				C0,920.834,103.777,1024,231.793,1024l560.39-0.099c128.008,0,231.793-103.186,231.793-230.435V230.455
				C1023.975,103.186,920.198,0,792.183,0l-560.39,0.113C103.784,0.113,0,103.285,0,230.56V793.565z"/>
			<circle style="opacity:0.2;fill:none;stroke:#010101;stroke-width:3;stroke-miterlimit:10;" cx="512" cy="512" r="512"/>
			<polygon style="opacity:0.2;fill:none;stroke:#010101;stroke-width:3;stroke-miterlimit:10;" points="256,955.405 0,512 
				256,68.595 768,68.595 1024,512 768,955.405 			"/>
		</g>
	</g>
	<g id="Outter_mask" style="display:none;">
		<path style="display:inline;fill:#FFFFFF;" d="M0,230.56C0,103.285,103.784,0.113,231.793,0.113L792.183,0
			c128.015,0,231.793,103.186,231.793,230.455v563.011c0,127.249-103.784,230.435-231.793,230.435L231.793,1024
			C103.777,1024,0,920.834,0,793.565V230.56z M1024,0H0v1024h1024V0z"/>
	</g>
</g>
<g id="spreading">
	<g>
		<polygon style="fill:#FFFFFF;" points="564.406,617.582 778.475,617.582 832.879,583.722 778.475,549.862 564.406,549.862 
			537.916,566.346 539.801,509.421 539.79,509.145 547.378,513.871 792.409,513.871 846.812,480.007 792.409,446.148 
			547.378,446.148 537.556,452.257 535.955,411.405 561.308,427.184 682.504,427.184 736.908,393.32 682.504,359.461 
			561.308,359.461 534.571,376.104 533.125,339.193 555.115,352.883 775.381,352.883 829.784,319.019 775.381,285.16 
			555.115,285.16 531.578,299.808 529.696,251.747 562.859,272.389 640.708,272.389 695.112,238.525 640.708,204.666 
			562.859,204.666 528.683,225.936 527.103,185.702 543.702,185.702 598.106,151.842 543.702,117.979 496.81,117.979 
			442.406,151.842 496.81,185.702 499.992,185.702 499.614,195.313 454.952,167.512 420.446,167.512 366.039,201.375 
			420.446,235.238 454.952,235.238 499.127,207.742 496.665,270.573 463.724,250.072 410.639,250.072 356.235,283.932 
			410.639,317.795 463.724,317.795 495.59,297.96 493.614,348.331 464.24,330.05 268.742,330.05 214.338,363.91 268.742,397.773 
			464.24,397.773 492.36,380.27 490.443,429.16 458.047,408.997 231.591,408.997 177.188,442.857 231.591,476.716 458.047,476.716 
			489.342,457.24 487.297,509.421 487.337,510.642 465.787,497.231 319.826,497.231 265.422,531.091 319.826,564.951 
			465.787,564.951 488.663,550.716 490.486,605.828 450.31,580.82 248.619,580.82 194.216,614.68 248.619,648.543 450.31,648.543 
			491.06,623.175 493.45,695.352 461.145,675.247 352.334,675.247 297.931,709.107 352.334,742.967 461.145,742.967 494.34,722.307 
			500.42,906.021 526.674,906.021 533.572,697.636 556.666,712.009 727.392,712.009 781.799,678.146 727.392,644.286 
			556.666,644.286 534.887,657.842 536.79,600.394 		"/>
		<path style="fill:#FFFFFF;" d="M556.666,644.286h170.726l54.407,33.86l-54.407,33.863H556.666l-23.094-14.373l-6.898,208.385
			H500.42l-6.08-183.715l-33.195,20.66H352.334l-54.404-33.86l54.404-33.86h108.811l32.305,20.104l-2.39-72.176l-40.75,25.368
			H248.619l-54.404-33.863l54.404-33.86H450.31l40.176,25.008l-1.823-55.112l-22.876,14.235H319.826l-54.404-33.86l54.404-33.86
			h145.961l21.55,13.41l-0.04-1.22l2.045-52.181l-31.295,19.476H231.591l-54.404-33.86l54.404-33.86h226.455l32.396,20.163
			l1.918-48.89l-28.121,17.504H268.742l-54.404-33.863l54.404-33.86H464.24l29.374,18.281l1.976-50.372l-31.866,19.836h-53.085
			l-54.404-33.863l54.404-33.86h53.085l32.941,20.5l2.463-62.83l-44.175,27.496h-34.506l-54.407-33.863l54.407-33.863h34.506
			l44.662,27.801l0.378-9.611h-3.182l-54.404-33.86l54.404-33.863h46.892l54.404,33.863l-54.404,33.86h-16.599l1.58,40.234
			l34.176-21.27h77.85l54.404,33.86l-54.404,33.863h-77.85l-33.162-20.642l1.882,48.062l23.537-14.649h220.266l54.404,33.86
			l-54.404,33.863H555.115l-21.99-13.69l1.446,36.911l26.737-16.643h121.197l54.404,33.86l-54.404,33.863H561.308l-25.353-15.778
			l1.602,40.852l9.821-6.109h245.031l54.404,33.86l-54.404,33.863H547.378l-7.588-4.726l0.011,0.276l-1.885,56.924l26.49-16.483
			h214.069l54.404,33.86l-54.404,33.86H564.406l-27.616-17.188l-1.903,57.447L556.666,644.286z"/>
	</g>
</g>
</svg>
