<?xml version="1.0" encoding="iso-8859-1"?>
<!-- Generator: Adobe Illustrator 19.1.0, SVG Export Plug-In . SVG Version: 6.00 Build 0)  -->
<svg version="1.1" xmlns="http://www.w3.org/2000/svg" xmlns:xlink="http://www.w3.org/1999/xlink" x="0px" y="0px"
	 viewBox="0 0 1024 1024" style="enable-background:new 0 0 1024 1024;" xml:space="preserve">
<g id="template">
	<g id="Hexigon">
		<g>
			<polygon style="fill:#42AA48;" points="257.289,953.174 2.577,512 257.289,70.828 766.711,70.828 1021.423,512 766.711,953.174 
							"/>
			<g>
				<path style="fill:#00A651;" d="M766.423,71.328L1020.845,512L766.423,952.673H257.577L3.155,512L257.577,71.328H766.423
					 M767,70.328H257L2,512l255,441.673h510L1022,512L767,70.328L767,70.328z"/>
			</g>
		</g>
	</g>
</g>
<g id="crownns">
	<g>
		<polygon style="fill:#FFFFFF;" points="741.245,176.285 653.115,102.188 653.092,154.783 401.01,154.783 401.033,102.188 
			312.838,176.122 400.967,250.221 400.99,197.624 653.073,197.624 653.05,250.219 		"/>
		<path style="fill:#FFFFFF;" d="M864.08,469.026c-26.774-48.183-62.123-37.469-62.123-37.469s15.979-45.87-23.793-73.865
			c-39.773-27.993-102.411,9.135-102.411,9.135s4.782-74.977-111.292-90.432c-116.074-15.452-146.712,58.965-146.712,58.965
			S394.791,303,353.008,316.762c-41.783,13.764-42.625,52.549-42.625,52.549s-55.039-22.332-87.426,16.4
			c-32.387,38.73,16.935,77.343,16.935,77.343s-64.134,4.286-65.383,54.576c-1.249,50.292,53.182,49.737,53.182,49.737
			c-18.517,17.423-52.888,82.136,0.855,106.016c53.743,23.88,106.958-22.443,106.958-22.443s-30.792,88.769,56.454,102.491
			c37.247,5.859,61.946,0.282,78.058-8.024v39.732c0,36.059-55.394,64.261-55.394,64.261h55.394h85.137h55.394
			c0,0-55.394-22.491-55.394-64.261v-44.715c8.192,0.473,17.343,0.55,27.783,0.274c45.77-1.215,63.545-47.309,63.545-47.309
			s26.926,65.045,88.496,48.085c61.57-16.963,41.097-72.718,41.097-72.718s58.93,20.784,77.375-29.606
			c18.444-50.39-29.179-71.07-29.179-71.07S905.069,542.79,864.08,469.026z M438.068,599.14l-55.124-80.822v80.822H340.17V451.942
			h42.473l55.425,81.437v-81.437h42.874V599.14H438.068z M557.227,832.264h-2.074h-85.137h-4.255
			c11.819-12.758,21.392-28.758,21.392-47.125v-52.043c7.973-7.941,10.622-14.911,10.622-14.911
			c10.408,11.064,22.485,17.35,40.243,20.381v46.573C538.017,804.324,546.414,820.012,557.227,832.264z M560.063,561.286h-59.441
			v-31.628h59.441V561.286z M697.421,577.352c-5.221,7.966-12.518,14.007-21.889,18.124c-9.371,4.117-21.186,6.175-35.444,6.175
			c-25.035,0-42.372-4.82-52.011-14.459c-9.639-9.639-15.095-21.889-16.366-36.749l43.276-2.711
			c0.937,7.029,2.845,12.384,5.723,16.065c4.686,5.958,11.38,8.936,20.082,8.936c6.493,0,11.497-1.523,15.011-4.569
			c3.514-3.046,5.271-6.577,5.271-10.593c0-3.815-1.673-7.229-5.02-10.242s-11.112-5.857-23.295-8.535
			c-19.948-4.485-34.172-10.442-42.673-17.873c-8.568-7.43-12.852-16.902-12.852-28.415c0-7.564,2.192-14.71,6.577-21.437
			s10.978-12.015,19.78-15.864c8.802-3.849,20.868-5.773,36.197-5.773c18.81,0,33.151,3.498,43.025,10.493
			c9.873,6.995,15.747,18.124,17.622,33.386l-42.874,2.51c-1.138-6.627-3.531-11.447-7.179-14.459
			c-3.648-3.012-8.685-4.518-15.111-4.518c-5.288,0-9.271,1.121-11.949,3.364c-2.678,2.242-4.016,4.97-4.016,8.183
			c0,2.343,1.104,4.451,3.313,6.326c2.142,1.941,7.229,3.749,15.262,5.422c19.881,4.284,34.122,8.618,42.724,13.003
			c8.602,4.384,14.86,9.823,18.776,16.316s5.874,13.756,5.874,21.789C705.253,560.684,702.642,569.386,697.421,577.352z"/>
	</g>
</g>
</svg>
