<?xml version="1.0" encoding="iso-8859-1"?>
<!-- Generator: Adobe Illustrator 19.1.0, SVG Export Plug-In . SVG Version: 6.00 Build 0)  -->
<svg version="1.1" xmlns="http://www.w3.org/2000/svg" xmlns:xlink="http://www.w3.org/1999/xlink" x="0px" y="0px"
	 viewBox="0 0 1024 1024" style="enable-background:new 0 0 1024 1024;" xml:space="preserve">
<g id="template">
	<g id="Hexigon">
		<g>
			<polygon style="fill:#42AA48;" points="257.289,953.174 2.577,512 257.289,70.828 766.711,70.828 1021.423,512 766.711,953.174 
							"/>
			<g>
				<path style="fill:#00A651;" d="M766.423,71.328L1020.845,512L766.423,952.673H257.577L3.155,512L257.577,71.328H766.423
					 M767,70.328H257L2,512l255,441.673h510L1022,512L767,70.328L767,70.328z"/>
			</g>
		</g>
	</g>
</g>
<g id="achievement23_1_">
	<path style="fill:#FFFFFF;" d="M717.658,664.798c-32.845-6.069-47.839,25.347-47.839,25.347c-31.417-60.691,0-121.381,0-121.381
		s63.904-1.071,68.188-51.409c4.284-50.338-31.417-73.186-31.417-73.186c44.626-106.388-20.707-123.524-20.707-123.524
		c9.639-73.186-57.477-123.167-129.95-151.727c-72.472-28.561-100.319-2.142-141.375,11.067
		c-41.055,13.21-41.769,53.551-41.769,53.551c-18.564,6.784-28.561,17.493-38.2,33.559c-9.64,16.065-14.994,21.42-33.201,43.048
		c-18.207,21.628,0,54.771,0,54.771c-30.703,2.499-41.413,48.91-54.265,58.192c-12.853,9.281-28.204,28.56-18.345,43.555
		s42.221,9.15,42.221,9.15c1.516,11.422-3.171,18.92-9.998,26.952c-7.873,9.262,1.607,17.003,1.607,17.003
		c-6.159,10.308-4.418,20.483,0.401,22.625c4.82,2.141,5.534,8.166,5.534,8.166c-36.772,29.631-13.21,51.766-4.641,52.48
		c8.567,0.714,28.203,3.57,48.552,17.493c20.349,13.923,51.052,25.705,51.052,25.705c-8.21,46.41,23.206,48.909,11.781,104.959
		c-11.424,56.05-59.62,77.827-59.62,77.827s44.983,10.353,94.25,25.704c49.266,15.351,123.881,5.713,157.439-12.495
		c33.558-18.207,95.678-33.915,95.678-33.915s-1.428,42.126,32.844,37.486c34.272-4.641,26.418-68.188,26.418-68.188
		c23.919-19.278,18.564-59.977,18.564-59.977C745.504,703.712,750.502,670.867,717.658,664.798z"/>
</g>
</svg>
