<?xml version="1.0" encoding="iso-8859-1"?>
<!-- Generator: Adobe Illustrator 19.1.0, SVG Export Plug-In . SVG Version: 6.00 Build 0)  -->
<svg version="1.1" xmlns="http://www.w3.org/2000/svg" xmlns:xlink="http://www.w3.org/1999/xlink" x="0px" y="0px"
	 viewBox="0 0 1024 1024" style="enable-background:new 0 0 1024 1024;" xml:space="preserve">
<g id="template">
	<g id="Hexigon">
		<g>
			<polygon style="fill:#42AA48;" points="257.289,953.174 2.577,512 257.289,70.828 766.711,70.828 1021.423,512 766.711,953.174 
							"/>
			<g>
				<path style="fill:#00A651;" d="M766.423,71.328L1020.845,512L766.423,952.673H257.577L3.155,512L257.577,71.328H766.423
					 M767,70.328H257L2,512l255,441.673h510L1022,512L767,70.328L767,70.328z"/>
			</g>
		</g>
	</g>
</g>
<g id="achievement14">
	<g>
		<path style="fill:#FFFFFF;" d="M407.777,673.724c-42.484,16.422-42.127,77.828-42.127,77.828
			c11.068-30.346,52.123-24.633,71.401-22.849c19.278,1.785,36.058-12.495,34.629-30.702
			C470.253,679.793,450.26,657.302,407.777,673.724z"/>
		<path style="fill:#FFFFFF;" d="M492.388,806.886c-49.267,22.491-59.264,91.036-59.264,91.036
			c30.703-48.909,69.616-57.121,69.616-57.121s7.497,35.7,42.841,35.344s48.553,14.638,48.553,14.638s3.213-35.701-28.204-36.058
			c-31.416-0.357-36.057-27.846-36.057-27.846c56.764-74.971,7.497-198.138,7.497-198.138
			c-38.914-19.278-56.764,19.278-56.764,19.278C560.933,740.841,492.388,806.886,492.388,806.886z"/>
		<path style="fill:#FFFFFF;" d="M625.907,620.887c-51.409-6.426-49.334,34.18-45.339,41.77
			c7.141,13.565,30.345,29.631,56.05,14.637c21.939-12.798,47.519-3.75,54.543-0.823c1.205,0.502,1.864,0.823,1.864,0.823
			S677.316,627.313,625.907,620.887z"/>
	</g>
</g>
</svg>
