<?xml version="1.0" encoding="iso-8859-1"?>
<!-- Generator: Adobe Illustrator 19.1.0, SVG Export Plug-In . SVG Version: 6.00 Build 0)  -->
<svg version="1.1" xmlns="http://www.w3.org/2000/svg" xmlns:xlink="http://www.w3.org/1999/xlink" x="0px" y="0px"
	 viewBox="0 0 1024 1024" style="enable-background:new 0 0 1024 1024;" xml:space="preserve">
<g id="template">
	<g id="Hexigon">
		<g>
			<polygon style="fill:#42AA48;" points="257.289,953.174 2.577,512 257.289,70.828 766.711,70.828 1021.423,512 766.711,953.174 
							"/>
			<g>
				<path style="fill:#00A651;" d="M766.423,71.328L1020.845,512L766.423,952.673H257.577L3.155,512L257.577,71.328H766.423
					 M767,70.328H257L2,512l255,441.673h510L1022,512L767,70.328L767,70.328z"/>
			</g>
		</g>
	</g>
</g>
<g id="bugrepellent">
	<path style="fill:#FFFFFF;" d="M495.712,234.233h32.576c15.412,0,27.907-12.494,27.907-27.907v-27.812
		c0-15.412-12.494-27.907-27.907-27.907h-32.576c-15.412,0-27.907,12.494-27.907,27.907v27.812
		C467.805,221.739,480.299,234.233,495.712,234.233z"/>
	<path style="fill:#FFFFFF;" d="M512,243.814c-90.715,0-164.255,50.859-164.255,113.598h328.509
		C676.255,294.673,602.715,243.814,512,243.814z"/>
	<g>
		<path style="fill:none;" d="M509.263,572.289c-21.543,0-39.006,15.013-39.006,33.532h58.534l12.849-18.705
			C534.634,578.172,522.748,572.289,509.263,572.289z"/>
		<path style="fill:none;" d="M548.269,605.821c0-2.472-0.32-4.879-0.911-7.198l-4.945,7.198H548.269z"/>
		<path style="fill:none;" d="M509.263,743.37c24.73,0,46.557-12.384,59.651-31.279l51.436-23.325l8.62-63.218l-10.848-1.478
			l-7.804,57.223l-33.132,15.025c2.977-7.93,4.616-16.515,4.616-25.485c0-11.558-2.713-22.476-7.524-32.17l46.072-20.892
			l8.62-63.218l-10.848-1.48l-7.804,57.223l-41.673,18.899c-5.455-7.758-12.386-14.403-20.392-19.518
			c0.004,0.198,0.017,0.394,0.017,0.592h-8.911l-78.626,114.464C473.586,736.315,490.598,743.37,509.263,743.37z"/>
		<path style="fill:none;" d="M470.256,610.269c0-0.199,0.013-0.395,0.017-0.592c-7.356,4.7-13.804,10.692-19.034,17.651
			l-37.556-17.032l-7.804-57.223l-10.848,1.48l8.62,63.218l41.635,18.88c-5.458,10.183-8.562,21.817-8.562,34.181
			c0,7.87,1.27,15.44,3.588,22.536l-26.629-12.076l-7.804-57.223l-10.848,1.478l8.62,63.218l43.648,19.793
			c1.672,2.74,3.525,5.357,5.534,7.842l72.902-106.132H470.256z"/>
		<path style="fill:none;" d="M512,480.133c-87.543,0-158.763,71.221-158.763,158.764S424.457,797.66,512,797.66
			s158.763-71.22,158.763-158.763S599.543,480.133,512,480.133z M512,786.711c-28.763,0-55.628-8.267-78.36-22.536l-2.441,3.553
			l-9.32-6.265l2.482-3.613c-36.473-26.943-60.174-70.23-60.174-118.953c0-81.505,66.309-147.815,147.814-147.815
			c29.283,0,56.605,8.56,79.595,23.308l1.207-1.756l9.32,6.265l-1.314,1.913c35.811,27,59.007,69.883,59.007,118.086
			C659.814,720.402,593.505,786.711,512,786.711z"/>
		<path style="fill:#FFFFFF;" d="M347.745,365.623v507.768h328.509V365.623H347.745z M512,797.66
			c-87.543,0-158.763-71.22-158.763-158.763S424.457,480.133,512,480.133s158.763,71.221,158.763,158.764S599.543,797.66,512,797.66
			z"/>
		<path style="fill:#FFFFFF;" d="M600.807,520.811l-53.449,77.811c0.591,2.32,0.911,4.726,0.911,7.198h-5.855l-3.055,4.448h8.911
			c0-0.199-0.013-0.395-0.017-0.592c8.006,5.115,14.937,11.76,20.392,19.518l41.673-18.899l7.804-57.223l10.848,1.48l-8.62,63.218
			l-46.072,20.892c4.811,9.693,7.524,20.612,7.524,32.17c0,8.97-1.639,17.555-4.616,25.485l33.132-15.025l7.804-57.223l10.848,1.478
			l-8.62,63.218l-51.436,23.325c-13.094,18.895-34.921,31.279-59.651,31.279c-18.665,0-35.677-7.055-48.531-18.637l-27.092,39.441
			c22.732,14.27,49.597,22.536,78.36,22.536c81.505,0,147.814-66.309,147.814-147.814
			C659.814,590.695,636.619,547.811,600.807,520.811z"/>
		<path style="fill:#FFFFFF;" d="M447.299,708.559l-43.648-19.793l-8.62-63.218l10.848-1.478l7.804,57.223l26.629,12.076
			c-2.318-7.096-3.588-14.666-3.588-22.536c0-12.364,3.103-23.998,8.562-34.181l-41.635-18.88l-8.62-63.218l10.848-1.48
			l7.804,57.223l37.556,17.032c5.231-6.959,11.678-12.951,19.034-17.651c-0.004,0.198-0.017,0.394-0.017,0.592h55.479l3.055-4.448
			h-58.534c0-18.519,17.464-33.532,39.006-33.532c13.485,0,25.371,5.883,32.376,14.826l49.955-72.725
			c-22.99-14.748-50.311-23.308-79.595-23.308c-81.505,0-147.814,66.309-147.814,147.815c0,48.724,23.701,92.01,60.174,118.953
			l28.472-41.45C450.823,713.916,448.971,711.299,447.299,708.559z"/>
		<path style="fill:#FFFFFF;" d="M452.832,716.401c2.411,2.982,5.053,5.768,7.9,8.333l78.626-114.464h-13.623L452.832,716.401z"/>
		<path style="fill:#FFFFFF;" d="M528.79,605.821h13.623l4.945-7.198c-1.064-4.18-3.027-8.071-5.719-11.507L528.79,605.821z"/>
	</g>
</g>
</svg>
