<?xml version="1.0" encoding="iso-8859-1"?>
<!-- Generator: Adobe Illustrator 19.1.0, SVG Export Plug-In . SVG Version: 6.00 Build 0)  -->
<svg version="1.1" xmlns="http://www.w3.org/2000/svg" xmlns:xlink="http://www.w3.org/1999/xlink" x="0px" y="0px"
	 viewBox="0 0 1024 1024" style="enable-background:new 0 0 1024 1024;" xml:space="preserve">
<g id="template">
	<g id="Hexigon">
		<g>
			<polygon style="fill:#42AA48;" points="257.289,953.174 2.577,512 257.289,70.828 766.711,70.828 1021.423,512 766.711,953.174 
							"/>
			<g>
				<path style="fill:#00A651;" d="M766.423,71.328L1020.845,512L766.423,952.673H257.577L3.155,512L257.577,71.328H766.423
					 M767,70.328H257L2,512l255,441.673h510L1022,512L767,70.328L767,70.328z"/>
			</g>
		</g>
	</g>
</g>
<g id="whorled">
	<g>
		<path style="fill:#FFFFFF;" d="M671.672,176.914c0,0,30.07,70.89-16.264,138.865c-37.229,54.612-94.154,63.987-115.13,65.567
			l-8.946-6.098c20.286-20.102,47.965-57.658,47.965-112.923c0-17.359-2.745-32.93-7.092-46.783
			C617.108,175.446,671.672,176.914,671.672,176.914z"/>
		<path style="fill:#FFFFFF;" d="M343.713,176.914c0,0,54.563-1.468,99.465,38.627c-4.346,13.853-7.091,29.424-7.091,46.783
			c0,55.27,27.679,92.824,47.965,112.924l-8.946,6.097c-20.976-1.58-77.901-10.955-115.13-65.567
			C313.642,247.805,343.713,176.914,343.713,176.914z"/>
		<path style="fill:#FFFFFF;" d="M486.393,413.054v65.776c-11.226-17.474-27.36-34.97-50.604-48.947
			c-22.974-13.815-48.096-21.171-74.707-22.071c0.387-26.409,7.057-44.603,7.057-44.603S436.937,357.969,486.393,413.054z"/>
		<path style="fill:#FFFFFF;" d="M361.14,414.579c0-0.003-0.001-0.006-0.001-0.009c0.15,0.005,0.304,0.017,0.454,0.022
			c0.902,0.035,1.811,0.082,2.723,0.134c0.8,0.045,1.605,0.101,2.413,0.16c0.863,0.063,1.723,0.12,2.596,0.199
			c1.492,0.134,2.999,0.296,4.516,0.478c0.781,0.095,1.57,0.207,2.357,0.315c1.02,0.14,2.044,0.29,3.073,0.453
			c0.765,0.122,1.528,0.242,2.298,0.377c1.658,0.29,3.325,0.603,5.006,0.957c0.525,0.111,1.056,0.242,1.582,0.359
			c1.335,0.297,2.677,0.613,4.024,0.953c0.668,0.169,1.337,0.343,2.008,0.523c1.46,0.391,2.926,0.81,4.398,1.254
			c0.415,0.126,0.827,0.237,1.244,0.367c1.834,0.571,3.678,1.197,5.527,1.856c0.57,0.203,1.142,0.419,1.713,0.631
			c1.465,0.543,2.933,1.114,4.406,1.715c0.514,0.21,1.027,0.41,1.542,0.627c1.904,0.802,3.813,1.649,5.727,2.552
			c0.413,0.195,0.827,0.407,1.241,0.607c1.579,0.762,3.16,1.562,4.743,2.397c0.55,0.29,1.099,0.58,1.649,0.878
			c1.953,1.061,3.908,2.158,5.866,3.335c0.009,0.005,0.018,0.009,0.026,0.014c0.052,0.031,0.1,0.064,0.152,0.095
			c1.661,1.002,3.283,2.022,4.87,3.061c0.567,0.371,1.107,0.755,1.665,1.131c1.052,0.709,2.106,1.416,3.124,2.14
			c0.636,0.452,1.245,0.915,1.868,1.372c0.906,0.665,1.815,1.328,2.694,2.005c0.641,0.493,1.258,0.994,1.883,1.492
			c0.824,0.656,1.65,1.31,2.449,1.974c0.631,0.524,1.242,1.055,1.858,1.585c0.761,0.654,1.521,1.307,2.259,1.97
			c0.605,0.542,1.193,1.088,1.783,1.635c0.717,0.664,1.429,1.328,2.125,1.998c0.577,0.557,1.142,1.116,1.705,1.677
			c0.672,0.67,1.337,1.341,1.989,2.017c0.549,0.569,1.09,1.14,1.625,1.712c0.633,0.677,1.256,1.357,1.87,2.04
			c0.52,0.577,1.034,1.156,1.541,1.737c0.596,0.684,1.179,1.371,1.757,2.059c0.49,0.585,0.978,1.169,1.455,1.756
			c0.563,0.693,1.111,1.388,1.655,2.084c0.458,0.585,0.918,1.17,1.363,1.758c0.536,0.705,1.053,1.413,1.57,2.12
			c0.425,0.581,0.853,1.161,1.266,1.743c0.508,0.716,0.994,1.432,1.484,2.149c0.393,0.576,0.793,1.152,1.176,1.728
			c0.492,0.744,0.963,1.488,1.438,2.233c0.347,0.545,0.704,1.09,1.042,1.635c0.493,0.797,0.962,1.592,1.435,2.387
			c0.295,0.497,0.602,0.993,0.889,1.489c0.658,1.135,1.288,2.268,1.905,3.398c9.842,18.04,14.561,35.221,16.818,47.097
			c0.024,0.128,0.049,0.255,0.073,0.383c0.249,1.328,0.469,2.588,0.66,3.772c0.029,0.18,0.054,0.345,0.082,0.522
			c0.18,1.144,0.342,2.237,0.474,3.228c0.002,0.009,0.003,0.021,0.004,0.03l-6.782,11.278c-0.087,0.032-0.191,0.068-0.279,0.101
			c-0.59,0.217-1.207,0.441-1.858,0.671c-0.074,0.026-0.155,0.053-0.23,0.08c-0.683,0.24-1.396,0.484-2.143,0.733
			c-0.033,0.011-0.061,0.021-0.094,0.032v-0.002c-22.818,7.59-74.66,18.63-127.387-13.076
			c-70.499-42.393-72.806-119.364-72.806-119.364S321.632,413.162,361.14,414.579z"/>
		<path style="fill:#FFFFFF;" d="M486.393,641.217v65.776c-11.226-17.474-27.36-34.97-50.604-48.947
			c-22.974-13.815-48.096-21.171-74.707-22.071c0.387-26.409,7.057-44.603,7.057-44.603S436.937,586.132,486.393,641.217z"/>
		<path style="fill:#FFFFFF;" d="M365.507,774.923c-70.499-42.394-72.806-119.364-72.806-119.364s69.072-34.057,139.571,8.337
			c56.638,34.059,69.237,90.364,72.008,111.211l-6.782,11.278C477.783,793.714,422.145,808.982,365.507,774.923z"/>
		<path style="fill:#FFFFFF;" d="M522.491,869.93c0,8.17-6.618,14.799-14.799,14.799c-8.177,0-14.798-6.628-14.798-14.799v-74.754
			c2.691-0.85,5.033-1.667,6.983-2.392l2.24-0.833l1.231-2.048l6.783-11.278l1.232-2.048l-0.315-2.369
			c-1.602-12.045-6.038-33.426-18.153-56.135v-76.305v-35.733v-39.021c2.691-0.85,5.033-1.667,6.983-2.392l2.24-0.833l1.231-2.048
			l6.783-11.278l1.232-2.048l-0.315-2.369c-1.602-12.045-6.038-33.426-18.153-56.135V377.871c0-0.867,0.112-1.705,0.255-2.531
			c-19.083-17.604-50.233-55.069-50.233-112.162c0-82.264,64.774-123.906,64.774-123.906s64.781,41.642,64.781,123.906
			c0,57.092-31.152,94.557-50.234,112.161c0.143,0.826,0.255,1.665,0.255,2.532v109.581c-7.545,16.943-10.934,32.112-12.432,41.552
			l-0.374,2.362l1.181,2.079l6.5,11.445l1.18,2.078l2.218,0.888c0.54,0.216,1.131,0.445,1.727,0.674v57.503v35.733v73.848
			c-7.545,16.943-10.934,32.112-12.432,41.552l-0.374,2.362l1.181,2.079l6.5,11.445l1.18,2.078l2.218,0.888
			c0.54,0.216,1.131,0.445,1.727,0.674V869.93z"/>
		<path style="fill:#FFFFFF;" d="M655.542,761.518c-57.473,32.635-112.712,15.983-132.24,8.163l-0.811-1.428v0.001l-5.689-10.017
			c0.012-0.076,0.028-0.164,0.04-0.241c0.098-0.61,0.203-1.242,0.32-1.91c0.03-0.171,0.066-0.357,0.097-0.532
			c0.109-0.614,0.224-1.24,0.351-1.897c0.029-0.148,0.062-0.304,0.091-0.453c0.141-0.717,0.289-1.452,0.451-2.216
			c0.025-0.113,0.051-0.231,0.076-0.346c0.177-0.825,0.366-1.675,0.569-2.551c0.017-0.07,0.033-0.142,0.05-0.212
			c0.217-0.93,0.45-1.888,0.699-2.871c0.011-0.042,0.022-0.085,0.032-0.128c0.258-1.017,0.534-2.059,0.828-3.128
			c0.006-0.022,0.012-0.044,0.018-0.067c0.298-1.083,0.617-2.19,0.954-3.323c0.007-0.022,0.013-0.043,0.019-0.065
			c0.342-1.143,0.703-2.308,1.088-3.497c0.002-0.005,0.003-0.01,0.004-0.015v0c8.379-25.92,27.157-62.125,69.075-85.931
			c71.534-40.622,139.732-4.847,139.732-4.847S727.076,720.897,655.542,761.518z"/>
		<path style="fill:#FFFFFF;" d="M655.542,533.355c-57.473,32.635-112.712,15.982-132.24,8.163l-0.811-1.428v0.001l-5.689-10.017
			c0.012-0.076,0.028-0.164,0.04-0.241c0.098-0.61,0.203-1.243,0.32-1.91c0.03-0.171,0.066-0.357,0.097-0.532
			c0.109-0.614,0.224-1.24,0.351-1.897c0.029-0.147,0.062-0.304,0.091-0.453c0.141-0.717,0.289-1.452,0.451-2.216
			c0.025-0.113,0.051-0.231,0.076-0.346c0.177-0.825,0.366-1.675,0.569-2.551c0.017-0.07,0.033-0.142,0.05-0.213
			c0.217-0.93,0.45-1.887,0.699-2.871c0.011-0.042,0.022-0.085,0.032-0.128c0.258-1.017,0.534-2.059,0.828-3.128
			c0.006-0.023,0.012-0.044,0.018-0.067c0.298-1.083,0.617-2.19,0.954-3.323c0.007-0.022,0.013-0.043,0.019-0.065
			c0.342-1.143,0.703-2.308,1.088-3.497c0.002-0.005,0.003-0.01,0.004-0.015v0c8.379-25.92,27.157-62.125,69.075-85.931
			c71.534-40.622,139.732-4.847,139.732-4.847S727.076,492.734,655.542,533.355z"/>
	</g>
</g>
</svg>
