<?xml version="1.0" encoding="iso-8859-1"?>
<!-- Generator: Adobe Illustrator 19.1.0, SVG Export Plug-In . SVG Version: 6.00 Build 0)  -->
<svg version="1.1" xmlns="http://www.w3.org/2000/svg" xmlns:xlink="http://www.w3.org/1999/xlink" x="0px" y="0px"
	 viewBox="0 0 1024 1024" style="enable-background:new 0 0 1024 1024;" xml:space="preserve">
<g id="template">
	<g id="Hexigon">
		<g>
			<polygon style="fill:#42AA48;" points="257.289,953.174 2.577,512 257.289,70.828 766.711,70.828 1021.423,512 766.711,953.174 
							"/>
			<g>
				<path style="fill:#00A651;" d="M766.423,71.328L1020.845,512L766.423,952.673H257.577L3.155,512L257.577,71.328H766.423
					 M767,70.328H257L2,512l255,441.673h510L1022,512L767,70.328L767,70.328z"/>
			</g>
		</g>
	</g>
</g>
<g id="achievement26_1_">
	<g>
		<path style="fill:#FFFFFF;" d="M513.64,781.181c-21.183,0-38.395-7.971-47.357-13.141v94.539h94.249v-94.518
			C551.203,773.155,533.415,781.181,513.64,781.181z"/>
		<path style="fill:#FFFFFF;" d="M633.97,633.77c-8.274,3.125-18.052,5.482-28.759,5.482c-16.124,0-31.265-5.269-45.104-15.682
			c-8.175,7.401-24.286,18.646-46.697,18.646c-22.412,0-38.524-11.245-46.699-18.646c-13.839,10.413-28.979,15.682-45.104,15.682
			c-10.708,0-20.488-2.357-28.764-5.485c-16.434,31.343-55.49,81.973-141.516,101.587c5.121,9.38,17.141,23.393,43.263,23.393
			c15.676,0,34.407-4.924,55.677-14.634l5.765-2.629l4.204,4.736c0.201,0.224,21.926,24.054,51.894,24.054
			c15.873,0,31.599-6.673,46.748-19.835l5.242-4.554l5.539,4.184c0.168,0.126,19.027,13.976,43.749,13.976
			c22.889,0,43.87-14.074,44.079-14.216l5.456-3.707l4.991,4.318c15.149,13.162,30.876,19.835,46.749,19.835
			c30.201,0,51.685-23.813,51.898-24.054l4.205-4.738l5.765,2.632c21.266,9.708,39.996,14.632,55.676,14.634h0.013
			c26.412,0,38.322-13.992,43.343-23.372C689.489,715.78,650.412,665.124,633.97,633.77z"/>
		<path style="fill:#FFFFFF;" d="M310.367,625.08c15.714,0,34.912-6.872,57.064-20.429l5.351-3.274l4.736,4.111
			c0.176,0.151,19.667,16.628,44.318,16.628c14.287,0,27.758-5.566,40.038-16.544l6.79-6.068l5.644,7.146
			c0.125,0.153,15.123,18.431,39.331,18.431c24.206,0,39.205-18.278,39.355-18.462l5.657-7.027l6.752,5.98
			c12.279,10.978,25.751,16.544,40.038,16.544c24.863,0,44.121-16.461,44.313-16.628l4.735-4.111l5.351,3.274
			c22.148,13.555,41.348,20.427,57.066,20.429h0.004c24.01,0.002,34.67-16.847,38.942-27.12
			c-92.061-25.916-128.373-89.587-139.163-113.84c-3.875-0.905-7.824-1.926-11.867-3.104c-7.978,7.683-27.177,23.343-51.087,23.343
			c-14.446,0-27.976-5.614-40.322-16.714c-12.345,11.099-25.876,16.714-40.322,16.714c-23.906,0-43.109-15.66-51.087-23.343
			c-3.868,1.127-7.658,2.124-11.372,3c-10.732,24.173-47.016,87.991-139.21,113.944C275.688,608.22,286.352,625.08,310.367,625.08z"
			/>
		<path style="fill:#FFFFFF;" d="M462.267,318.61l7.313-3.451l3.866,7.102c0.255,0.402,8.828,13.885,39.962,13.885
			c31.134,0,39.703-13.484,40.055-14.057l3.848-6.322l6.924,2.703c18.739,7.951,35.373,11.982,49.438,11.984h0.008
			c27.344,0,39.113-15.649,43.811-25.512C590.011,284.438,536.267,183.3,513.408,127.275c-22.81,55.9-76.36,156.705-143.63,177.525
			c5.385,10.265,18.12,26.531,44.74,26.531C428.316,331.331,444.382,327.051,462.267,318.61z"/>
		<path style="fill:#FFFFFF;" d="M373.907,471.638c13.885,0,30.051-2.864,48.045-8.512l5.372-1.686l3.678,4.263
			c0.175,0.201,19.019,21.519,42.087,21.519c11.949,0,23.395-5.864,34.009-17.431l6.313-6.876l6.313,6.876
			c10.614,11.568,22.061,17.431,34.009,17.431c23.069,0,41.912-21.318,42.1-21.533l3.678-4.226l5.359,1.663
			c17.994,5.648,34.156,8.512,48.042,8.512c31.637,0,44.372-14.955,49.124-23.755c-60.324-28.539-97.558-71.782-118.834-104.815
			c-6.246-1.674-12.7-3.76-19.402-6.382c-6.795,6.817-21.53,16.596-50.117,16.596c-28.331,0-43.057-9.605-49.936-16.412
			c-7.212,3.114-14.161,5.516-20.891,7.369c-21.398,32.879-58.46,75.441-118.074,103.644
			C329.535,456.698,342.257,471.638,373.907,471.638z"/>
	</g>
</g>
</svg>
