<?xml version="1.0" encoding="iso-8859-1"?>
<!-- Generator: Adobe Illustrator 19.1.0, SVG Export Plug-In . SVG Version: 6.00 Build 0)  -->
<svg version="1.1" xmlns="http://www.w3.org/2000/svg" xmlns:xlink="http://www.w3.org/1999/xlink" x="0px" y="0px"
	 viewBox="0 0 1024 1024" style="enable-background:new 0 0 1024 1024;" xml:space="preserve">
<g id="template">
	<g id="Hexigon">
		<g>
			<polygon style="fill:#42AA48;" points="257.289,953.174 2.577,512 257.289,70.828 766.711,70.828 1021.423,512 766.711,953.174 
							"/>
			<g>
				<path style="fill:#00A651;" d="M766.423,71.328L1020.845,512L766.423,952.673H257.577L3.155,512L257.577,71.328H766.423
					 M767,70.328H257L2,512l255,441.673h510L1022,512L767,70.328L767,70.328z"/>
			</g>
		</g>
	</g>
</g>
<g id="compoundleaf">
	<g>
		<path style="fill:#FFFFFF;" d="M373.619,393.216c-102.47-58.188-200.16-6.943-200.16-6.943s6.048,110.139,108.518,168.328
			c82.331,46.749,161.454,22.894,189.427,11.693l9.311-16.394C476,520.147,455.945,439.969,373.619,393.216z"/>
		<path style="fill:#FFFFFF;" d="M511.995,485.499c-11.713,0-21.198,9.495-21.198,21.198v378.017
			c0,11.703,9.485,21.198,21.198,21.198c11.718,0,21.198-9.495,21.198-21.198V506.698
			C533.193,494.994,523.713,485.499,511.995,485.499z"/>
		<path style="fill:#FFFFFF;" d="M373.619,629.918c-102.47-58.193-200.16-6.948-200.16-6.948s6.048,110.139,108.518,168.328
			c82.331,46.749,161.454,22.894,189.427,11.698l9.311-16.394C476,756.844,455.945,676.667,373.619,629.918z"/>
		<path style="fill:#FFFFFF;" d="M511.995,118.091c0,0-92.786,59.651-92.786,177.489c0,94.671,59.815,151.7,83.366,170.491h18.851
			c23.546-18.791,83.366-75.82,83.366-170.491C604.791,177.742,511.995,118.091,511.995,118.091z"/>
		<path style="fill:#FFFFFF;" d="M552.596,566.294c27.973,11.201,107.1,35.055,189.426-11.693
			c102.47-58.188,108.518-168.328,108.518-168.328s-97.69-51.245-200.16,6.943C568.055,439.969,548.005,520.147,543.285,549.9
			L552.596,566.294z"/>
		<path style="fill:#FFFFFF;" d="M650.381,629.918c-82.326,46.749-102.375,126.926-107.096,156.684l9.311,16.394
			c27.973,11.196,107.1,35.05,189.426-11.698c102.47-58.188,108.518-168.328,108.518-168.328S752.85,571.725,650.381,629.918z"/>
	</g>
</g>
</svg>
