<?xml version="1.0" encoding="iso-8859-1"?>
<!-- Generator: Adobe Illustrator 19.1.0, SVG Export Plug-In . SVG Version: 6.00 Build 0)  -->
<svg version="1.1" xmlns="http://www.w3.org/2000/svg" xmlns:xlink="http://www.w3.org/1999/xlink" x="0px" y="0px"
	 viewBox="0 0 1024 1024" style="enable-background:new 0 0 1024 1024;" xml:space="preserve">
<g id="template">
	<g id="Background" style="display:none;">
		<rect style="display:inline;fill:#939598;" width="1024" height="1024"/>
	</g>
	<g id="Inner_mask" style="display:none;">
		<g style="display:inline;">
			<defs>
				<path id="SVGID_1_" d="M0,793.565C0,920.834,103.777,1024,231.793,1024l560.39-0.099c128.008,0,231.793-103.186,231.793-230.435
					V230.455C1023.975,103.186,920.198,0,792.183,0l-560.39,0.113C103.784,0.113,0,103.285,0,230.56V793.565z"/>
			</defs>
			<use xlink:href="#SVGID_1_"  style="overflow:visible;fill:#FFFFFF;"/>
			<clipPath id="SVGID_2_">
				<use xlink:href="#SVGID_1_"  style="overflow:visible;"/>
			</clipPath>
			<rect style="clip-path:url(#SVGID_2_);fill:#FFFFFF;" width="1024" height="1024"/>
		</g>
	</g>
	<g id="Hexigon">
		<g>
			<polygon style="fill:#42AA48;" points="257.289,953.174 2.577,512 257.289,70.828 766.711,70.828 1021.423,512 766.711,953.174 
							"/>
			<g>
				<path style="fill:#00A651;" d="M766.423,71.328L1020.845,512L766.423,952.673H257.577L3.155,512L257.577,71.328H766.423
					 M767,70.328H257L2,512l255,441.673h510L1022,512L767,70.328L767,70.328z"/>
			</g>
		</g>
	</g>
	<g id="Guide" style="display:none;">
		<g style="display:inline;">
			<g>
				
					<line style="opacity:0.2;fill:none;stroke:#010101;stroke-width:3;stroke-miterlimit:10;" x1="69.069" y1="1.48" x2="69.069" y2="1022.501"/>
				
					<line style="opacity:0.2;fill:none;stroke:#010101;stroke-width:3;stroke-miterlimit:10;" x1="1022.498" y1="955.334" x2="1.502" y2="955.334"/>
				
					<line style="opacity:0.2;fill:none;stroke:#010101;stroke-width:3;stroke-miterlimit:10;" x1="1022.498" y1="68.667" x2="1.502" y2="68.667"/>
				
					<line style="opacity:0.2;fill:none;stroke:#010101;stroke-width:3;stroke-miterlimit:10;" x1="1024" y1="511.997" x2="0" y2="511.997"/>
				
					<line style="opacity:0.2;fill:none;stroke:#010101;stroke-width:3;stroke-miterlimit:10;" x1="1022.498" y1="1022.501" x2="1.502" y2="1.48"/>
				
					<line style="opacity:0.2;fill:none;stroke:#010101;stroke-width:3;stroke-miterlimit:10;" x1="1022.498" y1="1.48" x2="1.502" y2="1022.501"/>
				
					<line style="opacity:0.2;fill:none;stroke:#010101;stroke-width:3;stroke-miterlimit:10;" x1="1024" y1="766.114" x2="0" y2="766.114"/>
				<line style="opacity:0.2;fill:none;stroke:#010101;stroke-width:3;stroke-miterlimit:10;" x1="1024" y1="256" x2="0" y2="256"/>
				
					<line style="opacity:0.2;fill:none;stroke:#010101;stroke-width:3;stroke-miterlimit:10;" x1="954.931" y1="1022.501" x2="954.931" y2="1.48"/>
				<line style="opacity:0.2;fill:none;stroke:#010101;stroke-width:3;stroke-miterlimit:10;" x1="512" y1="1024" x2="512" y2="0"/>
				<line style="opacity:0.2;fill:none;stroke:#010101;stroke-width:3;stroke-miterlimit:10;" x1="767" y1="1024" x2="767" y2="0"/>
				<line style="opacity:0.2;fill:none;stroke:#010101;stroke-width:3;stroke-miterlimit:10;" x1="257" y1="1024" x2="257" y2="0"/>
				<path style="opacity:0.2;fill:none;stroke:#010101;stroke-width:3;stroke-miterlimit:10;" d="M912.412,511.998
					c0,219.845-179.278,398.07-400.412,398.07s-400.412-178.224-400.412-398.07c0-219.855,179.278-398.078,400.412-398.078
					S912.412,292.143,912.412,511.998z"/>
				<path style="opacity:0.2;fill:none;stroke:#010101;stroke-width:3;stroke-miterlimit:10;" d="M954.931,511.997
					c0,244.85-198.306,443.337-442.931,443.337S69.069,756.847,69.069,511.997c0-244.862,198.306-443.33,442.931-443.33
					S954.931,267.135,954.931,511.997z"/>
			</g>
			<path style="opacity:0.2;fill:none;stroke:#010101;stroke-width:3;stroke-miterlimit:10;" d="M0,793.565
				C0,920.834,103.777,1024,231.793,1024l560.39-0.099c128.008,0,231.793-103.186,231.793-230.435V230.455
				C1023.975,103.186,920.198,0,792.183,0l-560.39,0.113C103.784,0.113,0,103.285,0,230.56V793.565z"/>
			<circle style="opacity:0.2;fill:none;stroke:#010101;stroke-width:3;stroke-miterlimit:10;" cx="512" cy="512" r="512"/>
			<polygon style="opacity:0.2;fill:none;stroke:#010101;stroke-width:3;stroke-miterlimit:10;" points="256,955.405 0,512 
				256,68.595 768,68.595 1024,512 768,955.405 			"/>
		</g>
	</g>
	<g id="Outter_mask" style="display:none;">
		<path style="display:inline;fill:#FFFFFF;" d="M0,230.56C0,103.285,103.784,0.113,231.793,0.113L792.183,0
			c128.015,0,231.793,103.186,231.793,230.455v563.011c0,127.249-103.784,230.435-231.793,230.435L231.793,1024
			C103.777,1024,0,920.834,0,793.565V230.56z M1024,0H0v1024h1024V0z"/>
	</g>
</g>
<g id="barrelmaking">
	<g>
		<path style="fill:#FFFFFF;" d="M648.81,177.722c-7.178,0-10.767,0-17.945,0c-22.427,0-44.853,0-67.28,0
			c-7.178,0-10.767,0-17.946,0c-22.427,0-44.853,0-67.28,0c-7.178,0-10.767,0-17.946,0c-22.427,0-44.853,0-67.28,0
			c-7.178,0-10.767,0-17.946,0c-22.426,0-44.853,0-67.279,0c-7.93,10.226-15.536,20.704-22.793,31.418
			c-6.313,9.321-9.339,14.027-15.128,23.52c-6.544,10.727-12.738,21.668-18.562,32.802c-12.239,24.076-22.843,48.447-32.044,73.84
			c-3.983,11.41-7.581,22.955-10.783,34.609c-23.946,91.661-23.947,184.512,0,276.179c3.201,11.654,6.8,23.198,10.783,34.609
			c9.201,25.393,19.804,49.764,32.044,73.84c5.824,11.134,12.019,22.075,18.562,32.803c5.79,9.492,8.815,14.198,15.128,23.52
			c7.257,10.714,14.863,21.192,22.794,31.418c22.426,0,44.853,0,67.279,0c7.178,0,10.767,0,17.946,0c22.427,0,44.853,0,67.28,0
			c7.178,0,10.767,0,17.946,0c22.427,0,44.853,0,67.28,0c7.178,0,10.767,0,17.946,0c22.427,0,44.853,0,67.28,0
			c7.178,0,10.767,0,17.945,0c22.427,0,44.853,0,67.28,0c7.93-10.226,15.536-20.704,22.793-31.418
			c6.313-9.321,9.338-14.027,15.128-23.52c6.544-10.727,12.738-21.668,18.562-32.803c12.24-24.076,22.843-48.447,32.044-73.84
			c3.983-11.41,7.581-22.955,10.783-34.609c23.947-91.667,23.946-184.517,0-276.179c-3.201-11.654-6.799-23.198-10.782-34.609
			c-9.201-25.393-19.804-49.764-32.044-73.84c-5.824-11.134-12.019-22.075-18.562-32.802c-5.79-9.492-8.815-14.199-15.128-23.52
			c-7.257-10.714-14.863-21.192-22.794-31.418C693.663,177.722,671.237,177.722,648.81,177.722z M569.347,209.14
			c1.596,9.321,2.36,14.027,3.824,23.52c-8.512,0-12.768,0-21.28,0c-0.954-9.492-1.453-14.199-2.494-23.52
			C557.377,209.14,561.367,209.14,569.347,209.14z M461.991,373.911c-3.955,92.049-3.955,184.13,0,276.179
			c-10.671,0-16.007,0-26.678,0c-6.064-92.034-6.064-184.145,0-276.179C445.984,373.911,451.32,373.911,461.991,373.911z
			 M438.039,339.302c2.26-24.672,4.942-49.266,8.099-73.84c9.165,0,13.747,0,22.912,0c-2.061,24.596-3.81,49.201-5.282,73.84
			C453.477,339.302,448.331,339.302,438.039,339.302z M463.768,684.698c1.472,24.639,3.221,49.244,5.282,73.84
			c-9.165,0-13.747,0-22.912,0c-3.158-24.574-5.839-49.168-8.099-73.84C448.331,684.698,453.477,684.698,463.768,684.698z
			 M560.232,684.698c10.292,0,15.438,0,25.73,0c-2.26,24.672-4.942,49.266-8.099,73.84c-9.165,0-13.747,0-22.912,0
			C557.011,733.942,558.76,709.337,560.232,684.698z M562.009,650.089c3.955-92.049,3.955-184.13,0-276.179
			c10.671,0,16.007,0,26.678,0c6.064,92.034,6.064,184.145,0,276.179C578.016,650.089,572.68,650.089,562.009,650.089z
			 M560.232,339.302c-1.471-24.639-3.221-49.244-5.282-73.84c9.165,0,13.747,0,22.912,0c3.158,24.574,5.84,49.168,8.099,73.84
			C575.67,339.302,570.524,339.302,560.232,339.302z M474.603,209.14c-1.041,9.321-1.539,14.027-2.494,23.52
			c-8.512,0-12.768,0-21.28,0c1.463-9.492,2.228-14.199,3.824-23.52C462.634,209.14,466.624,209.14,474.603,209.14z M359.91,209.14
			c7.98,0,11.97,0,19.95,0c-3.677,9.321-5.439,14.027-8.811,23.52c-8.512,0-12.768,0-21.28,0
			C353.65,223.167,355.678,218.461,359.91,209.14z M337.326,265.462c9.165,0,13.747,0,22.912,0
			c-7.228,24.412-13.406,48.929-18.663,73.84c-10.292,0-15.438,0-25.73,0C321.918,314.303,329.028,289.813,337.326,265.462z
			 M308.617,373.911c10.671,0,16.007,0,26.678,0c-13.958,91.933-13.958,184.246,0,276.179c-10.671,0-16.007,0-26.678,0
			C292.558,558.194,292.558,465.807,308.617,373.911z M315.845,684.698c10.292,0,15.438,0,25.73,0
			c5.257,24.911,11.435,49.428,18.663,73.84c-9.165,0-13.747,0-22.912,0C329.027,734.187,321.918,709.697,315.845,684.698z
			 M359.91,814.86c-4.232-9.321-6.26-14.027-10.141-23.52c8.512,0,12.768,0,21.28,0c3.372,9.492,5.134,14.199,8.811,23.52
			C371.88,814.86,367.89,814.86,359.91,814.86z M454.653,814.86c-1.596-9.321-2.36-14.027-3.824-23.52c8.512,0,12.768,0,21.28,0
			c0.954,9.492,1.453,14.199,2.494,23.52C466.623,814.86,462.633,814.86,454.653,814.86z M549.397,814.86
			c1.04-9.321,1.539-14.027,2.494-23.52c8.512,0,12.768,0,21.28,0c-1.463,9.492-2.228,14.199-3.824,23.52
			C561.366,814.86,557.377,814.86,549.397,814.86z M664.09,814.86c-7.98,0-11.97,0-19.95,0c3.677-9.321,5.439-14.027,8.811-23.52
			c8.512,0,12.768,0,21.28,0C670.35,800.833,668.321,805.539,664.09,814.86z M686.674,758.538c-9.165,0-13.747,0-22.912,0
			c7.228-24.412,13.406-48.93,18.663-73.84c10.292,0,15.438,0,25.73,0C702.082,709.697,694.972,734.187,686.674,758.538z
			 M715.383,650.089c-10.671,0-16.007,0-26.678,0c13.958-91.933,13.958-184.245,0-276.179c10.671,0,16.007,0,26.678,0
			C731.442,465.807,731.442,558.194,715.383,650.089z M708.155,339.302c-10.292,0-15.438,0-25.73,0
			c-5.257-24.911-11.435-49.428-18.663-73.84c9.165,0,13.747,0,22.912,0C694.973,289.813,702.082,314.303,708.155,339.302z
			 M674.231,232.66c-8.512,0-12.768,0-21.28,0c-3.372-9.492-5.134-14.199-8.811-23.52c7.98,0,11.97,0,19.95,0
			C668.322,218.461,670.35,223.167,674.231,232.66z"/>
	</g>
</g>
</svg>
