<?xml version="1.0" encoding="iso-8859-1"?>
<!-- Generator: Adobe Illustrator 19.1.0, SVG Export Plug-In . SVG Version: 6.00 Build 0)  -->
<svg version="1.1" xmlns="http://www.w3.org/2000/svg" xmlns:xlink="http://www.w3.org/1999/xlink" x="0px" y="0px"
	 viewBox="0 0 1024 1024" style="enable-background:new 0 0 1024 1024;" xml:space="preserve">
<g id="template">
	<g id="Hexigon">
		<g>
			<polygon style="fill:#42AA48;" points="257.289,953.174 2.577,512 257.289,70.828 766.711,70.828 1021.423,512 766.711,953.174 
							"/>
			<g>
				<path style="fill:#00A651;" d="M766.423,71.328L1020.845,512L766.423,952.673H257.577L3.155,512L257.577,71.328H766.423
					 M767,70.328H257L2,512l255,441.673h510L1022,512L767,70.328L767,70.328z"/>
			</g>
		</g>
	</g>
</g>
<g id="untoothedsimpleleaf">
	<path style="fill:#FFFFFF;" d="M512,114.147c0,0-166.541,108.388-166.541,322.513c0,169.823,104.692,273.064,148.038,308.539
		v164.655h37.01V745.199c43.346-35.475,148.034-138.716,148.034-308.539C678.541,222.535,512,114.147,512,114.147z M515.092,693.081
		h-6.179c-7.714-28.417-27.313-114.622-27.313-257.746c0-178.146,30.4-268.314,30.4-268.314s30.4,90.168,30.4,268.314
		C542.4,578.459,522.802,664.665,515.092,693.081z"/>
</g>
</svg>
