<?xml version="1.0" encoding="iso-8859-1"?>
<!-- Generator: Adobe Illustrator 19.1.0, SVG Export Plug-In . SVG Version: 6.00 Build 0)  -->
<svg version="1.1" xmlns="http://www.w3.org/2000/svg" xmlns:xlink="http://www.w3.org/1999/xlink" x="0px" y="0px"
	 viewBox="0 0 1024 1024" style="enable-background:new 0 0 1024 1024;" xml:space="preserve">
<g id="template">
	<g id="Background" style="display:none;">
		<rect style="display:inline;fill:#939598;" width="1024" height="1024"/>
	</g>
	<g id="Inner_mask" style="display:none;">
		<g style="display:inline;">
			<defs>
				<path id="SVGID_1_" d="M0,793.565C0,920.834,103.777,1024,231.793,1024l560.39-0.099c128.008,0,231.793-103.186,231.793-230.435
					V230.455C1023.975,103.186,920.198,0,792.183,0l-560.39,0.113C103.784,0.113,0,103.285,0,230.56V793.565z"/>
			</defs>
			<use xlink:href="#SVGID_1_"  style="overflow:visible;fill:#FFFFFF;"/>
			<clipPath id="SVGID_2_">
				<use xlink:href="#SVGID_1_"  style="overflow:visible;"/>
			</clipPath>
			<rect style="clip-path:url(#SVGID_2_);fill:#FFFFFF;" width="1024" height="1024"/>
		</g>
	</g>
	<g id="Hexigon">
		<g>
			<polygon style="fill:#42AA48;" points="257.289,953.174 2.577,512 257.289,70.828 766.711,70.828 1021.423,512 766.711,953.174 
							"/>
			<g>
				<path style="fill:#00A651;" d="M766.423,71.328L1020.845,512L766.423,952.673H257.577L3.155,512L257.577,71.328H766.423
					 M767,70.328H257L2,512l255,441.673h510L1022,512L767,70.328L767,70.328z"/>
			</g>
		</g>
	</g>
	<g id="Guide" style="display:none;">
		<g style="display:inline;">
			<g>
				
					<line style="opacity:0.2;fill:none;stroke:#010101;stroke-width:3;stroke-miterlimit:10;" x1="69.069" y1="1.48" x2="69.069" y2="1022.501"/>
				
					<line style="opacity:0.2;fill:none;stroke:#010101;stroke-width:3;stroke-miterlimit:10;" x1="1022.498" y1="955.334" x2="1.502" y2="955.334"/>
				
					<line style="opacity:0.2;fill:none;stroke:#010101;stroke-width:3;stroke-miterlimit:10;" x1="1022.498" y1="68.667" x2="1.502" y2="68.667"/>
				
					<line style="opacity:0.2;fill:none;stroke:#010101;stroke-width:3;stroke-miterlimit:10;" x1="1024" y1="511.997" x2="0" y2="511.997"/>
				
					<line style="opacity:0.2;fill:none;stroke:#010101;stroke-width:3;stroke-miterlimit:10;" x1="1022.498" y1="1022.501" x2="1.502" y2="1.48"/>
				
					<line style="opacity:0.2;fill:none;stroke:#010101;stroke-width:3;stroke-miterlimit:10;" x1="1022.498" y1="1.48" x2="1.502" y2="1022.501"/>
				
					<line style="opacity:0.2;fill:none;stroke:#010101;stroke-width:3;stroke-miterlimit:10;" x1="1024" y1="766.114" x2="0" y2="766.114"/>
				<line style="opacity:0.2;fill:none;stroke:#010101;stroke-width:3;stroke-miterlimit:10;" x1="1024" y1="256" x2="0" y2="256"/>
				
					<line style="opacity:0.2;fill:none;stroke:#010101;stroke-width:3;stroke-miterlimit:10;" x1="954.931" y1="1022.501" x2="954.931" y2="1.48"/>
				<line style="opacity:0.2;fill:none;stroke:#010101;stroke-width:3;stroke-miterlimit:10;" x1="512" y1="1024" x2="512" y2="0"/>
				<line style="opacity:0.2;fill:none;stroke:#010101;stroke-width:3;stroke-miterlimit:10;" x1="767" y1="1024" x2="767" y2="0"/>
				<line style="opacity:0.2;fill:none;stroke:#010101;stroke-width:3;stroke-miterlimit:10;" x1="257" y1="1024" x2="257" y2="0"/>
				<path style="opacity:0.2;fill:none;stroke:#010101;stroke-width:3;stroke-miterlimit:10;" d="M912.412,511.998
					c0,219.845-179.278,398.07-400.412,398.07s-400.412-178.224-400.412-398.07c0-219.855,179.278-398.078,400.412-398.078
					S912.412,292.143,912.412,511.998z"/>
				<path style="opacity:0.2;fill:none;stroke:#010101;stroke-width:3;stroke-miterlimit:10;" d="M954.931,511.997
					c0,244.85-198.306,443.337-442.931,443.337S69.069,756.847,69.069,511.997c0-244.862,198.306-443.33,442.931-443.33
					S954.931,267.135,954.931,511.997z"/>
			</g>
			<path style="opacity:0.2;fill:none;stroke:#010101;stroke-width:3;stroke-miterlimit:10;" d="M0,793.565
				C0,920.834,103.777,1024,231.793,1024l560.39-0.099c128.008,0,231.793-103.186,231.793-230.435V230.455
				C1023.975,103.186,920.198,0,792.183,0l-560.39,0.113C103.784,0.113,0,103.285,0,230.56V793.565z"/>
			<circle style="opacity:0.2;fill:none;stroke:#010101;stroke-width:3;stroke-miterlimit:10;" cx="512" cy="512" r="512"/>
			<polygon style="opacity:0.2;fill:none;stroke:#010101;stroke-width:3;stroke-miterlimit:10;" points="256,955.405 0,512 
				256,68.595 768,68.595 1024,512 768,955.405 			"/>
		</g>
	</g>
	<g id="Outter_mask" style="display:none;">
		<path style="display:inline;fill:#FFFFFF;" d="M0,230.56C0,103.285,103.784,0.113,231.793,0.113L792.183,0
			c128.015,0,231.793,103.186,231.793,230.455v563.011c0,127.249-103.784,230.435-231.793,230.435L231.793,1024
			C103.777,1024,0,920.834,0,793.565V230.56z M1024,0H0v1024h1024V0z"/>
	</g>
</g>
<g id="gasolene">
	<g>
		<path style="fill:#FFFFFF;" d="M706.299,256.799L706.299,256.799c0.433,1.184-0.176,2.494-1.36,2.927L571.422,308.54
			c-1.184,0.433-2.494-0.176-2.927-1.36l-0.88-2.406c-0.433-1.184-1.743-1.793-2.927-1.36l-27.36,10.003
			c-0.374,0.137-0.706,0.369-0.963,0.674l-47.866,56.875c-0.657,0.78-0.716,1.901-0.146,2.746l3.096,4.587
			c0.707,1.047,0.429,2.469-0.62,3.172l-117.762,78.99c-0.045,0.03-0.09,0.058-0.138,0.085c-0.956,0.548-11.787,6.906-16.809,16.437
			c-0.037,0.071-0.078,0.139-0.123,0.205L254.164,626.461c-0.71,1.041-0.442,2.461,0.599,3.172l33.534,22.877
			c1.041,0.71,2.461,0.442,3.171-0.599l101.901-149.37c1.987-2.912,4.268-4.248,4.708-4.488c0.059-0.032,0.115-0.067,0.171-0.104
			l117.855-79.052c1.045-0.701,2.459-0.424,3.163,0.619l1.19,1.763c0.701,1.039,2.109,1.318,3.154,0.625l14.487-9.617
			c0.74-0.491,1.698-0.509,2.455-0.045l45.466,27.861c3.233,1.981,7.194,2.377,10.755,1.075l18.268-6.679l157.764-57.68
			c1.184-0.433,1.793-1.743,1.36-2.927l-2.382-6.516L748.7,304.235c-0.433-1.184,0.176-2.494,1.36-2.927l0.479-0.175
			c1.184-0.433,1.793-1.743,1.36-2.927l-0.751-2.054l-17.196-47.033l-0.784-2.143c-0.433-1.184-1.743-1.793-2.927-1.36
			l-22.583,8.256C706.475,254.304,705.866,255.615,706.299,256.799z M621.756,422.227c-1.65,0.603-3.334-0.808-3.032-2.539
			c5.37-30.77,13.065-31.365,34.359-37.47c13.864-3.975,48.916-3.675,73.209-2.894c2.509,0.081,3.065,3.563,0.708,4.425
			L621.756,422.227z M725.813,310.173l22.636,61.913c0.573,1.568-0.677,3.198-2.34,3.057c-64.403-5.47-109.177,1.93-122.437,7.922
			c-8.369,3.782-10.895,19.307-11.605,30.566c-0.156,2.465-3.572,2.955-4.42,0.635l-20.388-55.765
			c-0.433-1.184,0.176-2.494,1.36-2.927l133.517-48.815c1.184-0.433,2.494,0.176,2.927,1.36L725.813,310.173z"/>
		
			<rect x="746.255" y="245.337" transform="matrix(0.9392 -0.3434 0.3434 0.9392 -46.8935 274.6921)" style="fill:#FFFFFF;" width="11.904" height="48.847"/>
		<path style="fill:#FFFFFF;" d="M290.774,698.727c0,14.912-8.284,19.5-18.503,19.5s-18.503-4.588-18.503-19.5
			s18.503-39.5,18.503-39.5S290.774,683.815,290.774,698.727z"/>
		<path style="fill:#FFFFFF;" d="M260.774,767.341c0,14.912-8.284,19.5-18.503,19.5c-10.219,0-18.503-4.588-18.503-19.5
			s18.503-39.5,18.503-39.5S260.774,752.429,260.774,767.341z"/>
		<g>
			<g>
				<path style="fill:#FFFFFF;" d="M773.555,239.885c-7.893,1.545-11.798,2.59-19.429,5.204
					c4.861,14.192,9.723,28.384,14.584,42.575c5.301-1.816,8.011-2.54,13.492-3.614C779.32,269.329,776.438,254.607,773.555,239.885
					z"/>
				<path style="fill:#FFFFFF;" d="M780.675,238.672c2.157,14.845,4.315,29.691,6.472,44.536c5.195-0.755,7.823-0.967,13.086-1.05
					c-0.238-14.999-0.476-29.999-0.714-44.998C791.939,237.279,788.155,237.585,780.675,238.672z"/>
			</g>
		</g>
	</g>
</g>
</svg>
