<?xml version="1.0" encoding="iso-8859-1"?>
<!-- Generator: Adobe Illustrator 19.1.0, SVG Export Plug-In . SVG Version: 6.00 Build 0)  -->
<svg version="1.1" xmlns="http://www.w3.org/2000/svg" xmlns:xlink="http://www.w3.org/1999/xlink" x="0px" y="0px"
	 viewBox="0 0 1024 1024" style="enable-background:new 0 0 1024 1024;" xml:space="preserve">
<g id="template">
	<g id="Hexigon">
		<g>
			<polygon style="fill:#42AA48;" points="257.289,953.174 2.577,512 257.289,70.828 766.711,70.828 1021.423,512 766.711,953.174 
							"/>
			<g>
				<path style="fill:#00A651;" d="M766.423,71.328L1020.845,512L766.423,952.673H257.577L3.155,512L257.577,71.328H766.423
					 M767,70.328H257L2,512l255,441.673h510L1022,512L767,70.328L767,70.328z"/>
			</g>
		</g>
	</g>
</g>
<g id="needleleafconifer">
	<path id="Needle_Leaf_Conifer_1_" style="fill:#FFFFFF;" d="M663.251,866.548L528.914,248.691c0,0,7.717,618.963,5.705,636.765
		c-2.68,23.673-14.666,22.014-29.858,21.515c-15.196-0.499-16.979-23.374-16.979-23.374l8.383-641.051L359.14,864.163
		l-36.902-34.167l154.384-686.953c0,0,5.979-27.689,36.362-26.691c30.387,0.998,32.337,18.805,32.337,18.805l149.482,696.938
		L663.251,866.548z"/>
</g>
</svg>
