<?xml version="1.0" encoding="iso-8859-1"?>
<!-- Generator: Adobe Illustrator 19.1.0, SVG Export Plug-In . SVG Version: 6.00 Build 0)  -->
<svg version="1.1" xmlns="http://www.w3.org/2000/svg" xmlns:xlink="http://www.w3.org/1999/xlink" x="0px" y="0px"
	 viewBox="0 0 1024 1024" style="enable-background:new 0 0 1024 1024;" xml:space="preserve">
<g id="template">
	<g id="Background" style="display:none;">
		<rect style="display:inline;fill:#939598;" width="1024" height="1024"/>
	</g>
	<g id="Inner_mask" style="display:none;">
		<g style="display:inline;">
			<defs>
				<path id="SVGID_1_" d="M0,793.565C0,920.834,103.777,1024,231.793,1024l560.39-0.099c128.008,0,231.793-103.186,231.793-230.435
					V230.455C1023.975,103.186,920.198,0,792.183,0l-560.39,0.113C103.784,0.113,0,103.285,0,230.56V793.565z"/>
			</defs>
			<use xlink:href="#SVGID_1_"  style="overflow:visible;fill:#FFFFFF;"/>
			<clipPath id="SVGID_2_">
				<use xlink:href="#SVGID_1_"  style="overflow:visible;"/>
			</clipPath>
			<rect style="clip-path:url(#SVGID_2_);fill:#FFFFFF;" width="1024" height="1024"/>
		</g>
	</g>
	<g id="Hexigon">
		<g>
			<polygon style="fill:#42AA48;" points="257.289,953.174 2.577,512 257.289,70.828 766.711,70.828 1021.423,512 766.711,953.174 
							"/>
			<g>
				<path style="fill:#00A651;" d="M766.423,71.328L1020.845,512L766.423,952.673H257.577L3.155,512L257.577,71.328H766.423
					 M767,70.328H257L2,512l255,441.673h510L1022,512L767,70.328L767,70.328z"/>
			</g>
		</g>
	</g>
	<g id="Guide" style="display:none;">
		<g style="display:inline;">
			<g>
				
					<line style="opacity:0.2;fill:none;stroke:#010101;stroke-width:3;stroke-miterlimit:10;" x1="69.069" y1="1.48" x2="69.069" y2="1022.501"/>
				
					<line style="opacity:0.2;fill:none;stroke:#010101;stroke-width:3;stroke-miterlimit:10;" x1="1022.498" y1="955.334" x2="1.502" y2="955.334"/>
				
					<line style="opacity:0.2;fill:none;stroke:#010101;stroke-width:3;stroke-miterlimit:10;" x1="1022.498" y1="68.667" x2="1.502" y2="68.667"/>
				
					<line style="opacity:0.2;fill:none;stroke:#010101;stroke-width:3;stroke-miterlimit:10;" x1="1024" y1="511.997" x2="0" y2="511.997"/>
				
					<line style="opacity:0.2;fill:none;stroke:#010101;stroke-width:3;stroke-miterlimit:10;" x1="1022.498" y1="1022.501" x2="1.502" y2="1.48"/>
				
					<line style="opacity:0.2;fill:none;stroke:#010101;stroke-width:3;stroke-miterlimit:10;" x1="1022.498" y1="1.48" x2="1.502" y2="1022.501"/>
				
					<line style="opacity:0.2;fill:none;stroke:#010101;stroke-width:3;stroke-miterlimit:10;" x1="1024" y1="766.114" x2="0" y2="766.114"/>
				<line style="opacity:0.2;fill:none;stroke:#010101;stroke-width:3;stroke-miterlimit:10;" x1="1024" y1="256" x2="0" y2="256"/>
				
					<line style="opacity:0.2;fill:none;stroke:#010101;stroke-width:3;stroke-miterlimit:10;" x1="954.931" y1="1022.501" x2="954.931" y2="1.48"/>
				<line style="opacity:0.2;fill:none;stroke:#010101;stroke-width:3;stroke-miterlimit:10;" x1="512" y1="1024" x2="512" y2="0"/>
				<line style="opacity:0.2;fill:none;stroke:#010101;stroke-width:3;stroke-miterlimit:10;" x1="767" y1="1024" x2="767" y2="0"/>
				<line style="opacity:0.2;fill:none;stroke:#010101;stroke-width:3;stroke-miterlimit:10;" x1="257" y1="1024" x2="257" y2="0"/>
				<path style="opacity:0.2;fill:none;stroke:#010101;stroke-width:3;stroke-miterlimit:10;" d="M912.412,511.998
					c0,219.845-179.278,398.07-400.412,398.07s-400.412-178.224-400.412-398.07c0-219.855,179.278-398.078,400.412-398.078
					S912.412,292.143,912.412,511.998z"/>
				<path style="opacity:0.2;fill:none;stroke:#010101;stroke-width:3;stroke-miterlimit:10;" d="M954.931,511.997
					c0,244.85-198.306,443.337-442.931,443.337S69.069,756.847,69.069,511.997c0-244.862,198.306-443.33,442.931-443.33
					S954.931,267.135,954.931,511.997z"/>
			</g>
			<path style="opacity:0.2;fill:none;stroke:#010101;stroke-width:3;stroke-miterlimit:10;" d="M0,793.565
				C0,920.834,103.777,1024,231.793,1024l560.39-0.099c128.008,0,231.793-103.186,231.793-230.435V230.455
				C1023.975,103.186,920.198,0,792.183,0l-560.39,0.113C103.784,0.113,0,103.285,0,230.56V793.565z"/>
			<circle style="opacity:0.2;fill:none;stroke:#010101;stroke-width:3;stroke-miterlimit:10;" cx="512" cy="512" r="512"/>
			<polygon style="opacity:0.2;fill:none;stroke:#010101;stroke-width:3;stroke-miterlimit:10;" points="256,955.405 0,512 
				256,68.595 768,68.595 1024,512 768,955.405 			"/>
		</g>
	</g>
	<g id="Outter_mask" style="display:none;">
		<path style="display:inline;fill:#FFFFFF;" d="M0,230.56C0,103.285,103.784,0.113,231.793,0.113L792.183,0
			c128.015,0,231.793,103.186,231.793,230.455v563.011c0,127.249-103.784,230.435-231.793,230.435L231.793,1024
			C103.777,1024,0,920.834,0,793.565V230.56z M1024,0H0v1024h1024V0z"/>
	</g>
</g>
<g id="toothedsimpleleaf">
	<path style="fill:#FFFFFF;" d="M671.907,497.406l25.384-114.223l-29.189,12.69l2.538-102.796l-6.347-5.076l-25.384,11.419
		l-12.686-88.835l-37.859,9.77c-3.655-4.593-7.297-9.027-10.907-13.19L512,112.861c0,0-51.065,73.57-65.461,94.309
		c-3.602,4.158-7.245,8.593-10.907,13.185l-37.851-9.77l-12.69,88.835l-25.384-11.419l-6.347,5.076l2.538,102.796l-29.189-12.69
		l25.384,114.223l-32.998,7.614l59.649,100.262h-26.651l1.267,13.957l96.502,90.845c17.019,19.151,32.941,33.603,44.373,42.96
		v158.092h35.536V753.043c11.435-9.36,27.358-23.813,44.381-42.976l96.489-90.829l1.267-13.957H645.26l59.645-100.262
		L671.907,497.406z M514.964,703.001h-5.929c-7.407-27.281-26.225-110.057-26.225-247.483c0-171.046,29.185-257.627,29.185-257.627
		s29.193,86.581,29.193,257.627C541.189,592.945,522.371,675.721,514.964,703.001z"/>
</g>
</svg>
