<?xml version="1.0" encoding="iso-8859-1"?>
<!-- Generator: Adobe Illustrator 19.1.0, SVG Export Plug-In . SVG Version: 6.00 Build 0)  -->
<svg version="1.1" xmlns="http://www.w3.org/2000/svg" xmlns:xlink="http://www.w3.org/1999/xlink" x="0px" y="0px"
	 viewBox="0 0 1024 1024" style="enable-background:new 0 0 1024 1024;" xml:space="preserve">
<g id="template">
	<g id="Hexigon">
		<g>
			<polygon style="fill:#42AA48;" points="257.289,953.174 2.577,512 257.289,70.828 766.711,70.828 1021.423,512 766.711,953.174 
							"/>
			<g>
				<path style="fill:#00A651;" d="M766.423,71.328L1020.845,512L766.423,952.673H257.577L3.155,512L257.577,71.328H766.423
					 M767,70.328H257L2,512l255,441.673h510L1022,512L767,70.328L767,70.328z"/>
			</g>
		</g>
	</g>
</g>
<g id="timber">
	<path style="fill:#FFFFFF;" d="M237.695,690.106c40.232,0,72.962-35.779,72.962-79.756s-32.73-79.756-72.962-79.756
		c-26.708,0-50.096,15.777-62.812,39.243l14.971,10.914c9.522-17.922,27.393-30.027,47.841-30.027
		c30.407,0,55.146,26.748,55.146,59.625c0,32.877-24.739,59.625-55.146,59.625s-55.146-26.748-55.146-59.625
		c0-9.173,1.93-17.867,5.367-25.639l-16.248-8.257c-4.441,10.294-6.936,21.78-6.936,33.895
		C164.733,654.328,197.464,690.106,237.695,690.106z"/>
	<path style="fill:#FFFFFF;" d="M237.695,638.415c14.034,0,25.452-12.59,25.452-28.065c0-15.475-11.418-28.065-25.452-28.065
		s-25.452,12.59-25.452,28.065C212.244,625.825,223.661,638.415,237.695,638.415z"/>
	<path style="fill:#FFFFFF;" d="M237.695,661.491c25.729,0,46.662-22.941,46.662-51.141c0-28.199-20.932-51.142-46.662-51.142
		c-17.616,0-32.979,10.757-40.919,26.589l10.769,7.851c5.644-11.769,17.027-19.847,30.15-19.847
		c18.712,0,33.936,16.395,33.936,36.549c0,20.153-15.224,36.549-33.936,36.549s-33.936-16.396-33.936-36.549
		c0-5.686,1.247-11.052,3.407-15.856l-11.675-5.933c-2.855,6.615-4.458,13.999-4.458,21.789
		C191.034,638.549,211.966,661.491,237.695,661.491z"/>
	<path style="fill:#FFFFFF;" d="M893.196,413.65c0-63.724-47.48-115.382-106.049-115.382c-14.568,0-28.448,3.201-41.084,8.983
		l-0.001-0.003l-538.9,192.855l0.001,0.002c-24.724,8.32-45.568,26.223-58.902,49.708l20.551,14.982
		c14.281-25.562,40.192-42.686,69.727-42.686c44.909,0,81.446,39.584,81.446,88.24c0,48.655-36.537,88.24-81.446,88.24
		c-44.91,0-81.446-39.585-81.446-88.24c0-13.499,2.821-26.294,7.844-37.745l-22.375-11.37
		c-6.455,14.903-10.073,31.548-10.073,49.115c0,63.724,47.48,115.382,106.05,115.382c15.514,0,30.235-3.655,43.517-10.168
		L812.77,525.638l-0.005-0.017C858.954,513.152,893.196,467.76,893.196,413.65z M796.094,335.845
		c-49.073,10.021-62.411,25.015-62.411,25.015C753.284,330.896,796.094,335.845,796.094,335.845z M757.934,385.146
		c-49.073,10.021-62.411,25.015-62.411,25.015C715.124,380.198,757.934,385.146,757.934,385.146z M726.729,434.448
		c-49.073,10.021-62.411,25.015-62.411,25.015C683.918,429.5,726.729,434.448,726.729,434.448z M686.094,372.639
		c-49.073,10.021-62.411,25.015-62.411,25.015C643.283,367.69,686.094,372.639,686.094,372.639z M647.934,421.941
		c-49.073,10.021-62.411,25.015-62.411,25.015C605.123,416.992,647.934,421.941,647.934,421.941z M616.729,471.242
		c-49.073,10.021-62.411,25.015-62.411,25.015C573.918,466.294,616.729,471.242,616.729,471.242z M576.094,409.433
		c-49.073,10.021-62.411,25.015-62.411,25.015C533.283,404.484,576.094,409.433,576.094,409.433z M537.934,458.735
		c-49.073,10.021-62.411,25.015-62.411,25.015C495.123,453.786,537.934,458.735,537.934,458.735z M506.729,508.036
		c-49.073,10.021-62.411,25.015-62.411,25.015C463.918,503.088,506.729,508.036,506.729,508.036z M466.094,446.227
		c-49.073,10.021-62.411,25.015-62.411,25.015C423.283,441.279,466.094,446.227,466.094,446.227z M427.934,495.529
		c-49.073,10.021-62.411,25.015-62.411,25.015C385.123,490.58,427.934,495.529,427.934,495.529z M293.683,508.036
		c19.6-29.964,62.411-25.015,62.411-25.015C307.021,493.043,293.683,508.036,293.683,508.036z M334.318,569.845
		c19.6-29.964,62.411-25.015,62.411-25.015C347.655,554.852,334.318,569.845,334.318,569.845z M374.953,631.654
		c19.6-29.964,62.411-25.015,62.411-25.015C388.29,616.661,374.953,631.654,374.953,631.654z M406.158,582.353
		c19.6-29.964,62.411-25.015,62.411-25.015C419.496,567.359,406.158,582.353,406.158,582.353z M484.953,594.86
		c19.6-29.964,62.411-25.015,62.411-25.015C498.291,579.867,484.953,594.86,484.953,594.86z M516.158,545.559
		c19.6-29.964,62.411-25.015,62.411-25.015C529.496,530.565,516.158,545.559,516.158,545.559z M595.543,557.544
		c19.6-29.964,62.411-25.015,62.411-25.015C608.88,542.55,595.543,557.544,595.543,557.544z M626.748,508.242
		c19.6-29.964,62.411-25.015,62.411-25.015C640.085,493.249,626.748,508.242,626.748,508.242z M704.953,521.272
		c19.6-29.964,62.411-25.015,62.411-25.015C718.291,506.278,704.953,521.272,704.953,521.272z M736.159,471.971
		c19.6-29.964,62.411-25.015,62.411-25.015C749.496,456.977,736.159,471.971,736.159,471.971z M774.319,422.669
		c19.6-29.964,62.411-25.015,62.411-25.015C787.656,407.675,774.319,422.669,774.319,422.669z M814.954,484.478
		c19.6-29.964,62.411-25.015,62.411-25.015C828.291,469.484,814.954,484.478,814.954,484.478z"/>
</g>
</svg>
