<?xml version="1.0" encoding="iso-8859-1"?>
<!-- Generator: Adobe Illustrator 19.1.0, SVG Export Plug-In . SVG Version: 6.00 Build 0)  -->
<svg version="1.1" xmlns="http://www.w3.org/2000/svg" xmlns:xlink="http://www.w3.org/1999/xlink" x="0px" y="0px"
	 viewBox="0 0 1024 1024" style="enable-background:new 0 0 1024 1024;" xml:space="preserve">
<g id="template">
	<g id="Background" style="display:none;">
		<rect style="display:inline;fill:#939598;" width="1024" height="1024"/>
	</g>
	<g id="Inner_mask" style="display:none;">
		<g style="display:inline;">
			<defs>
				<path id="SVGID_1_" d="M0,793.565C0,920.834,103.777,1024,231.793,1024l560.39-0.099c128.008,0,231.793-103.186,231.793-230.435
					V230.455C1023.975,103.186,920.198,0,792.183,0l-560.39,0.113C103.784,0.113,0,103.285,0,230.56V793.565z"/>
			</defs>
			<use xlink:href="#SVGID_1_"  style="overflow:visible;fill:#FFFFFF;"/>
			<clipPath id="SVGID_2_">
				<use xlink:href="#SVGID_1_"  style="overflow:visible;"/>
			</clipPath>
			<rect style="clip-path:url(#SVGID_2_);fill:#FFFFFF;" width="1024" height="1024"/>
		</g>
	</g>
	<g id="Hexigon">
		<g>
			<polygon style="fill:#42AA48;" points="257.289,953.174 2.577,512 257.289,70.828 766.711,70.828 1021.423,512 766.711,953.174 
							"/>
			<g>
				<path style="fill:#00A651;" d="M766.423,71.328L1020.845,512L766.423,952.673H257.577L3.155,512L257.577,71.328H766.423
					 M767,70.328H257L2,512l255,441.673h510L1022,512L767,70.328L767,70.328z"/>
			</g>
		</g>
	</g>
	<g id="Guide" style="display:none;">
		<g style="display:inline;">
			<g>
				
					<line style="opacity:0.2;fill:none;stroke:#010101;stroke-width:3;stroke-miterlimit:10;" x1="69.069" y1="1.48" x2="69.069" y2="1022.501"/>
				
					<line style="opacity:0.2;fill:none;stroke:#010101;stroke-width:3;stroke-miterlimit:10;" x1="1022.498" y1="955.334" x2="1.502" y2="955.334"/>
				
					<line style="opacity:0.2;fill:none;stroke:#010101;stroke-width:3;stroke-miterlimit:10;" x1="1022.498" y1="68.667" x2="1.502" y2="68.667"/>
				
					<line style="opacity:0.2;fill:none;stroke:#010101;stroke-width:3;stroke-miterlimit:10;" x1="1024" y1="511.997" x2="0" y2="511.997"/>
				
					<line style="opacity:0.2;fill:none;stroke:#010101;stroke-width:3;stroke-miterlimit:10;" x1="1022.498" y1="1022.501" x2="1.502" y2="1.48"/>
				
					<line style="opacity:0.2;fill:none;stroke:#010101;stroke-width:3;stroke-miterlimit:10;" x1="1022.498" y1="1.48" x2="1.502" y2="1022.501"/>
				
					<line style="opacity:0.2;fill:none;stroke:#010101;stroke-width:3;stroke-miterlimit:10;" x1="1024" y1="766.114" x2="0" y2="766.114"/>
				<line style="opacity:0.2;fill:none;stroke:#010101;stroke-width:3;stroke-miterlimit:10;" x1="1024" y1="256" x2="0" y2="256"/>
				
					<line style="opacity:0.2;fill:none;stroke:#010101;stroke-width:3;stroke-miterlimit:10;" x1="954.931" y1="1022.501" x2="954.931" y2="1.48"/>
				<line style="opacity:0.2;fill:none;stroke:#010101;stroke-width:3;stroke-miterlimit:10;" x1="512" y1="1024" x2="512" y2="0"/>
				<line style="opacity:0.2;fill:none;stroke:#010101;stroke-width:3;stroke-miterlimit:10;" x1="767" y1="1024" x2="767" y2="0"/>
				<line style="opacity:0.2;fill:none;stroke:#010101;stroke-width:3;stroke-miterlimit:10;" x1="257" y1="1024" x2="257" y2="0"/>
				<path style="opacity:0.2;fill:none;stroke:#010101;stroke-width:3;stroke-miterlimit:10;" d="M912.412,511.998
					c0,219.845-179.278,398.07-400.412,398.07s-400.412-178.224-400.412-398.07c0-219.855,179.278-398.078,400.412-398.078
					S912.412,292.143,912.412,511.998z"/>
				<path style="opacity:0.2;fill:none;stroke:#010101;stroke-width:3;stroke-miterlimit:10;" d="M954.931,511.997
					c0,244.85-198.306,443.337-442.931,443.337S69.069,756.847,69.069,511.997c0-244.862,198.306-443.33,442.931-443.33
					S954.931,267.135,954.931,511.997z"/>
			</g>
			<path style="opacity:0.2;fill:none;stroke:#010101;stroke-width:3;stroke-miterlimit:10;" d="M0,793.565
				C0,920.834,103.777,1024,231.793,1024l560.39-0.099c128.008,0,231.793-103.186,231.793-230.435V230.455
				C1023.975,103.186,920.198,0,792.183,0l-560.39,0.113C103.784,0.113,0,103.285,0,230.56V793.565z"/>
			<circle style="opacity:0.2;fill:none;stroke:#010101;stroke-width:3;stroke-miterlimit:10;" cx="512" cy="512" r="512"/>
			<polygon style="opacity:0.2;fill:none;stroke:#010101;stroke-width:3;stroke-miterlimit:10;" points="256,955.405 0,512 
				256,68.595 768,68.595 1024,512 768,955.405 			"/>
		</g>
	</g>
	<g id="Outter_mask" style="display:none;">
		<path style="display:inline;fill:#FFFFFF;" d="M0,230.56C0,103.285,103.784,0.113,231.793,0.113L792.183,0
			c128.015,0,231.793,103.186,231.793,230.455v563.011c0,127.249-103.784,230.435-231.793,230.435L231.793,1024
			C103.777,1024,0,920.834,0,793.565V230.56z M1024,0H0v1024h1024V0z"/>
	</g>
</g>
<g id="jam">
	<g>
		<g>
			<path style="fill:#FFFFFF;" d="M748.991,208.029c-2.232-17.893-17.484-31.741-35.981-31.741H310.99
				c-20.033,0-36.272,16.24-36.272,36.272v29.723h474.565v-34.257L748.991,208.029z"/>
			<path style="fill:#FFFFFF;" d="M703.942,293.166l39.673-38.791H280.385l39.673,38.791c-25.041,0-45.341,20.3-45.341,45.341
				v463.865c0,25.041,20.3,45.341,45.341,45.341h383.883c25.041,0,45.341-20.3,45.341-45.341V338.507
				C749.282,313.466,728.983,293.166,703.942,293.166z M725.101,754.169c0,28.221-19.285,51.099-43.074,51.099H341.973
				c-23.789,0-43.074-22.878-43.074-51.099V406.535c21.014-8.417,54.102-4.996,82.117,0.701
				c35.265,7.172,77.583,27.492,130.984,27.492s65.492-39.445,143.075-66.936c30.371-10.762,53.329-9.8,70.026-4.645V754.169z"/>
		</g>
		<g>
			<path style="fill:#FFFFFF;" d="M535.201,586.589c-41.196-16.588-87.409,1.794-103.22,41.059
				c-15.811,39.265,4.768,84.543,45.964,101.131c41.196,16.588,87.409-1.795,103.22-41.059
				C596.976,648.455,576.397,603.177,535.201,586.589z M503.906,699.475l-3.593,1.289c-4.691-6.878-7.637-13.839-9.471-20.188
				c-17.123-0.413-28.963-2.875-29.723-3.039l0.337-3.396c0.179,0.039,11.736,2.437,28.456,2.879
				c-2.862-12.166-1.753-21.346-1.675-21.947l4.204,0.982c-0.018,0.141-1.086,9.17,1.712,21.04
				c8.638,0.043,18.409-0.476,28.577-2.077l1.481,3.456c-10.417,1.64-20.349,2.191-29.125,2.167
				C496.826,686.62,499.572,693.12,503.906,699.475z"/>
			<g>
				<path style="fill:#FFFFFF;" d="M524.121,540.767c-4.054-10.448-7.945-20.96-10.643-28.921
					c-2.723-7.954-4.205-13.355-4.205-13.355s1.783,5.31,4.942,13.082c3.134,7.781,7.599,18.038,12.223,28.221
					c8.765,19.352,18.068,38.396,18.984,40.268c2.515-1.747,4.475-4.359,5.357-7.648c3.874-14.449,7.088-36.45-1.591-54.978
					c-13.008-27.768-39.061-50.978-56.782-64.835l-0.013-0.033c-0.001,0.007-0.002,0.014-0.003,0.021
					c-0.004-0.004-0.009-0.007-0.014-0.011l0.011,0.029c-3.175,23.215-5.951,59.336,3.462,88.714
					c6.125,19.114,22.358,31.941,34.604,39.233c3.312,1.972,7.004,2.325,10.369,1.501
					C539.782,579.586,531.675,560.29,524.121,540.767z"/>
				<path style="fill:#FFFFFF;" d="M542.645,581.554c0.03-0.012,0.058-0.028,0.089-0.04L542.645,581.554z"/>
			</g>
			<path style="fill:#FFFFFF;" d="M653.25,536.779c0.002-0.004,0.005-0.008,0.007-0.012l-0.022,0.011
				c-18.693-0.671-47.607,0.005-70.193,9.826c-14.695,6.39-23.589,20.308-28.404,30.617c-0.719,1.54-1.02,3.137-1.021,4.7
				c5.431-1.476,17.729-4.962,29.77-9.366c8.051-2.908,15.961-6.221,21.689-9.139c2.842-1.491,5.227-2.732,6.799-3.757
				c1.602-0.984,2.517-1.547,2.517-1.547s-0.872,0.628-2.398,1.727c-1.501,1.144-3.791,2.557-6.539,4.265
				c-5.535,3.35-13.242,7.263-21.123,10.78c-12.049,5.435-24.469,9.935-29.649,11.752c1.459,3.074,4.298,5.47,8.044,6.082
				c11.786,1.925,29.519,2.722,43.544-5.65c21.02-12.548,37.378-35.094,46.972-50.276l0.025-0.013
				C653.261,536.78,653.255,536.779,653.25,536.779z"/>
		</g>
	</g>
</g>
</svg>
