<?xml version="1.0" encoding="iso-8859-1"?>
<!-- Generator: Adobe Illustrator 19.1.0, SVG Export Plug-In . SVG Version: 6.00 Build 0)  -->
<svg version="1.1" xmlns="http://www.w3.org/2000/svg" xmlns:xlink="http://www.w3.org/1999/xlink" x="0px" y="0px"
	 viewBox="0 0 1024 1024" style="enable-background:new 0 0 1024 1024;" xml:space="preserve">
<g id="template">
	<g id="Hexigon">
		<g>
			<polygon style="fill:#42AA48;" points="257.289,953.174 2.577,512 257.289,70.828 766.711,70.828 1021.423,512 766.711,953.174 
							"/>
			<g>
				<path style="fill:#00A651;" d="M766.423,71.328L1020.845,512L766.423,952.673H257.577L3.155,512L257.577,71.328H766.423
					 M767,70.328H257L2,512l255,441.673h510L1022,512L767,70.328L767,70.328z"/>
			</g>
		</g>
	</g>
</g>
<g id="food">
	<g>
		<path style="fill:none;" d="M500.194,387.906c-0.461,0.033-0.932,0.03-1.392,0.068c-2.886,0.294-5.755,0.529-8.551,1.038
			c-2.809,0.408-5.564,0.904-8.243,1.545c-10.761,2.326-20.346,6.075-28.133,9.935c-7.782,3.93-13.761,8.037-17.683,11.227
			c-1.999,1.527-3.429,2.939-4.423,3.844c-0.98,0.931-1.455,1.481-1.455,1.481s0.686-0.209,1.971-0.601
			c1.274-0.366,3.143-0.903,5.521-1.586c4.74-1.305,11.483-2.988,19.476-4.657c4.018-0.773,8.322-1.641,12.899-2.298
			c4.56-0.72,9.366-1.317,14.324-1.772c4.953-0.517,10.075-0.701,15.252-0.906c5.184-0.037,10.439-0.087,15.676,0.293
			c2.622,0.115,5.242,0.269,7.84,0.576c2.606,0.228,5.194,0.527,7.76,0.88c5.129,0.7,10.17,1.555,15.038,2.575
			c4.857,1.04,9.583,2.111,14.016,3.389c2.246,0.56,4.415,1.173,6.492,1.852c2.104,0.641,4.136,1.261,6.088,1.856
			c3.84,1.374,7.521,2.411,10.652,3.656c3.149,1.202,6.062,2.031,8.315,2.995c2.271,0.928,4.16,1.531,5.413,2.003
			c1.284,0.433,1.968,0.664,1.968,0.664s-0.486-0.527-1.397-1.516c-0.942-0.949-2.272-2.431-4.098-4.156
			c-1.772-1.809-4.109-3.751-6.819-5.995c-2.671-2.315-5.982-4.469-9.556-6.967c-3.695-2.257-7.711-4.801-12.247-6.928
			c-4.475-2.267-9.391-4.297-14.595-6.092c-2.614-0.86-5.264-1.801-8.029-2.453c-2.75-0.711-5.53-1.49-8.399-1.947
			c-2.853-0.538-5.73-1.121-8.662-1.389c-1.222-0.164-2.451-0.29-3.68-0.409c-1.706-0.164-3.416-0.301-5.131-0.396
			C510.972,387.421,505.537,387.527,500.194,387.906z"/>
		<path style="fill:none;" d="M500.194,387.906c5.342-0.379,10.777-0.485,16.208-0.195c1.715,0.095,3.425,0.232,5.131,0.396
			c-0.25-20.941,1.172-66.212,14.175-112.533c-10.359-0.704-20.697-1.281-30.884-1.726
			C495.955,321.675,498.513,366.444,500.194,387.906z"/>
		<path style="fill:#FFFFFF;" d="M652.821,405.993c0-38.731,11.607-74.737,31.49-104.787
			c-29.737-11.958-90.503-20.673-150.648-24.759c-11.969,42.638-13.278,84.31-13.048,103.587c1.132,0.109,2.263,0.225,3.388,0.376
			c2.699,0.247,5.347,0.783,7.973,1.279c2.641,0.42,5.2,1.138,7.731,1.792c2.545,0.6,4.985,1.466,7.391,2.258
			c4.79,1.653,9.315,3.521,13.434,5.608c4.176,1.959,7.872,4.3,11.274,6.378c3.291,2.3,6.338,4.283,8.797,6.414
			c2.495,2.066,4.646,3.854,6.276,5.519c1.681,1.588,2.905,2.952,3.772,3.826c0.839,0.91,1.286,1.395,1.286,1.395
			s-0.63-0.212-1.811-0.611c-1.154-0.435-2.892-0.989-4.983-1.844c-2.074-0.887-4.755-1.651-7.654-2.757
			c-2.882-1.146-6.27-2.1-9.805-3.365c-1.796-0.547-3.667-1.118-5.604-1.708c-1.912-0.625-3.909-1.189-5.976-1.705
			c-4.08-1.176-8.431-2.162-12.902-3.119c-4.481-0.938-9.121-1.726-13.843-2.37c-2.362-0.325-4.744-0.6-7.143-0.81
			c-2.391-0.283-4.803-0.425-7.217-0.531c-4.821-0.349-9.658-0.303-14.43-0.27c-4.766,0.188-9.48,0.357-14.039,0.834
			c-4.564,0.419-8.987,0.969-13.185,1.631c-4.213,0.604-8.175,1.403-11.874,2.115c-7.358,1.536-13.565,3.085-17.928,4.286
			c-2.189,0.629-3.909,1.123-5.082,1.46c-1.183,0.361-1.814,0.554-1.814,0.554s0.437-0.506,1.339-1.363
			c0.915-0.833,2.231-2.133,4.071-3.538c3.611-2.936,9.114-6.717,16.277-10.334c7.168-3.552,15.991-7.004,25.897-9.145
			c2.466-0.59,5.002-1.046,7.587-1.422c2.574-0.468,5.214-0.685,7.871-0.956c0.423-0.034,0.857-0.032,1.281-0.062
			c-1.548-19.756-3.902-60.966,4.263-104.99c-46.016-2.011-88.604-1.09-112.825,3.421c-106.6,19.854-225.16,136.578-225.16,320.187
			c0,99.761,55.466,197.077,141.245,246.023c72.096,41.138,239.239,46.271,324.717,33.439
			c92.047-13.817,219.468-95.853,219.468-279.462c0-0.849-0.029-1.69-0.034-2.538c-3.195,0.16-6.409,0.244-9.644,0.244
			C737.967,596.171,652.821,511.025,652.821,405.993z"/>
		<path style="fill:#FFFFFF;" d="M599.016,170.307l-23.918-26.47c-42.019,33.615-61.603,83.264-70.273,130.011
			c10.187,0.445,20.525,1.022,30.884,1.726C546.648,236.605,565.783,196.894,599.016,170.307z"/>
	</g>
</g>
</svg>
