<?xml version="1.0" encoding="iso-8859-1"?>
<!-- Generator: Adobe Illustrator 19.1.0, SVG Export Plug-In . SVG Version: 6.00 Build 0)  -->
<svg version="1.1" xmlns="http://www.w3.org/2000/svg" xmlns:xlink="http://www.w3.org/1999/xlink" x="0px" y="0px"
	 viewBox="0 0 1024 1024" style="enable-background:new 0 0 1024 1024;" xml:space="preserve">
<g id="template">
	<g id="Hexigon">
		<g>
			<polygon style="fill:#42AA48;" points="257.289,953.174 2.577,512 257.289,70.828 766.711,70.828 1021.423,512 766.711,953.174 
							"/>
			<g>
				<path style="fill:#00A651;" d="M766.423,71.328L1020.845,512L766.423,952.673H257.577L3.155,512L257.577,71.328H766.423
					 M767,70.328H257L2,512l255,441.673h510L1022,512L767,70.328L767,70.328z"/>
			</g>
		</g>
	</g>
</g>
<g id="achievement30">
	<g>
		<path style="fill:#FFFFFF;" d="M344.35,247.981c22.351,20.766,38.905-11.417,59.611-11.417c12.218,0,27.662,18.392,38.276,33.474
			c-17.895,17.67-28.994,42.207-28.994,69.343c0,23.377,8.312,44.763,22.035,61.554c18.411-3.972,36.769-6.996,54.621-8.933
			l10.581-1.148l-1.138,10.583c-4.369,40.663-25.186,92.27-54.889,139.065c20.426,5.737,42.773,8.938,66.254,8.938
			c23.857,0,46.552-3.296,67.243-9.206c-29.617-46.725-50.363-98.215-54.723-138.797l-1.138-10.583l10.581,1.148
			c17.531,1.903,35.55,4.859,53.628,8.726c13.622-16.76,21.871-38.065,21.871-61.347c0-25.855-10.086-49.34-26.515-66.786
			c10.608-15.47,27.136-36.032,40.054-36.032c20.706,0,37.26,32.183,59.611,11.417c25.356-23.556-21.897-66.816-61.753-63.54
			c-35.354,2.906-64.913,38.883-80.284,61.744c-9.039-2.768-18.631-4.266-28.575-4.266c-8.646,0-17.023,1.139-25.005,3.252
			c-15.556-22.895-44.762-57.867-79.598-60.731C366.247,181.165,318.994,224.425,344.35,247.981z"/>
		<path style="fill:#FFFFFF;" d="M480.796,410.36c-109.139,14.494-238.556,70.248-265.516,139.232
			c-9.79,25.054-4.225,49.817,16.534,73.603c14.618,16.747,31.779,25.24,51.016,25.244
			C360.047,648.454,463.986,508.469,480.796,410.36z"/>
		<path style="fill:#FFFFFF;" d="M654.911,629.438c-11.301-9.116-22.316-19.593-32.855-31.111
			c-30.239,17.069-69,27.378-111.35,27.378c-41.989,0-80.444-10.136-110.569-26.944c-10.604,11.553-21.689,22.05-33.058,31.164
			c2.703,12.879,6.252,25.547,10.647,37.878c32.045,25.586,79.719,41.817,132.98,41.817c54.264,0,102.715-16.857,134.76-43.284
			C649.378,654.288,652.523,641.947,654.911,629.438z"/>
		<path style="fill:#FFFFFF;" d="M418.38,745.879c26.317,37.364,59.061,67.664,92.327,86.355
			c37.095-17.381,71.198-49.014,97.445-88.59c-27.841,12.757-61.365,20.206-97.445,20.206
			C476.802,763.849,445.174,757.256,418.38,745.879z"/>
		<path style="fill:#FFFFFF;" d="M790.759,623.195c20.759-23.786,26.324-48.549,16.534-73.601
			c-26.96-68.984-156.377-124.74-265.52-139.234c16.814,98.096,120.753,238.08,197.971,238.08
			C758.976,648.44,776.141,639.945,790.759,623.195z"/>
	</g>
</g>
</svg>
