<?xml version="1.0" encoding="iso-8859-1"?>
<!-- Generator: Adobe Illustrator 19.1.0, SVG Export Plug-In . SVG Version: 6.00 Build 0)  -->
<svg version="1.1" xmlns="http://www.w3.org/2000/svg" xmlns:xlink="http://www.w3.org/1999/xlink" x="0px" y="0px"
	 viewBox="0 0 1024 1024" style="enable-background:new 0 0 1024 1024;" xml:space="preserve">
<g id="template">
	<g id="Hexigon">
		<g>
			<polygon style="fill:#42AA48;" points="257.289,953.174 2.577,512 257.289,70.828 766.711,70.828 1021.423,512 766.711,953.174 
							"/>
			<g>
				<path style="fill:#00A651;" d="M766.423,71.328L1020.845,512L766.423,952.673H257.577L3.155,512L257.577,71.328H766.423
					 M767,70.328H257L2,512l255,441.673h510L1022,512L767,70.328L767,70.328z"/>
			</g>
		</g>
	</g>
</g>
<g id="maplesyrup">
	<g>
		<rect x="419.466" y="126.61" style="fill:#FFFFFF;" width="185.068" height="51.858"/>
		<path style="fill:#FFFFFF;" d="M632.426,349.814c3.121-1.268,6.222-2.684,9.292-4.256c47.505-24.328,69.583-76.139,49.311-115.724
			c-14.242-27.811-45.6-42.186-79.468-39.841H512H398.756c0,0,36.311,28.432,40.857,54.937
			c4.546,26.505-25.978,80.017-40.857,86.932c-14.879,6.914-91.833,454.156-75.305,507.151
			c16.527,52.995,57.326,46.082,93.118,46.082c35.793,0,95.431,0.296,95.431,0.296s59.639-0.296,95.431-0.296
			s76.591,6.912,93.118-46.082C715.212,791.996,656.295,434.661,632.426,349.814z M671.125,240.028
			c15.581,30.424-1.388,70.246-37.901,88.945c-2.439,1.249-4.903,2.368-7.383,3.367c-0.208-0.228-0.408-0.39-0.597-0.478
			c-14.879-6.914-45.403-60.426-40.857-86.932c2.096-12.22,10.944-24.847,19.872-34.911
			C632.45,206.033,659.371,217.076,671.125,240.028z M597.449,564.024l26.545,4.121l-63.374,40.382l18.048,18.22l-61.557-8.982
			l5.699,53.252h-21.622l5.779-54l-66.683,9.729l20.001-20.191l-60.281-38.411l26.545-4.121l-34.445-63.407l63.407,34.445
			l4.121-26.545l25.426,39.903l-15.224-68.704l21.684,15.856L512,426.38l20.479,69.192l21.684-15.856l-15.224,68.704l25.427-39.903
			l4.121,26.545l63.407-34.445L597.449,564.024z"/>
	</g>
</g>
</svg>
