<?xml version="1.0" encoding="iso-8859-1"?>
<!-- Generator: Adobe Illustrator 19.1.0, SVG Export Plug-In . SVG Version: 6.00 Build 0)  -->
<svg version="1.1" xmlns="http://www.w3.org/2000/svg" xmlns:xlink="http://www.w3.org/1999/xlink" x="0px" y="0px"
	 viewBox="0 0 1024 1024" style="enable-background:new 0 0 1024 1024;" xml:space="preserve">
<g id="template">
	<g id="Hexigon">
		<g>
			<polygon style="fill:#42AA48;" points="257.289,953.174 2.577,512 257.289,70.828 766.711,70.828 1021.423,512 766.711,953.174 
							"/>
			<g>
				<path style="fill:#00A651;" d="M766.423,71.328L1020.845,512L766.423,952.673H257.577L3.155,512L257.577,71.328H766.423
					 M767,70.328H257L2,512l255,441.673h510L1022,512L767,70.328L767,70.328z"/>
			</g>
		</g>
	</g>
</g>
<g id="christmastree">
	<polygon style="fill:#FFFFFF;" points="660.053,634.42 721.633,634.42 616.816,504.901 589.982,471.742 644.189,471.742 
		578.094,390.07 514.558,311.56 544.217,327.152 538.064,291.279 564.127,265.873 528.108,260.639 512,228 495.892,260.639 
		459.873,265.873 485.936,291.279 479.783,327.152 509.442,311.56 445.906,390.07 379.811,471.742 434.018,471.742 407.184,504.901 
		302.367,634.42 363.947,634.42 233.185,796 512,796 790.815,796 	"/>
</g>
</svg>
