<?xml version="1.0" encoding="iso-8859-1"?>
<!-- Generator: Adobe Illustrator 19.1.0, SVG Export Plug-In . SVG Version: 6.00 Build 0)  -->
<svg version="1.1" xmlns="http://www.w3.org/2000/svg" xmlns:xlink="http://www.w3.org/1999/xlink" x="0px" y="0px"
	 viewBox="0 0 1024 1024" style="enable-background:new 0 0 1024 1024;" xml:space="preserve">
<g id="template">
	<g id="Background" style="display:none;">
		<rect style="display:inline;fill:#939598;" width="1024" height="1024"/>
	</g>
	<g id="Inner_mask" style="display:none;">
		<g style="display:inline;">
			<defs>
				<path id="SVGID_1_" d="M0,793.565C0,920.834,103.777,1024,231.793,1024l560.39-0.099c128.008,0,231.793-103.186,231.793-230.435
					V230.455C1023.975,103.186,920.198,0,792.183,0l-560.39,0.113C103.784,0.113,0,103.285,0,230.56V793.565z"/>
			</defs>
			<use xlink:href="#SVGID_1_"  style="overflow:visible;fill:#FFFFFF;"/>
			<clipPath id="SVGID_2_">
				<use xlink:href="#SVGID_1_"  style="overflow:visible;"/>
			</clipPath>
			<rect style="clip-path:url(#SVGID_2_);fill:#FFFFFF;" width="1024" height="1024"/>
		</g>
	</g>
	<g id="Hexigon">
		<g>
			<polygon style="fill:#42AA48;" points="257.289,953.174 2.577,512 257.289,70.828 766.711,70.828 1021.423,512 766.711,953.174 
							"/>
			<g>
				<path style="fill:#00A651;" d="M766.423,71.328L1020.845,512L766.423,952.673H257.577L3.155,512L257.577,71.328H766.423
					 M767,70.328H257L2,512l255,441.673h510L1022,512L767,70.328L767,70.328z"/>
			</g>
		</g>
	</g>
	<g id="Guide" style="display:none;">
		<g style="display:inline;">
			<g>
				
					<line style="opacity:0.2;fill:none;stroke:#010101;stroke-width:3;stroke-miterlimit:10;" x1="69.069" y1="1.48" x2="69.069" y2="1022.501"/>
				
					<line style="opacity:0.2;fill:none;stroke:#010101;stroke-width:3;stroke-miterlimit:10;" x1="1022.498" y1="955.334" x2="1.502" y2="955.334"/>
				
					<line style="opacity:0.2;fill:none;stroke:#010101;stroke-width:3;stroke-miterlimit:10;" x1="1022.498" y1="68.667" x2="1.502" y2="68.667"/>
				
					<line style="opacity:0.2;fill:none;stroke:#010101;stroke-width:3;stroke-miterlimit:10;" x1="1024" y1="511.997" x2="0" y2="511.997"/>
				
					<line style="opacity:0.2;fill:none;stroke:#010101;stroke-width:3;stroke-miterlimit:10;" x1="1022.498" y1="1022.501" x2="1.502" y2="1.48"/>
				
					<line style="opacity:0.2;fill:none;stroke:#010101;stroke-width:3;stroke-miterlimit:10;" x1="1022.498" y1="1.48" x2="1.502" y2="1022.501"/>
				
					<line style="opacity:0.2;fill:none;stroke:#010101;stroke-width:3;stroke-miterlimit:10;" x1="1024" y1="766.114" x2="0" y2="766.114"/>
				<line style="opacity:0.2;fill:none;stroke:#010101;stroke-width:3;stroke-miterlimit:10;" x1="1024" y1="256" x2="0" y2="256"/>
				
					<line style="opacity:0.2;fill:none;stroke:#010101;stroke-width:3;stroke-miterlimit:10;" x1="954.931" y1="1022.501" x2="954.931" y2="1.48"/>
				<line style="opacity:0.2;fill:none;stroke:#010101;stroke-width:3;stroke-miterlimit:10;" x1="512" y1="1024" x2="512" y2="0"/>
				<line style="opacity:0.2;fill:none;stroke:#010101;stroke-width:3;stroke-miterlimit:10;" x1="767" y1="1024" x2="767" y2="0"/>
				<line style="opacity:0.2;fill:none;stroke:#010101;stroke-width:3;stroke-miterlimit:10;" x1="257" y1="1024" x2="257" y2="0"/>
				<path style="opacity:0.2;fill:none;stroke:#010101;stroke-width:3;stroke-miterlimit:10;" d="M912.412,511.998
					c0,219.845-179.278,398.07-400.412,398.07s-400.412-178.224-400.412-398.07c0-219.855,179.278-398.078,400.412-398.078
					S912.412,292.143,912.412,511.998z"/>
				<path style="opacity:0.2;fill:none;stroke:#010101;stroke-width:3;stroke-miterlimit:10;" d="M954.931,511.997
					c0,244.85-198.306,443.337-442.931,443.337S69.069,756.847,69.069,511.997c0-244.862,198.306-443.33,442.931-443.33
					S954.931,267.135,954.931,511.997z"/>
			</g>
			<path style="opacity:0.2;fill:none;stroke:#010101;stroke-width:3;stroke-miterlimit:10;" d="M0,793.565
				C0,920.834,103.777,1024,231.793,1024l560.39-0.099c128.008,0,231.793-103.186,231.793-230.435V230.455
				C1023.975,103.186,920.198,0,792.183,0l-560.39,0.113C103.784,0.113,0,103.285,0,230.56V793.565z"/>
			<circle style="opacity:0.2;fill:none;stroke:#010101;stroke-width:3;stroke-miterlimit:10;" cx="512" cy="512" r="512"/>
			<polygon style="opacity:0.2;fill:none;stroke:#010101;stroke-width:3;stroke-miterlimit:10;" points="256,955.405 0,512 
				256,68.595 768,68.595 1024,512 768,955.405 			"/>
		</g>
	</g>
	<g id="Outter_mask" style="display:none;">
		<path style="display:inline;fill:#FFFFFF;" d="M0,230.56C0,103.285,103.784,0.113,231.793,0.113L792.183,0
			c128.015,0,231.793,103.186,231.793,230.455v563.011c0,127.249-103.784,230.435-231.793,230.435L231.793,1024
			C103.777,1024,0,920.834,0,793.565V230.56z M1024,0H0v1024h1024V0z"/>
	</g>
</g>
<g id="shingle">
	<polygon style="fill:#FFFFFF;" points="364.118,456.258 421.085,456.258 349.982,363.312 293.014,363.312 	"/>
	<polygon style="fill:#FFFFFF;" points="442.091,558.185 499.058,558.185 427.955,465.238 370.987,465.238 	"/>
	<polygon style="fill:#FFFFFF;" points="425.188,456.258 482.155,456.258 411.052,363.312 354.084,363.312 	"/>
	<polygon style="fill:#FFFFFF;" points="503.161,558.185 560.128,558.185 489.025,465.238 432.057,465.238 	"/>
	<polygon style="fill:#FFFFFF;" points="486.258,456.258 543.225,456.258 472.122,363.312 415.154,363.312 	"/>
	<polygon style="fill:#FFFFFF;" points="564.231,558.185 621.198,558.185 550.095,465.238 493.127,465.238 	"/>
	<polygon style="fill:#FFFFFF;" points="547.328,456.258 604.295,456.258 533.192,363.312 476.224,363.312 	"/>
	<polygon style="fill:#FFFFFF;" points="625.301,558.185 682.268,558.185 611.165,465.238 554.197,465.238 	"/>
	<polygon style="fill:#FFFFFF;" points="608.398,456.258 665.365,456.258 594.262,363.312 537.294,363.312 	"/>
	<polygon style="fill:#FFFFFF;" points="686.371,558.185 743.338,558.185 672.235,465.238 615.267,465.238 	"/>
	<polygon style="fill:#FFFFFF;" points="598.364,363.312 669.468,456.258 726.435,456.258 655.331,363.312 	"/>
	<polygon style="fill:#FFFFFF;" points="747.441,558.185 804.408,558.185 733.305,465.238 676.337,465.238 	"/>
	<polygon style="fill:#FFFFFF;" points="518.539,658.117 575.506,658.117 504.403,565.171 447.435,565.171 	"/>
	<polygon style="fill:#FFFFFF;" points="579.609,658.117 636.576,658.117 565.473,565.171 508.505,565.171 	"/>
	<polygon style="fill:#FFFFFF;" points="640.679,658.117 697.646,658.117 626.543,565.171 569.575,565.171 	"/>
	<polygon style="fill:#FFFFFF;" points="701.749,658.117 758.716,658.117 687.612,565.171 630.645,565.171 	"/>
	<polygon style="fill:#FFFFFF;" points="762.819,658.117 819.786,658.117 748.682,565.171 691.715,565.171 	"/>
	<polygon style="fill:#FFFFFF;" points="823.889,658.117 880.856,658.117 809.752,565.171 752.785,565.171 	"/>
	<g>
		
			<rect x="214.019" y="366.694" transform="matrix(0.8864 0.4628 -0.4628 0.8864 266.1565 -42.4245)" style="fill:#FFFFFF;" width="11.028" height="308.967"/>
	</g>
</g>
</svg>
