<?xml version="1.0" encoding="iso-8859-1"?>
<!-- Generator: Adobe Illustrator 19.1.0, SVG Export Plug-In . SVG Version: 6.00 Build 0)  -->
<svg version="1.1" xmlns="http://www.w3.org/2000/svg" xmlns:xlink="http://www.w3.org/1999/xlink" x="0px" y="0px"
	 viewBox="0 0 1024 1024" style="enable-background:new 0 0 1024 1024;" xml:space="preserve">
<g id="template">
	<g id="Background" style="display:none;">
		<rect style="display:inline;fill:#939598;" width="1024" height="1024"/>
	</g>
	<g id="Inner_mask" style="display:none;">
		<g style="display:inline;">
			<defs>
				<path id="SVGID_1_" d="M0,793.565C0,920.834,103.777,1024,231.793,1024l560.39-0.099c128.008,0,231.793-103.186,231.793-230.435
					V230.455C1023.975,103.186,920.198,0,792.183,0l-560.39,0.113C103.784,0.113,0,103.285,0,230.56V793.565z"/>
			</defs>
			<use xlink:href="#SVGID_1_"  style="overflow:visible;fill:#FFFFFF;"/>
			<clipPath id="SVGID_2_">
				<use xlink:href="#SVGID_1_"  style="overflow:visible;"/>
			</clipPath>
			<rect style="clip-path:url(#SVGID_2_);fill:#FFFFFF;" width="1024" height="1024"/>
		</g>
	</g>
	<g id="Hexigon">
		<g>
			<polygon style="fill:#42AA48;" points="257.289,953.174 2.577,512 257.289,70.828 766.711,70.828 1021.423,512 766.711,953.174 
							"/>
			<g>
				<path style="fill:#00A651;" d="M766.423,71.328L1020.845,512L766.423,952.673H257.577L3.155,512L257.577,71.328H766.423
					 M767,70.328H257L2,512l255,441.673h510L1022,512L767,70.328L767,70.328z"/>
			</g>
		</g>
	</g>
	<g id="Guide" style="display:none;">
		<g style="display:inline;">
			<g>
				
					<line style="opacity:0.2;fill:none;stroke:#010101;stroke-width:3;stroke-miterlimit:10;" x1="69.069" y1="1.48" x2="69.069" y2="1022.501"/>
				
					<line style="opacity:0.2;fill:none;stroke:#010101;stroke-width:3;stroke-miterlimit:10;" x1="1022.498" y1="955.334" x2="1.502" y2="955.334"/>
				
					<line style="opacity:0.2;fill:none;stroke:#010101;stroke-width:3;stroke-miterlimit:10;" x1="1022.498" y1="68.667" x2="1.502" y2="68.667"/>
				
					<line style="opacity:0.2;fill:none;stroke:#010101;stroke-width:3;stroke-miterlimit:10;" x1="1024" y1="511.997" x2="0" y2="511.997"/>
				
					<line style="opacity:0.2;fill:none;stroke:#010101;stroke-width:3;stroke-miterlimit:10;" x1="1022.498" y1="1022.501" x2="1.502" y2="1.48"/>
				
					<line style="opacity:0.2;fill:none;stroke:#010101;stroke-width:3;stroke-miterlimit:10;" x1="1022.498" y1="1.48" x2="1.502" y2="1022.501"/>
				
					<line style="opacity:0.2;fill:none;stroke:#010101;stroke-width:3;stroke-miterlimit:10;" x1="1024" y1="766.114" x2="0" y2="766.114"/>
				<line style="opacity:0.2;fill:none;stroke:#010101;stroke-width:3;stroke-miterlimit:10;" x1="1024" y1="256" x2="0" y2="256"/>
				
					<line style="opacity:0.2;fill:none;stroke:#010101;stroke-width:3;stroke-miterlimit:10;" x1="954.931" y1="1022.501" x2="954.931" y2="1.48"/>
				<line style="opacity:0.2;fill:none;stroke:#010101;stroke-width:3;stroke-miterlimit:10;" x1="512" y1="1024" x2="512" y2="0"/>
				<line style="opacity:0.2;fill:none;stroke:#010101;stroke-width:3;stroke-miterlimit:10;" x1="767" y1="1024" x2="767" y2="0"/>
				<line style="opacity:0.2;fill:none;stroke:#010101;stroke-width:3;stroke-miterlimit:10;" x1="257" y1="1024" x2="257" y2="0"/>
				<path style="opacity:0.2;fill:none;stroke:#010101;stroke-width:3;stroke-miterlimit:10;" d="M912.412,511.998
					c0,219.845-179.278,398.07-400.412,398.07s-400.412-178.224-400.412-398.07c0-219.855,179.278-398.078,400.412-398.078
					S912.412,292.143,912.412,511.998z"/>
				<path style="opacity:0.2;fill:none;stroke:#010101;stroke-width:3;stroke-miterlimit:10;" d="M954.931,511.997
					c0,244.85-198.306,443.337-442.931,443.337S69.069,756.847,69.069,511.997c0-244.862,198.306-443.33,442.931-443.33
					S954.931,267.135,954.931,511.997z"/>
			</g>
			<path style="opacity:0.2;fill:none;stroke:#010101;stroke-width:3;stroke-miterlimit:10;" d="M0,793.565
				C0,920.834,103.777,1024,231.793,1024l560.39-0.099c128.008,0,231.793-103.186,231.793-230.435V230.455
				C1023.975,103.186,920.198,0,792.183,0l-560.39,0.113C103.784,0.113,0,103.285,0,230.56V793.565z"/>
			<circle style="opacity:0.2;fill:none;stroke:#010101;stroke-width:3;stroke-miterlimit:10;" cx="512" cy="512" r="512"/>
			<polygon style="opacity:0.2;fill:none;stroke:#010101;stroke-width:3;stroke-miterlimit:10;" points="256,955.405 0,512 
				256,68.595 768,68.595 1024,512 768,955.405 			"/>
		</g>
	</g>
	<g id="Outter_mask" style="display:none;">
		<path style="display:inline;fill:#FFFFFF;" d="M0,230.56C0,103.285,103.784,0.113,231.793,0.113L792.183,0
			c128.015,0,231.793,103.186,231.793,230.455v563.011c0,127.249-103.784,230.435-231.793,230.435L231.793,1024
			C103.777,1024,0,920.834,0,793.565V230.56z M1024,0H0v1024h1024V0z"/>
	</g>
</g>
<g id="berryliike">
	<g>
		<path style="fill:#FFFFFF;" d="M788.919,605.847c19.569-16.702,32.243-41.244,32.243-68.986c0-50.296-40.782-91.071-91.075-91.071
			c-11.103,0-21.598,2.278-31.437,5.91L526.849,158.343c-0.128-0.216-0.337-0.33-0.472-0.535c-0.494-0.751-1.135-1.329-1.758-1.966
			c-0.685-0.703-1.307-1.432-2.113-1.966c-0.648-0.436-1.37-0.677-2.084-1c-0.915-0.41-1.783-0.857-2.754-1.066
			c-0.831-0.183-1.673-0.128-2.534-0.157c-0.959-0.029-1.89-0.099-2.849,0.07c-0.103,0.018-0.194,0.011-0.286,0.007
			c-0.092,0.004-0.183,0.011-0.286-0.007c-0.959-0.168-1.89-0.099-2.849-0.07c-0.861,0.029-1.703-0.026-2.534,0.157
			c-0.97,0.209-1.838,0.655-2.754,1.066c-0.71,0.322-1.435,0.564-2.084,1c-0.806,0.535-1.428,1.263-2.113,1.966
			c-0.623,0.637-1.26,1.216-1.758,1.966c-0.135,0.205-0.344,0.319-0.472,0.535L325.35,451.7c-9.839-3.633-20.334-5.91-31.437-5.91
			c-50.292,0-91.075,40.775-91.075,91.071c0,27.742,12.674,52.284,32.243,68.986l-4.793,8.184
			c-3.915,6.694-1.666,15.288,5.028,19.221c2.234,1.296,4.665,1.919,7.078,1.919c4.83,0,9.528-2.486,12.146-6.95l4.295-7.335
			c10.799,4.519,22.641,7.045,35.077,7.045c50.292,0,91.075-40.775,91.075-91.071c0-29.097-13.897-54.708-35.139-71.381
			L475.378,251.12l-96.761,425.36c-0.941-0.029-1.82-0.278-2.772-0.278c-50.292,0-91.075,40.771-91.075,91.071
			c0,37.168,22.348,69.023,54.269,83.176l-1.088,4.782c-1.721,7.554,3.017,15.091,10.59,16.808c1.04,0.238,2.084,0.348,3.127,0.348
			c6.401,0,12.198-4.405,13.681-10.938l0.923-4.072c3.19,0.337,6.298,0.967,9.572,0.967c50.292,0,91.075-40.775,91.075-91.071
			c0-39.589-25.421-72.941-60.696-85.49L512,216.79l105.777,464.993c-35.275,12.549-60.696,45.902-60.696,85.49
			c0,50.296,40.782,91.071,91.075,91.071c3.274,0,6.383-0.63,9.572-0.967l0.926,4.072c1.479,6.533,7.276,10.938,13.677,10.938
			c1.044,0,2.087-0.11,3.127-0.348c7.573-1.717,12.311-9.254,10.59-16.808l-1.088-4.782c31.921-14.153,54.269-46.008,54.269-83.176
			c0-50.3-40.782-91.071-91.075-91.071c-0.952,0-1.831,0.249-2.768,0.278l-96.765-425.36l125.529,214.359
			c-21.243,16.673-35.139,42.284-35.139,71.381c0,50.296,40.782,91.071,91.075,91.071c12.436,0,24.278-2.527,35.077-7.045
			l4.299,7.335c2.615,4.464,7.313,6.95,12.143,6.95c2.413,0,4.845-0.623,7.078-1.919c6.694-3.933,8.942-12.527,5.028-19.221
			L788.919,605.847z"/>
	</g>
</g>
</svg>
