<?xml version="1.0" encoding="iso-8859-1"?>
<!-- Generator: Adobe Illustrator 19.1.0, SVG Export Plug-In . SVG Version: 6.00 Build 0)  -->
<svg version="1.1" xmlns="http://www.w3.org/2000/svg" xmlns:xlink="http://www.w3.org/1999/xlink" x="0px" y="0px"
	 viewBox="0 0 1024 1024" style="enable-background:new 0 0 1024 1024;" xml:space="preserve">
<g id="template">
	<g id="Hexigon">
		<g>
			<polygon style="fill:#42AA48;" points="257.289,953.174 2.577,512 257.289,70.828 766.711,70.828 1021.423,512 766.711,953.174 
							"/>
			<g>
				<path style="fill:#00A651;" d="M766.423,71.328L1020.845,512L766.423,952.673H257.577L3.155,512L257.577,71.328H766.423
					 M767,70.328H257L2,512l255,441.673h510L1022,512L767,70.328L767,70.328z"/>
			</g>
		</g>
	</g>
</g>
<g id="yellowleafcolor">
	<polygon style="fill:#F7EA30;" points="688.444,346.215 637.433,397.226 613.637,421.022 613.637,218.688 511.615,116.667 
		409.594,218.688 409.594,426.253 329.556,346.215 185.276,346.215 185.276,490.495 364.72,669.939 363.814,670.845 331.369,703.29 
		483.495,703.29 483.495,907.333 534.505,907.333 534.505,703.29 686.631,703.29 654.186,670.845 653.28,669.939 781.713,541.506 
		832.724,490.495 832.724,346.215 	"/>
</g>
</svg>
