<?xml version="1.0" encoding="iso-8859-1"?>
<!-- Generator: Adobe Illustrator 19.1.0, SVG Export Plug-In . SVG Version: 6.00 Build 0)  -->
<svg version="1.1" xmlns="http://www.w3.org/2000/svg" xmlns:xlink="http://www.w3.org/1999/xlink" x="0px" y="0px"
	 viewBox="0 0 1024 1024" style="enable-background:new 0 0 1024 1024;" xml:space="preserve">
<g id="template">
	<g id="Hexigon">
		<g>
			<polygon style="fill:#42AA48;" points="257.289,953.174 2.577,512 257.289,70.828 766.711,70.828 1021.423,512 766.711,953.174 
							"/>
			<g>
				<path style="fill:#00A651;" d="M766.423,71.328L1020.845,512L766.423,952.673H257.577L3.155,512L257.577,71.328H766.423
					 M767,70.328H257L2,512l255,441.673h510L1022,512L767,70.328L767,70.328z"/>
			</g>
		</g>
	</g>
</g>
<g id="achievement6">
	<g>
		<circle style="fill:#FFFFFF;" cx="709.789" cy="179.607" r="15.942"/>
		<circle style="fill:#FFFFFF;" cx="379.916" cy="231.016" r="15.942"/>
		<circle style="fill:#FFFFFF;" cx="615.54" cy="127.07" r="15.942"/>
		<path style="fill:#FFFFFF;" d="M262.119,387.049c-19.278,37.841,20.706,59.262,20.706,59.262s-16.422,28.562-3.57,47.84
			c12.852,19.278,44.983,5.711,44.983,5.711s-12.138,36.415,13.566,53.551c25.704,17.136,47.125-0.713,47.125-0.713
			s-5.712,49.98,39.27,56.406c37.338,5.334,60.354-17.565,67.117-25.52v363.248h52.836V593.841
			c5.101-2.906,10.569-6.966,16.422-12.541c0,0,31.417,33.517,77.827,22.807c46.411-10.71,44.983-45.696,44.983-45.696
			s35.701,28.56,74.971,1.427c39.271-27.131,7.854-78.54,7.854-78.54s45.697-32.846,29.988-74.971
			c-15.708-42.127-69.973-36.415-69.973-36.415s27.846-67.118-29.988-102.104s-97.105,10.71-97.105,10.71
			s4.998-44.269-37.843-48.553c-42.841-4.284-54.265,29.275-54.265,29.275s-69.259-23.562-92.107,43.554
			c0,0-29.275-26.418-65.689-10.71c-36.415,15.71-34.273,61.406-34.273,61.406S281.397,349.205,262.119,387.049z"/>
		<circle style="fill:#FFFFFF;" cx="144.292" cy="333.834" r="15.941"/>
		<circle style="fill:#FFFFFF;" cx="187.133" cy="543.753" r="15.942"/>
		<path style="fill:#FFFFFF;" d="M332.485,849.726h-0.01c-10.497,0-22.64-1.151-36.086-3.42l-9.635-1.625l-2.5,9.447
			c-0.094,0.354-9.84,35.517-47.407,35.517c-4.829,0-9.952-0.571-15.334-1.68l13.493,23.033c0.61,0.013,1.236,0.067,1.841,0.067
			c36.454,0,56.599-24.079,64.794-42.274c11.2,1.565,21.54,2.355,30.834,2.355h0.01c27.625-0.002,48.068-7.066,60.761-20.998
			c12.446-13.66,17.302-33.156,14.842-59.605c-3.332-35.827-28.756-53.183-47.836-59.527c1.868-16.222,2.736-48.34-14.036-74.567
			c-11.921-18.64-30.325-30.765-54.701-36.034c-6.552-1.418-13.216-2.136-19.81-2.136c-23.056,0-41.648,8.608-53.576,16.214
			c-4.974-12.848-15.751-27.106-36.615-34.662c-8.219-2.977-16.944-4.487-25.935-4.487c-11.976,0-22.797,2.671-31.296,5.75
			c-1.27-14.775-9.039-31.978-31.444-43.619c-10.844-5.635-23.629-8.493-38.002-8.493c-10.606,0-20.858,1.565-29.8,3.608
			l11.45,19.544c5.828-1.029,12.045-1.732,18.351-1.732c10.901,0,20.364,2.046,28.125,6.079c26.7,13.873,19.4,36.327,18.513,38.753
			L89.18,646.998l28.261-19.011c0.165-0.111,17.268-11.223,38.138-11.223c6.497,0,12.766,1.079,18.638,3.207
			c25.74,9.321,26.177,30.758,26.146,33.07l-0.941,27.321l19.251-19.412c0.209-0.213,21.437-21.251,53.032-21.251
			c5.075,0,10.216,0.556,15.283,1.65c18.552,4.012,32.388,12.944,41.123,26.545c18.201,28.344,9.677,68.44,9.593,68.823
			l-2.525,11.302l11.463,1.636c1.496,0.215,36.655,5.66,40.117,42.87c1.87,20.111-1.186,34.239-9.346,43.192
			C368.948,845.011,353.83,849.724,332.485,849.726z"/>
		<circle style="fill:#FFFFFF;" cx="881.152" cy="608.014" r="15.942"/>
		<polygon style="fill:#FFFFFF;" points="256,75.025 256,75.025 215.388,144.347 		"/>
		<polygon style="fill:#FFFFFF;" points="39.903,443.889 0,512 256,948.975 256,948.975 0,512 		"/>
		<path style="fill:#FFFFFF;" d="M459.766,112.816c-0.552,0-0.954-0.029-0.862,0.006l-13.101-4.374l-0.184,14.639
			c-0.446,35.674-15.714,53.015-46.679,53.015c-12.601,0-22.885-3.106-22.962-3.129l-6.119-1.908l-4.573,4.489
			c-17.634,17.314-35.71,26.094-53.729,26.094c-22.786,0-38.358-14.308-38.471-14.413l-8.116-7.754l-7.365,8.47
			c-24.91,28.648-48.727,42.573-72.817,42.573h-0.004c-6.259,0-12.372-0.989-18.337-2.639l-11.131,18.999
			c9.29,3.112,19.081,5.058,29.465,5.06h0.002c28.309,0,55.295-13.927,82.265-42.51c9.06,5.932,24.648,13.635,44.508,13.635
			c22.228,0,43.843-9.434,64.326-28.058c5.353,1.153,13.651,2.512,23.056,2.512c39.475,0,63.671-23.115,67.556-63.868
			c12.982-2.201,32.967-11.624,53.526-44.366c3.005-4.788,5.301-9.543,7.045-14.264h-23.575c-0.524,0.955-1.002,1.902-1.611,2.872
			C481.536,110.297,464.502,112.816,459.766,112.816z"/>
		<path style="fill:#FFFFFF;" d="M982.201,440.652l-73.18-124.914c-8.763,9.497-14.015,20.326-15.392,31.775
			c-20.667,7.683-49.591,30.852-49.591,79.877c0,43.228,27.198,62.648,55.04,67.407c-7.349,18.138-14.16,48.763,9.081,72.407
			c18.361,18.678,39.964,30.553,62.102,34.383l11.821-20.176c-20.441-1.132-41.128-11.4-58.649-29.225
			c-22.502-22.893,1.148-60.818,1.376-61.176l11.373-17.785l-21.096,1.312c-0.142,0.01-0.766,0.04-1.763,0.04
			c-14.392,0-47.865-4.598-47.865-47.188c0-52.099,39.025-60.912,40.613-61.247l9.072-1.776l-0.431-9.233
			c-0.366-7.887,2.433-14.506,5.888-19.629L982.201,440.652z"/>
		<circle style="fill:#FFFFFF;" cx="624.108" cy="693.696" r="15.941"/>
		<circle style="fill:#FFFFFF;" cx="452.745" cy="856.49" r="15.942"/>
		<path style="fill:#FFFFFF;" d="M788.383,785.281l2.983-15.285c0.429-2.196,11.013-53.806,56.306-55.582
			c18.407-0.73,35.253,5.079,49.123,12.576l10.875-18.563c-16.759-9.152-37.54-16.331-60.839-15.417
			c-41.801,1.64-63.987,34.578-72.819,59.567c-10.369-4.443-26.267-9.595-44.255-9.595c-18.722,0-35.731,5.499-50.553,16.348
			c-38.55,28.206-33.086,77.421-28.227,99.467c-24.006,7.171-42.067,20.203-53.785,38.841
			c-10.268,16.329-13.842,34.222-14.625,49.196h21.446c0.736-11.777,3.586-25.506,11.313-37.795
			c10.229-16.268,27.388-27.054,51.001-32.053l11.792-2.498l-3.868-11.415c-0.199-0.59-19.54-59.278,17.601-86.455
			c11.076-8.104,23.83-12.214,37.906-12.214c24.644,0,45.234,12.541,45.414,12.654L788.383,785.281z"/>
	</g>
</g>
</svg>
