<?xml version="1.0" encoding="iso-8859-1"?>
<!-- Generator: Adobe Illustrator 19.1.0, SVG Export Plug-In . SVG Version: 6.00 Build 0)  -->
<svg version="1.1" xmlns="http://www.w3.org/2000/svg" xmlns:xlink="http://www.w3.org/1999/xlink" x="0px" y="0px"
	 viewBox="0 0 1024 1024" style="enable-background:new 0 0 1024 1024;" xml:space="preserve">
<g id="template">
	<g id="Background" style="display:none;">
		<rect style="display:inline;fill:#939598;" width="1024" height="1024"/>
	</g>
	<g id="Inner_mask" style="display:none;">
		<g style="display:inline;">
			<defs>
				<path id="SVGID_1_" d="M0,793.565C0,920.834,103.777,1024,231.793,1024l560.39-0.099c128.008,0,231.793-103.186,231.793-230.435
					V230.455C1023.975,103.186,920.198,0,792.183,0l-560.39,0.113C103.784,0.113,0,103.285,0,230.56V793.565z"/>
			</defs>
			<use xlink:href="#SVGID_1_"  style="overflow:visible;fill:#FFFFFF;"/>
			<clipPath id="SVGID_2_">
				<use xlink:href="#SVGID_1_"  style="overflow:visible;"/>
			</clipPath>
			<rect style="clip-path:url(#SVGID_2_);fill:#FFFFFF;" width="1024" height="1024"/>
		</g>
	</g>
	<g id="Hexigon">
		<g>
			<polygon style="fill:#42AA48;" points="257.289,953.174 2.577,512 257.289,70.828 766.711,70.828 1021.423,512 766.711,953.174 
							"/>
			<g>
				<path style="fill:#00A651;" d="M766.423,71.328L1020.845,512L766.423,952.673H257.577L3.155,512L257.577,71.328H766.423
					 M767,70.328H257L2,512l255,441.673h510L1022,512L767,70.328L767,70.328z"/>
			</g>
		</g>
	</g>
	<g id="Guide" style="display:none;">
		<g style="display:inline;">
			<g>
				
					<line style="opacity:0.2;fill:none;stroke:#010101;stroke-width:3;stroke-miterlimit:10;" x1="69.069" y1="1.48" x2="69.069" y2="1022.501"/>
				
					<line style="opacity:0.2;fill:none;stroke:#010101;stroke-width:3;stroke-miterlimit:10;" x1="1022.498" y1="955.334" x2="1.502" y2="955.334"/>
				
					<line style="opacity:0.2;fill:none;stroke:#010101;stroke-width:3;stroke-miterlimit:10;" x1="1022.498" y1="68.667" x2="1.502" y2="68.667"/>
				
					<line style="opacity:0.2;fill:none;stroke:#010101;stroke-width:3;stroke-miterlimit:10;" x1="1024" y1="511.997" x2="0" y2="511.997"/>
				
					<line style="opacity:0.2;fill:none;stroke:#010101;stroke-width:3;stroke-miterlimit:10;" x1="1022.498" y1="1022.501" x2="1.502" y2="1.48"/>
				
					<line style="opacity:0.2;fill:none;stroke:#010101;stroke-width:3;stroke-miterlimit:10;" x1="1022.498" y1="1.48" x2="1.502" y2="1022.501"/>
				
					<line style="opacity:0.2;fill:none;stroke:#010101;stroke-width:3;stroke-miterlimit:10;" x1="1024" y1="766.114" x2="0" y2="766.114"/>
				<line style="opacity:0.2;fill:none;stroke:#010101;stroke-width:3;stroke-miterlimit:10;" x1="1024" y1="256" x2="0" y2="256"/>
				
					<line style="opacity:0.2;fill:none;stroke:#010101;stroke-width:3;stroke-miterlimit:10;" x1="954.931" y1="1022.501" x2="954.931" y2="1.48"/>
				<line style="opacity:0.2;fill:none;stroke:#010101;stroke-width:3;stroke-miterlimit:10;" x1="512" y1="1024" x2="512" y2="0"/>
				<line style="opacity:0.2;fill:none;stroke:#010101;stroke-width:3;stroke-miterlimit:10;" x1="767" y1="1024" x2="767" y2="0"/>
				<line style="opacity:0.2;fill:none;stroke:#010101;stroke-width:3;stroke-miterlimit:10;" x1="257" y1="1024" x2="257" y2="0"/>
				<path style="opacity:0.2;fill:none;stroke:#010101;stroke-width:3;stroke-miterlimit:10;" d="M912.412,511.998
					c0,219.845-179.278,398.07-400.412,398.07s-400.412-178.224-400.412-398.07c0-219.855,179.278-398.078,400.412-398.078
					S912.412,292.143,912.412,511.998z"/>
				<path style="opacity:0.2;fill:none;stroke:#010101;stroke-width:3;stroke-miterlimit:10;" d="M954.931,511.997
					c0,244.85-198.306,443.337-442.931,443.337S69.069,756.847,69.069,511.997c0-244.862,198.306-443.33,442.931-443.33
					S954.931,267.135,954.931,511.997z"/>
			</g>
			<path style="opacity:0.2;fill:none;stroke:#010101;stroke-width:3;stroke-miterlimit:10;" d="M0,793.565
				C0,920.834,103.777,1024,231.793,1024l560.39-0.099c128.008,0,231.793-103.186,231.793-230.435V230.455
				C1023.975,103.186,920.198,0,792.183,0l-560.39,0.113C103.784,0.113,0,103.285,0,230.56V793.565z"/>
			<circle style="opacity:0.2;fill:none;stroke:#010101;stroke-width:3;stroke-miterlimit:10;" cx="512" cy="512" r="512"/>
			<polygon style="opacity:0.2;fill:none;stroke:#010101;stroke-width:3;stroke-miterlimit:10;" points="256,955.405 0,512 
				256,68.595 768,68.595 1024,512 768,955.405 			"/>
		</g>
	</g>
	<g id="Outter_mask" style="display:none;">
		<path style="display:inline;fill:#FFFFFF;" d="M0,230.56C0,103.285,103.784,0.113,231.793,0.113L792.183,0
			c128.015,0,231.793,103.186,231.793,230.455v563.011c0,127.249-103.784,230.435-231.793,230.435L231.793,1024
			C103.777,1024,0,920.834,0,793.565V230.56z M1024,0H0v1024h1024V0z"/>
	</g>
</g>
<g id="sportinggood">
	<g>
		<path style="fill:#FFFFFF;" d="M643.226,528.45l-198.83-286.67c-0.291-0.464-0.603-0.918-0.941-1.357
			c-8.696-11.276-29.872-9.522-47.298,3.918s-24.503,33.475-15.806,44.751c0.338,0.439,0.698,0.856,1.073,1.255l226.744,265.141
			c0,0,24.039,21.595,49.546,48.539l-0.001,0.001l122.802,159.229l-4.531,3.495c-2.476,1.909-3.08,5.275-1.351,7.518l11.463,14.864
			c1.73,2.243,5.139,2.513,7.614,0.604l28.934-22.315c2.476-1.909,3.08-5.275,1.351-7.518l-11.463-14.864
			c-1.73-2.243-5.139-2.513-7.614-0.604l-4.698,3.624l-121.52-157.567C658.569,558.283,643.226,528.45,643.226,528.45z"/>
		<g>
			<path style="fill:#FFFFFF;" d="M368.538,546.544c2.19-16.443-2.155-32.755-12.234-45.931
				c-10.079-13.175-24.685-21.637-41.128-23.827c-2.784-0.371-5.565-0.554-8.326-0.554c-13.551,0-26.659,4.415-37.604,12.788
				l-68.107,52.099c7.933,43.766,37.35,80.045,76.931,97.531l66.641-50.977C357.886,577.594,366.349,562.987,368.538,546.544z"/>
			<path style="fill:#FFFFFF;" d="M454.124,466.611c-9.045-21.832-23.753-40.72-42.294-54.837c-0.53,2.799-0.811,5.685-0.811,8.636
				C411.019,444.868,430.078,464.957,454.124,466.611z"/>
			<path style="fill:#FFFFFF;" d="M389.969,420.41c0-7.155,1.125-14.051,3.201-20.526c-18.402-9.669-39.35-15.149-61.581-15.149
				c-72.863,0-131.989,58.778-132.571,131.504l57.438-43.938c17.641-13.495,39.481-19.31,61.498-16.38
				c22.016,2.932,41.573,14.262,55.068,31.904s19.312,39.482,16.38,61.498c-2.932,22.016-14.262,41.573-31.904,55.068
				l-55.236,42.253c9.434,2.13,19.248,3.261,29.326,3.261c73.225,0,132.585-59.36,132.585-132.585
				c0-10.189-1.153-20.108-3.329-29.638c-1.164,0.06-2.335,0.091-3.513,0.091C420.189,487.774,389.969,457.554,389.969,420.41z"/>
		</g>
	</g>
</g>
</svg>
