<?xml version="1.0" encoding="iso-8859-1"?>
<!-- Generator: Adobe Illustrator 19.1.0, SVG Export Plug-In . SVG Version: 6.00 Build 0)  -->
<svg version="1.1" xmlns="http://www.w3.org/2000/svg" xmlns:xlink="http://www.w3.org/1999/xlink" x="0px" y="0px"
	 viewBox="0 0 1024 1024" style="enable-background:new 0 0 1024 1024;" xml:space="preserve">
<g id="template">
	<g id="Hexigon">
		<g>
			<polygon style="fill:#42AA48;" points="257.289,953.174 2.577,512 257.289,70.828 766.711,70.828 1021.423,512 766.711,953.174 
							"/>
			<g>
				<path style="fill:#00A651;" d="M766.423,71.328L1020.845,512L766.423,952.673H257.577L3.155,512L257.577,71.328H766.423
					 M767,70.328H257L2,512l255,441.673h510L1022,512L767,70.328L767,70.328z"/>
			</g>
		</g>
	</g>
</g>
<g id="spreading">
	<path style="fill:#FFFFFF;" d="M556.666,644.286h170.726l54.407,33.86l-54.407,33.863H556.666l-23.094-14.373l-6.898,208.385
		H500.42l-6.08-183.715l-33.195,20.66H352.334l-54.404-33.86l54.404-33.86h108.811l32.305,20.104l-2.39-72.176l-40.75,25.368
		H248.619l-54.404-33.863l54.404-33.86H450.31l40.176,25.008l-1.823-55.112l-22.876,14.235H319.826l-54.404-33.86l54.404-33.86
		h145.961l21.55,13.41l-0.04-1.22l2.045-52.181l-31.295,19.476H231.591l-54.404-33.86l54.404-33.86h226.455l32.396,20.163
		l1.918-48.89l-28.121,17.504H268.742l-54.404-33.863l54.404-33.86H464.24l29.374,18.281l1.976-50.372l-31.866,19.836h-53.085
		l-54.404-33.863l54.404-33.86h53.085l32.941,20.5l2.463-62.83l-44.175,27.496h-34.506l-54.407-33.863l54.407-33.863h34.506
		l44.662,27.801l0.378-9.611h-3.182l-54.404-33.86l54.404-33.863h46.892l54.404,33.863l-54.404,33.86h-16.599l1.58,40.234
		l34.176-21.27h77.85l54.404,33.86l-54.404,33.863h-77.85l-33.162-20.642l1.882,48.062l23.537-14.649h220.266l54.404,33.86
		l-54.404,33.863H555.115l-21.99-13.69l1.446,36.911l26.737-16.643h121.197l54.404,33.86l-54.404,33.863H561.308l-25.353-15.778
		l1.602,40.852l9.821-6.109h245.031l54.404,33.86l-54.404,33.863H547.378l-7.588-4.726l0.011,0.276l-1.885,56.924l26.49-16.483
		h214.069l54.404,33.86l-54.404,33.86H564.406l-27.616-17.188l-1.903,57.447L556.666,644.286z"/>
</g>
</svg>
