<?xml version="1.0" encoding="iso-8859-1"?>
<!-- Generator: Adobe Illustrator 19.1.0, SVG Export Plug-In . SVG Version: 6.00 Build 0)  -->
<svg version="1.1" xmlns="http://www.w3.org/2000/svg" xmlns:xlink="http://www.w3.org/1999/xlink" x="0px" y="0px"
	 viewBox="0 0 1024 1024" style="enable-background:new 0 0 1024 1024;" xml:space="preserve">
<g id="template">
	<g id="Hexigon">
		<g>
			<polygon style="fill:#42AA48;" points="257.289,953.174 2.577,512 257.289,70.828 766.711,70.828 1021.423,512 766.711,953.174 
							"/>
			<g>
				<path style="fill:#00A651;" d="M766.423,71.328L1020.845,512L766.423,952.673H257.577L3.155,512L257.577,71.328H766.423
					 M767,70.328H257L2,512l255,441.673h510L1022,512L767,70.328L767,70.328z"/>
			</g>
		</g>
	</g>
</g>
<g id="weapon">
	<g>
		<path style="fill:#FFFFFF;" d="M426.159,215.467c0.398,0.301,0.79,0.604,1.194,0.902c0.031-0.054,0.064-0.107,0.095-0.161
			c1.944-2.939,3.769-5.891,5.473-8.877c4.175-6.572,8.305-13.094,10.838-20.186c4.146-11.608,6.445-24.253,6.963-36.556
			c0.16-3.795-7.852-8.356-12.661-11.817c-3.547-2.553-7.475-4.577-11.375-6.64c-2.644-1.399-5.589-2.132-8.58-2.132h-5.666h-2.13
			h-4.148c-6.371,0-11.768,4.502-13.139,10.724c-0.008,0.036-0.016,0.071-0.024,0.107c-0.152,0.682-0.28,1.367-0.408,2.053
			c-0.423,1.322-0.719,2.702-0.832,4.142c-0.24,3.047-0.294,6.024-0.186,8.942C392.162,179.603,405.445,203.359,426.159,215.467z"/>
		<path style="fill:#FFFFFF;" d="M432.922,816.668c-1.705-2.986-3.529-5.938-5.473-8.877c-0.031-0.054-0.064-0.107-0.095-0.161
			c-0.404,0.299-0.796,0.602-1.194,0.902c-20.715,12.108-33.997,35.865-34.586,59.499c-0.107,2.918-0.053,5.895,0.186,8.942
			c0.113,1.439,0.409,2.82,0.832,4.142c0.128,0.686,0.256,1.372,0.408,2.053c0.008,0.036,0.016,0.071,0.024,0.107
			c1.371,6.222,6.768,10.724,13.139,10.724h4.148h2.13h5.666c2.991,0,5.936-0.733,8.58-2.132c3.9-2.063,7.828-4.087,11.375-6.64
			c4.809-3.461,12.821-8.023,12.661-11.817c-0.518-12.303-2.817-24.947-6.963-36.556
			C441.227,829.762,437.097,823.241,432.922,816.668z"/>
		<path style="fill:#FFFFFF;" d="M768.349,513.126l1.723-1.126l-1.723-1.126c-39.447-21.708-80.302-36.774-126.11-48.134
			c10.479,12.595,19.124,22.985,30.053,36.121c-8.061,0-12.902,0-17.742,0c-9.299,0-18.598-0.006-27.898-0.009l-0.063-8.071
			c0.045-0.233,0.055-0.451-0.005-0.646c-6.127-20.115-3.427-34.603,16.019-49.027c26.69-19.797,33.445-50.287,22.079-81.784
			c-13.798-38.235-36.552-69.031-75.448-86.96c-37.875-17.458-74.199-38.265-111.477-57.06c-3.587-1.809-10.493-1.533-13.446,0.813
			c-6.679,5.306-11.849,12.511-19.76,21.31c22.051,13.23,41.486,24.133,60.121,36.263c23.37,15.212,46.173,31.306,69.009,47.32
			c4.519,3.169,8.316,7.489,12.05,11.635c30.108,33.419,28.512,66.326-5.632,95.787c-7.871,6.791-10.143,12.67-7.584,22.59
			c3.468,13.445,5.136,27.354,7.728,41.911c0.066,0,0.131,0,0.197,0v5.907c-59.71-0.027-119.42-0.035-179.129,0.243
			c-10.631,0.049-19.441-1.817-25.421-10.782c-15.109-22.651-38.085-13.895-58.584-14.922l-7.902-0.058
			c41.888-75.991,83.643-152.056,126.262-227.634c8.679-15.39,22.743-27.695,33.868-41.782c3.223-4.081,7.373-9.881,6.58-14.029
			c-0.882-4.615-7.219-11.792-10.649-11.505c-5.743,0.481-13.474,4.662-16.208,9.592
			c-52.027,93.817-103.433,187.978-155.031,282.033c-0.605,1.102-1.292,2.16-2.015,3.198l-37.144-0.274l-1.141,2.111l24.59,17.496
			c-3.873,4.201-6.563,10.47-7.257,17.641l-0.183-0.001c0,0.618,0.019,1.229,0.048,1.836c-0.029,0.607-0.048,1.218-0.048,1.836
			l0.183-0.001c0.694,7.171,3.384,13.44,7.257,17.641l-24.59,17.496l1.141,2.111l37.144-0.274c0.723,1.038,1.41,2.095,2.015,3.198
			c51.598,94.055,103.005,188.216,155.031,282.033c2.734,4.931,10.465,9.112,16.208,9.592c3.431,0.287,9.767-6.89,10.649-11.505
			c0.793-4.149-3.357-9.948-6.58-14.029c-11.125-14.087-25.189-26.393-33.868-41.782c-42.62-75.578-84.374-151.643-126.262-227.634
			l7.902-0.058c20.499-1.026,43.475,7.729,58.584-14.922c5.98-8.964,14.79-10.831,25.421-10.781
			c59.709,0.278,119.419,0.27,179.129,0.243v5.907c-0.066,0-0.131,0-0.197,0c-2.591,14.557-4.259,28.466-7.728,41.911
			c-2.559,9.919-0.287,15.799,7.584,22.59c34.144,29.461,35.741,62.368,5.632,95.787c-3.735,4.145-7.531,8.466-12.05,11.635
			c-22.837,16.014-45.639,32.108-69.009,47.32c-18.636,12.13-38.07,23.033-60.121,36.263c7.911,8.798,13.081,16.003,19.76,21.31
			c2.952,2.346,9.859,2.621,13.446,0.813c37.278-18.795,73.602-39.602,111.477-57.06c38.896-17.929,61.65-48.725,75.448-86.96
			c11.366-31.497,4.611-61.987-22.079-81.784c-19.446-14.424-22.146-28.911-16.019-49.027c0.06-0.196,0.05-0.413,0.005-0.646
			l0.063-8.071c9.299-0.003,18.598-0.009,27.898-0.009c4.841,0,9.682,0,17.742,0c-10.929,13.136-19.574,23.526-30.053,36.121
			C688.048,549.901,728.902,534.834,768.349,513.126z"/>
	</g>
</g>
</svg>
