<?xml version="1.0" encoding="iso-8859-1"?>
<!-- Generator: Adobe Illustrator 19.1.0, SVG Export Plug-In . SVG Version: 6.00 Build 0)  -->
<svg version="1.1" xmlns="http://www.w3.org/2000/svg" xmlns:xlink="http://www.w3.org/1999/xlink" x="0px" y="0px"
	 viewBox="0 0 1024 1024" style="enable-background:new 0 0 1024 1024;" xml:space="preserve">
<g id="template">
	<g id="Background" style="display:none;">
		<rect style="display:inline;fill:#939598;" width="1024" height="1024"/>
	</g>
	<g id="Inner_mask" style="display:none;">
		<g style="display:inline;">
			<defs>
				<path id="SVGID_1_" d="M0,793.565C0,920.834,103.777,1024,231.793,1024l560.39-0.099c128.008,0,231.793-103.186,231.793-230.435
					V230.455C1023.975,103.186,920.198,0,792.183,0l-560.39,0.113C103.784,0.113,0,103.285,0,230.56V793.565z"/>
			</defs>
			<use xlink:href="#SVGID_1_"  style="overflow:visible;fill:#FFFFFF;"/>
			<clipPath id="SVGID_2_">
				<use xlink:href="#SVGID_1_"  style="overflow:visible;"/>
			</clipPath>
			<rect style="clip-path:url(#SVGID_2_);fill:#FFFFFF;" width="1024" height="1024"/>
		</g>
	</g>
	<g id="Hexigon">
		<g>
			<polygon style="fill:#42AA48;" points="257.289,953.174 2.577,512 257.289,70.828 766.711,70.828 1021.423,512 766.711,953.174 
							"/>
			<g>
				<path style="fill:#00A651;" d="M766.423,71.328L1020.845,512L766.423,952.673H257.577L3.155,512L257.577,71.328H766.423
					 M767,70.328H257L2,512l255,441.673h510L1022,512L767,70.328L767,70.328z"/>
			</g>
		</g>
	</g>
	<g id="Guide" style="display:none;">
		<g style="display:inline;">
			<g>
				
					<line style="opacity:0.2;fill:none;stroke:#010101;stroke-width:3;stroke-miterlimit:10;" x1="69.069" y1="1.48" x2="69.069" y2="1022.501"/>
				
					<line style="opacity:0.2;fill:none;stroke:#010101;stroke-width:3;stroke-miterlimit:10;" x1="1022.498" y1="955.334" x2="1.502" y2="955.334"/>
				
					<line style="opacity:0.2;fill:none;stroke:#010101;stroke-width:3;stroke-miterlimit:10;" x1="1022.498" y1="68.667" x2="1.502" y2="68.667"/>
				
					<line style="opacity:0.2;fill:none;stroke:#010101;stroke-width:3;stroke-miterlimit:10;" x1="1024" y1="511.997" x2="0" y2="511.997"/>
				
					<line style="opacity:0.2;fill:none;stroke:#010101;stroke-width:3;stroke-miterlimit:10;" x1="1022.498" y1="1022.501" x2="1.502" y2="1.48"/>
				
					<line style="opacity:0.2;fill:none;stroke:#010101;stroke-width:3;stroke-miterlimit:10;" x1="1022.498" y1="1.48" x2="1.502" y2="1022.501"/>
				
					<line style="opacity:0.2;fill:none;stroke:#010101;stroke-width:3;stroke-miterlimit:10;" x1="1024" y1="766.114" x2="0" y2="766.114"/>
				<line style="opacity:0.2;fill:none;stroke:#010101;stroke-width:3;stroke-miterlimit:10;" x1="1024" y1="256" x2="0" y2="256"/>
				
					<line style="opacity:0.2;fill:none;stroke:#010101;stroke-width:3;stroke-miterlimit:10;" x1="954.931" y1="1022.501" x2="954.931" y2="1.48"/>
				<line style="opacity:0.2;fill:none;stroke:#010101;stroke-width:3;stroke-miterlimit:10;" x1="512" y1="1024" x2="512" y2="0"/>
				<line style="opacity:0.2;fill:none;stroke:#010101;stroke-width:3;stroke-miterlimit:10;" x1="767" y1="1024" x2="767" y2="0"/>
				<line style="opacity:0.2;fill:none;stroke:#010101;stroke-width:3;stroke-miterlimit:10;" x1="257" y1="1024" x2="257" y2="0"/>
				<path style="opacity:0.2;fill:none;stroke:#010101;stroke-width:3;stroke-miterlimit:10;" d="M912.412,511.998
					c0,219.845-179.278,398.07-400.412,398.07s-400.412-178.224-400.412-398.07c0-219.855,179.278-398.078,400.412-398.078
					S912.412,292.143,912.412,511.998z"/>
				<path style="opacity:0.2;fill:none;stroke:#010101;stroke-width:3;stroke-miterlimit:10;" d="M954.931,511.997
					c0,244.85-198.306,443.337-442.931,443.337S69.069,756.847,69.069,511.997c0-244.862,198.306-443.33,442.931-443.33
					S954.931,267.135,954.931,511.997z"/>
			</g>
			<path style="opacity:0.2;fill:none;stroke:#010101;stroke-width:3;stroke-miterlimit:10;" d="M0,793.565
				C0,920.834,103.777,1024,231.793,1024l560.39-0.099c128.008,0,231.793-103.186,231.793-230.435V230.455
				C1023.975,103.186,920.198,0,792.183,0l-560.39,0.113C103.784,0.113,0,103.285,0,230.56V793.565z"/>
			<circle style="opacity:0.2;fill:none;stroke:#010101;stroke-width:3;stroke-miterlimit:10;" cx="512" cy="512" r="512"/>
			<polygon style="opacity:0.2;fill:none;stroke:#010101;stroke-width:3;stroke-miterlimit:10;" points="256,955.405 0,512 
				256,68.595 768,68.595 1024,512 768,955.405 			"/>
		</g>
	</g>
	<g id="Outter_mask" style="display:none;">
		<path style="display:inline;fill:#FFFFFF;" d="M0,230.56C0,103.285,103.784,0.113,231.793,0.113L792.183,0
			c128.015,0,231.793,103.186,231.793,230.455v563.011c0,127.249-103.784,230.435-231.793,230.435L231.793,1024
			C103.777,1024,0,920.834,0,793.565V230.56z M1024,0H0v1024h1024V0z"/>
	</g>
</g>
<g id="bee">
	<g id="bee_1_">
		<path style="fill:#FFFFFF;" d="M406.103,184.441c34.836,2.864,64.042,37.835,79.598,60.731c7.981-2.113,16.359-3.252,25.005-3.252
			c9.945,0,19.537,1.498,28.575,4.266c15.372-22.861,44.93-58.838,80.284-61.744c39.856-3.276,87.109,39.985,61.753,63.54
			c-22.351,20.766-38.905-11.417-59.611-11.417c-12.918,0-29.447,20.562-40.054,36.032c16.429,17.446,26.515,40.931,26.515,66.786
			c0,23.282-8.249,44.586-21.871,61.347c-18.078-3.867-36.098-6.823-53.628-8.726l-10.581-1.148l1.138,10.583
			c4.361,40.582,25.106,92.072,54.723,138.797c-20.691,5.91-43.386,9.206-67.243,9.206c-23.481,0-45.828-3.202-66.254-8.938
			c29.703-46.795,50.52-98.403,54.889-139.065l1.138-10.583l-10.58,1.148c-17.852,1.937-36.21,4.961-54.621,8.933
			c-13.723-16.791-22.035-38.177-22.035-61.554c0-27.136,11.099-51.673,28.994-69.343c-10.614-15.083-26.058-33.475-38.276-33.475
			c-20.706,0-37.26,32.183-59.611,11.417C318.994,224.426,366.247,181.165,406.103,184.441z"/>
		<path style="fill:#FFFFFF;" d="M231.813,623.196c-20.759-23.786-26.324-48.549-16.534-73.603
			c26.96-68.984,156.377-124.738,265.516-139.232c-16.81,98.109-120.749,238.094-197.967,238.08
			C263.593,648.436,246.431,639.943,231.813,623.196z"/>
		<path style="fill:#FFFFFF;" d="M510.707,832.235c-33.266-18.69-66.01-48.991-92.327-86.355
			c26.794,11.376,58.423,17.97,92.327,17.97c36.08,0,69.604-7.449,97.445-20.206C581.904,783.221,547.802,814.854,510.707,832.235z"
			/>
		<path style="fill:#FFFFFF;" d="M645.467,666.337c-32.045,26.427-80.496,43.284-134.76,43.284
			c-53.261,0-100.935-16.231-132.98-41.817c-4.395-12.331-7.944-24.998-10.647-37.878c11.369-9.115,22.454-19.611,33.058-31.164
			c30.125,16.808,68.581,26.944,110.569,26.944c42.35,0,81.111-10.309,111.35-27.378c10.539,11.518,21.554,21.995,32.855,31.111
			C652.523,641.948,649.378,654.289,645.467,666.337z"/>
		<path style="fill:#FFFFFF;" d="M739.743,648.44c-77.218,0-181.157-139.983-197.971-238.08
			c109.143,14.494,238.561,70.25,265.52,139.234c9.79,25.052,4.225,49.815-16.534,73.601
			C776.141,639.945,758.976,648.44,739.743,648.44z"/>
	</g>
</g>
</svg>
