<?xml version="1.0" encoding="iso-8859-1"?>
<!-- Generator: Adobe Illustrator 19.1.0, SVG Export Plug-In . SVG Version: 6.00 Build 0)  -->
<svg version="1.1" xmlns="http://www.w3.org/2000/svg" xmlns:xlink="http://www.w3.org/1999/xlink" x="0px" y="0px"
	 viewBox="0 0 1024 1024" style="enable-background:new 0 0 1024 1024;" xml:space="preserve">
<g id="template">
	<g id="Hexigon">
		<g>
			<polygon style="fill:#42AA48;" points="257.289,953.174 2.577,512 257.289,70.828 766.711,70.828 1021.423,512 766.711,953.174 
							"/>
			<g>
				<path style="fill:#00A651;" d="M766.423,71.328L1020.845,512L766.423,952.673H257.577L3.155,512L257.577,71.328H766.423
					 M767,70.328H257L2,512l255,441.673h510L1022,512L767,70.328L767,70.328z"/>
			</g>
		</g>
	</g>
</g>
<g id="sports">
	<g>
		<path style="fill:#FFFFFF;" d="M649.226,535.45l-198.83-286.67c-0.291-0.464-0.603-0.918-0.941-1.357
			c-8.696-11.276-29.872-9.522-47.298,3.918s-24.503,33.475-15.806,44.751c0.338,0.439,0.698,0.856,1.073,1.255l226.744,265.141
			c0,0,24.039,21.595,49.546,48.539l-0.001,0.001l122.802,159.229l-4.531,3.495c-2.476,1.909-3.08,5.275-1.351,7.518l11.463,14.864
			c1.73,2.243,5.139,2.513,7.614,0.604l28.934-22.315c2.476-1.909,3.08-5.275,1.351-7.518l-11.463-14.864
			c-1.73-2.243-5.139-2.513-7.614-0.604l-4.698,3.624l-121.52-157.567C664.569,565.283,649.226,535.45,649.226,535.45z"/>
		<g>
			<path style="fill:#FFFFFF;" d="M374.538,553.544c2.19-16.443-2.155-32.755-12.234-45.931
				c-10.079-13.175-24.685-21.637-41.128-23.827c-2.784-0.371-5.565-0.554-8.326-0.554c-13.551,0-26.659,4.415-37.604,12.788
				l-68.107,52.099c7.933,43.766,37.35,80.045,76.931,97.531l66.641-50.977C363.886,584.594,372.349,569.987,374.538,553.544z"/>
			<path style="fill:#FFFFFF;" d="M460.124,473.611c-9.045-21.832-23.753-40.72-42.294-54.837c-0.53,2.799-0.811,5.685-0.811,8.636
				C417.019,451.868,436.078,471.957,460.124,473.611z"/>
			<path style="fill:#FFFFFF;" d="M395.969,427.41c0-7.155,1.125-14.051,3.201-20.526c-18.402-9.669-39.35-15.149-61.581-15.149
				c-72.863,0-131.989,58.778-132.571,131.504l57.438-43.938c17.641-13.495,39.481-19.31,61.498-16.38
				c22.016,2.932,41.573,14.262,55.068,31.904c13.495,17.641,19.312,39.482,16.38,61.498c-2.932,22.016-14.262,41.573-31.904,55.068
				l-55.236,42.253c9.434,2.13,19.248,3.261,29.326,3.261c73.225,0,132.585-59.36,132.585-132.585
				c0-10.189-1.153-20.108-3.329-29.638c-1.164,0.06-2.335,0.091-3.513,0.091C426.189,494.774,395.969,464.554,395.969,427.41z"/>
		</g>
	</g>
</g>
</svg>
