<?xml version="1.0" encoding="iso-8859-1"?>
<!-- Generator: Adobe Illustrator 19.1.0, SVG Export Plug-In . SVG Version: 6.00 Build 0)  -->
<svg version="1.1" xmlns="http://www.w3.org/2000/svg" xmlns:xlink="http://www.w3.org/1999/xlink" x="0px" y="0px"
	 viewBox="0 0 1024 1024" style="enable-background:new 0 0 1024 1024;" xml:space="preserve">
<g id="template">
	<g id="Hexigon">
		<g>
			<polygon style="fill:#42AA48;" points="257.289,953.174 2.577,512 257.289,70.828 766.711,70.828 1021.423,512 766.711,953.174 
							"/>
			<g>
				<path style="fill:#00A651;" d="M766.423,71.328L1020.845,512L766.423,952.673H257.577L3.155,512L257.577,71.328H766.423
					 M767,70.328H257L2,512l255,441.673h510L1022,512L767,70.328L767,70.328z"/>
			</g>
		</g>
	</g>
</g>
<g id="hedge">
	<g>
		<path style="fill:#FFFFFF;" d="M864.443,612.271c0.157-1.092,0.264-2.2,0.264-3.338c0-3.683-0.866-7.148-2.373-10.21v-6.86
			c11.518-6.41,19.287-18.477,19.287-32.317c0-11.911-5.756-22.507-14.701-29.318c3.237-3.458,5.23-8.053,5.23-13.115
			c0-7.146-3.95-13.375-9.815-16.75v-3.003c10.651-5.965,17.934-17.985,17.934-31.853c0-9.629-3.516-18.364-9.226-24.806
			c0.719-3.279,1.108-6.763,1.108-10.374c0-8.674-2.238-16.609-5.941-22.742c1.629-3.707,2.558-7.939,2.558-12.438
			c0-8.241-3.103-15.596-7.96-20.434c-4.905-17.72-21.137-30.734-40.418-30.734h-2.122c0.053-0.503,0.098-1.008,0.098-1.522
			c0-9.995-10.298-18.097-23.002-18.097c-12.529,0-22.698,7.885-22.976,17.69c-2.938-7.82-9.658-13.293-17.487-13.293
			c-4.126,0-7.936,1.534-11.057,4.116c-1.702-0.248-3.474-0.395-5.309-0.395c-11.364,0-20.665,5.065-21.561,11.501h-1.066
			c-2.625-6.671-10.278-11.501-19.319-11.501c-9.041,0-16.693,4.83-19.319,11.501h-8.26c-5.442-2.32-13.669-4.112-22.958-4.733
			c-14.08-0.94-26.108,1.109-29.808,4.733h-1.237c0-11.956-8.909-21.649-19.898-21.649s-19.898,9.693-19.898,21.649h-0.387
			c0-9.154-8.736-16.575-19.511-16.575s-19.511,7.421-19.511,16.575h-0.116c-6.164-7.108-16.039-11.715-27.173-11.715
			c-10.587,0-20.035,4.168-26.238,10.689c-2.68-6.233-7.95-10.474-14.016-10.474c-5.115,0-9.652,3.025-12.561,7.706
			c-1.092-0.157-2.2-0.264-3.338-0.264c-4.887,0-9.394,1.517-13.07,4.059h-1.514c-5.32-14.431-18.891-24.694-34.803-24.694
			c-12.92,0-24.299,6.767-30.97,17.037c-3.216-2.406-7.17-3.845-11.463-3.845c-7.812,0-14.528,4.716-17.615,11.501h-1.259
			c-5.6-11.561-18.144-19.62-32.732-19.62c-9.629,0-18.364,3.516-24.806,9.226c-3.279-0.719-6.763-1.108-10.374-1.108
			c-8.674,0-16.609,2.238-22.742,5.941c-3.706-1.629-7.939-2.558-12.438-2.558c-8.328,0-15.743,3.173-20.579,8.118h-5.806
			c-20.865,0-38.165,15.238-41.396,35.191c-4.28,4.82-6.976,11.698-6.976,19.36c0,4.499,0.929,8.731,2.558,12.438
			c-3.703,6.133-5.941,14.069-5.941,22.742c0,5.656,0.955,10.996,2.643,15.731c-2.9,4.727-4.824,10.242-5.407,16.24
			c-1.242,12.765,3.871,24.562,12.574,31.776v6.376c-11.33,7.58-18.175,21.28-16.573,36.072c1.275,11.777,7.631,21.736,16.573,27.82
			v11.424c-3.765,6.894-6.089,16.328-6.089,26.741c0,10.412,2.324,19.847,6.089,26.741v1.584c-2.242,0-4.059,11.661-4.059,26.047
			c0,14.385,1.817,26.047,4.059,26.047c0,23.166,18.78,41.945,41.945,41.945h608.201c23.166,0,41.945-18.78,41.945-41.945v-47.77
			c5.866-2.762,9.815-7.858,9.815-13.705C872.149,619.717,869.123,615.179,864.443,612.271z M245.601,679.373
			c-0.124,0.263-0.249,0.541-0.376,0.843c-4.362,10.374-31.157,7.667-31.157,7.667c29.911-5.412,0.623-10.825,19.317-7.667
			C239.506,681.25,243.344,680.492,245.601,679.373C248.327,673.573,250.035,677.173,245.601,679.373z M280.872,460.029
			c-0.508-0.318-0.968-0.679-1.403-1.062c-5.35-2.601-14.745-5.959-24.841-5.062c0,0,13.559-3.499,17.496-12.684
			c3.746-8.741-1.211,10.234,7.345,17.746C284.55,461.438,285.985,463.225,280.872,460.029z M402.498,576.467
			c3.146,7.641,1.146,7.424-8.989,4.045c-10.787-3.596-22.023-4.045-22.023-4.045l9.439-21.125c0,0,8.989,11.236,21.574,10.562
			C415.083,565.231,399.352,568.827,402.498,576.467z M476.628,684.735c-0.688,0.477-1.493,1.142-2.431,2.056
			c-3.476,3.387-7.491,3.925-11.137,3.445c-2.219,5.037-5.073,7.498-8.487,2.169c-6.149-9.6,0.219-3.256,8.487-2.169
			c3.541-8.037,5.466-22.634,5.466-22.634C471.615,678.536,474.528,683.103,476.628,684.735
			C481.504,681.352,480.334,687.614,476.628,684.735z M601.479,482.538c4.059,14.884-1.353-6.765-12.178-6.765
			s-1.353-12.178-6.765-27.061c0,0,14.884,6.765,25.708-9.472S597.419,467.655,601.479,482.538z M673.991,607.903
			c-2.811,2.993-8.066,9.089-9.599,14.317c1.29,3.986,1.829,7.13,1.829,7.13c-2.393-1.682-2.666-4.276-1.829-7.13
			c-1.519-4.693-4.083-10.554-8.056-13.845c-2.749-1.153-4.595-2.325-4.595-2.325c1.707,0.372,3.233,1.198,4.595,2.325
			C661.125,610.383,668.658,612.322,673.991,607.903c1.083-1.154,1.809-1.853,1.809-1.853
			C675.235,606.769,674.627,607.376,673.991,607.903z M781.546,669.021c-15.471,0.669-23.933,14.817-13.943,1.568
			c5.469-7.253,1.276-12.133-3.637-15.069c-8.615-3.526-8.616-3.527-8.616-3.527s4.554,1.1,8.616,3.527
			c2.888,1.182,6.742,2.76,11.891,4.868C796.365,668.782,797.017,668.352,781.546,669.021z M777.556,427.475
			c-8.855,2.955-6.48-0.41-2.845-4.404c-6.244-0.374-8.699-3.497-0.006-6.793c11.097-4.208,4.561,1.787,0.006,6.793
			c6.876,0.411,18.344-2.517,24.592-12.219c0.935-1.521,1.594-2.851,2.031-3.849c0.263-0.621,0.511-1.258,0.735-1.921
			c0,0-0.211,0.724-0.735,1.921c-0.588,1.388-1.27,2.669-2.031,3.849C796.116,416.034,789.682,423.429,777.556,427.475z"/>
		<path style="fill:#FFFFFF;" d="M333.22,323.49c0,0-37.592-17.852-28.085-26.318C313.765,289.488,331.464,314.999,333.22,323.49z"
			/>
		<path style="fill:#FFFFFF;" d="M164.684,500.556c0,0-37.332-1.643-35.165-20.071C131.487,463.757,158.649,489.363,164.684,500.556
			z"/>
		<path style="fill:#FFFFFF;" d="M344.519,332.622c0,0,4.379-19.661,17.788-18.183C374.48,315.781,353.287,329.642,344.519,332.622z
			"/>
		<path style="fill:#FFFFFF;" d="M870.886,615.181c0,0,4.379-19.661,17.788-18.183C900.847,598.34,879.654,612.202,870.886,615.181z
			"/>
		<path style="fill:#FFFFFF;" d="M872.927,616.038c0,0,14.151-7.221,20.583,1.933C899.349,626.28,879.494,620.023,872.927,616.038z"
			/>
	</g>
</g>
</svg>
