<?xml version="1.0" encoding="iso-8859-1"?>
<!-- Generator: Adobe Illustrator 19.1.0, SVG Export Plug-In . SVG Version: 6.00 Build 0)  -->
<svg version="1.1" xmlns="http://www.w3.org/2000/svg" xmlns:xlink="http://www.w3.org/1999/xlink" x="0px" y="0px"
	 viewBox="0 0 1024 1024" style="enable-background:new 0 0 1024 1024;" xml:space="preserve">
<g id="template">
	<g id="Hexigon">
		<g>
			<polygon style="fill:#42AA48;" points="257.289,953.174 2.577,512 257.289,70.828 766.711,70.828 1021.423,512 766.711,953.174 
							"/>
			<g>
				<path style="fill:#00A651;" d="M766.423,71.328L1020.845,512L766.423,952.673H257.577L3.155,512L257.577,71.328H766.423
					 M767,70.328H257L2,512l255,441.673h510L1022,512L767,70.328L767,70.328z"/>
			</g>
		</g>
	</g>
</g>
<g id="achievement12">
	<g>
		<path style="fill:#FFFFFF;" d="M643.199,595.539c-61.048-27.846-86.752-95.32-86.752-111.386s-1.071-95.32-1.071-95.32
			c51.409,24.633,83.539-16.065,83.539-16.065c23.562,10.71,69.616-3.213,83.539-22.491c13.923-19.278,4.284-57.835,4.284-57.835
			c24.633-7.497,31.059-47.125,17.136-65.332c-13.923-18.207-48.196-13.923-48.196-13.923s6.426-34.273-19.278-49.267
			c-25.704-14.994-64.261,4.284-64.261,4.284c-22.491-51.409-64.261-22.491-64.261-22.491c-5.355-9.639-23.562-29.988-61.048-25.704
			c-37.486,4.284-47.125,36.415-47.125,36.415c-64.261-19.278-76.042,35.344-76.042,35.344s-39.628-18.207-68.545,16.065
			s3.213,77.113,3.213,77.113c-10.71,16.065-22.491,41.77,0,67.474c22.491,25.704,78.184,0,78.184,0s21.42,36.415,50.338,43.912
			c28.917,7.497,70.687-7.497,70.687-7.497s0,81.397-1.071,101.747c-1.071,20.349-68.545,128.522-184.215,117.812
			s-136.019,74.971-136.019,74.971c39.628-43.912,83.539-44.983,83.539-44.983c-50.338,47.125-52.48,96.392-52.48,96.392
			c16.065-51.409,86.752-83.539,86.752-83.539c-87.823,163.866-27.846,216.345-27.846,216.345
			c-16.065-35.344,11.781-93.178,11.781-93.178c48.196,138.161,136.019,137.09,136.019,137.09
			c-65.332-20.349-93.178-103.889-93.178-103.889c12.852,9.639,49.267,13.923,49.267,13.923s-67.474-32.13-67.474-97.463
			s104.96-97.463,104.96-97.463c-21.42,65.332,13.923,96.392,13.923,96.392c-17.136-23.562,5.355-80.326,43.912-95.32
			c38.557-14.994,67.474-47.125,67.474-47.125c40.699,51.409,113.528,37.486,118.883,82.468
			c5.355,44.983-18.207,70.687-18.207,70.687c58.906-24.633,38.557-96.391,38.557-96.391s72.829,28.917,52.48,99.605
			c-20.349,70.687-76.042,88.894-76.042,88.894c36.415,2.142,63.19-17.136,63.19-17.136c0,57.835-62.119,102.818-62.119,102.818
			c88.894-21.42,106.031-134.948,106.031-134.948c21.42,41.77-3.213,92.107-3.213,92.107c50.338-16.065,47.125-94.25,25.704-114.599
			c-21.42-20.349-17.136-86.752-17.136-86.752c33.202-1.071,72.829,69.616,72.829,69.616c1.071-49.267-53.551-81.397-53.551-81.397
			c22.491,0,67.474,27.846,67.474,27.846C785.644,606.249,704.247,623.386,643.199,595.539z"/>
		<path style="fill:#FFFFFF;" d="M476.037,734.838c-3.662,4.038-6.828,8.535-9.365,13.415c-4.57,8.786-7.152,18.771-7.152,29.359
			c0,35.195,28.531,63.726,63.725,63.726c35.195,0,63.726-28.531,63.726-63.726c0-14.63-4.983-28.068-13.273-38.824
			c0.025,0,0.056,0,0.082,0c-0.258-0.32-0.539-0.649-0.812-0.977c-1.55-1.934-3.194-3.787-4.957-5.528
			c-15.704-16.701-42.178-40.807-36.555-81.051C531.457,651.232,496.925,707.865,476.037,734.838z"/>
	</g>
</g>
</svg>
