<?xml version="1.0" encoding="iso-8859-1"?>
<!-- Generator: Adobe Illustrator 19.1.0, SVG Export Plug-In . SVG Version: 6.00 Build 0)  -->
<svg version="1.1" xmlns="http://www.w3.org/2000/svg" xmlns:xlink="http://www.w3.org/1999/xlink" x="0px" y="0px"
	 viewBox="0 0 1024 1024" style="enable-background:new 0 0 1024 1024;" xml:space="preserve">
<g id="template">
	<g id="Hexigon">
		<g>
			<polygon style="fill:#42AA48;" points="257.289,953.174 2.577,512 257.289,70.828 766.711,70.828 1021.423,512 766.711,953.174 
							"/>
			<g>
				<path style="fill:#00A651;" d="M766.423,71.328L1020.845,512L766.423,952.673H257.577L3.155,512L257.577,71.328H766.423
					 M767,70.328H257L2,512l255,441.673h510L1022,512L767,70.328L767,70.328z"/>
			</g>
		</g>
	</g>
</g>
<g id="barrel">
	<g>
		<path style="fill:#FFFFFF;" d="M396.032,191.027c-21.835,0-43.67,0-65.505,0c-7.608,18.05-14.839,36.222-21.76,54.546
			c24.385,0,48.771,0,73.156,0C386.386,227.325,391.068,209.147,396.032,191.027z"/>
		<path style="fill:#FFFFFF;" d="M364.216,329.135c-27.557,0-55.114,0-82.671,0c-33.021,125.261-32.938,250.461,0.095,375.71
			c27.546,0,55.092,0,82.638,0C342.858,579.593,342.805,454.393,364.216,329.135z"/>
		<path style="fill:#FFFFFF;" d="M308.778,788.407c6.916,18.325,14.143,36.497,21.749,54.547c21.835,0,43.67,0,65.505,0
			c-4.967-18.121-9.663-36.298-14.137-54.547C357.522,788.407,333.15,788.407,308.778,788.407z"/>
		<path style="fill:#FFFFFF;" d="M468.287,245.573c1.619-18.191,3.302-36.373,5.105-54.546c-21.835,0-43.67,0-65.505,0
			c-4.483,18.128-8.762,36.299-12.736,54.546C419.53,245.574,443.909,245.573,468.287,245.573z"/>
		<path style="fill:#FFFFFF;" d="M379.264,329.135c-19.313,125.252-19.359,250.457-0.036,375.711c27.546,0,55.091,0,82.637,0
			c-7.796-125.243-7.836-250.466-0.051-375.711C434.297,329.135,406.781,329.135,379.264,329.135z"/>
		<path style="fill:#FFFFFF;" d="M395.126,788.407c3.984,18.247,8.275,36.417,12.761,54.547c21.835,0,43.67,0,65.505,0
			c-1.803-18.174-3.485-36.356-5.103-54.547C443.902,788.407,419.514,788.407,395.126,788.407z"/>
		<path style="fill:#FFFFFF;" d="M485.248,842.954c21.835,0,43.67,0,65.505,0c1.317-18.178,2.544-36.36,3.724-54.547
			c-24.317,0-48.634,0-72.951,0C482.704,806.594,483.931,824.777,485.248,842.954z"/>
		<path style="fill:#FFFFFF;" d="M476.851,704.845c27.433,0,54.867,0,82.3,0c5.657-125.241,5.629-250.471-0.053-375.711
			c-27.399,0-54.797,0-82.196,0C471.22,454.374,471.193,579.604,476.851,704.845z"/>
		<path style="fill:#FFFFFF;" d="M550.752,191.027c-21.835,0-43.67,0-65.505,0c-1.315,18.177-2.535,36.359-3.709,54.546
			c24.308,0,48.616,0,72.924,0C553.288,227.387,552.067,209.205,550.752,191.027z"/>
		<path style="fill:#FFFFFF;" d="M640.849,245.574c-3.974-18.247-8.252-36.418-12.736-54.546c-21.835,0-43.67,0-65.505,0
			c1.804,18.173,3.487,36.355,5.105,54.546C592.092,245.573,616.47,245.574,640.849,245.574z"/>
		<path style="fill:#FFFFFF;" d="M656.773,704.845c19.322-125.253,19.276-250.459-0.037-375.71c-27.517,0-55.033,0-82.55,0
			c7.785,125.245,7.746,250.468-0.05,375.711C601.682,704.845,629.228,704.845,656.773,704.845z"/>
		<path style="fill:#FFFFFF;" d="M567.711,788.407c-1.618,18.191-3.3,36.373-5.103,54.547c21.835,0,43.67,0,65.505,0
			c4.486-18.13,8.777-36.3,12.762-54.547C616.487,788.407,592.099,788.407,567.711,788.407z"/>
		<path style="fill:#FFFFFF;" d="M727.233,245.574c-6.921-18.325-14.152-36.496-21.76-54.546c-21.835,0-43.67,0-65.505,0
			c4.964,18.119,9.646,36.297,14.109,54.546C678.463,245.574,702.848,245.574,727.233,245.574z"/>
		<path style="fill:#FFFFFF;" d="M639.968,842.954c21.835,0,43.67,0,65.505,0c7.607-18.05,14.834-36.222,21.75-54.547
			c-24.372,0-48.744,0-73.116,0C649.632,806.656,644.936,824.833,639.968,842.954z"/>
		<path style="fill:#FFFFFF;" d="M754.456,329.135c-27.557,0-55.114,0-82.671,0c21.41,125.257,21.358,250.458-0.061,375.71
			c27.546,0,55.092,0,82.638,0C787.394,579.596,787.475,454.396,754.456,329.135z"/>
		<path style="fill:#FFFFFF;" d="M381.882,312.62c26.996,0,53.992,0,80.989,0c5.921,0,8.882,0,14.803,0c26.884,0,53.769,0,80.653,0
			c5.921,0,8.882,0,14.803,0c26.996,0,53.993,0,80.989,0c5.866,0,8.798,0,14.664,0c27.015,0,54.029,0,81.044,0
			c-5.147-17.014-10.661-33.862-16.511-50.647c-25.1,0-50.199,0-75.299,0c-5.445,0-8.168,0-13.612,0c-25.067,0-50.134,0-75.201,0
			c-5.464,0-8.196,0-13.66,0c-25.029,0-50.057,0-75.086,0c-5.464,0-8.196,0-13.66,0c-25.067,0-50.134,0-75.201,0
			c-5.445,0-8.168,0-13.613,0c-25.099,0-50.199,0-75.298,0c-5.85,16.785-11.364,33.633-16.511,50.647c27.015,0,54.03,0,81.044,0
			C373.083,312.62,376.016,312.62,381.882,312.62z"/>
		<path style="fill:#FFFFFF;" d="M654.068,721.36c-26.996,0-53.991,0-80.987,0c-5.879,0-8.818,0-14.697,0
			c-26.923,0-53.845,0-80.768,0c-5.879,0-8.818,0-14.696,0c-26.995,0-53.991,0-80.987,0c-5.863,0-8.795,0-14.658,0
			c-27.004,0-54.008,0-81.013,0c5.13,17.011,10.603,33.865,16.436,50.648c25.082,0,50.164,0,75.246,0c5.447,0,8.17,0,13.617,0
			c25.079,0,50.159,0,75.238,0c5.456,0,8.183,0,13.639,0c25.041,0,50.081,0,75.122,0c5.455,0,8.183,0,13.639,0
			c25.079,0,50.159,0,75.238,0c5.447,0,8.17,0,13.617,0c25.082,0,50.164,0,75.246,0c5.834-16.783,11.307-33.637,16.437-50.648
			c-27.004,0-54.009,0-81.013,0C662.863,721.36,659.931,721.36,654.068,721.36z"/>
	</g>
</g>
</svg>
