<?xml version="1.0" encoding="iso-8859-1"?>
<!-- Generator: Adobe Illustrator 19.1.0, SVG Export Plug-In . SVG Version: 6.00 Build 0)  -->
<svg version="1.1" xmlns="http://www.w3.org/2000/svg" xmlns:xlink="http://www.w3.org/1999/xlink" x="0px" y="0px"
	 viewBox="0 0 1024 1024" style="enable-background:new 0 0 1024 1024;" xml:space="preserve">
<g id="template">
	<g id="Hexigon">
		<g>
			<polygon style="fill:#42AA48;" points="257.289,953.174 2.577,512 257.289,70.828 766.711,70.828 1021.423,512 766.711,953.174 
							"/>
			<g>
				<path style="fill:#00A651;" d="M766.423,71.328L1020.845,512L766.423,952.673H257.577L3.155,512L257.577,71.328H766.423
					 M767,70.328H257L2,512l255,441.673h510L1022,512L767,70.328L767,70.328z"/>
			</g>
		</g>
	</g>
</g>
<g id="achievement11">
	<g>
		<path style="fill:#FFFFFF;" d="M521.306,802.601c162.995,0,295.601-132.605,295.601-295.601
			c0-162.993-132.605-295.601-295.601-295.601S225.705,344.007,225.705,507C225.705,669.996,358.311,802.601,521.306,802.601z
			 M521.306,254.24c139.374,0,252.76,113.39,252.76,252.76c0,139.374-113.386,252.76-252.76,252.76S268.546,646.375,268.546,507
			C268.546,367.63,381.932,254.24,521.306,254.24z"/>
		<path style="fill:#FFFFFF;" d="M456.602,568.304l-30.633,22.278c17.822,28.403,46.786,53.467,81.318,55.136v46.227h38.988v-46.227
			c43.439-0.556,84.652-32.858,84.652-79.088c0-49.568-39.54-76.858-84.652-83.541v-91.34c14.48,2.228,25.617,9.468,50.681,37.316
			l27.29-23.949c-18.935-24.506-46.225-45.669-77.971-48.455v-46.225h-38.988v46.225c-36.762,6.127-70.177,35.645-70.177,74.632
			c0,41.77,31.746,68.503,70.177,78.529V610.63C482.779,607.289,469.412,587.239,456.602,568.304z M546.274,520.961
			c23.391,3.343,45.669,20.609,45.669,45.112c0,25.621-21.165,43.443-45.669,44.556V520.961z M476.097,432.962
			c0-17.822,12.81-36.758,31.189-41.213v80.757C489.464,466.381,476.097,451.343,476.097,432.962z"/>
	</g>
</g>
</svg>
