<?xml version="1.0" encoding="iso-8859-1"?>
<!-- Generator: Adobe Illustrator 19.1.0, SVG Export Plug-In . SVG Version: 6.00 Build 0)  -->
<svg version="1.1" xmlns="http://www.w3.org/2000/svg" xmlns:xlink="http://www.w3.org/1999/xlink" x="0px" y="0px"
	 viewBox="0 0 1024 1024" style="enable-background:new 0 0 1024 1024;" xml:space="preserve">
<g id="template">
	<g id="Hexigon">
		<g>
			<polygon style="fill:#42AA48;" points="257.289,953.174 2.577,512 257.289,70.828 766.711,70.828 1021.423,512 766.711,953.174 
							"/>
			<g>
				<path style="fill:#00A651;" d="M766.423,71.328L1020.845,512L766.423,952.673H257.577L3.155,512L257.577,71.328H766.423
					 M767,70.328H257L2,512l255,441.673h510L1022,512L767,70.328L767,70.328z"/>
			</g>
		</g>
	</g>
</g>
<g id="opposite">
	<g>
		<path style="fill:#FFFFFF;" d="M483.659,719.055c-19.528,7.82-74.763,24.473-132.239-8.163
			c-71.534-40.622-75.757-117.51-75.757-117.51s68.198-35.774,139.733,4.847c57.472,32.639,71.472,88.611,74.763,109.382
			L483.659,719.055z"/>
		<path style="fill:#FFFFFF;" d="M483.659,525.348c-19.528,7.82-74.763,24.473-132.239-8.163
			c-71.534-40.622-75.757-117.51-75.757-117.51s68.198-35.774,139.733,4.847c57.472,32.639,71.472,88.611,74.763,109.382
			L483.659,525.348z"/>
		<path style="fill:#FFFFFF;" d="M490.287,355.542l-10.876,7.412c-20.976-1.58-77.901-10.955-115.13-65.567
			c-46.334-67.973-16.263-138.864-16.263-138.864s76.983-2.084,123.318,65.89C508.56,279.027,496.479,335.444,490.287,355.542z"/>
		<path style="fill:#FFFFFF;" d="M526.795,586.79v35.732v228.163c0,8.17-6.617,14.798-14.798,14.798
			c-8.178,0-14.799-6.628-14.799-14.798V622.522V586.79V358.626c0-8.17,6.622-14.798,14.799-14.798
			c8.181,0,14.798,6.628,14.798,14.798V586.79z"/>
		<path style="fill:#FFFFFF;" d="M552.657,224.413c46.335-67.974,123.318-65.89,123.318-65.89s30.071,70.891-16.263,138.864
			c-37.23,54.612-94.155,63.987-115.131,65.567l-10.876-7.412C527.514,335.444,515.433,279.027,552.657,224.413z"/>
		<path style="fill:#FFFFFF;" d="M672.58,710.892c-57.473,32.635-112.713,15.982-132.24,8.163l-6.5-11.444
			c3.296-20.771,17.292-76.743,74.764-109.382c71.535-40.621,139.732-4.847,139.732-4.847S744.114,670.27,672.58,710.892z"/>
		<path style="fill:#FFFFFF;" d="M672.58,517.185c-57.473,32.635-112.713,15.982-132.24,8.163l-6.5-11.444
			c3.296-20.771,17.292-76.743,74.764-109.382c71.535-40.621,139.732-4.847,139.732-4.847S744.114,476.563,672.58,517.185z"/>
	</g>
</g>
</svg>
