<?xml version="1.0" encoding="iso-8859-1"?>
<!-- Generator: Adobe Illustrator 19.1.0, SVG Export Plug-In . SVG Version: 6.00 Build 0)  -->
<svg version="1.1" xmlns="http://www.w3.org/2000/svg" xmlns:xlink="http://www.w3.org/1999/xlink" x="0px" y="0px"
	 viewBox="0 0 1024 1024" style="enable-background:new 0 0 1024 1024;" xml:space="preserve">
<g id="template">
	<g id="Hexigon">
		<g>
			<polygon style="fill:#42AA48;" points="257.289,953.174 2.577,512 257.289,70.828 766.711,70.828 1021.423,512 766.711,953.174 
							"/>
			<g>
				<path style="fill:#00A651;" d="M766.423,71.328L1020.845,512L766.423,952.673H257.577L3.155,512L257.577,71.328H766.423
					 M767,70.328H257L2,512l255,441.673h510L1022,512L767,70.328L767,70.328z"/>
			</g>
		</g>
	</g>
</g>
<g id="achievement3">
	<g>
		<circle style="fill:#FFFFFF;" cx="495.957" cy="720.848" r="41.77"/>
		<circle style="fill:#FFFFFF;" cx="716.587" cy="720.848" r="41.77"/>
		<path style="fill:#FFFFFF;" d="M787.274,741.198c0,0,8.568-83.539-64.261-83.539s-73.9,70.687-73.9,70.687h-89.965
			c0-52.48-18.207-70.687-63.19-70.687c-56.764,0-59.977,57.835-59.977,57.835h-19.278v-25.704h-231.34V540.917
			c144.587-16.065,237.766,74.971,237.766,74.971c13.923-42.305,40.699-62.119,40.699-62.119L251.765,266.737l107.102-91.036
			l36.415,40.699l-86.752,56.764l187.428,261.328l10.71-7.497c23.562,9.639,93.178,74.971,93.178,74.971v-82.468
			c81.397,2.142,129.593,14.994,129.593,14.994v98.534h84.61v108.173H787.274z"/>
	</g>
</g>
</svg>
