<?xml version="1.0" encoding="iso-8859-1"?>
<!-- Generator: Adobe Illustrator 19.1.0, SVG Export Plug-In . SVG Version: 6.00 Build 0)  -->
<svg version="1.1" xmlns="http://www.w3.org/2000/svg" xmlns:xlink="http://www.w3.org/1999/xlink" x="0px" y="0px"
	 viewBox="0 0 1024 1024" style="enable-background:new 0 0 1024 1024;" xml:space="preserve">
<g id="template">
	<g id="Hexigon">
		<g>
			<polygon style="fill:#42AA48;" points="257.289,953.174 2.577,512 257.289,70.828 766.711,70.828 1021.423,512 766.711,953.174 
							"/>
			<g>
				<path style="fill:#00A651;" d="M766.423,71.328L1020.845,512L766.423,952.673H257.577L3.155,512L257.577,71.328H766.423
					 M767,70.328H257L2,512l255,441.673h510L1022,512L767,70.328L767,70.328z"/>
			</g>
		</g>
	</g>
</g>
<g id="leafarea">
	<path style="fill:#FFFFFF;" d="M821.454,401.184c6.865-17.184,4.464-36.479-7.133-57.354
		c-15.367-27.654-34.298-35.348-47.535-36.919c1.523-17.693-3.058-41.979-26.579-58.534c-26.951-18.973-62.772-8.215-82.226,0.172
		c-5.79-22.165-26.378-59.475-98.918-69.133c-75.373-10.035-110.767,22.795-124.753,42.148c-11.965-8.94-30.98-16.147-54.551-8.386
		c-26.173,8.623-36.243,27.152-40.117,39.935c-17.479-3.962-49.731-6.46-72.093,20.278c-8.844,10.574-12.66,22.272-11.342,34.766
		c1.213,11.484,6.748,21.59,12.492,29.246c-20.458,6.537-42.891,21.707-43.627,51.482c-0.368,14.697,4.008,26.778,13.003,35.904
		c6.635,6.736,14.789,10.66,22.119,12.944c-9.258,14.854-16.756,35.387-13.597,53.957c1.908,11.216,8.564,26.537,29.436,35.81
		c29.792,13.243,58.768,4.135,77.741-5.759c-0.72,12.789,0.841,28.359,9.095,42.111c9.903,16.511,26.972,26.775,50.727,30.513
		c23.466,3.69,43.703,2.623,60.429-3.152v68.972c-132.066,5.531-233.519,38.26-233.519,77.829c0,43.449,122.291,78.67,273.145,78.67
		s273.145-35.22,273.145-78.67c0-39.782-102.551-72.647-235.658-77.912v-76.262c6.443,0.318,13.681,0.36,22.044,0.14
		c26.043-0.69,42.677-15.733,52.124-28.422c14.137,19.312,39.799,38.632,75.933,28.681c18.63-5.131,31.674-14.729,38.766-28.52
		c4.991-9.706,6.016-19.774,5.61-27.97c21.404,2.366,49.137-3.217,60.625-34.614c10.258-28.031-0.013-48.394-12.873-60.671
		C803.59,426.19,815.484,416.126,821.454,401.184z M801.598,393.141c-7.598,19.203-32.482,27.361-32.7,27.432l-26.884,8.461
		l25.763,11.557c3.067,1.376,29.641,14.337,18.35,45.181c-11.17,30.509-46.313,19.377-50.246,18.017l-21.462-7.568l7.844,21.362
		c0.054,0.151,5.343,15.417-1.305,28.34c-4.242,8.246-12.789,14.189-25.407,17.665c-40.929,11.269-59.546-31.66-60.307-33.463
		l-10.137-24.408l-9.735,24.61c-0.506,1.282-12.777,31.444-42.757,32.239c-12.886,0.341-22.684,0.023-30.85-1.002l-12.045-1.512
		V669.47c0,23.399,15.751,41.224,32.469,53.551H460.145c17.714-13.028,35.302-31.513,35.302-53.551V554.641l-16.5,10.606
		c-14.488,9.309-35.921,12.064-62.019,7.959c-17.153-2.698-29.143-9.526-35.641-20.293c-12.4-20.542-2.594-49.947-2.502-50.214
		l13.174-37.988l-30.327,26.399c-0.389,0.337-39.205,33.561-76.904,16.816c-9.928-4.412-15.496-10.898-17.015-19.826
		c-3.117-18.331,10.693-41.998,19.299-50.095l19.651-18.538l-27.052,0.027c-0.167,0-16.864-0.096-26.353-9.815
		c-4.774-4.889-6.991-11.516-6.773-20.261c0.774-31.152,42.238-34.503,43.974-34.628l27.654-1.87l-21.742-17.23
		c-4.786-3.793-17.504-16.548-18.868-29.85c-0.674-6.57,1.448-12.687,6.48-18.707c21.303-25.474,58.379-11.095,59.923-10.48
		l14.396,5.84l0.335-15.534c0.008-0.245,0.845-24.546,27.826-33.434c26.257-8.646,40.803,10.624,41.355,11.377l11.246,15.846
		l7.393-17.967c0.226-0.538,23.123-53.67,109.779-42.132c83.945,11.177,82.677,61.316,82.585,63.347l-1.289,20.232l17.438-10.338
		c0.456-0.272,46.485-26.587,72.913-7.995c25.621,18.034,16.086,47.497,15.689,48.685l-6.426,18.956l19.467-5.129
		c0.883-0.23,21.692-5.301,38.983,25.828l0,0C803.891,369.16,805.912,382.251,801.598,393.141z"/>
</g>
</svg>
