<?xml version="1.0" encoding="iso-8859-1"?>
<!-- Generator: Adobe Illustrator 19.1.0, SVG Export Plug-In . SVG Version: 6.00 Build 0)  -->
<svg version="1.1" xmlns="http://www.w3.org/2000/svg" xmlns:xlink="http://www.w3.org/1999/xlink" x="0px" y="0px"
	 viewBox="0 0 1024 1024" style="enable-background:new 0 0 1024 1024;" xml:space="preserve">
<g id="template">
	<g id="Hexigon">
		<g>
			<polygon style="fill:#42AA48;" points="257.289,953.174 2.577,512 257.289,70.828 766.711,70.828 1021.423,512 766.711,953.174 
							"/>
			<g>
				<path style="fill:#00A651;" d="M766.423,71.328L1020.845,512L766.423,952.673H257.577L3.155,512L257.577,71.328H766.423
					 M767,70.328H257L2,512l255,441.673h510L1022,512L767,70.328L767,70.328z"/>
			</g>
		</g>
	</g>
</g>
<g id="achievement24_1_">
	<g>
		<path style="fill:#FFFFFF;" d="M767.996,564.48c83.539,20.349,163.866,13.923,178.86-18.207
			c14.995-32.13-104.959-64.26-104.959-64.26s65.332-133.878,7.497-147.801c-57.834-13.924-125.309,18.207-167.078-10.711
			c0,0,72.829-1.07,88.894-17.136c0,0-4.284-39.627-59.977-43.911c-55.693-4.284-110.315,104.959-110.315,104.959
			s-44.982,3.213-79.255-3.213c-34.272-6.426-76.042,7.498-18.207,64.261c57.835,56.764,103.889,74.971,222.771,94.25
			c118.884,19.278,117.279,7.479,156.369,25.704C921.685,566.64,767.996,564.48,767.996,564.48z"/>
		<path style="fill:#FFFFFF;" d="M291.393,721.919c33.202,5.355,38.2,9.639,38.2,9.639s-14.637,55.336-1.785,81.397
			c12.853,26.061,172.791-66.76,150.657-90.322c-22.135-23.563-67.474-35.702-67.474-35.702s18.028-59.262,40.52-76.399
			c22.492-17.136,12.852-90.501,20.884-110.314c8.033-19.815-37.486-17.137-44.982,27.311
			c-7.498,44.447-24.634,42.305-24.634,42.305s5.816-106.629,11.246-141.375c-6.427-103.889,21.508-101.351,5.356-132.806
			c-20.35-39.628-54.622-111.386-64.797-164.937c-7.498,54.622,28.382,169.756,28.382,169.756
			c-28.382,27.846-25.169,145.658-25.169,145.658s-3.749-2.142-31.595-114.063c-27.847-111.921-76.042-125.845-76.042-125.845
			c26.24,23.027,38.557,112.457,38.557,112.457c-25.705,30.524,0.535,80.862,14.994,118.883
			c14.459,38.021,0.536,71.222,0.536,71.222c-15.53-12.852-33.737-29.988-61.048-89.552c-27.311-59.565-90.502-87.701-90.502-87.701
			c34.809,28.381,59.442,95.32,59.442,95.32c-7.497,26.776,10.71,50.338,19.814,71.758c9.104,21.421,42.841,54.087,42.841,54.087
			c-29.453-8.033-79.256-48.196-79.256-48.196c-63.725-31.06-113.528-21.421-113.528-21.421c62.12,19.814,89.431,47.66,89.431,47.66
			c5.89,41.769,106.03,79.791,106.03,79.791S258.191,716.565,291.393,721.919z"/>
	</g>
</g>
</svg>
