<?xml version="1.0" encoding="iso-8859-1"?>
<!-- Generator: Adobe Illustrator 19.1.0, SVG Export Plug-In . SVG Version: 6.00 Build 0)  -->
<svg version="1.1" xmlns="http://www.w3.org/2000/svg" xmlns:xlink="http://www.w3.org/1999/xlink" x="0px" y="0px"
	 viewBox="0 0 1024 1024" style="enable-background:new 0 0 1024 1024;" xml:space="preserve">
<g id="template">
	<g id="Hexigon">
		<g>
			<polygon style="fill:#42AA48;" points="257.289,953.174 2.577,512 257.289,70.828 766.711,70.828 1021.423,512 766.711,953.174 
							"/>
			<g>
				<path style="fill:#00A651;" d="M766.423,71.328L1020.845,512L766.423,952.673H257.577L3.155,512L257.577,71.328H766.423
					 M767,70.328H257L2,512l255,441.673h510L1022,512L767,70.328L767,70.328z"/>
			</g>
		</g>
	</g>
</g>
<g id="achievement8">
	<g>
		<path style="fill:#FFFFFF;" d="M616.982,870.558c54.979,3.926,54.265-43.197,62.476-43.555c8.211-0.358,2.856,32.131,2.856,32.131
			c6.783,12.496,28.203,7.14,29.988,0c1.785-7.141,8.114-63.091-26.743-69.606c-38.2-7.141-39.303,42.474-57.867,41.045
			c-14.046-1.079,4.284-49.98-13.923-54.622C565.709,763.702,562.004,866.631,616.982,870.558z"/>
		<circle style="fill:#FFFFFF;" cx="615.197" cy="734.415" r="26.775"/>
		<path style="fill:#FFFFFF;" d="M857.961,560.196c0,0,36.95-12.852,34.808-79.791s-46.589-66.403-46.589-66.403
			s21.42-24.098,9.104-68.01s-55.157-41.77-55.157-41.77s16.601-38.557-16.065-56.764s-63.725,9.639-63.725,9.639
			s-2.678-21.956-33.202-44.447c-30.524-22.491-79.255-6.962-79.255-6.962s-16.601-31.595-64.261-26.775
			c-47.66,4.82-50.338,54.622-50.338,54.622s-11.246-17.136-56.764-16.601s-65.868,38.021-65.868,38.021
			s-21.956-28.917-68.545-24.633c-46.589,4.284-57.835,61.048-57.835,61.048s-48.196-9.639-68.01,19.814
			c-19.814,29.453-2.678,71.223-2.678,71.223s-28.917,12.852-26.775,41.77c0,0-48.731,3.749-48.731,50.338
			s30.524,63.726,30.524,63.726s-8.033,53.015,18.743,62.654c26.775,9.639,53.015-6.962,53.015-6.962s15.53,50.338,102.282,36.95
			c0,0,31.06,29.453,61.048,35.344c29.988,5.891,70.152-13.923,70.152-13.923s11.246,32.666,47.66,31.595
			c0,0,4.552,102.55-19.814,186.892h84.61c0,0-20.349-93.178-10.71-184.387c0,0,64.261-8.931,85.681-38.92
			c0,0,100.14,36.415,145.123-33.737C766.389,613.747,839.218,622.85,857.961,560.196z"/>
	</g>
</g>
</svg>
