<?xml version="1.0" encoding="iso-8859-1"?>
<!-- Generator: Adobe Illustrator 19.1.0, SVG Export Plug-In . SVG Version: 6.00 Build 0)  -->
<svg version="1.1" xmlns="http://www.w3.org/2000/svg" xmlns:xlink="http://www.w3.org/1999/xlink" x="0px" y="0px"
	 viewBox="0 0 1024 1024" style="enable-background:new 0 0 1024 1024;" xml:space="preserve">
<g id="template">
	<g id="Hexigon">
		<g>
			<polygon style="fill:#42AA48;" points="257.289,953.174 2.577,512 257.289,70.828 766.711,70.828 1021.423,512 766.711,953.174 
							"/>
			<g>
				<path style="fill:#00A651;" d="M766.423,71.328L1020.845,512L766.423,952.673H257.577L3.155,512L257.577,71.328H766.423
					 M767,70.328H257L2,512l255,441.673h510L1022,512L767,70.328L767,70.328z"/>
			</g>
		</g>
	</g>
</g>
<g id="settings">
	<g>
		<path style="fill:#FFFFFF;" d="M512,343.381c-93.126,0-168.619,75.494-168.619,168.619S418.874,680.619,512,680.619
			S680.619,605.126,680.619,512S605.126,343.381,512,343.381z M511.72,624.066c-61.738,0-111.786-50.048-111.786-111.786
			s50.048-111.786,111.786-111.786s111.786,50.048,111.786,111.786S573.458,624.066,511.72,624.066z"/>
		<path style="fill:#FFFFFF;" d="M825.147,537.838v-51.676l-67.08-21.223c-2.296-12.075-5.455-23.843-9.417-35.237l47.463-51.899
			l-25.838-44.753l-68.732,15.167c-7.953-9.195-16.563-17.806-25.759-25.759l15.167-68.732l-44.753-25.838l-51.899,47.463
			c-11.394-3.962-23.162-7.121-35.237-9.417l-21.223-67.08h-51.676l-21.223,67.08c-12.075,2.296-23.843,5.455-35.237,9.417
			l-51.899-47.463l-44.753,25.838l15.167,68.732c-9.195,7.953-17.806,16.563-25.759,25.759l-68.732-15.167l-25.838,44.753
			l47.463,51.899c-3.962,11.394-7.121,23.162-9.417,35.237l-67.081,21.223v51.676l67.08,21.223
			c2.296,12.075,5.455,23.843,9.417,35.237l-47.463,51.899l25.838,44.753l68.732-15.167c7.953,9.195,16.563,17.806,25.759,25.759
			l-15.167,68.732l44.753,25.838l51.899-47.463c11.394,3.962,23.162,7.121,35.237,9.417l21.223,67.08h51.676l21.223-67.08
			c12.075-2.296,23.843-5.455,35.237-9.417l51.899,47.463l44.753-25.838l-15.167-68.732c9.195-7.953,17.806-16.563,25.759-25.759
			l68.732,15.167l25.838-44.753l-47.463-51.899c3.962-11.394,7.121-23.162,9.417-35.237L825.147,537.838z M699.815,512
			c0,103.727-84.088,187.815-187.815,187.815S324.185,615.727,324.185,512S408.272,324.185,512,324.185S699.815,408.273,699.815,512
			z"/>
	</g>
	<g>
		<g>
			<path style="fill:#FFFFFF;" d="M755.453,90.327L998.906,512L755.453,933.673H268.547L25.094,512L268.547,90.327H755.453
				 M767,70.327H257L2,512l255,441.673h510L1022,512L767,70.327L767,70.327z"/>
		</g>
	</g>
</g>
</svg>
