<?xml version="1.0" encoding="iso-8859-1"?>
<!-- Generator: Adobe Illustrator 19.1.0, SVG Export Plug-In . SVG Version: 6.00 Build 0)  -->
<svg version="1.1" xmlns="http://www.w3.org/2000/svg" xmlns:xlink="http://www.w3.org/1999/xlink" x="0px" y="0px"
	 viewBox="0 0 1024 1024" style="enable-background:new 0 0 1024 1024;" xml:space="preserve">
<g id="template">
	<g id="Hexigon">
		<g>
			<polygon style="fill:#42AA48;" points="257.289,953.174 2.577,512 257.289,70.828 766.711,70.828 1021.423,512 766.711,953.174 
							"/>
			<g>
				<path style="fill:#00A651;" d="M766.423,71.328L1020.845,512L766.423,952.673H257.577L3.155,512L257.577,71.328H766.423
					 M767,70.328H257L2,512l255,441.673h510L1022,512L767,70.328L767,70.328z"/>
			</g>
		</g>
	</g>
</g>
<g id="tools">
	<g>
		<path style="fill:#FFFFFF;" d="M675.396,232.921l43.466,34.216l14.462-22.581c-12.467-21.532-32.304-34.867-48.89-45.487
			c-16.582-10.617-37.611-20.613-60.631-24.647l-14.474,22.6l49.45,25.261C663.742,224.802,671.047,229.481,675.396,232.921z"/>
		<path style="fill:#FFFFFF;" d="M491.971,380.499L371.111,569.23c0,0-32.225,79.601-57.455,123.18
			c-25.226,43.576-72.723,63.382-85.005,82.56c-12.282,19.178,34.159,44.238,34.159,44.238l36.085,23.107
			c0,0,42.191,31.699,54.473,12.521c12.282-19.178,10.397-70.608,39.424-111.75c29.027-41.146,87.844-103.722,87.844-103.722
			l120.86-188.731c-19.939-11.499-39.125-22.974-55.706-33.595C529.204,406.422,510.756,393.799,491.971,380.499z"/>
		<path style="fill:#FFFFFF;" d="M852.269,377.891L672.618,236.475c-4.099-3.247-11.222-7.804-15.87-10.163L452.869,122.171
			c-2.771-1.204-6.014-1.491-9.137-0.806c-4.004,0.878-7.502,3.255-9.595,6.521l-75.119,117.306
			c-3.887,6.075-2.721,14.595,2.653,19.401c1.079,0.969,109.093,97.375,187.308,147.46
			c78.223,50.093,210.971,107.863,212.304,108.442c2.774,1.204,6.018,1.491,9.141,0.806c4.005-0.878,7.502-3.255,9.591-6.518
			l75.119-117.306C859.025,391.403,857.859,382.88,852.269,377.891z"/>
	</g>
</g>
</svg>
