<?xml version="1.0" encoding="iso-8859-1"?>
<!-- Generator: Adobe Illustrator 19.1.0, SVG Export Plug-In . SVG Version: 6.00 Build 0)  -->
<svg version="1.1" xmlns="http://www.w3.org/2000/svg" xmlns:xlink="http://www.w3.org/1999/xlink" x="0px" y="0px"
	 viewBox="0 0 1024 1024" style="enable-background:new 0 0 1024 1024;" xml:space="preserve">
<g id="template">
	<g id="Hexigon">
		<g>
			<polygon style="fill:#42AA48;" points="257.289,953.174 2.577,512 257.289,70.828 766.711,70.828 1021.423,512 766.711,953.174 
							"/>
			<g>
				<path style="fill:#00A651;" d="M766.423,71.328L1020.845,512L766.423,952.673H257.577L3.155,512L257.577,71.328H766.423
					 M767,70.328H257L2,512l255,441.673h510L1022,512L767,70.328L767,70.328z"/>
			</g>
		</g>
	</g>
</g>
<g id="balls">
	<g>
		<path style="fill:#FFFFFF;" d="M729.228,692.196h-34.822c0-7.405-0.571-14.668-1.425-21.841
			c14.416-17.186,28.845-34.383,28.845-34.383l-33.802,9.058c-1.902-7.111-4.137-14.073-6.848-20.814
			c9.473-20.309,18.947-40.636,18.947-40.636l-30.281,17.484c-3.652-6.315-7.696-12.354-12.057-18.158
			c3.912-22.153,7.817-44.312,7.817-44.312l-24.622,24.622c-5.157-5.157-10.708-9.878-16.453-14.388
			c-1.954-22.374-3.912-44.758-3.912-44.758l-17.48,30.281c-6.34-3.67-12.835-7.083-19.624-9.982
			c-7.644-20.991-15.287-41.999-15.287-41.999l-9.058,33.802c-6.969-1.864-14.087-3.317-21.357-4.348L512,474.968v34.822
			c-7.408,0-14.665,0.571-21.841,1.428l-34.383-28.849l9.058,33.802c-7.108,1.899-14.077,4.137-20.814,6.848l-40.636-18.95
			l17.48,30.281c-6.312,3.652-12.347,7.695-18.151,12.053l-44.316-7.81l24.622,24.622c-5.153,5.153-9.878,10.711-14.388,16.449
			l-44.755,3.915l30.281,17.484c-3.67,6.336-7.083,12.832-9.985,19.621l-41.999,15.287l33.802,9.058
			c-1.864,6.966-3.313,14.087-4.344,21.357l-36.859,25.809h34.822c0,7.405,0.571,14.665,1.425,21.841l-28.845,34.383l33.802-9.058
			c1.902,7.111,4.137,14.073,6.852,20.814l-18.95,40.632l30.281-17.48c3.652,6.315,7.696,12.354,12.057,18.158l-7.817,44.312
			l24.622-24.622c5.146,5.153,10.708,9.878,16.453,14.388l3.912,44.758l17.48-30.281c6.343,3.666,12.835,7.083,19.624,9.978
			l15.287,42.002l9.058-33.802c6.969,1.864,14.087,3.313,21.361,4.348C499.096,890.993,512,909.424,512,909.424v-34.822
			c7.408,0,14.665-0.571,21.841-1.428c17.186,14.419,34.383,28.849,34.383,28.849l-9.058-33.802
			c7.108-1.902,14.077-4.137,20.814-6.848c20.313,9.47,40.636,18.95,40.636,18.95l-17.48-30.281
			c6.312-3.652,12.347-7.695,18.151-12.057c22.156,3.905,44.316,7.813,44.316,7.813l-24.622-24.622
			c5.157-5.153,9.878-10.711,14.388-16.453c22.371-1.954,44.755-3.915,44.755-3.915l-30.281-17.48
			c3.67-6.336,7.083-12.832,9.985-19.624c20.987-7.637,41.999-15.284,41.999-15.284l-33.802-9.058
			c1.864-6.969,3.313-14.091,4.344-21.361C710.797,705.1,729.228,692.196,729.228,692.196z"/>
		<rect x="497.629" y="114.576" style="fill:#FFFFFF;" width="28.741" height="341.598"/>
	</g>
</g>
</svg>
