<?xml version="1.0" encoding="iso-8859-1"?>
<!-- Generator: Adobe Illustrator 19.1.0, SVG Export Plug-In . SVG Version: 6.00 Build 0)  -->
<svg version="1.1" xmlns="http://www.w3.org/2000/svg" xmlns:xlink="http://www.w3.org/1999/xlink" x="0px" y="0px"
	 viewBox="0 0 1024 1024" style="enable-background:new 0 0 1024 1024;" xml:space="preserve">
<g id="template">
	<g id="Hexigon">
		<g>
			<polygon style="fill:#42AA48;" points="257.289,953.174 2.577,512 257.289,70.828 766.711,70.828 1021.423,512 766.711,953.174 
							"/>
			<g>
				<path style="fill:#00A651;" d="M766.423,71.328L1020.845,512L766.423,952.673H257.577L3.155,512L257.577,71.328H766.423
					 M767,70.328H257L2,512l255,441.673h510L1022,512L767,70.328L767,70.328z"/>
			</g>
		</g>
	</g>
</g>
<g id="decidouus">
	<path style="fill:#FFFFFF;" d="M680.131,495.063l-2.435-59.055l51.821-29.879l88.674-25.606l-8.874-22.367l-65.095,16.256
		l17.753-63.007l-20.847-13.801l-29.888,87.627l-72.91,42.772l5.997-119.338l43.969-88.832l-15.277-20.456l-43.857,81.328
		l-48.246-78.515l-20.442,12.329l55.084,92.2l-6.137,134.175l-99.175,147.902l-32.132-46.994l29.552-140.337l53.031-84.092
		l-18.769-13.562l-42.858,62.341l-18.797-72.887l-22.467,6.073l21.868,95.887l-35.725,96.609l-35.812-52.377l-8.807-130.367
		l2.454-146.683l-22.599-6.54l-4.257,86.607l-31.188-78.853l-23.443,2.672l53.095,145.174l4.69,109.872l-63.427-50.301
		l-12.998-113.083l-21.882,7.506l5.472,98.196l-104.089,8.435l2.696,23.799l112.344-3.893l83.705,67.404l94.766,151.726
		l-113.398-49.499l-21.076-115.315l-25.479,2.423l14.851,110.531l-84.924-4.344l-3.409,24.053l99.691,12.618l150.862,79.879
		l-4.262,233.643l50.996,0.117l-3.009-264.08l20.563-36.486l105.575-51.466l0.005,0.096l17.168-8.461l68.286-100.448l-21.045-9.098
		L680.131,495.063z M588.08,547.857l50.22-89.128l15.206-8.772l1.155,69.394L588.08,547.857z"/>
</g>
</svg>
