<?xml version="1.0" encoding="iso-8859-1"?>
<!-- Generator: Adobe Illustrator 19.1.0, SVG Export Plug-In . SVG Version: 6.00 Build 0)  -->
<svg version="1.1" xmlns="http://www.w3.org/2000/svg" xmlns:xlink="http://www.w3.org/1999/xlink" x="0px" y="0px"
	 viewBox="0 0 1024 1024" style="enable-background:new 0 0 1024 1024;" xml:space="preserve">
<g id="template">
	<g id="Hexigon">
		<g>
			<polygon style="fill:#42AA48;" points="257.289,953.174 2.577,512 257.289,70.828 766.711,70.828 1021.423,512 766.711,953.174 
							"/>
			<g>
				<path style="fill:#00A651;" d="M766.423,71.328L1020.845,512L766.423,952.673H257.577L3.155,512L257.577,71.328H766.423
					 M767,70.328H257L2,512l255,441.673h510L1022,512L767,70.328L767,70.328z"/>
			</g>
		</g>
	</g>
</g>
<g id="treevalue">
	<g>
		<path style="fill:#FFFFFF;" d="M682.208,374.434l-110.499,17.525c-5.543-14.058-10.545-23.804-14.995-29.255
			c-4.45-5.445-11.833-10.942-22.125-16.485v85.93c60.189,16.053,100.391,33.004,120.596,50.834
			c26.725,23.982,40.099,54.399,40.099,91.255c0,21.596-4.807,41.416-14.409,59.453c-9.614,18.031-21.884,33.096-36.833,45.182
			c-14.949,12.086-30.842,20.854-47.677,26.305c-16.835,5.445-37.42,8.665-61.776,9.654v56.141h-43.376v-56.141
			c-29.105-2.576-52.714-7.273-70.837-14.104c-18.123-6.836-33.763-16.289-46.93-28.369c-13.167-12.075-23.321-25.098-30.451-39.058
			s-12.466-30.842-16.03-50.644l119.998-13.96c3.565,19.607,8.36,33.763,14.409,42.474c6.037,8.717,15.984,16.439,29.841,23.172
			V529.379c-39.995-11.097-68.365-20.711-85.097-28.841c-16.732-8.119-31.233-21.153-43.514-39.087s-18.411-39.777-18.411-65.542
			c0-35.269,12.328-64.748,36.983-88.426c24.644-23.678,61.327-36.804,110.039-39.386v-29.404h43.376v29.404
			c44.354,2.777,78.266,13.27,101.725,31.486C659.784,317.804,675.079,342.752,682.208,374.434z M491.213,344.73
			c-12.672,4.186-21.481,9.361-26.426,15.524c-4.956,6.169-7.429,13.431-7.429,21.786c0,8.757,2.507,16.37,7.532,22.838
			c5.025,6.468,13.799,11.879,26.322,16.232V344.73z M534.589,637.308c16.824-3.772,29.151-9.982,36.971-18.624
			c7.831-8.642,11.741-18.325,11.741-29.054c0-9.338-3.312-17.928-9.936-25.776c-6.612-7.843-19.538-15.133-38.776-21.872V637.308z"
			/>
	</g>
</g>
</svg>
