<?xml version="1.0" encoding="iso-8859-1"?>
<!-- Generator: Adobe Illustrator 19.1.0, SVG Export Plug-In . SVG Version: 6.00 Build 0)  -->
<svg version="1.1" xmlns="http://www.w3.org/2000/svg" xmlns:xlink="http://www.w3.org/1999/xlink" x="0px" y="0px"
	 viewBox="0 0 1024 1024" style="enable-background:new 0 0 1024 1024;" xml:space="preserve">
<g id="template">
	<g id="Hexigon">
		<g>
			<polygon style="fill:#42AA48;" points="257.289,953.174 2.577,512 257.289,70.828 766.711,70.828 1021.423,512 766.711,953.174 
							"/>
			<g>
				<path style="fill:#00A651;" d="M766.423,71.328L1020.845,512L766.423,952.673H257.577L3.155,512L257.577,71.328H766.423
					 M767,70.328H257L2,512l255,441.673h510L1022,512L767,70.328L767,70.328z"/>
			</g>
		</g>
	</g>
</g>
<g id="keys">
	<g>
		<polygon style="fill:#FFFFFF;" points="472.609,452.681 502.603,452.681 502.603,374.557 425.599,374.557 		"/>
		<path style="fill:#FFFFFF;" d="M231.025,687.043c-29.489,48.643-28.008,88.441-8.847,97.285
			c19.158,8.844,32.425,13.264,97.285-35.379c64.853-48.639,116.439-148.871,117.916-193.09
			c1.089-32.705,14.26-73.413,21.046-92.426l-48.252-80.186C383.372,428.906,257.332,643.627,231.025,687.043z"/>
		<polygon style="fill:#FFFFFF;" points="527.201,174.096 496.799,174.096 496.799,346.552 512,371.427 527.201,346.552 		"/>
		<path style="fill:#FFFFFF;" d="M792.975,687.043c-26.307-43.417-152.347-258.137-179.148-303.795l-48.252,80.186
			c6.786,19.012,19.956,59.721,21.046,92.426c1.477,44.219,53.063,144.451,117.916,193.09
			c64.864,48.643,78.128,44.222,97.285,35.379C820.986,775.484,822.463,735.686,792.975,687.043z"/>
		<polygon style="fill:#FFFFFF;" points="521.397,374.557 521.397,452.681 551.394,452.681 598.401,374.557 		"/>
	</g>
</g>
</svg>
