<?xml version="1.0" encoding="iso-8859-1"?>
<!-- Generator: Adobe Illustrator 19.1.0, SVG Export Plug-In . SVG Version: 6.00 Build 0)  -->
<svg version="1.1" xmlns="http://www.w3.org/2000/svg" xmlns:xlink="http://www.w3.org/1999/xlink" x="0px" y="0px"
	 viewBox="0 0 1024 1024" style="enable-background:new 0 0 1024 1024;" xml:space="preserve">
<g id="template">
	<g id="Hexigon">
		<g>
			<polygon style="fill:#42AA48;" points="257.289,953.174 2.577,512 257.289,70.828 766.711,70.828 1021.423,512 766.711,953.174 
							"/>
			<g>
				<path style="fill:#00A651;" d="M766.423,71.328L1020.845,512L766.423,952.673H257.577L3.155,512L257.577,71.328H766.423
					 M767,70.328H257L2,512l255,441.673h510L1022,512L767,70.328L767,70.328z"/>
			</g>
		</g>
	</g>
</g>
<g id="acorn">
	<g>
		<path style="fill:#FFFFFF;" d="M539.193,245.851c0,0-0.716-110.919-0.716-115.929c0-5.011-2.861-12.166-22.183-13.599
			c-19.321-1.428-21.471,10.738-21.471,10.738l-10.017,118.791C298.03,277.338,260.82,381.818,260.103,424.039
			c-0.716,42.221,22.187,52.242,22.187,52.242H512h229.714c0,0,22.899-10.021,22.183-52.242
			C763.18,381.818,725.97,277.338,539.193,245.851z"/>
		<path style="fill:#FFFFFF;" d="M278.709,509.913c0,0-27.193,203.232,94.463,290.54c121.652,87.303,115.929,50.093,118.791,68.698
			c2.861,18.605-2.145,38.643,20.038,38.643s17.177-20.038,20.038-38.643c2.861-18.605-2.861,18.605,118.791-68.698
			c121.656-87.307,94.463-290.54,94.463-290.54H278.709z"/>
	</g>
</g>
</svg>
