<?xml version="1.0" encoding="iso-8859-1"?>
<!-- Generator: Adobe Illustrator 19.1.0, SVG Export Plug-In . SVG Version: 6.00 Build 0)  -->
<svg version="1.1" xmlns="http://www.w3.org/2000/svg" xmlns:xlink="http://www.w3.org/1999/xlink" x="0px" y="0px"
	 viewBox="0 0 1024 1024" style="enable-background:new 0 0 1024 1024;" xml:space="preserve">
<g id="template">
	<g id="Hexigon">
		<g>
			<polygon style="fill:#42AA48;" points="257.289,953.174 2.577,512 257.289,70.828 766.711,70.828 1021.423,512 766.711,953.174 
							"/>
			<g>
				<path style="fill:#00A651;" d="M766.423,71.328L1020.845,512L766.423,952.673H257.577L3.155,512L257.577,71.328H766.423
					 M767,70.328H257L2,512l255,441.673h510L1022,512L767,70.328L767,70.328z"/>
			</g>
		</g>
	</g>
</g>
<g id="totalheight">
	<g>
		<polygon style="fill:#FFFFFF;" points="752.867,729.474 752.867,494.528 823.671,494.551 727.271,406.357 630.657,494.486 
			701.458,494.511 701.458,729.457 630.658,729.434 727.058,817.628 823.672,729.499 		"/>
		<path style="fill:#FFFFFF;" d="M693.265,318.358c-5.156-57.753-71.16-48.472-71.16-48.472s45.378-60.845-34.033-105.192
			S450.393,188.93,450.393,188.93c-20.11-38.674-83.536-80.441-168.618-30.94c-85.083,49.503-34.033,126.851-34.033,126.851
			s-50.534,25.267-27.845,91.271c21.753,63.282,83.535,34.032,83.535,34.032s-6.188,52.597,39.19,63.941
			c45.378,11.346,63.94-23.719,63.94-23.719c1.933,5.315,9.592,13.323,22.31,19.722V814.95c0,28.917-28.203,52.658-28.203,52.658
			h28.203h61.405h28.204c0,0-28.204-30.712-28.204-52.658V479.318c0.29-0.036,0.561-0.04,0.852-0.077
			c50.533-6.188,59.815-46.407,59.815-46.407c3.094,7.219,41.252,26.813,67.035,8.25c25.782-18.563,17.532-49.503,17.532-49.503
			C655.107,394.674,698.422,376.111,693.265,318.358z"/>
	</g>
</g>
</svg>
