<?xml version="1.0" encoding="iso-8859-1"?>
<!-- Generator: Adobe Illustrator 19.1.0, SVG Export Plug-In . SVG Version: 6.00 Build 0)  -->
<svg version="1.1" xmlns="http://www.w3.org/2000/svg" xmlns:xlink="http://www.w3.org/1999/xlink" x="0px" y="0px"
	 viewBox="0 0 1024 1024" style="enable-background:new 0 0 1024 1024;" xml:space="preserve">
<g id="template">
	<g id="Hexigon">
		<g>
			<polygon style="fill:#42AA48;" points="257.289,953.174 2.577,512 257.289,70.828 766.711,70.828 1021.423,512 766.711,953.174 
							"/>
			<g>
				<path style="fill:#00A651;" d="M766.423,71.328L1020.845,512L766.423,952.673H257.577L3.155,512L257.577,71.328H766.423
					 M767,70.328H257L2,512l255,441.673h510L1022,512L767,70.328L767,70.328z"/>
			</g>
		</g>
	</g>
</g>
<g id="treenumber">
	<g>
		<path style="fill:#FFFFFF;" d="M347.088,557.863l20.291-101.215h-97.172V346.666h119.234l28.602-142.656h113.377l-28.799,142.656
			h87.449l28.613-142.656h112.966L703.14,346.666h55.207v109.983h-77.194l-20.227,101.215h97.421v109.983H638.945l-28.035,140.266
			H497.534l28.133-140.266h-87.871l-28.312,140.266H296.905l28.127-140.266h-54.825V557.863H347.088z M459.996,557.863h87.721
			l20.303-101.215h-87.594L459.996,557.863z"/>
	</g>
</g>
</svg>
