<?xml version="1.0" encoding="iso-8859-1"?>
<!-- Generator: Adobe Illustrator 19.1.0, SVG Export Plug-In . SVG Version: 6.00 Build 0)  -->
<svg version="1.1" xmlns="http://www.w3.org/2000/svg" xmlns:xlink="http://www.w3.org/1999/xlink" x="0px" y="0px"
	 viewBox="0 0 1024 1024" style="enable-background:new 0 0 1024 1024;" xml:space="preserve">
<g id="template">
	<g id="Hexigon">
		<g>
			<polygon style="fill:#42AA48;" points="257.289,953.174 2.577,512 257.289,70.828 766.711,70.828 1021.423,512 766.711,953.174 
							"/>
			<g>
				<path style="fill:#00A651;" d="M766.423,71.328L1020.845,512L766.423,952.673H257.577L3.155,512L257.577,71.328H766.423
					 M767,70.328H257L2,512l255,441.673h510L1022,512L767,70.328L767,70.328z"/>
			</g>
		</g>
	</g>
</g>
<g id="grosscarbon">
	<g>
		<path style="fill:#FFFFFF;" d="M550.608,348.388c-9.171,0-16.534,3.247-22.09,9.74s-8.334,17.237-8.334,32.231
			c0,14.86,2.761,25.537,8.284,32.03c5.522,6.493,13.036,9.74,22.542,9.74c9.773,0,17.337-3.18,22.692-9.539
			c5.355-6.359,8.033-17.772,8.033-34.239c0-13.856-2.795-23.981-8.384-30.373C567.761,351.585,560.18,348.388,550.608,348.388z"/>
		<path style="fill:#FFFFFF;" d="M868.932,360.971c-27.558-49.595-63.943-38.567-63.943-38.567s16.448-47.213-24.49-76.025
			c-40.938-28.813-105.41,9.401-105.41,9.401s4.922-77.174-114.551-93.078c-119.473-15.906-151.009,60.69-151.009,60.69
			s-23.63-33.308-66.637-19.142c-43.006,14.166-43.873,54.086-43.873,54.086s-56.65-22.985-89.986,16.881
			c-33.336,39.864,17.431,79.607,17.431,79.607s-66.012,4.412-67.297,56.176c-1.286,51.762,54.739,51.193,54.739,51.193
			c-19.06,17.931-54.438,84.541,0.879,109.122c55.317,24.579,110.091-23.102,110.091-23.102s-31.694,91.367,58.107,105.493
			c43.558,6.851,70.452-1.485,86.634-11.882v118.73c0,44.964-80.133,80.134-80.133,80.134h80.133h69.449h80.133
			c0,0-80.133-28.047-80.133-80.134V639.251c11.176,1.404,24.373,1.776,40.488,1.347c47.11-1.249,65.405-48.694,65.405-48.694
			s27.715,66.951,91.088,49.493c63.373-17.458,42.301-74.848,42.301-74.848s60.656,21.393,79.64-30.472
			c18.984-51.867-30.033-73.151-30.033-73.151S911.12,436.894,868.932,360.971z M445.682,443.475
			c-5.757,7.497-12.902,13.153-21.437,16.969s-19.395,5.723-32.582,5.723c-15.998,0-29.068-2.326-39.209-6.974
			c-10.141-4.648-18.893-12.825-26.257-24.533c-7.363-11.706-11.045-26.69-11.045-44.953c0-24.349,6.476-43.062,19.429-56.141
			c12.953-13.078,31.277-19.617,54.973-19.617c18.542,0,33.118,3.749,43.728,11.246s18.492,19.011,23.646,34.54l-40.163,8.936
			c-1.406-4.485-2.878-7.765-4.418-9.84c-2.544-3.481-5.656-6.158-9.338-8.033c-3.682-1.874-7.798-2.811-12.35-2.811
			c-10.309,0-18.207,4.146-23.696,12.436c-4.15,6.152-6.225,15.812-6.225,28.982c0,16.314,2.477,27.497,7.43,33.547
			c4.953,6.052,11.915,9.076,20.885,9.076c8.702,0,15.279-2.443,19.73-7.33c4.451-4.887,7.681-11.982,9.689-21.286l39.862,12.049
			C455.656,426.639,451.439,435.977,445.682,443.475z M618.534,431.275c-5.79,11.011-14.157,19.58-25.102,25.704
			s-24.583,9.187-40.916,9.187c-16.601,0-30.34-2.644-41.217-7.932c-10.878-5.288-19.697-13.655-26.457-25.102
			c-6.761-11.447-10.141-25.771-10.141-42.975c0-24.031,6.694-42.74,20.082-56.128c13.388-13.388,32.03-20.082,55.927-20.082
			c24.5,0,43.376,6.577,56.63,19.73c13.254,13.153,19.881,31.578,19.881,55.275C627.219,406.156,624.324,420.264,618.534,431.275z
			 M742.086,520.42h-92.024c1.054-9.087,4.259-17.634,9.606-25.642c5.347-8.008,15.371-17.458,30.081-28.353
			c8.987-6.677,14.735-11.748,17.245-15.212c2.51-3.464,3.765-6.752,3.765-9.865c0-3.364-1.238-6.238-3.723-8.623
			c-2.485-2.385-5.614-3.577-9.38-3.577c-3.916,0-7.112,1.23-9.597,3.69c-2.485,2.46-4.159,6.803-5.012,13.028l-30.725-2.485
			c1.205-8.635,3.414-15.375,6.627-20.22c3.213-4.845,7.748-8.56,13.597-11.145c5.849-2.585,13.94-3.878,24.282-3.878
			c10.794,0,19.195,1.23,25.194,3.69c5.999,2.46,10.719,6.238,14.157,11.334c3.439,5.096,5.154,10.806,5.154,17.132
			c0,6.727-1.966,13.153-5.907,19.278c-3.941,6.125-11.112,12.852-21.504,20.182c-6.175,4.267-10.3,7.254-12.384,8.961
			c-2.083,1.707-4.535,3.941-7.346,6.702h47.895V520.42z"/>
	</g>
</g>
</svg>
