<?xml version="1.0" encoding="iso-8859-1"?>
<!-- Generator: Adobe Illustrator 19.1.0, SVG Export Plug-In . SVG Version: 6.00 Build 0)  -->
<svg version="1.1" xmlns="http://www.w3.org/2000/svg" xmlns:xlink="http://www.w3.org/1999/xlink" x="0px" y="0px"
	 viewBox="0 0 1024 1024" style="enable-background:new 0 0 1024 1024;" xml:space="preserve">
<g id="template">
	<g id="Hexigon">
		<g>
			<polygon style="fill:#42AA48;" points="257.289,953.174 2.577,512 257.289,70.828 766.711,70.828 1021.423,512 766.711,953.174 
							"/>
			<g>
				<path style="fill:#00A651;" d="M766.423,71.328L1020.845,512L766.423,952.673H257.577L3.155,512L257.577,71.328H766.423
					 M767,70.328H257L2,512l255,441.673h510L1022,512L767,70.328L767,70.328z"/>
			</g>
		</g>
	</g>
</g>
<g id="scaleleafconifer">
	<polygon style="fill:#FFFFFF;" points="472.947,361.591 481.683,361.591 514,391.551 546.316,361.591 563.702,361.591 
		563.702,144.873 474.689,144.873 469.337,144.873 334.867,400.864 347.959,407.746 362.62,449.305 405.166,437.822 
		415.197,443.095 472.947,333.249 	"/>
	<polygon style="fill:#FFFFFF;" points="472.947,631.927 472.947,841.804 515.526,881.284 521.122,881.284 563.702,841.804 
		563.702,637.938 521.566,677.003 	"/>
	<polygon style="fill:#FFFFFF;" points="656.324,621.323 667.466,578.69 678.198,571.849 563.702,392.235 563.702,376.587 
		514,422.668 472.947,384.61 472.947,615.926 489.25,615.926 521.566,645.886 553.883,615.926 563.702,615.926 563.702,561.072 
		601.668,620.635 612.968,613.433 	"/>
	<polygon style="fill:#FFFFFF;" points="326.769,416.267 231.824,596.864 251.346,652.196 314.178,635.241 405.605,461.339 
		348.142,476.846 	"/>
	<polygon style="fill:#FFFFFF;" points="688.582,588.14 673.05,647.562 611.72,636.399 714.26,797.258 777.009,808.683 
		792.176,750.654 	"/>
</g>
</svg>
