<?xml version="1.0" encoding="iso-8859-1"?>
<!-- Generator: Adobe Illustrator 19.1.0, SVG Export Plug-In . SVG Version: 6.00 Build 0)  -->
<svg version="1.1" xmlns="http://www.w3.org/2000/svg" xmlns:xlink="http://www.w3.org/1999/xlink" x="0px" y="0px"
	 viewBox="0 0 1024 1024" style="enable-background:new 0 0 1024 1024;" xml:space="preserve">
<g id="template">
	<g id="Hexigon">
		<g>
			<polygon style="fill:#42AA48;" points="257.289,953.174 2.577,512 257.289,70.828 766.711,70.828 1021.423,512 766.711,953.174 
							"/>
			<g>
				<path style="fill:#00A651;" d="M766.423,71.328L1020.845,512L766.423,952.673H257.577L3.155,512L257.577,71.328H766.423
					 M767,70.328H257L2,512l255,441.673h510L1022,512L767,70.328L767,70.328z"/>
			</g>
		</g>
	</g>
</g>
<g id="achievement20_1_">
	<g>
		<path style="fill:#FFFFFF;" d="M698.917,335.322c-14.583,43.901-40.448,74.644-55.077,89.482
			c7.287,5.983,15.021,15.273,21.081,29.716c0,0-12.392-13.562-30.425-20.884c-0.954,0.824-1.527,1.293-1.527,1.293
			c-20.892,5.849-36.74,4.213-48.752-0.99c-36.257,13.572-60.135,54.586-60.135,54.586c0.905-43.865,32.739-62.144,42.621-66.77
			c-2.879-2.976-5.316-6.124-7.39-9.264c-41.815-22.955-126.803,1.599-126.803,1.599c35.609-44.511,101.506-33.534,122.758-28.558
			c25.571-9.216,43.035-23.244,54.81-39.005c-124.097,38.072-179.212-12.825-215.251-55.97
			c-98.875,44.69-167.719,144.105-167.719,259.663c0,157.341,127.551,284.891,284.891,284.891
			c157.341,0,284.89-127.551,284.89-284.891C796.89,464.428,758.914,387.553,698.917,335.322z M304.792,516.393
			c-7.426,0-13.445-6.02-13.445-13.446c0-7.425,6.019-13.446,13.445-13.446c7.425,0,13.445,6.021,13.445,13.446
			C318.237,510.373,312.217,516.393,304.792,516.393z M348.635,736.314c-7.425,0-13.445-6.021-13.445-13.445
			c0-7.425,6.02-13.446,13.445-13.446c7.427,0,13.445,6.021,13.445,13.446C362.08,730.293,356.061,736.314,348.635,736.314z
			 M348.635,619.865c-7.425,0-13.445-6.021-13.445-13.446c0-7.427,6.02-13.445,13.445-13.445c7.425,0,13.445,6.018,13.445,13.445
			C362.08,613.844,356.06,619.865,348.635,619.865z M362.08,376.09c-7.425,0-13.445-6.021-13.445-13.446s6.02-13.445,13.445-13.445
			c7.427,0,13.446,6.02,13.446,13.445S369.506,376.09,362.08,376.09z M432.511,490.447c-7.425,0-13.445-6.02-13.445-13.445
			c0-7.425,6.02-13.445,13.445-13.445c7.425,0,13.446,6.02,13.446,13.445C445.956,484.427,439.936,490.447,432.511,490.447z
			 M460.571,812.415c-7.425,0-13.446-6.021-13.446-13.445c0-7.425,6.021-13.446,13.446-13.446s13.445,6.021,13.445,13.446
			C474.016,806.393,467.996,812.415,460.571,812.415z M474.016,610.78c-7.426,0-13.445-6.02-13.445-13.446
			s6.019-13.444,13.445-13.444c7.426,0,13.445,6.017,13.445,13.444S481.442,610.78,474.016,610.78z M572.163,644.99
			c0-7.424,6.02-13.443,13.446-13.443c7.426,0,13.446,6.02,13.446,13.443c0,7.427-6.02,13.446-13.446,13.446
			C578.183,658.436,572.163,652.417,572.163,644.99z M599.055,759.803c-7.427,0-13.446-6.021-13.446-13.446
			c0-7.427,6.019-13.446,13.446-13.446c7.424,0,13.445,6.02,13.445,13.446C612.5,753.781,606.479,759.803,599.055,759.803z
			 M599.055,529.837c-7.427,0-13.446-6.021-13.446-13.445c0-7.425,6.019-13.446,13.446-13.446c7.424,0,13.445,6.021,13.445,13.446
			C612.5,523.816,606.479,529.837,599.055,529.837z M709.688,724.499c-7.427,0-13.445-6.018-13.445-13.445
			c0-7.425,6.018-13.446,13.445-13.446c7.425,0,13.445,6.021,13.445,13.446C723.133,718.481,717.113,724.499,709.688,724.499z
			 M723.133,433.96c-7.426,0-13.445-6.021-13.445-13.445c0-7.425,6.019-13.446,13.445-13.446c7.425,0,13.445,6.021,13.445,13.446
			C736.578,427.939,730.558,433.96,723.133,433.96z M758.95,577.738c-7.424,0-13.446-6.018-13.446-13.445
			c0-7.425,6.021-13.444,13.446-13.444c7.424,0,13.446,6.018,13.446,13.444C772.395,571.72,766.374,577.738,758.95,577.738z"/>
		<path style="fill:#FFFFFF;" d="M393.686,245.263c32.131,38.555,65.779,122.549,212.062,78.28l2.298-6.964
			c-26.56-0.009-46.234-9.408-75.225-30.671c-29.999-22-80.818-55.997-80.818-55.997s55.485,22,92.818,42.665
			c31.804,17.607,62.075,21.571,70.366,22.364l1.163-3.526c-67.474-28.383-86.113-115.52-179.287-127.339
			c-71.758-9.104-132.27,57.626-132.27,57.626S361.556,206.706,393.686,245.263z"/>
		<path style="fill:#FFFFFF;" d="M563.71,397.085c0,0,9.517,31.413,48.553,19.994c0,0,80.906-56.408,75.908-163.51
			c0,0-22-20.705-43.064-2.142C645.108,251.427,665.1,358.528,563.71,397.085z"/>
	</g>
</g>
</svg>
