<?xml version="1.0" encoding="iso-8859-1"?>
<!-- Generator: Adobe Illustrator 19.1.0, SVG Export Plug-In . SVG Version: 6.00 Build 0)  -->
<svg version="1.1" xmlns="http://www.w3.org/2000/svg" xmlns:xlink="http://www.w3.org/1999/xlink" x="0px" y="0px"
	 viewBox="0 0 1024 1024" style="enable-background:new 0 0 1024 1024;" xml:space="preserve">
<g id="template">
	<g id="Hexigon">
		<g>
			<polygon style="fill:#42AA48;" points="257.289,953.174 2.577,512 257.289,70.828 766.711,70.828 1021.423,512 766.711,953.174 
							"/>
			<g>
				<path style="fill:#00A651;" d="M766.423,71.328L1020.845,512L766.423,952.673H257.577L3.155,512L257.577,71.328H766.423
					 M767,70.328H257L2,512l255,441.673h510L1022,512L767,70.328L767,70.328z"/>
			</g>
		</g>
	</g>
</g>
<g id="achievement16">
	<g>
		<path style="fill:#FFFFFF;" d="M820.862,446.506c8.985,5.302,28.168,6.305,37.688-11.57c8.127-15.257,26.175-19.165,31.288-19.983
			c0.878-0.14,1.374-0.189,1.374-0.189s-26.97-23.323-59.036-8.658C800.111,420.769,815.836,443.54,820.862,446.506z"/>
		<path style="fill:#FFFFFF;" d="M777.216,358.365c-27.762,21.738-7.16,40.214-1.581,41.925c9.975,3.06,28.862-0.437,33.953-20.04
			c4.345-16.732,20.983-24.741,25.764-26.729c0.821-0.341,1.292-0.504,1.292-0.504S804.978,336.626,777.216,358.365z"/>
		<path style="fill:#FFFFFF;" d="M286.669,644.438c0.96-5.087,5.371-23.02,20.848-30.716c18.134-9.02,17.667-28.222,12.618-37.353
			c-2.825-5.107-25.148-21.46-40.702,10.184c-15.554,31.643,7.008,59.253,7.008,59.253S286.504,645.312,286.669,644.438z"/>
		<path style="fill:#FFFFFF;" d="M646.187,306.699c-30.547,17.611-12.755,38.805-7.472,41.285
			c9.444,4.434,28.636,3.633,36.437-15.058c6.658-15.951,24.259-21.537,29.273-22.832c0.861-0.222,1.35-0.318,1.35-0.318
			S676.734,289.089,646.187,306.699z"/>
		<path style="fill:#FFFFFF;" d="M701.733,344.872c-34.919,4.884-26.362,31.201-22.393,35.479c7.095,7.65,25.19,14.096,39.424-0.311
			c12.149-12.297,30.562-10.883,35.695-10.204c0.881,0.116,1.371,0.211,1.371,0.211S736.653,339.988,701.733,344.872z"/>
		<path style="fill:#FFFFFF;" d="M689.663,251.792c-13.74,32.473,13.235,38.643,18.945,37.434
			c10.207-2.16,25.03-14.376,19.978-33.988c-4.312-16.739,6.356-31.813,9.574-35.869c0.552-0.697,0.885-1.068,0.885-1.068
			S703.404,219.32,689.663,251.792z"/>
		<path style="fill:#FFFFFF;" d="M250.507,374.301c5.812,0.533,31.882-8.746,14.443-39.391s-52.955-27.495-52.955-27.495
			s0.374,0.331,1.004,0.958c3.669,3.652,16.026,17.377,13.697,34.505C223.969,362.946,240.117,373.347,250.507,374.301z"/>
		<path style="fill:#FFFFFF;" d="M748.866,293.85c-34.505,7.255-24.172,32.926-19.921,36.924c7.6,7.148,26.092,12.344,39.311-3
			c11.282-13.096,29.747-12.941,34.916-12.615c0.886,0.055,1.382,0.117,1.382,0.117S783.37,286.595,748.866,293.85z"/>
		<path style="fill:#FFFFFF;" d="M389.537,245.879c5.199,2.652,32.85,3.718,28.038-31.212
			c-4.812-34.929-38.959-45.192-38.959-45.192s0.224,0.446,0.576,1.261c2.051,4.755,8.427,22.086-0.094,37.125
			C369.114,225.482,380.245,241.136,389.537,245.879z"/>
		<path style="fill:#FFFFFF;" d="M233.572,389.59c-2.824-5.108-25.147-21.461-40.701,10.183
			c-15.554,31.643,7.008,59.254,7.008,59.254s0.063-0.495,0.228-1.368c0.96-5.088,5.371-23.02,20.848-30.717
			C239.089,417.923,238.62,398.72,233.572,389.59z"/>
		<path style="fill:#FFFFFF;" d="M270.347,515.607c5.811,0.532,31.882-8.746,14.443-39.391
			c-17.439-30.645-52.955-27.494-52.955-27.494s0.373,0.329,1.004,0.957c3.669,3.653,16.024,17.377,13.697,34.505
			C243.809,504.252,259.957,514.655,270.347,515.607z"/>
		<path style="fill:#FFFFFF;" d="M761.3,537.056c0,0,6.851-6.313,0-20.551c-15.414-10.276-61.011-4.496-85.416,10.917
			c0,0,28.257-80.92,82.847-113.032c0,0-5.78-20.551-25.048-17.34c-19.266,3.211-114.959,116.243-162.483,220.284
			c0,0-22.478-120.738,67.434-236.981c0,0,3.211-19.91-19.91-22.479c0,0-50.735,46.883-61.654,86.059
			c0,0-1.284-82.848,13.487-120.097c0,0-11.411-15.329-32.112-5.138c0,0-30.184,71.93-29.542,278.085
			c0,0-126.519-139.363-111.748-274.232c0,0-16.698-10.275-33.396,0c0,0-7.064,99.546,20.551,147.07
			c0,0-31.469-44.313-117.527-82.205c0,0-17.34,12.202-8.348,26.973c0,0,74.498,25.047,127.16,113.674
			c0,0-53.946-12.202-99.545,0.642c0,0-5.78,20.551,4.495,26.332c0,0,96.334-19.267,149.639,35.964
			c53.305,55.233,19.357,225.702-68.907,294.141H661.95c0,0-56.069-74.498-61.207-168.264
			C595.605,623.114,662.397,529.349,761.3,537.056z"/>
		<path style="fill:#FFFFFF;" d="M108.204,474.144c0,0,0.486-0.112,1.363-0.259c5.106-0.858,23.458-2.914,36.03,8.949
			c14.73,13.9,32.588,6.826,39.411-1.067c3.817-4.416,11.449-31.015-23.621-34.674C126.318,443.432,108.204,474.144,108.204,474.144
			z"/>
		<path style="fill:#FFFFFF;" d="M231.385,522.049c1.903-5.517-0.897-33.047-34.815-23.412
			c-33.918,9.634-39.319,44.878-39.319,44.878s0.41-0.284,1.168-0.747c4.422-2.693,20.695-11.424,36.775-5.081
			C214.034,545.118,227.983,531.913,231.385,522.049z"/>
		<path style="fill:#FFFFFF;" d="M161.12,358.353c10.711,17.189,29.781,14.889,38.387,8.99c4.814-3.3,18.959-27.083-14.027-39.541
			c-32.985-12.459-58.313,12.638-58.313,12.638s0.499,0.016,1.384,0.096C133.708,341.005,151.979,343.683,161.12,358.353z"/>
		<path style="fill:#FFFFFF;" d="M141.974,637.416c0,0,0.148-0.477,0.463-1.307c1.831-4.844,9.297-21.733,25.879-26.617
			c19.427-5.723,22.31-24.714,18.929-34.584c-1.892-5.521-21.026-25.512-41.852,2.94
			C124.565,606.298,141.974,637.416,141.974,637.416z"/>
		<path style="fill:#FFFFFF;" d="M216.287,270.392c0,0,0.468-0.176,1.316-0.44c4.943-1.541,22.848-6.062,36.909,3.991
			c16.475,11.779,33.211,2.352,38.904-6.392c3.184-4.891,7.146-32.278-28.095-31.159
			C230.077,237.511,216.287,270.392,216.287,270.392z"/>
		<path style="fill:#FFFFFF;" d="M759.744,267.759c7.111,7.634,25.219,14.043,39.424-0.392
			c12.124-12.322,30.539-10.945,35.674-10.277c0.881,0.114,1.37,0.208,1.37,0.208s-19.238-30.021-54.147-25.064
			S755.767,263.487,759.744,267.759z"/>
		<path style="fill:#FFFFFF;" d="M843.01,601.605c16.476-5.227,32.114,4.595,36.341,7.585c0.726,0.514,1.116,0.825,1.116,0.825
			s-2.98-35.532-36.159-47.464c-33.18-11.931-37.856,15.344-36.335,20.978C810.692,593.602,823.705,607.729,843.01,601.605z"/>
		<path style="fill:#FFFFFF;" d="M775.594,479.585c16.11-6.264,32.341,2.545,36.75,5.26c0.756,0.465,1.165,0.752,1.165,0.752
			s-5.233-35.27-39.104-45.068c-33.871-9.798-36.804,17.718-34.927,23.244C742.832,473.653,756.719,486.925,775.594,479.585z"/>
		<path style="fill:#FFFFFF;" d="M822.659,536.357c13.081-11.299,31.324-8.436,36.388-7.355c0.869,0.186,1.35,0.319,1.35,0.319
			s-16.744-31.481-51.94-29.367c-35.197,2.113-28.744,29.022-25.125,33.6C789.803,541.741,807.331,549.594,822.659,536.357z"/>
		<path style="fill:#FFFFFF;" d="M622.861,209.17c-34.267,8.305-23.158,33.648-18.786,37.515
			c7.814,6.912,26.455,11.543,39.201-4.196c10.878-13.435,29.339-13.843,34.514-13.674c0.888,0.029,1.386,0.075,1.386,0.075
			S657.129,200.866,622.861,209.17z"/>
		<path style="fill:#FFFFFF;" d="M75.995,557.553c3.609-3.713,17.184-16.232,34.339-14.108
			c20.099,2.488,30.309-13.783,31.137-24.184c0.464-5.817-9.125-31.775-39.561-13.972c-30.434,17.804-26.86,53.28-26.86,53.28
			S75.376,558.19,75.995,557.553z"/>
		<path style="fill:#FFFFFF;" d="M785.28,573.669c-9.611-33.925-34.51-21.851-38.206-17.335c-6.609,8.074-10.521,26.88,5.695,39.012
			c13.842,10.355,14.957,28.787,14.987,33.965c0.005,0.889-0.022,1.387-0.022,1.387S794.891,607.594,785.28,573.669z"/>
		<path style="fill:#FFFFFF;" d="M268.316,563.518c-0.331-5.826-13.358-30.24-41.092-8.466
			c-27.733,21.773-19.371,56.434-19.371,56.434s0.271-0.418,0.798-1.134c3.071-4.169,14.82-18.416,32.103-18.643
			C261.005,591.442,268.908,573.935,268.316,563.518z"/>
		<path style="fill:#FFFFFF;" d="M925.845,507.731c0.77,0.446,1.186,0.721,1.186,0.721s-6.206-35.112-40.335-43.969
			c-34.129-8.857-36.3,18.73-34.272,24.202c3.626,9.784,17.874,22.665,36.539,14.806
			C904.895,496.783,921.362,505.139,925.845,507.731z"/>
		<path style="fill:#FFFFFF;" d="M473.996,329.316c0,0,0.295-0.404,0.861-1.088c3.3-3.991,15.827-17.558,33.097-16.817
			c20.234,0.868,29.105-16.169,29.097-26.603c-0.004-5.836-11.644-30.94-40.553-10.754
			C467.588,294.24,473.996,329.316,473.996,329.316z"/>
		<path style="fill:#FFFFFF;" d="M569.766,222.818c-25.603-24.243-58.664-10.892-58.664-10.892s0.454,0.207,1.238,0.623
			c4.575,2.428,20.389,11.96,23.147,29.025c3.232,19.993,21.708,25.244,31.925,23.133
			C573.129,263.526,595.369,247.061,569.766,222.818z"/>
		<path style="fill:#FFFFFF;" d="M273.964,315.26c0,0,0.466-0.177,1.315-0.441c4.944-1.541,22.848-6.062,36.909,3.991
			c16.475,11.779,33.212,2.353,38.904-6.391c3.185-4.892,7.147-32.278-28.095-31.159C287.754,282.379,273.964,315.26,273.964,315.26
			z"/>
		<path style="fill:#FFFFFF;" d="M581.227,316.797c9.698,3.847,28.805,1.869,35.444-17.264
			c5.667-16.331,22.893-22.986,27.817-24.585c0.845-0.274,1.328-0.4,1.328-0.4s-30.255-18.868-59.664,0.584
			C556.742,294.581,575.8,314.644,581.227,316.797z"/>
		<path style="fill:#FFFFFF;" d="M308.933,234.187c0,0,0.477,0.146,1.309,0.457c4.852,1.809,21.775,9.199,26.735,25.758
			c5.811,19.401,24.814,22.198,34.669,18.772c5.513-1.916,25.417-21.141-3.128-41.838
			C339.972,216.638,308.933,234.187,308.933,234.187z"/>
		<path style="fill:#FFFFFF;" d="M496.754,216.719c-25.335-24.523-58.542-11.535-58.542-11.535s0.452,0.212,1.232,0.637
			c4.548,2.477,20.257,12.184,22.828,29.277c3.011,20.027,21.429,25.482,31.669,23.482
			C499.669,257.462,522.089,241.242,496.754,216.719z"/>
		<path style="fill:#FFFFFF;" d="M431.164,231.732c-0.779,5.12-4.549,23.196-19.743,31.44
			c-17.801,9.658-16.651,28.832-11.281,37.776c3.005,5.004,25.895,20.552,40.313-11.624c14.419-32.177-9.11-58.968-9.11-58.968
			S431.298,230.854,431.164,231.732z"/>
	</g>
</g>
</svg>
