<?xml version="1.0" encoding="iso-8859-1"?>
<!-- Generator: Adobe Illustrator 19.1.0, SVG Export Plug-In . SVG Version: 6.00 Build 0)  -->
<svg version="1.1" xmlns="http://www.w3.org/2000/svg" xmlns:xlink="http://www.w3.org/1999/xlink" x="0px" y="0px"
	 viewBox="0 0 1024 1024" style="enable-background:new 0 0 1024 1024;" xml:space="preserve">
<g id="template">
	<g id="Hexigon">
		<g>
			<polygon style="fill:#42AA48;" points="257.289,953.174 2.577,512 257.289,70.828 766.711,70.828 1021.423,512 766.711,953.174 
							"/>
			<g>
				<path style="fill:#00A651;" d="M766.423,71.328L1020.845,512L766.423,952.673H257.577L3.155,512L257.577,71.328H766.423
					 M767,70.328H257L2,512l255,441.673h510L1022,512L767,70.328L767,70.328z"/>
			</g>
		</g>
	</g>
</g>
<g id="achievement18_1_">
	<g>
		<polygon style="fill:#FFFFFF;" points="796.955,706.15 607.807,706.15 607.807,582.992 416.193,582.992 416.193,647.503 
			227.045,647.503 227.045,801.922 416.193,801.922 426.99,801.922 583.515,801.922 607.807,801.922 796.955,801.922 		"/>
		<path style="fill:#FFFFFF;" d="M645.22,427.746c14.101-11.602,8.925-30.702-4.642-42.841
			c-13.565-12.138-41.338-61.052-52.122-83.539c-16.78-34.986-50.717-31.791-66.426-37.502
			c-15.708-5.713-26.396-85.307-28.538-98.159c-2.142-12.852-8.211-33.114-33.38-31.507c-10.788,0.688-20.527,14.728-22.313,25.438
			c-1.785,10.71-0.97,23.919,1.428,48.552c2.252,23.124,8.926,59.264,16.78,81.755c7.854,22.491,12.852,71.4,10.71,102.46
			c-2.142,31.059-21.42,89.609-29.988,131.735c-8.045,39.558,31.059,46.768,49.2,3.557c7.042-16.775,37.196-84.954,37.196-84.954
			s17.878,62.742,23.521,88.113c7.36,33.091,54.797,28.628,47.656-2.788c-7.139-31.416-10.843-138.161-10.843-138.161
			C600.95,428.104,636.039,435.301,645.22,427.746z"/>
		<circle style="fill:#FFFFFF;" cx="576.295" cy="200.691" r="42.841"/>
	</g>
</g>
</svg>
