<?xml version="1.0" encoding="iso-8859-1"?>
<!-- Generator: Adobe Illustrator 19.1.0, SVG Export Plug-In . SVG Version: 6.00 Build 0)  -->
<svg version="1.1" xmlns="http://www.w3.org/2000/svg" xmlns:xlink="http://www.w3.org/1999/xlink" x="0px" y="0px"
	 viewBox="0 0 1024 1024" style="enable-background:new 0 0 1024 1024;" xml:space="preserve">
<g id="template">
	<g id="Hexigon">
		<g>
			<polygon style="fill:#42AA48;" points="257.289,953.174 2.577,512 257.289,70.828 766.711,70.828 1021.423,512 766.711,953.174 
							"/>
			<g>
				<path style="fill:#00A651;" d="M766.423,71.328L1020.845,512L766.423,952.673H257.577L3.155,512L257.577,71.328H766.423
					 M767,70.328H257L2,512l255,441.673h510L1022,512L767,70.328L767,70.328z"/>
			</g>
		</g>
	</g>
</g>
<g id="shingle">
	<polygon style="fill:#FFFFFF;" points="364.118,456.258 421.085,456.258 349.982,363.312 293.014,363.312 	"/>
	<polygon style="fill:#FFFFFF;" points="442.091,558.185 499.058,558.185 427.955,465.238 370.987,465.238 	"/>
	<polygon style="fill:#FFFFFF;" points="425.188,456.258 482.155,456.258 411.052,363.312 354.084,363.312 	"/>
	<polygon style="fill:#FFFFFF;" points="503.161,558.185 560.128,558.185 489.025,465.238 432.057,465.238 	"/>
	<polygon style="fill:#FFFFFF;" points="486.258,456.258 543.225,456.258 472.122,363.312 415.154,363.312 	"/>
	<polygon style="fill:#FFFFFF;" points="564.231,558.185 621.198,558.185 550.095,465.238 493.127,465.238 	"/>
	<polygon style="fill:#FFFFFF;" points="547.328,456.258 604.295,456.258 533.192,363.312 476.224,363.312 	"/>
	<polygon style="fill:#FFFFFF;" points="625.301,558.185 682.268,558.185 611.165,465.238 554.197,465.238 	"/>
	<polygon style="fill:#FFFFFF;" points="608.398,456.258 665.365,456.258 594.262,363.312 537.294,363.312 	"/>
	<polygon style="fill:#FFFFFF;" points="686.371,558.185 743.338,558.185 672.235,465.238 615.267,465.238 	"/>
	<polygon style="fill:#FFFFFF;" points="598.364,363.312 669.468,456.258 726.435,456.258 655.331,363.312 	"/>
	<polygon style="fill:#FFFFFF;" points="747.441,558.185 804.408,558.185 733.305,465.238 676.337,465.238 	"/>
	<polygon style="fill:#FFFFFF;" points="518.539,658.117 575.506,658.117 504.403,565.171 447.435,565.171 	"/>
	<polygon style="fill:#FFFFFF;" points="579.609,658.117 636.576,658.117 565.473,565.171 508.505,565.171 	"/>
	<polygon style="fill:#FFFFFF;" points="640.679,658.117 697.646,658.117 626.543,565.171 569.575,565.171 	"/>
	<polygon style="fill:#FFFFFF;" points="701.749,658.117 758.716,658.117 687.612,565.171 630.645,565.171 	"/>
	<polygon style="fill:#FFFFFF;" points="762.819,658.117 819.786,658.117 748.682,565.171 691.715,565.171 	"/>
	<polygon style="fill:#FFFFFF;" points="823.889,658.117 880.856,658.117 809.752,565.171 752.785,565.171 	"/>
	<g>
		
			<rect x="214.019" y="366.694" transform="matrix(0.8864 0.4628 -0.4628 0.8864 266.1565 -42.4245)" style="fill:#FFFFFF;" width="11.028" height="308.967"/>
	</g>
</g>
</svg>
