<?xml version="1.0" encoding="iso-8859-1"?>
<!-- Generator: Adobe Illustrator 19.1.0, SVG Export Plug-In . SVG Version: 6.00 Build 0)  -->
<svg version="1.1" xmlns="http://www.w3.org/2000/svg" xmlns:xlink="http://www.w3.org/1999/xlink" x="0px" y="0px"
	 viewBox="0 0 1024 1024" style="enable-background:new 0 0 1024 1024;" xml:space="preserve">
<g id="template">
	<g id="Hexigon">
		<g>
			<polygon style="fill:#42AA48;" points="257.289,953.174 2.577,512 257.289,70.828 766.711,70.828 1021.423,512 766.711,953.174 
							"/>
			<g>
				<path style="fill:#00A651;" d="M766.423,71.328L1020.845,512L766.423,952.673H257.577L3.155,512L257.577,71.328H766.423
					 M767,70.328H257L2,512l255,441.673h510L1022,512L767,70.328L767,70.328z"/>
			</g>
		</g>
	</g>
</g>
<g id="brewingtea">
	<g>
		<g>
			<path style="fill:#FFFFFF;" d="M670.368,672.607c-7.214,8.543-15.598,15.685-27.548,21.448
				c-26.721,12.888-60.569,28.065-85.509,31.438c-24.94,3.373-59.388,4.786-59.388,4.786s-34.449-1.413-59.389-4.786
				c-24.94-3.373-58.787-18.55-85.509-31.438c-11.95-5.764-20.334-12.905-27.548-21.448c-92.54,9.825-154.142,27.317-154.142,47.264
				c0,30.735,146.218,55.65,326.587,55.65s326.587-24.915,326.587-55.65C824.51,699.924,762.908,682.432,670.368,672.607z"/>
		</g>
		<g>
			<path style="fill:#FFFFFF;" d="M378.663,779.563c-1.04,1.246-1.59,2.525-1.59,3.828c0,13.039,54.106,23.609,120.85,23.609
				s120.85-10.57,120.85-23.609c0-1.304-0.55-2.582-1.59-3.828c-36.945,2.471-77.171,3.828-119.26,3.828
				S415.608,782.033,378.663,779.563z"/>
		</g>
		<path style="fill:#FFFFFF;" d="M778.303,479.903l0.592-0.371c2.99-2.003,73.237-49.64,73.766-101.094
			c0.214-20.759-10.355-38.758-31.414-53.499c-17.442-12.209-36.49-16.468-56.61-12.663c-4.056,0.767-8.038,1.85-11.936,3.19
			c1.399-4.34,2.675-7.519,3.805-9.318c8.647-13.758,10.284-37.561,10.594-46.081c0.04-0.299,0.073-0.599,0.073-0.9
			c0-0.133-0.024-0.265-0.032-0.397c0.031-1.176,0.032-1.851,0.032-1.851h-0.382c-7.464-22.242-124.983-39.917-268.868-39.917
			s-261.405,17.675-268.868,39.917h-0.382c0,0,0.001,0.675,0.032,1.851c-0.008,0.133-0.032,0.265-0.032,0.397
			c0,0.301,0.033,0.601,0.073,0.9c0.31,8.52,1.946,32.323,10.593,46.081c14.718,23.417,53.964,279.938,70.828,306.92
			c16.864,26.982,25.296,46.738,50.591,59.626c25.296,12.888,57.337,28.065,80.946,31.438c23.609,3.373,56.22,4.786,56.22,4.786
			s32.61-1.413,56.22-4.786c23.609-3.373,55.65-18.55,80.946-31.438c25.296-12.888,33.728-32.644,50.591-59.626
			c2.332-3.731,5.093-11.858,8.157-23.145c14.928,17.545,32.167,27.516,51.359,29.639c2.693,0.298,5.342,0.435,7.943,0.434
			c16.806,0,31.504-5.694,41.58-10.275l-9.305-20.47c-23.909,10.868-51.996,17.03-79.029-19.664
			c-3.471-4.711-4.511-9.696-3.275-15.684C708.901,525.847,759.355,490.971,778.303,479.903z M745.353,343.41
			c7.442-4.243,15.334-7.502,23.463-9.04c14.142-2.676,27.073,0.266,39.536,8.99c14.811,10.368,21.95,21.759,21.824,34.824
			c-0.317,32.721-45.716,70.453-63.534,82.489c-2.67,1.578-19.931,11.941-38.302,26.793c-5.346,4.322-10.248,8.591-14.714,12.804
			C724.64,445.102,736.246,382.649,745.353,343.41z"/>
	</g>
</g>
</svg>
