<?xml version="1.0" encoding="iso-8859-1"?>
<!-- Generator: Adobe Illustrator 19.1.0, SVG Export Plug-In . SVG Version: 6.00 Build 0)  -->
<svg version="1.1" xmlns="http://www.w3.org/2000/svg" xmlns:xlink="http://www.w3.org/1999/xlink" x="0px" y="0px"
	 viewBox="0 0 1024 1024" style="enable-background:new 0 0 1024 1024;" xml:space="preserve">
<g id="template">
	<g id="Hexigon">
		<g>
			<polygon style="fill:#42AA48;" points="257.289,953.174 2.577,512 257.289,70.828 766.711,70.828 1021.423,512 766.711,953.174 
							"/>
			<g>
				<path style="fill:#00A651;" d="M766.423,71.328L1020.845,512L766.423,952.673H257.577L3.155,512L257.577,71.328H766.423
					 M767,70.328H257L2,512l255,441.673h510L1022,512L767,70.328L767,70.328z"/>
			</g>
		</g>
	</g>
</g>
<g id="achievement15">
	<g>
		<path style="fill:#FFFFFF;" d="M242.948,735.511c3.088-6.168,15.281-27.531,37.918-31.745
			c26.521-4.937,32.93-29.707,29.793-43.247c-1.754-7.573-24.384-36.669-55.856-1.806c-31.473,34.863-12.645,78.467-12.645,78.467
			S242.419,736.569,242.948,735.511z"/>
		<path style="fill:#FFFFFF;" d="M327.987,616.873c7.537-1.905,36.176-25.11,0.693-55.882
			c-35.483-30.771-78.703-11.079-78.703-11.079s0.616,0.249,1.685,0.758c6.228,2.963,27.83,14.729,32.492,37.277
			C289.62,614.365,314.513,620.278,327.987,616.873z"/>
		<path style="fill:#FFFFFF;" d="M339.246,342.33c-46.309,7.84-58.571,53.724-58.571,53.724s0.584-0.318,1.656-0.82
			c6.246-2.925,29.059-12.125,49.431-1.397c23.87,12.571,44.256-2.891,50.189-15.459C385.27,371.348,385.554,334.489,339.246,342.33
			z"/>
		<path style="fill:#FFFFFF;" d="M581.856,689.344c0,0-3.447-13.792-15.085-13.792c0,0-20.216,18.852-33.568,39.433
			c-5.321-16.647-12.228-31.808-17.724-44.175c-13.645-30.7-31.469-137.99,8.209-186.192c12.718-15.024,30.774-35.173,50.086-38.801
			c0,0,1.491-15.517-6.267-15.805c-3.719-0.137-15.638,4.777-28.328,12.525c4.399-14.189,25.626-67.146,99.878-78.072
			c0,0,8.62-5.894,0-16.309c0,0-91.038,9.591-129.015,92.952c-15.564-35.937-56.026-83.237-101.727-79.771
			c0,0-4.023,7.471,1.151,15.23c0,0,53.446,0.862,79.883,62.93c0,0-9.497-9.062-25.588-10.355c0,0-5.374,4.823-1.929,15.814
			c4.76,0.247,11.827,2.871,14.154,8.333c1.731,4.06,1.149,9.051-1.886,18.39c0,0-31.928,104.423-19.09,181.559
			c-12.148-3.751-31.07-8.017-55.907-8.72c0,0-9.482-25.861-27.155-32.326c0,0-9.09-0.987-10.148,7.911
			c0,0,14.459,6.312,17.476,27.432c0,0-25.861,0-37.93,5.172c0,0-3.341,9.807,3.448,15.625
			c24.179-3.345,82.417-11.989,122.948,25.18c36.995,73.831,0.756,156.89,0.756,156.89s-46.121,7.471-54.741,55.746
			c0,0,44.827-43.964,90.515-36.206c0,0,16.379,18.966,41.378,16.379s36.205,13.792,36.205,13.792s-7.758-31.895-35.344-36.205
			c-27.585-4.31-20.688-30.172-8.62-74.137c3.887-14.157,4.279-28.46,2.626-42.343C547.512,730.095,561.904,700.362,581.856,689.344
			z M516.824,459.409c-0.244,0.234-0.481,0.471-0.721,0.707c-0.014-0.075-0.031-0.154-0.046-0.228L516.824,459.409z"/>
		<path style="fill:#FFFFFF;" d="M757.18,395.793c0,0-2.52-47.428-46.21-64.665c-43.689-17.239-51.026,18.885-49.231,26.449
			c3.21,13.522,19.961,32.862,45.914,25.493c22.149-6.288,42.569,7.426,48.077,11.578
			C756.674,395.362,757.18,395.793,757.18,395.793z"/>
		<path style="fill:#FFFFFF;" d="M671.839,450.092c-1.097,13.854,8.907,37.403,35.868,38.359
			c23.011,0.816,38.233,20.137,42.2,25.781c0.681,0.969,1.029,1.533,1.029,1.533s12.165-45.91-24.122-75.729
			C690.527,410.217,672.453,442.342,671.839,450.092z"/>
		<path style="fill:#FFFFFF;" d="M188.081,663.204c4.68-5.066,22.332-22.196,45.248-19.95c26.848,2.631,39.89-19.381,40.642-33.258
			c0.42-7.763-13.228-42.004-53.152-17.266c-39.925,24.738-33.963,71.857-33.963,71.857S187.277,664.073,188.081,663.204z"/>
		<path style="fill:#FFFFFF;" d="M624.839,690.23c22.742,3.598,35.512,24.622,38.765,30.704c0.557,1.044,0.836,1.648,0.836,1.648
			s17.638-44.099-14.767-78.095c-32.406-33.996-54.239-4.299-55.787,3.32C591.117,661.427,598.193,686.014,624.839,690.23z"/>
		<path style="fill:#FFFFFF;" d="M619.25,516.713c-1.654-46.938-37.699-39.23-43.916-34.563
			c-11.114,8.345-22.15,31.429-5.027,52.275c14.615,17.793,10.201,41.991,8.594,48.699c-0.275,1.152-0.469,1.787-0.469,1.787
			S620.904,563.651,619.25,516.713z"/>
		<path style="fill:#FFFFFF;" d="M280.451,524.944c0,0,0.261-0.611,0.791-1.669c3.088-6.168,15.281-27.531,37.918-31.743
			c26.521-4.937,32.93-29.708,29.793-43.247c-1.754-7.575-24.384-36.67-55.856-1.807
			C261.623,481.341,280.451,524.944,280.451,524.944z"/>
		<path style="fill:#FFFFFF;" d="M596.715,419.382c-6.099,12.488-5.423,38.065,19.311,48.836
			c21.111,9.194,28.192,32.75,29.814,39.454c0.278,1.15,0.395,1.805,0.395,1.805s28.146-38.258,5.314-79.301
			C628.717,389.131,600.126,412.396,596.715,419.382z"/>
		<path style="fill:#FFFFFF;" d="M384.728,503.955c0,0,0.117-0.654,0.395-1.804c1.622-6.704,8.703-30.26,29.814-39.454
			c24.733-10.771,25.411-36.349,19.311-48.836c-3.411-6.986-32.002-30.251-54.833,10.793
			C356.583,465.698,384.728,503.955,384.728,503.955z"/>
	</g>
</g>
</svg>
