<?xml version="1.0" encoding="iso-8859-1"?>
<!-- Generator: Adobe Illustrator 19.1.0, SVG Export Plug-In . SVG Version: 6.00 Build 0)  -->
<svg version="1.1" xmlns="http://www.w3.org/2000/svg" xmlns:xlink="http://www.w3.org/1999/xlink" x="0px" y="0px"
	 viewBox="0 0 1024 1024" style="enable-background:new 0 0 1024 1024;" xml:space="preserve">
<g id="template">
	<g id="Hexigon">
		<g>
			<polygon style="fill:#42AA48;" points="257.289,953.174 2.577,512 257.289,70.828 766.711,70.828 1021.423,512 766.711,953.174 
							"/>
			<g>
				<path style="fill:#00A651;" d="M766.423,71.328L1020.845,512L766.423,952.673H257.577L3.155,512L257.577,71.328H766.423
					 M767,70.328H257L2,512l255,441.673h510L1022,512L767,70.328L767,70.328z"/>
			</g>
		</g>
	</g>
</g>
<g id="ornamental">
	<g>
		<circle style="fill:#FFFFFF;" cx="512" cy="641.267" r="268.813"/>
		<path style="fill:#FFFFFF;" d="M512,361.015c11.837,0,23.501,0.742,34.952,2.167v-28.301c0-13.469-10.918-24.387-24.387-24.387
			h-21.13c-13.469,0-24.387,10.918-24.387,24.387v28.301C488.499,361.757,500.163,361.015,512,361.015z"/>
		<path style="fill:none;stroke:#FFFFFF;stroke-width:8;stroke-miterlimit:10;" d="M505.543,302.55
			c0,0-77.751-94.597-47.463-153.771c31.359-61.266,90.168-33.387,100.38,19.137C569.691,225.682,505.543,302.55,505.543,302.55z"/>
	</g>
</g>
</svg>
