<?xml version="1.0" encoding="iso-8859-1"?>
<!-- Generator: Adobe Illustrator 19.1.0, SVG Export Plug-In . SVG Version: 6.00 Build 0)  -->
<svg version="1.1" xmlns="http://www.w3.org/2000/svg" xmlns:xlink="http://www.w3.org/1999/xlink" x="0px" y="0px"
	 viewBox="0 0 1024 1024" style="enable-background:new 0 0 1024 1024;" xml:space="preserve">
<g id="template">
	<g id="Hexigon">
		<g>
			<polygon style="fill:#42AA48;" points="257.289,953.174 2.577,512 257.289,70.828 766.711,70.828 1021.423,512 766.711,953.174 
							"/>
			<g>
				<path style="fill:#00A651;" d="M766.423,71.328L1020.845,512L766.423,952.673H257.577L3.155,512L257.577,71.328H766.423
					 M767,70.328H257L2,512l255,441.673h510L1022,512L767,70.328L767,70.328z"/>
			</g>
		</g>
	</g>
</g>
<g id="nuts">
	<g>
		<path style="fill:#FFFFFF;" d="M516.278,859.672c-0.529,0.043-1.06,0.077-1.592,0.104
			C515.215,859.749,515.746,859.713,516.278,859.672z"/>
		<path style="fill:#FFFFFF;" d="M616.77,597.401c0-5.6-0.208-11.085-0.38-16.581c0.674-12.323,1.141-24.729,1.141-37.243
			c0-123.201-79.525-228.642-105.537-259.839c-26.016,31.197-105.524,136.638-105.524,259.839c0,12.493,0.467,24.875,1.141,37.181
			c-0.183,5.517-0.38,11.023-0.38,16.643c0,126.912,46.886,262.391,104.728,262.453c0.007,0,0.024,0.007,0.042,0.007
			c0.219,0,0.444-0.018,0.664-0.021c-0.201,0.003-0.401,0.011-0.602,0.011C569.891,859.751,616.77,724.296,616.77,597.401z"/>
		<path style="fill:#FFFFFF;" d="M541.572,255.122v-90.984h-59.15v90.984c-113.264,18.165-156.145,141.947-156.145,292.253
			c0,160.768,104.912,308.703,182.763,312.391c-74.712-4.151-124.682-165.429-124.682-316.188
			c0-155.197,114.644-278.737,119.514-283.932l8.121-8.616l8.117,8.616c4.87,5.195,119.531,128.735,119.531,283.932
			c0,148.859-48.709,307.965-121.878,315.955c72.331-7.545,179.959-153.609,179.959-312.157
			C697.723,397.069,654.832,273.287,541.572,255.122z"/>
		<path style="fill:#FFFFFF;" d="M509.04,859.766c0.96,0.053,1.923,0.088,2.891,0.089
			C510.973,859.854,510.007,859.812,509.04,859.766z"/>
		<path style="fill:#FFFFFF;" d="M517.764,859.532c-0.497,0.052-0.992,0.1-1.486,0.139
			C516.774,859.631,517.27,859.586,517.764,859.532z"/>
		<path style="fill:#FFFFFF;" d="M514.686,859.776c-0.677,0.034-1.351,0.056-2.022,0.065
			C513.34,859.832,514.014,859.81,514.686,859.776z"/>
	</g>
</g>
</svg>
