<?xml version="1.0" encoding="iso-8859-1"?>
<!-- Generator: Adobe Illustrator 19.1.0, SVG Export Plug-In . SVG Version: 6.00 Build 0)  -->
<svg version="1.1" xmlns="http://www.w3.org/2000/svg" xmlns:xlink="http://www.w3.org/1999/xlink" x="0px" y="0px"
	 viewBox="0 0 1024 1024" style="enable-background:new 0 0 1024 1024;" xml:space="preserve">
<g id="template">
	<g id="Hexigon">
		<g>
			<polygon style="fill:#42AA48;" points="257.289,953.174 2.577,512 257.289,70.828 766.711,70.828 1021.423,512 766.711,953.174 
							"/>
			<g>
				<path style="fill:#00A651;" d="M766.423,71.328L1020.845,512L766.423,952.673H257.577L3.155,512L257.577,71.328H766.423
					 M767,70.328H257L2,512l255,441.673h510L1022,512L767,70.328L767,70.328z"/>
			</g>
		</g>
	</g>
</g>
<g id="cone">
	<g>
		<path style="fill:#FFFFFF;" d="M397.818,591.315l79.807-83.433l-0.427-19.183l-83.42-79.795l-19.204,0.427l-79.226,82.834
			c0.47,7.204,1.105,14.353,1.681,21.524l81.606,78.052L397.818,591.315z"/>
		<path style="fill:#FFFFFF;" d="M509.803,228.662l89.588-93.658c-26.589-12.206-58.54-19.036-97.147-18.176
			c-35.522,0.791-67.468,12.278-95.19,32.334l83.567,79.928L509.803,228.662z"/>
		<path style="fill:#FFFFFF;" d="M354.529,371.372l-48.231-46.139c-8.576,39.149-12.988,82.429-12.394,129.165l61.051-63.836
			L354.529,371.372z"/>
		<path style="fill:#FFFFFF;" d="M392.489,351.327l79.782-83.424l-0.427-19.191l-85.65-81.932
			c-31.823,30.754-56.4,74.589-72.19,128.259l59.302,56.715L392.489,351.327z"/>
		<polygon style="fill:#FFFFFF;" points="417.458,610.078 417.885,629.269 501.903,709.624 519.94,709.223 598.739,626.828 
			598.241,604.475 516.435,526.223 497.236,526.651 		"/>
		<path style="fill:#FFFFFF;" d="M529.862,266.621l83.415,79.791l19.204-0.427l73.724-77.077
			c-14.859-47.404-40.033-91.801-82.303-120.255l-94.467,98.777L529.862,266.621z"/>
		<polygon style="fill:#FFFFFF;" points="594.938,366.441 511.085,286.24 491.902,286.667 412.116,370.091 412.543,389.282 
			495.963,469.073 515.167,468.645 595.347,384.805 		"/>
		<path style="fill:#FFFFFF;" d="M619.913,643.977l-79.795,83.428l0.427,19.187l87.077,83.289
			c24.738-39.64,43.935-90.175,58.524-141.334l-47.042-44.997L619.913,643.977z"/>
		<path style="fill:#FFFFFF;" d="M614.571,403.99l-79.795,83.42l0.427,19.204l83.415,79.787l19.204-0.427l85.26-89.146
			c0.258-2.532,0.474-4.817,0.686-7.157l-90.014-86.107L614.571,403.99z"/>
		<path style="fill:#FFFFFF;" d="M652.506,364.332l0.446,20.023l73.072,69.894c1.348-35.587,1.643-95.216-11.62-154.638
			L652.506,364.332z"/>
		<path style="fill:#FFFFFF;" d="M359.871,611.36l-58.903-56.338c4.511,40.692,10.893,80.182,19.458,117.221l39.872-41.692
			L359.871,611.36z"/>
		<path style="fill:#FFFFFF;" d="M656.255,622.384l37.94,36.296c10.521-41.799,18.014-82.486,23.066-116.486l-61.363,64.157
			L656.255,622.384z"/>
		<path style="fill:#FFFFFF;" d="M502.026,767.232l-91.214,95.372c29.46,28.85,65.27,45.585,109.026,44.611
			c36.286-0.808,66.69-22.061,92.097-54.773l-89.558-85.662L502.026,767.232z"/>
		<path style="fill:#FFFFFF;" d="M482.54,728.683l-83.428-79.791l-19.204,0.427l-51.57,53.922
			c15.385,55.4,36.411,103.448,64.328,139.049l90.302-94.409L482.54,728.683z"/>
	</g>
</g>
</svg>
