<?xml version="1.0" encoding="iso-8859-1"?>
<!-- Generator: Adobe Illustrator 19.1.0, SVG Export Plug-In . SVG Version: 6.00 Build 0)  -->
<svg version="1.1" xmlns="http://www.w3.org/2000/svg" xmlns:xlink="http://www.w3.org/1999/xlink" x="0px" y="0px"
	 viewBox="0 0 1024 1024" style="enable-background:new 0 0 1024 1024;" xml:space="preserve">
<g id="template">
	<g id="Hexigon">
		<g>
			<polygon style="fill:#42AA48;" points="257.289,953.174 2.577,512 257.289,70.828 766.711,70.828 1021.423,512 766.711,953.174 
							"/>
			<g>
				<path style="fill:#00A651;" d="M766.423,71.328L1020.845,512L766.423,952.673H257.577L3.155,512L257.577,71.328H766.423
					 M767,70.328H257L2,512l255,441.673h510L1022,512L767,70.328L767,70.328z"/>
			</g>
		</g>
	</g>
</g>
<g id="railroadties">
	<path style="fill:#FFFFFF;" d="M731.079,252.538v-62.594h-19.051v-20.192h-30.287v20.192h-340.36v-20.192h-30.288v20.192h-18.172
		v62.594h18.172v24.23h-18.172v62.594h18.172v20.192h-18.172v62.594h18.172v20.192h-18.172v62.594h18.172v20.192h-18.172v62.594
		h18.172v20.192h-18.172v62.594h18.172v20.192h-18.172v62.594h18.172v20.192h-18.172v62.594h18.172v18.172h30.288v-18.172h340.36
		v18.172h30.287v-18.172h19.051v-62.594h-19.051v-20.192h19.051v-62.594h-19.051v-20.192h19.051v-62.594h-19.051v-20.192h19.051
		v-62.594h-19.051v-20.192h19.051v-62.594h-19.051v-20.192h19.051v-62.594h-19.051v-20.192h19.051v-62.594h-19.051v-24.23H731.079z
		 M681.741,773.482h-340.36v-20.192h340.36V773.482z M681.741,690.697h-340.36v-20.192h340.36V690.697z M681.741,607.911h-340.36
		v-20.192h340.36V607.911z M681.741,525.125h-340.36v-20.192h340.36V525.125z M681.741,442.339h-340.36v-20.192h340.36V442.339z
		 M681.741,359.554h-340.36v-20.192h340.36V359.554z M681.741,276.768h-340.36v-24.23h340.36V276.768z"/>
</g>
</svg>
