<?xml version="1.0" encoding="iso-8859-1"?>
<!-- Generator: Adobe Illustrator 19.1.0, SVG Export Plug-In . SVG Version: 6.00 Build 0)  -->
<svg version="1.1" xmlns="http://www.w3.org/2000/svg" xmlns:xlink="http://www.w3.org/1999/xlink" x="0px" y="0px"
	 viewBox="0 0 1024 1024" style="enable-background:new 0 0 1024 1024;" xml:space="preserve">
<g id="template">
	<g id="Hexigon">
		<g>
			<polygon style="fill:#42AA48;" points="257.289,953.174 2.577,512 257.289,70.828 766.711,70.828 1021.423,512 766.711,953.174 
							"/>
			<g>
				<path style="fill:#00A651;" d="M766.423,71.328L1020.845,512L766.423,952.673H257.577L3.155,512L257.577,71.328H766.423
					 M767,70.328H257L2,512l255,441.673h510L1022,512L767,70.328L767,70.328z"/>
			</g>
		</g>
	</g>
</g>
<g id="achievement1">
	<g>
		<path style="fill:#FFFFFF;" d="M484.533,182.541l32.13-58.548l31.774,58.994l63.412-36.325L562.36,254.657
			c-22.848-17.852-69.259-21.42-97.463,0l-41.77-107.93L484.533,182.541z"/>
		<circle style="fill:#FFFFFF;" cx="508.809" cy="311.063" r="43.912"/>
		<path style="fill:#FFFFFF;" d="M582.928,621.765c2.225-5.723,2.613-13.402-0.098-22.795c-4.775-16.542-15.43-47.307-19.064-75.187
			c-3.974-30.488-4.998-70.329-4.998-70.329s28.917,22.491,42.484,31.059c13.566,8.568,29.958,21.092,38.557,12.495
			c10.352-10.352,6.989-25.066-5.932-38.525c-27.018-28.143-81.891-75.718-121.876-75.716h0c-39.984,0-94.858,47.572-121.875,75.716
			c-12.922,13.459-16.285,28.171-5.932,38.525c8.598,8.597,24.991-3.928,38.557-12.497c13.567-8.568,42.484-31.057,42.484-31.057
			s-1.024,39.841-4.998,70.329c-3.635,27.88-14.289,58.644-19.064,75.187c-2.714,9.403-2.322,17.086-0.092,22.811
			C349.12,661.558,274.474,776.784,240.52,927.249L256,953.673h512l15.513-26.478C749.549,776.734,674.893,661.518,582.928,621.765z
			 M512.023,606.664c-10.91,0-21.671,1.09-32.27,3.108c12.85-29.8,32.245-83.483,32.247-83.489
			c0.003,0.006,19.394,53.678,32.244,83.481C533.661,607.752,522.916,606.664,512.023,606.664z"/>
	</g>
</g>
</svg>
