<?xml version="1.0" encoding="iso-8859-1"?>
<!-- Generator: Adobe Illustrator 19.1.0, SVG Export Plug-In . SVG Version: 6.00 Build 0)  -->
<svg version="1.1" xmlns="http://www.w3.org/2000/svg" xmlns:xlink="http://www.w3.org/1999/xlink" x="0px" y="0px"
	 viewBox="0 0 1024 1024" style="enable-background:new 0 0 1024 1024;" xml:space="preserve">
<g id="template">
	<g id="Hexigon">
		<g>
			<polygon style="fill:#42AA48;" points="257.289,953.174 2.577,512 257.289,70.828 766.711,70.828 1021.423,512 766.711,953.174 
							"/>
			<g>
				<path style="fill:#00A651;" d="M766.423,71.328L1020.845,512L766.423,952.673H257.577L3.155,512L257.577,71.328H766.423
					 M767,70.328H257L2,512l255,441.673h510L1022,512L767,70.328L767,70.328z"/>
			</g>
		</g>
	</g>
</g>
<g id="achievement5">
	<g>
		<path style="fill:#FFFFFF;" d="M379.216,747.088c-21.42,0-35.879,40.163-44.447,55.693c-8.568,15.53,6.962,17.672,11.246,10.175
			s17.136-29.453,17.136-29.453s-3.749,81.933-3.749,97.998s14.459,10.175,14.459,0.536c0-9.639,1.335-52.476,8.297-52.208
			c6.962,0.268,8.84,39.891,8.84,51.672s12.317,12.852,12.317,0c0-12.852-2.678-97.77-2.678-97.77s14.994,22.799,19.814,28.689
			c4.82,5.891,19.278,5.355,11.246-9.907C419.052,778.49,402.779,747.088,379.216,747.088z"/>
		<circle style="fill:#FFFFFF;" cx="378.413" cy="723.526" r="17.404"/>
		<path style="fill:#FFFFFF;" d="M871.884,360.987c-13.923-34.808-49.267-24.633-49.267-24.633s17.672-25.169,0.536-53.015
			c-17.136-27.846-51.409-16.601-51.409-16.601s24.098-33.737-4.82-63.726c-28.917-29.988-57.299-6.962-57.299-6.962
			s17.672-52.48-29.988-64.261s-57.835,28.382-57.835,28.382s-20.349-9.818-38.557-2.678c-20.737,8.132-27.311,30.524-27.311,30.524
			s-5.891-21.42-44.447-21.42c-22.477,0-40.699,9.104-47.66,25.704c0,0,1.071-29.988-44.983-29.453
			c-46.054,0.536-55.693,25.704-57.835,44.983c0,0-66.403-14.459-91.572,50.338c0,0-40.163-6.962-58.906,19.814
			c-18.743,26.775-12.852,58.906-12.852,58.906s-25.704-8.568-42.305,13.388s-3.57,47.125-3.57,47.125s-15.994,9.771-23.562,28.561
			c-3.767,9.353-3.571,28.203,9.46,38.913c0,0-16.446,25.706,8.033,59.977c23.206,32.487,66.403,14.994,66.403,14.994
			s15.367,21.079,37.858,22.15c22.491,1.071,43.679-16.26,43.679-16.26s48.056,55.693,140.699-3.749c0,0,11.992,8.603,34.71,13.329
			c23.937,22.716,60.505,63.745,94.228,126.929c-6.404,87.6-22.681,171.043-37.366,209.264h96.927l2.678-346.309
			c0,0,41.234,4.666,60.512-31.405c0,0,40.163,33.011,75.507-8.223c0,0,24.633,6.694,39.895-2.677
			c8.893-5.461,24.366-20.082,21.688-36.147c0,0,24.182-4.824,30.934-22.014c4.267-10.864,4.715-16.501-0.945-31.804
			C853.141,412.931,885.807,395.795,871.884,360.987z M565.847,630.927c-15.418-21.184-36.915-47.673-63.335-72.635
			c15.802-0.296,34.179-2.862,55.029-9.342l5.891-3.749C565.905,572.295,566.562,601.393,565.847,630.927z"/>
	</g>
</g>
</svg>
