<?xml version="1.0" encoding="iso-8859-1"?>
<!-- Generator: Adobe Illustrator 19.1.0, SVG Export Plug-In . SVG Version: 6.00 Build 0)  -->
<svg version="1.1" xmlns="http://www.w3.org/2000/svg" xmlns:xlink="http://www.w3.org/1999/xlink" x="0px" y="0px"
	 viewBox="0 0 1024 1024" style="enable-background:new 0 0 1024 1024;" xml:space="preserve">
<g id="template">
	<g id="Hexigon">
		<g>
			<polygon style="fill:#42AA48;" points="257.289,953.174 2.577,512 257.289,70.828 766.711,70.828 1021.423,512 766.711,953.174 
							"/>
			<g>
				<path style="fill:#00A651;" d="M766.423,71.328L1020.845,512L766.423,952.673H257.577L3.155,512L257.577,71.328H766.423
					 M767,70.328H257L2,512l255,441.673h510L1022,512L767,70.328L767,70.328z"/>
			</g>
		</g>
	</g>
</g>
<g id="pods">
	<g>
		<path style="fill:#FFFFFF;" d="M339.439,512C339.439,731.109,512,908.731,512,908.731S684.561,731.109,684.561,512
			S512,115.269,512,115.269S339.439,292.891,339.439,512z M512,750.785c-33.657,0-60.94-27.283-60.94-60.94
			c0-33.657,27.283-60.94,60.94-60.94s60.94,27.283,60.94,60.94C572.94,723.502,545.657,750.785,512,750.785z M512,572.94
			c-33.657,0-60.94-27.284-60.94-60.94c0-33.653,27.283-60.94,60.94-60.94s60.94,27.287,60.94,60.94
			C572.94,545.657,545.657,572.94,512,572.94z M572.94,334.155c0,33.657-27.284,60.94-60.94,60.94s-60.94-27.284-60.94-60.94
			c0-33.657,27.283-60.94,60.94-60.94S572.94,300.498,572.94,334.155z"/>
	</g>
</g>
</svg>
