<?xml version="1.0" encoding="iso-8859-1"?>
<!-- Generator: Adobe Illustrator 19.1.0, SVG Export Plug-In . SVG Version: 6.00 Build 0)  -->
<svg version="1.1" xmlns="http://www.w3.org/2000/svg" xmlns:xlink="http://www.w3.org/1999/xlink" x="0px" y="0px"
	 viewBox="0 0 1024 1024" style="enable-background:new 0 0 1024 1024;" xml:space="preserve">
<g id="template">
	<g id="Hexigon">
		<g>
			<polygon style="fill:#42AA48;" points="257.289,953.174 2.577,512 257.289,70.828 766.711,70.828 1021.423,512 766.711,953.174 
							"/>
			<g>
				<path style="fill:#00A651;" d="M766.423,71.328L1020.845,512L766.423,952.673H257.577L3.155,512L257.577,71.328H766.423
					 M767,70.328H257L2,512l255,441.673h510L1022,512L767,70.328L767,70.328z"/>
			</g>
		</g>
	</g>
</g>
<g id="transportation">
	<g>
		<path style="fill:#FFFFFF;" d="M538.523,197.708c-1.604,0-3.13,0.316-4.523,0.882c-1.506-5.872-6.867-10.236-13.304-10.236
			c-5.034,0-9.391,2.686-11.792,6.653c-1.546-0.765-3.273-1.237-5.132-1.237c-6.231,0-11.283,4.849-11.283,10.831
			c-3.988,0-7.221,3.139-7.221,7.01c0,3.872,3.233,7.01,7.221,7.01c0.787,0,1.531-0.153,2.241-0.379
			c3.437,4.996,10.988,8.473,19.774,8.473c8.133,0,15.213-2.979,18.948-7.384c1.54,0.721,3.246,1.161,5.071,1.161
			c6.481,0,11.734-5.1,11.734-11.392C550.257,202.808,545.004,197.708,538.523,197.708z"/>
		<path style="fill:#FFFFFF;" d="M473.724,164.297c-2.114,0-4.127,0.417-5.962,1.163c-1.985-7.741-9.053-13.495-17.539-13.495
			c-6.637,0-12.381,3.541-15.546,8.771c-2.038-1.008-4.316-1.631-6.766-1.631c-8.215,0-14.875,6.393-14.875,14.28
			c-5.258,0-9.52,4.138-9.52,9.242c0,5.104,4.262,9.242,9.52,9.242c1.038,0,2.019-0.202,2.954-0.5
			c4.531,6.586,14.486,11.17,26.069,11.17c10.723,0,20.056-3.927,24.98-9.735c2.031,0.951,4.28,1.53,6.685,1.53
			c8.544,0,15.469-6.724,15.469-15.019C489.194,171.021,482.268,164.297,473.724,164.297z"/>
		<path style="fill:#FFFFFF;" d="M543.735,357.77c-1.592-29.378-1.002-58.478,1.796-88.384c5.969-1.03,10.514-6.22,10.514-12.483
			c0-7.004-5.678-12.681-12.681-12.681h-50.726c-7.004,0-12.681,5.678-12.681,12.681c0,6.263,4.545,11.453,10.514,12.483
			c2.798,29.906,3.388,59.007,1.796,88.384c-23.299,9.992-39.624,33.131-39.624,60.089c0,36.096,29.262,65.358,65.358,65.358
			c36.096,0,65.358-29.262,65.358-65.358C583.358,390.902,567.034,367.762,543.735,357.77z M518,436.719
			c-12.93,0-23.412-10.482-23.412-23.412c0-12.93,10.482-23.412,23.412-23.412c12.93,0,23.412,10.482,23.412,23.412
			C541.412,426.237,530.93,436.719,518,436.719z"/>
		<g>
			<path style="fill:#FFFFFF;" d="M397.69,595.887l13.826,4.596c0.121-0.497,0.243-0.993,0.364-1.49
				c0.253-1.036,0.506-2.071,0.759-3.107c2.106-8.617,4.212-17.234,6.319-25.851H397.69V595.887z"/>
			<path style="fill:#FFFFFF;" d="M554.51,303.856c-0.602,15.648-0.587,31.148,0.088,46.734
				c23.81,13.005,39.998,38.281,39.998,67.269c0,42.235-34.359,76.595-76.595,76.595s-76.595-34.36-76.595-76.595
				c0-28.988,16.188-54.265,39.998-67.27c0.675-15.588,0.691-31.087,0.088-46.734c-48.593,15.461-83.802,60.939-83.802,114.654
				v144.373h240.622V418.51C638.311,364.795,603.103,319.317,554.51,303.856z M421.183,550.199c-9.652,0-17.477-7.825-17.477-17.477
				c0-9.653,7.825-17.478,17.477-17.478c9.653,0,17.477,7.825,17.477,17.478C438.66,542.374,430.835,550.199,421.183,550.199z
				 M617.042,550.199c-9.653,0-17.477-7.825-17.477-17.477c0-9.653,7.825-17.478,17.477-17.478s17.477,7.825,17.477,17.478
				C634.52,542.374,626.695,550.199,617.042,550.199z"/>
			<path style="fill:#FFFFFF;" d="M421.183,595.887c-0.367,1.634-0.734,3.268-1.101,4.902c-0.177,0.788-0.354,1.577-0.531,2.365
				l24.238,8.057c0.28-1.683,0.56-3.366,0.84-5.049c0.569-3.425,1.139-6.85,1.708-10.276c1.433-8.617,2.865-17.234,4.298-25.851
				h-23.645C425.053,578.653,423.118,587.27,421.183,595.887z"/>
			<path style="fill:#FFFFFF;" d="M488.576,595.887c-0.446,6.534-0.893,13.069-1.339,19.604c-0.226,3.313-0.452,6.626-0.679,9.939
				l26.79,8.906c0.043-4.367,0.087-8.734,0.13-13.1c0.083-8.449,0.167-16.899,0.251-25.348c0.086-8.617,0.171-17.234,0.256-25.851
				h-23.644C489.752,578.653,489.164,587.27,488.576,595.887z"/>
			<path style="fill:#FFFFFF;" d="M454.879,595.887c-0.592,4.044-1.185,8.087-1.777,12.131c-0.293,1.999-0.585,3.999-0.878,5.998
				l25.465,8.466c0.262-2.97,0.523-5.939,0.785-8.909c0.519-5.895,1.039-11.79,1.558-17.685c0.759-8.617,1.518-17.234,2.278-25.851
				h-23.645C457.402,578.653,456.141,587.27,454.879,595.887z"/>
			<path style="fill:#FFFFFF;" d="M623.361,595.887c0.253,1.035,0.506,2.071,0.759,3.107c0.121,0.497,0.243,0.993,0.364,1.49
				l13.826-4.596v-25.851h-21.269C619.149,578.653,621.255,587.27,623.361,595.887z"/>
			<path style="fill:#FFFFFF;" d="M547.426,595.887c-0.588-8.617-1.177-17.234-1.765-25.851h-23.646
				c0.085,8.617,0.171,17.234,0.256,25.851c0.084,8.449,0.168,16.899,0.251,25.348c0.043,4.367,0.087,8.734,0.13,13.1l26.79-8.906
				c-0.227-3.313-0.453-6.626-0.679-9.939C548.318,608.956,547.872,602.421,547.426,595.887z"/>
			<path style="fill:#FFFFFF;" d="M614.818,595.887c-1.935-8.617-3.87-17.234-5.806-25.851h-23.645
				c1.433,8.617,2.865,17.234,4.297,25.851c0.57,3.425,1.139,6.85,1.709,10.276c0.28,1.683,0.56,3.366,0.839,5.049l24.238-8.058
				c-0.177-0.788-0.354-1.577-0.532-2.365C615.552,599.155,615.186,597.521,614.818,595.887z"/>
			<path style="fill:#FFFFFF;" d="M581.123,595.887c-1.262-8.617-2.524-17.234-3.785-25.851h-23.646
				c0.759,8.617,1.518,17.234,2.277,25.851c0.519,5.895,1.039,11.79,1.558,17.685c0.261,2.97,0.523,5.939,0.784,8.909l25.466-8.466
				c-0.292-1.999-0.585-3.999-0.878-5.998C582.307,603.974,581.714,599.93,581.123,595.887z"/>
		</g>
		<g>
			<path style="fill:none;" d="M394.798,882.035c82.135,0,164.269,0,246.404,0l-0.001-0.008H394.8L394.798,882.035z"/>
			<path style="fill:none;stroke:#FFFFFF;stroke-miterlimit:10;" d="M599.176,668.074c-54.118,0-108.236,0-162.354,0
				c-2.494,12.697-3.741,19.046-6.235,31.743c58.275,0,116.549,0,174.824,0C602.917,687.12,601.67,680.771,599.176,668.074z"/>
			<path style="fill:none;stroke:#FFFFFF;stroke-miterlimit:10;" d="M623.039,789.553c-70.026,0-140.051,0-210.076,0
				c-2.494,12.697-3.741,19.045-6.235,31.743c74.181,0,148.362,0,222.544,0C626.779,808.599,625.532,802.25,623.039,789.553z"/>
			<path style="fill:none;stroke:#FFFFFF;stroke-miterlimit:10;" d="M611.107,728.814c-62.071,0-124.143,0-186.214,0
				c-2.494,12.697-3.741,19.046-6.234,31.743c66.228,0,132.455,0,198.684,0C614.849,747.86,613.601,741.511,611.107,728.814z"/>
			<path style="fill:#FFFFFF;" d="M401.033,850.292c77.977,0,155.956,0,233.934,0c2.494,12.694,3.741,19.043,6.234,31.735h33.573
				c-3.172-12.691-4.759-19.04-7.932-31.735c21.219,0,42.439,0,63.657,0c-4.139-11.599-6.208-17.398-10.347-28.997
				c-20.185,0-40.371,0-60.558,0c-3.173-12.697-4.759-19.046-7.933-31.743c19.055,0,38.11,0,57.164,0
				c-4.138-11.599-6.208-17.398-10.347-28.997c-21.626,0-32.439,0-54.065,0c-3.174-12.697-4.761-19.046-7.934-31.743
				c20.269,0,30.403,0,50.672,0c-4.139-11.599-6.208-17.398-10.347-28.997c-19.029,0-28.544,0-47.572,0
				c-3.174-12.697-4.76-19.046-7.934-31.743c17.672,0,26.509,0,44.18,0c-4.138-11.599-6.207-17.398-10.346-28.997
				c-16.432,0-24.648,0-41.08,0c-2.49-9.962-6.631-26.309-6.631-26.309l-18.258,4.325c1.593,8.109,2.563,13.049,4.318,21.984
				c-50.322,0-100.642,0-150.964,0c1.756-8.943,2.726-13.883,4.321-22.003l-18.319-4.366c0,0-4.081,16.407-6.571,26.369
				c-16.431,0-24.646,0-41.078,0c-4.139,11.599-6.208,17.398-10.347,28.997c17.672,0,26.508,0,44.179,0
				c-3.173,12.697-4.76,19.046-7.934,31.743c-19.029,0-28.544,0-47.572,0c-4.139,11.599-6.208,17.398-10.347,28.997
				c20.269,0,30.404,0,50.672,0c-3.173,12.697-4.76,19.046-7.934,31.743c-21.626,0-32.439,0-54.065,0
				c-4.139,11.599-6.208,17.398-10.347,28.997c19.055,0,38.111,0,57.165,0c-3.173,12.697-4.76,19.046-7.934,31.743
				c-20.186,0-40.372,0-60.559,0c-4.139,11.599-6.208,17.398-10.347,28.997c21.22,0,42.439,0,63.658,0
				c-3.172,12.694-4.76,19.043-7.932,31.735H394.8C397.293,869.336,398.54,862.987,401.033,850.292z M436.823,668.074
				c54.118,0,108.236,0,162.354,0c2.494,12.697,3.741,19.046,6.235,31.743c-58.274,0-116.548,0-174.824,0
				C433.082,687.12,434.329,680.771,436.823,668.074z M424.893,728.814c62.071,0,124.143,0,186.214,0
				c2.494,12.697,3.742,19.046,6.236,31.743c-66.229,0-132.456,0-198.684,0C421.152,747.86,422.399,741.511,424.893,728.814z
				 M412.963,789.553c70.025,0,140.05,0,210.076,0c2.493,12.697,3.74,19.045,6.234,31.743c-74.182,0-148.363,0-222.544,0
				C409.222,808.599,410.469,802.25,412.963,789.553z"/>
		</g>
	</g>
</g>
</svg>
