<?xml version="1.0" encoding="iso-8859-1"?>
<!-- Generator: Adobe Illustrator 19.1.0, SVG Export Plug-In . SVG Version: 6.00 Build 0)  -->
<svg version="1.1" xmlns="http://www.w3.org/2000/svg" xmlns:xlink="http://www.w3.org/1999/xlink" x="0px" y="0px"
	 viewBox="0 0 1024 1024" style="enable-background:new 0 0 1024 1024;" xml:space="preserve">
<g id="template">
	<g id="Hexigon">
		<g>
			<polygon style="fill:#42AA48;" points="257.289,953.174 2.577,512 257.289,70.828 766.711,70.828 1021.423,512 766.711,953.174 
							"/>
			<g>
				<path style="fill:#00A651;" d="M766.423,71.328L1020.845,512L766.423,952.673H257.577L3.155,512L257.577,71.328H766.423
					 M767,70.328H257L2,512l255,441.673h510L1022,512L767,70.328L767,70.328z"/>
			</g>
		</g>
	</g>
</g>
<g id="alternate">
	<g>
		<path style="fill:#FFFFFF;" d="M580.687,331.164c57.287-59.038,132.772-43.813,132.772-43.813s17.498,74.997-39.789,134.035
			c-46.028,47.432-103.723,46.924-124.654,44.893l-9.445-9.166C536.907,436.248,534.661,378.6,580.687,331.164z"/>
		<path style="fill:#FFFFFF;" d="M483.66,798.33c-19.528,7.816-74.764,24.469-132.24-8.167
			c-71.535-40.622-75.757-117.51-75.757-117.51s68.198-35.775,139.733,4.85c57.473,32.636,71.473,88.608,74.764,109.382
			L483.66,798.33z"/>
		<path style="fill:#FFFFFF;" d="M483.66,557.348c-19.528,7.819-74.764,24.472-132.24-8.163
			c-71.535-40.622-75.757-117.51-75.757-117.51s68.198-35.774,139.733,4.847c57.473,32.639,71.473,88.611,74.764,109.382
			L483.66,557.348z"/>
		<path style="fill:#FFFFFF;" d="M490.287,350.849l-10.876,7.412c-20.976-1.58-77.901-10.954-115.13-65.567
			c-46.334-67.974-16.263-138.864-16.263-138.864s76.983-2.084,123.318,65.889C508.56,274.333,496.479,330.751,490.287,350.849z"/>
		<path style="fill:#FFFFFF;" d="M526.795,591.482v35.733v228.163c0,8.17-6.618,14.799-14.798,14.799
			c-8.178,0-14.799-6.628-14.799-14.799V627.216v-35.733V363.32c0-8.17,6.621-14.799,14.799-14.799
			c8.18,0,14.798,6.628,14.798,14.799V591.482z"/>
		<path style="fill:#FFFFFF;" d="M672.58,658.204c-57.473,32.635-112.712,15.983-132.24,8.163l-6.5-11.444
			c3.295-20.771,17.292-76.743,74.764-109.382c71.535-40.621,139.732-4.847,139.732-4.847S744.115,617.582,672.58,658.204z"/>
	</g>
</g>
</svg>
