<?xml version="1.0" encoding="iso-8859-1"?>
<!-- Generator: Adobe Illustrator 19.1.0, SVG Export Plug-In . SVG Version: 6.00 Build 0)  -->
<svg version="1.1" xmlns="http://www.w3.org/2000/svg" xmlns:xlink="http://www.w3.org/1999/xlink" x="0px" y="0px"
	 viewBox="0 0 1024 1024" style="enable-background:new 0 0 1024 1024;" xml:space="preserve">
<g id="template">
	<g id="Hexigon">
		<g>
			<polygon style="fill:#42AA48;" points="257.289,953.174 2.577,512 257.289,70.828 766.711,70.828 1021.423,512 766.711,953.174 
							"/>
			<g>
				<path style="fill:#00A651;" d="M766.423,71.328L1020.845,512L766.423,952.673H257.577L3.155,512L257.577,71.328H766.423
					 M767,70.328H257L2,512l255,441.673h510L1022,512L767,70.328L767,70.328z"/>
			</g>
		</g>
	</g>
</g>
<g id="fleshyfruit">
	<g>
		<path style="fill:#FFFFFF;" d="M642.66,304.568c-48.327,0-92.907,16.613-130.66,16.613c-37.757,0-76.242-39.265-147.226-39.265
			c-70.983,0-154.044,63.428-158.575,190.29c-4.531,126.861,88.234,301.941,138.943,371.521c43.29,59.403,67.96,52.858,67.96,52.858
			s34.502,3.416,61.004-13.187c10.853-6.799,25.08-5.873,35.56,1.493c8.992,6.322,22.486,11.694,42.378,11.694
			c48.327,0,63.433-4.531,86.085-34.738c22.652-30.202,175.188-188.777,179.72-368.497
			C822.38,313.63,690.987,304.568,642.66,304.568z"/>
		<path style="fill:#FFFFFF;" d="M491.73,285.734c-3.303,11.189,37.8,21.239,40.54,12.058
			c1.276-4.319,30.887-106.378-27.188-164.472c-8.259-8.259-21.659-8.259-29.919,0c-8.236,8.259-8.236,21.664,0,29.923
			C515.373,203.43,491.966,284.936,491.73,285.734z"/>
	</g>
</g>
</svg>
