<?xml version="1.0" encoding="iso-8859-1"?>
<!-- Generator: Adobe Illustrator 19.1.0, SVG Export Plug-In . SVG Version: 6.00 Build 0)  -->
<svg version="1.1" xmlns="http://www.w3.org/2000/svg" xmlns:xlink="http://www.w3.org/1999/xlink" x="0px" y="0px"
	 viewBox="0 0 1024 1024" style="enable-background:new 0 0 1024 1024;" xml:space="preserve">
<g id="template">
	<g id="Hexigon">
		<g>
			<polygon style="fill:#42AA48;" points="257.289,953.174 2.577,512 257.289,70.828 766.711,70.828 1021.423,512 766.711,953.174 
							"/>
			<g>
				<path style="fill:#00A651;" d="M766.423,71.328L1020.845,512L766.423,952.673H257.577L3.155,512L257.577,71.328H766.423
					 M767,70.328H257L2,512l255,441.673h510L1022,512L767,70.328L767,70.328z"/>
			</g>
		</g>
	</g>
</g>
<g id="achievement22_1_">
	<g>
		<path style="fill:#FFFFFF;" d="M691.199,417.054c10.808-16.107,16.882-33.674,18.903-49.667
			c5.104-40.402-11.375-75.808-41.008-88.105c-14.267-5.92-39.713-9.68-71.636,14.272l-1.75-22.332H456.182l-7.995,102.028
			c-99.862,27.042-172.019,108.511-172.019,238.99c0,94.444,37.8,192.961,96.547,258.908h306.461
			c58.747-65.947,96.546-164.464,96.546-258.908C775.723,524.424,743.01,458.834,691.199,417.054z M602.992,360.701
			c22.948-29.504,40.331-36.462,46.397-33.936c5.589,2.319,12.069,15.485,9.71,34.176c-0.703,5.56-3.111,17.229-11.168,28.769
			c-13.97-6.781-28.763-12.271-44.227-16.459l-1.001-12.774L602.992,360.701z M598.02,762.886
			c5.355,13.655,20.349,28.382,20.349,28.382c-57.031,3.749-87.322-34.258-87.322-34.258c0,47.587,11.906,53.398,11.906,53.398
			h-17.007h-17.006c0,0,11.907-5.811,11.907-53.398c0,0-30.292,38.007-87.324,34.258c0,0,14.995-14.727,20.349-28.382
			c0,0-77.381,4.284-121.292-55.693c0,0,53.551-7.764,77.648-21.152c0,0-24.832-22.394-53.731-34.809
			c9.29-7.017,17.101-8.941,24.621-9.158c-19.979-19.224-28.142-37.431-32.206-57.512c0,0,60.245-13.121,123.703,55.693
			c0,0-27.583-63.918-11.382-128.351c0,0,3.082,19.911,27.179,27.675c0,0,11.17-61.761,37.314-115.623
			c26.143,53.862,37.753,115.623,37.753,115.623c24.098-7.764,27.179-27.675,27.179-27.675
			c16.201,64.433-11.382,128.351-11.382,128.351c63.458-68.814,123.703-55.693,123.703-55.693
			c-2.458,18.475-12.227,38.289-32.206,57.512c7.52,0.216,15.331,2.141,24.62,9.158c-29.894,13.069-53.73,34.809-53.73,34.809
			c24.098,13.388,77.648,21.152,77.648,21.152C675.401,767.169,598.02,762.886,598.02,762.886z"/>
		<path style="fill:#FFFFFF;" d="M605.481,179.861c0,0-20.059-33.792-81.647-33.792c-61.587,0-77.424,33.792-77.424,33.792v74.38
			h11.102l-0.041,0.513H594.42l-0.041-0.513h11.102V179.861z"/>
	</g>
</g>
</svg>
