<?xml version="1.0" encoding="iso-8859-1"?>
<!-- Generator: Adobe Illustrator 19.1.0, SVG Export Plug-In . SVG Version: 6.00 Build 0)  -->
<svg version="1.1" xmlns="http://www.w3.org/2000/svg" xmlns:xlink="http://www.w3.org/1999/xlink" x="0px" y="0px"
	 viewBox="0 0 1024 1024" style="enable-background:new 0 0 1024 1024;" xml:space="preserve">
<g id="template">
	<g id="Hexigon">
		<g>
			<polygon style="fill:#42AA48;" points="257.289,953.174 2.577,512 257.289,70.828 766.711,70.828 1021.423,512 766.711,953.174 
							"/>
			<g>
				<path style="fill:#00A651;" d="M766.423,71.328L1020.845,512L766.423,952.673H257.577L3.155,512L257.577,71.328H766.423
					 M767,70.328H257L2,512l255,441.673h510L1022,512L767,70.328L767,70.328z"/>
			</g>
		</g>
	</g>
</g>
<g id="fencepost">
	<path style="fill:#FFFFFF;" d="M851,460.085v-46.692h-37.656v-24.19c-30.752-33.984,0-61.831,0-61.831v-28.696l-26.679-46.205
		l-26.679,46.205v28.696c0,0,30.752,27.846,0,61.831v24.19H630.536v-24.19c-30.752-33.984,0-61.831,0-61.831v-28.696l-26.679-46.205
		l-26.679,46.205v28.696c0,0,30.752,27.846,0,61.831v24.19H447.728v-24.19c-30.752-33.984,0-61.831,0-61.831v-28.696l-26.679-46.205
		l-26.679,46.205v28.696c0,0,30.752,27.846,0,61.831v24.19H264.92v-24.19c-30.752-33.984,0-61.831,0-61.831v-28.696l-26.679-46.205
		l-26.679,46.205v28.696c0,0,30.752,27.846,0,61.831v24.19H173v46.692h38.562v143.966H173v46.692h38.562v120.786h53.358V650.742
		H394.37v120.786h53.358V650.742h129.449v120.786h53.358V650.742h129.449v120.786h53.358V650.742H851v-46.692h-37.656V460.085H851z
		 M264.92,604.051V460.085H394.37v143.966H264.92z M447.728,604.051V460.085h129.449v143.966H447.728z M759.985,604.051H630.536
		V460.085h129.449V604.051z"/>
</g>
</svg>
