<?xml version="1.0" encoding="iso-8859-1"?>
<!-- Generator: Adobe Illustrator 19.1.0, SVG Export Plug-In . SVG Version: 6.00 Build 0)  -->
<svg version="1.1" xmlns="http://www.w3.org/2000/svg" xmlns:xlink="http://www.w3.org/1999/xlink" x="0px" y="0px"
	 viewBox="0 0 1024 1024" style="enable-background:new 0 0 1024 1024;" xml:space="preserve">
<g id="template">
	<g id="Hexigon">
		<g>
			<polygon style="fill:#42AA48;" points="257.289,953.174 2.577,512 257.289,70.828 766.711,70.828 1021.423,512 766.711,953.174 
							"/>
			<g>
				<path style="fill:#00A651;" d="M766.423,71.328L1020.845,512L766.423,952.673H257.577L3.155,512L257.577,71.328H766.423
					 M767,70.328H257L2,512l255,441.673h510L1022,512L767,70.328L767,70.328z"/>
			</g>
		</g>
	</g>
</g>
<g id="achievement25_1_">
	<path style="fill:#FFFFFF;" d="M833.051,553.77c12.254-33.473-3.576-56.415-19.337-68.198
		c11.845-6.006,29.061-17.623,36.758-36.888c7.154-17.911,4.523-38.26-7.823-60.482c-19.124-34.416-43.213-39.555-55.873-39.555
		h-0.009c2.477-15.461,2.875-46.446-26.964-67.444c-10.38-7.306-23.048-11.011-37.656-11.011c-22.785,0-45.042,8.969-56.936,14.701
		c-3.568-21.588-21.475-69.653-109.54-81.378c-10.195-1.357-20.157-2.045-29.607-2.045c-69.587,0-100.245,36.042-110.808,52.983
		c-7.468-6.89-21.136-16.183-40.552-16.183c-6.858,0-13.94,1.188-21.061,3.532c-31.126,10.254-40.527,34.338-43.351,47.133
		c-6.531-1.831-16.659-3.993-28.152-3.993c-22.257,0-40.899,8.225-53.906,23.785c-9.049,10.816-12.956,22.709-11.626,35.346
		c1.644,15.591,11.045,28.851,18.625,37.215c-23.307,5.232-53.266,20.847-54.133,55.657c-0.373,15.048,4.008,27.362,13.015,36.597
		c9.296,9.529,21.559,13.67,30.75,15.465c-11.175,15.348-23.203,41.047-19.278,64.132c2.778,16.355,13.233,28.991,30.227,36.542
		c10.446,4.642,21.629,6.995,33.238,6.995c24.718,0,46.514-10.483,60.019-18.886c-2.284,14.924-2.778,36.974,8.451,55.689
		c10.38,17.298,28.486,28.089,53.818,32.074c28.863,4.54,53.894,0.166,73.854-12.749V756.98c0,38.375-22.909,69.142-23.14,69.449
		l-7.79,10.306H574.61l-10.342-10.858c-0.225-0.238-22.672-24.321-22.672-68.898V651.074c7.38,1.926,15.33,2.764,24.358,2.519
		c33.523-0.891,55.626-22.19,65.588-34.398c7.919,11.201,25.214,28.729,55.898,28.729c7.873,0,16.22-1.2,24.809-3.567
		c21.784-6.001,36.712-16.348,44.367-30.755c5.004-9.412,5.828-18.682,5.443-25.49c4.74,0.935,10.811,1.761,17.458,1.761
		C797.909,589.873,822.132,583.609,833.051,553.77z M795.593,419.761c5.085-5.085,13.328-5.083,18.413,0l24.407,24.408
		c-3.523,8.648-9.671,15.459-16.149,20.672l-26.67-26.669C790.51,433.088,790.51,424.845,795.593,419.761z M795.593,530.433
		c5.085-5.085,13.328-5.085,18.413,0l9.589,9.589c-0.58,2.965-1.413,6.062-2.609,9.33c-2.283,6.236-5.468,11.34-9.405,15.478
		l-15.987-15.987C790.51,543.76,790.51,535.516,795.593,530.433z M219.838,468.419c-1.789,1.789-3.979,2.912-6.276,3.442
		c-3.639-1.801-7.193-4.165-10.247-7.296c-6.498-6.663-9.648-15.849-9.364-27.305c0.102-4.149,0.758-7.902,1.812-11.328
		l24.075,24.075C224.922,455.092,224.922,463.334,219.838,468.419z M276.121,497.434l-30.246,30.246
		c-5.084,5.085-13.327,5.085-18.41,0.001c-2.991-2.99-4.172-7.068-3.646-10.958c1.023-2.407,2.111-4.753,3.272-6.995
		c0.135-0.148,0.233-0.316,0.375-0.458l30.246-30.245c5.084-5.085,13.327-5.085,18.411,0
		C281.206,484.107,281.206,492.35,276.121,497.434z M276.121,381.888l-30.246,30.247c-5.084,5.085-13.327,5.085-18.41,0
		c-3.821-3.821-4.767-9.424-2.845-14.134c12.325-4.906,23.898-5.822,24.916-5.893l16.671-1.12l-13.128-10.345
		c-0.078-0.061-2.859-2.296-6.482-6.052l11.114-11.112c5.084-5.085,13.327-5.085,18.411,0
		C281.206,368.562,281.206,376.805,276.121,381.888z M346.704,270.914l18.924-18.926c3.077-0.56,6.112-0.867,9.074-0.867
		c9.081,0,16.539,2.612,22.324,5.843c-0.479,0.744-1.013,1.462-1.665,2.115l-30.247,30.245c-5.083,5.084-13.326,5.084-18.41,0.001
		C341.62,284.241,341.62,275.998,346.704,270.914z M310.975,573.08l-24.237-24.236c-5.085-5.083-5.085-13.328-0.001-18.41
		c5.085-5.085,13.328-5.085,18.412,0l28.47,28.469C330.561,561.333,322.335,567.482,310.975,573.08z M335.395,468.419
		c-5.084,5.082-13.327,5.082-18.411-0.001l-30.246-30.245c-5.085-5.085-5.085-13.327-0.001-18.411
		c5.085-5.085,13.328-5.083,18.412,0l30.245,30.246C340.478,455.092,340.478,463.334,335.395,468.419z M335.395,360.726
		c-5.084,5.084-13.327,5.084-18.411-0.001l-30.246-30.246c-5.085-5.082-5.085-13.327-0.001-18.41c5.085-5.085,13.328-5.085,18.412,0
		l30.245,30.246C340.478,347.399,340.478,355.642,335.395,360.726z M395.361,607.393l-30.247,30.246
		c-1.241,1.241-2.672,2.158-4.195,2.786c-5.061-3.762-9.189-8.264-12.344-13.507c-1.215-2.02-2.209-4.116-3.105-6.237
		c0.374-0.505,0.777-0.995,1.235-1.454l30.245-30.245c5.084-5.084,13.327-5.084,18.411,0
		C400.446,594.066,400.446,602.308,395.361,607.393z M395.361,497.434l-30.247,30.246c-5.083,5.085-13.326,5.085-18.41,0.001
		c-5.085-5.084-5.085-13.328,0-18.411l30.245-30.245c5.084-5.085,13.327-5.085,18.411,0
		C400.446,484.107,400.446,492.35,395.361,497.434z M395.361,386.763l-30.247,30.246c-5.083,5.084-13.326,5.084-18.41,0.001
		c-5.085-5.085-5.085-13.328,0-18.412l30.245-30.246c5.084-5.084,13.327-5.084,18.411,0
		C400.446,373.436,400.446,381.678,395.361,386.763z M404.326,654.124c-1.714-4.624-0.745-10.018,2.969-13.734
		c5.085-5.084,13.327-5.082,18.411,0l11.008,11.008C426.845,654.035,416.029,654.969,404.326,654.124z M455.953,581.356
		c-5.085,5.084-13.328,5.084-18.411-0.001l-30.245-30.245c-5.085-5.083-5.085-13.327-0.001-18.41c5.085-5.085,13.327-5.085,18.411,0
		l30.247,30.246C461.038,568.029,461.038,576.272,455.953,581.356z M455.953,468.419c-5.085,5.082-13.328,5.082-18.411-0.001
		l-30.245-30.245c-5.085-5.085-5.085-13.327-0.001-18.411c5.085-5.085,13.327-5.083,18.411,0l30.247,30.246
		C461.038,455.092,461.038,463.334,455.953,468.419z M455.953,360.726c-5.085,5.084-13.328,5.084-18.411-0.001l-30.245-30.246
		c-5.085-5.082-5.085-13.327-0.001-18.41c5.085-5.085,13.327-5.085,18.411,0l30.247,30.246
		C461.038,347.399,461.038,355.642,455.953,360.726z M597.912,270.914l28.053-28.052c7.895,6.27,13.506,12.929,17.501,19.319
		l-27.144,27.144c-5.084,5.084-13.327,5.084-18.411,0.001C592.828,284.241,592.828,275.998,597.912,270.914z M553.972,216.254
		c13.781,1.835,25.592,4.589,35.817,7.944c1.359,4.455,0.336,9.481-3.186,13.004c-5.084,5.084-13.326,5.084-18.411-0.001
		l-21.827-21.827C548.881,215.625,551.416,215.914,553.972,216.254z M478.047,744.565v-16.88c0.215-0.25,0.387-0.527,0.625-0.765
		l30.246-30.245c5.084-5.084,13.327-5.084,18.411,0c0.539,0.538,0.991,1.129,1.415,1.731v14.946
		c-0.425,0.602-0.876,1.193-1.416,1.733l-30.246,30.247c-5.082,5.084-13.327,5.084-18.41,0
		C478.434,745.093,478.262,744.816,478.047,744.565z M527.329,820.635l-3.249,3.249h-36.821l21.66-21.66
		c5.084-5.085,13.327-5.085,18.411,0C532.414,807.308,532.414,815.55,527.329,820.635z M527.329,605.127l-30.246,30.245
		c-5.082,5.084-13.327,5.084-18.41,0.001c-0.238-0.239-0.41-0.515-0.625-0.766v-9.087l-2.994,2.666
		c-0.62-3.969,0.561-8.166,3.619-11.224l30.246-30.246c5.084-5.085,13.327-5.085,18.411,0
		C532.414,591.801,532.414,600.043,527.329,605.127z M527.329,494.455l-30.246,30.247c-5.082,5.083-13.327,5.085-18.41,0
		c-5.085-5.085-5.085-13.328,0-18.411l30.246-30.245c5.084-5.085,13.327-5.085,18.411,0
		C532.414,481.129,532.414,489.37,527.329,494.455z M527.329,381.888l-30.246,30.247c-5.082,5.085-13.327,5.085-18.41,0
		c-5.085-5.085-5.085-13.328,0-18.411l30.246-30.245c5.084-5.085,13.327-5.085,18.411,0
		C532.414,368.562,532.414,376.805,527.329,381.888z M527.329,259.079l-30.246,30.245c-5.082,5.084-13.327,5.084-18.41,0.001
		c-5.085-5.085-5.085-13.328,0-18.411l30.246-30.245c5.084-5.085,13.327-5.085,18.411,0
		C532.414,245.752,532.414,253.995,527.329,259.079z M586.603,579.09c-5.084,5.085-13.326,5.085-18.411-0.001l-30.247-30.246
		c-5.082-5.083-5.084-13.328,0-18.41c5.085-5.085,13.328-5.085,18.412,0l30.245,30.245
		C591.686,565.763,591.686,574.006,586.603,579.09z M586.603,468.419c-5.084,5.082-13.326,5.082-18.411-0.001l-30.247-30.245
		c-5.082-5.085-5.084-13.327,0-18.411c5.085-5.085,13.328-5.083,18.412,0l30.245,30.246
		C591.686,455.092,591.686,463.334,586.603,468.419z M586.603,360.726c-5.084,5.084-13.326,5.084-18.411-0.001l-30.247-30.246
		c-5.082-5.082-5.084-13.327,0-18.41c5.085-5.085,13.328-5.085,18.412,0l30.245,30.246
		C591.686,347.399,591.686,355.642,586.603,360.726z M646.569,607.393l-4.475,4.476c-2.653-3.745-3.973-6.558-4.134-6.916
		l-4.971-11.286l-6.409,10.545c-0.155,0.253-11.271,18.048-31.649,28.71c-1.695-4.615-0.723-9.989,2.982-13.695l30.247-30.245
		c5.082-5.084,13.325-5.084,18.409,0C651.653,594.066,651.653,602.308,646.569,607.393z M646.569,497.434l-30.245,30.246
		c-5.084,5.085-13.327,5.085-18.411,0.001c-5.085-5.084-5.085-13.328,0-18.411l30.247-30.245c5.082-5.085,13.325-5.085,18.409,0
		C651.653,484.107,651.653,492.35,646.569,497.434z M646.569,386.763l-30.245,30.246c-5.084,5.084-13.327,5.084-18.411,0.001
		c-5.085-5.085-5.085-13.328,0-18.412l30.247-30.246c5.082-5.084,13.325-5.084,18.409,0
		C651.653,373.436,651.653,381.678,646.569,386.763z M707.161,579.09c-5.085,5.085-13.328,5.085-18.411-0.001l-30.245-30.246
		c-5.085-5.083-5.085-13.328-0.001-18.41c5.085-5.085,13.328-5.085,18.412,0l30.246,30.245
		C712.246,565.763,712.246,574.006,707.161,579.09z M707.161,468.419c-5.085,5.082-13.328,5.082-18.411-0.001l-30.245-30.245
		c-5.085-5.085-5.085-13.327-0.001-18.411c5.085-5.085,13.328-5.083,18.412,0l30.246,30.246
		C712.246,455.092,712.246,463.334,707.161,468.419z M707.161,360.726c-5.085,5.084-13.328,5.084-18.411-0.001l-30.245-30.246
		c-5.085-5.082-5.085-13.327-0.001-18.41c5.085-5.085,13.328-5.085,18.412,0l30.246,30.246
		C712.246,347.399,712.246,355.642,707.161,360.726z M747.975,289.019l-0.306,0.306c-5.084,5.084-13.327,5.084-18.409,0.001
		c-1.765-1.765-2.87-3.908-3.398-6.166C734.187,283.604,741.585,285.577,747.975,289.019z M729.26,398.598l30.245-30.246
		c2.563-2.562,5.927-3.826,9.286-3.805l-0.351,1.023l2.774-0.787c2.456,0.479,4.8,1.668,6.702,3.569
		c5.084,5.085,5.084,13.327-0.001,18.411l-30.246,30.246c-5.084,5.084-13.327,5.084-18.409,0.001
		C724.174,411.925,724.175,403.682,729.26,398.598z M747.669,527.68c-5.084,5.085-13.327,5.085-18.409,0.001
		c-5.085-5.084-5.085-13.328,0-18.411l30.245-30.245c5.084-5.085,13.327-5.085,18.411,0c5.084,5.082,5.084,13.325-0.001,18.409
		L747.669,527.68z"/>
</g>
</svg>
