<?xml version="1.0" encoding="iso-8859-1"?>
<!-- Generator: Adobe Illustrator 19.1.0, SVG Export Plug-In . SVG Version: 6.00 Build 0)  -->
<svg version="1.1" xmlns="http://www.w3.org/2000/svg" xmlns:xlink="http://www.w3.org/1999/xlink" x="0px" y="0px"
	 viewBox="0 0 1024 1024" style="enable-background:new 0 0 1024 1024;" xml:space="preserve">
<g id="template">
	<g id="Hexigon">
		<g>
			<polygon style="fill:#42AA48;" points="257.289,953.174 2.577,512 257.289,70.828 766.711,70.828 1021.423,512 766.711,953.174 
							"/>
			<g>
				<path style="fill:#00A651;" d="M766.423,71.328L1020.845,512L766.423,952.673H257.577L3.155,512L257.577,71.328H766.423
					 M767,70.328H257L2,512l255,441.673h510L1022,512L767,70.328L767,70.328z"/>
			</g>
		</g>
	</g>
</g>
<g id="achievement27_1_">
	<g>
		<path style="fill:#FFFFFF;" d="M732.118,261.764l-22.819,91.944l-70.597,49.972l-4.306-122.188l37.069-94.403l-17.361-19.521
			l-37.611,86.743l-56.042-75.833l-19.764,14.354l64.208,89.188l5.458,137.326L522.16,578.792l-36.861-45.104l17.875-145.653
			l46.722-90.361l-20.319-12.188l-38.25,67.299l-25.528-72.667l-22.375,8.153l30.667,95.847l-27.986,101.611l-41.083-50.271
			L384.66,303.319l-10.306-149.757l-23.611-4.694l3.222,88.667l-38.681-77.667l-23.667,4.771l66.806,143.368l14.375,111.604
			l-69.056-45.743l-23.125-114.153l-21.653,9.563l14.153,99.632l-105.382,17.688l4.826,24.028l114.194-13.778l91.222,61.41
			l109.861,146.41L367.91,564.104l-31.556-115.722l-25.764,4.694l24.792,111.389l-86.958,2.986l-1.375,24.819l102.736,4.16
			l148.261,62.95l-9.404,243.884l88.365,0.052l-24.514-273.351l17.778-38.993l103.139-61.688l0.014,0.097l16.764-10.125
			l60.847-108.368l-22.25-7.438l-41.611,64.944l-7.639-59.993l50.222-34.986l88.167-33.847l-11-22.028l-64.944,22.257l12.597-65.785
			L732.118,261.764z M597.938,530.257l43.417-95.25l14.736-10.271l7.236,70.646L597.938,530.257z"/>
	</g>
</g>
</svg>
