<?xml version="1.0" encoding="iso-8859-1"?>
<!-- Generator: Adobe Illustrator 19.1.0, SVG Export Plug-In . SVG Version: 6.00 Build 0)  -->
<svg version="1.1" xmlns="http://www.w3.org/2000/svg" xmlns:xlink="http://www.w3.org/1999/xlink" x="0px" y="0px"
	 viewBox="0 0 1024 1024" style="enable-background:new 0 0 1024 1024;" xml:space="preserve">
<g id="template">
	<g id="Hexigon">
		<g>
			<polygon style="fill:#42AA48;" points="257.289,953.174 2.577,512 257.289,70.828 766.711,70.828 1021.423,512 766.711,953.174 
							"/>
			<g>
				<path style="fill:#00A651;" d="M766.423,71.328L1020.845,512L766.423,952.673H257.577L3.155,512L257.577,71.328H766.423
					 M767,70.328H257L2,512l255,441.673h510L1022,512L767,70.328L767,70.328z"/>
			</g>
		</g>
	</g>
</g>
<g id="furniture">
	<g>
		<path style="fill:#FFFFFF;" d="M554.785,584.446c-0.454-12.748-1.358-44.079,0.191-56.703
			c1.987-16.18,10.531-18.268,12.806-18.536c19.044-5.284,59.364-12.377,80.723-15.978c-7.428-1.636-13.873-1.682-13.963-1.682
			c-65.214-7.625-153.932-8.009-171.058-8.009l-0.617,0.014l-0.174-4.227c0.027,2.701,0.049,4.174,0.049,4.174
			c-31.237,0-138.564,13.616-156.184,17.621c-17.621,4.005-17.621,21.626-17.621,21.626l4.775,45.02L554.785,584.446z"/>
		<path style="fill:#FFFFFF;" d="M670.284,512.949c0.144-4.476-1.302-8.308-4.289-11.392c-0.935-0.968-2.052-1.891-3.326-2.75
			c-10.256,1.661-69.391,11.373-93.141,18.027l-0.313,0.088l-0.544,0.059l-0.213-2.309l0.131,2.303
			c-0.044,0.005-4.49,0.594-5.854,11.72c-1.455,11.836-0.544,43.426-0.153,54.835l103.675-28.779
			C667.324,549.591,669.627,533.826,670.284,512.949z"/>
		<path style="fill:#FFFFFF;" d="M464.009,475.72c17.114,0,105.79,0.388,170.992,8.038c5.722,0.153,24.369,1.425,35.157,10.977
			c1.673-90.514,40.735-285.739,47.325-318.085l-223.771-4.183c-9.078,4.539-10.947,12.281-10.947,12.281
			c-20.555,80.801-20.411,252.521-20.106,290.977L464.009,475.72z"/>
		<path style="fill:#FFFFFF;" d="M725.149,178.189c-6.936,34.115-50.459,252.065-47.038,331.976l0.097,2.306l-0.1,0.005
			c0,0.238-0.003,0.479-0.009,0.72c-0.275,8.795-1.583,28.291-3.517,39.245l16.574-4.601
			c-6.03-94.565,43.906-364.694,43.906-364.694L725.149,178.189z"/>
		<polygon style="fill:#FFFFFF;" points="559.268,592.565 534.426,590.978 540.834,849.132 560.457,851.535 570.469,845.528 
			573.85,588.518 		"/>
		<polygon style="fill:#FFFFFF;" points="296.546,575.781 296.546,825.904 314.167,828.708 326.581,822.701 334.954,578.235 		"/>
		<path style="fill:#FFFFFF;" d="M688.312,556.742l-31.18,8.656c-4.965,58.624,15.457,216.054,15.457,216.054l15.49,4.005
			l11.742-6.007C685.885,615.684,688.146,560.25,688.312,556.742z"/>
		<path style="fill:#FFFFFF;" d="M466.314,586.627c-0.019,46.252,12.046,180.408,12.046,180.408l16.82,2.002l6.408-5.206
			c-3.95-27.649-7.929-171.525-8.037-175.464L466.314,586.627z"/>
	</g>
</g>
</svg>
