<?xml version="1.0" encoding="iso-8859-1"?>
<!-- Generator: Adobe Illustrator 19.1.0, SVG Export Plug-In . SVG Version: 6.00 Build 0)  -->
<svg version="1.1" xmlns="http://www.w3.org/2000/svg" xmlns:xlink="http://www.w3.org/1999/xlink" x="0px" y="0px"
	 viewBox="0 0 1024 1024" style="enable-background:new 0 0 1024 1024;" xml:space="preserve">
<g id="template">
	<g id="Hexigon">
		<g>
			<polygon style="fill:#42AA48;" points="257.289,953.174 2.577,512 257.289,70.828 766.711,70.828 1021.423,512 766.711,953.174 
							"/>
			<g>
				<path style="fill:#00A651;" d="M766.423,71.328L1020.845,512L766.423,952.673H257.577L3.155,512L257.577,71.328H766.423
					 M767,70.328H257L2,512l255,441.673h510L1022,512L767,70.328L767,70.328z"/>
			</g>
		</g>
	</g>
</g>
<g id="achievement10">
	<g>
		<path style="fill:#FFFFFF;" d="M798.156,483.083c0,0-44.983,79.255-88.894,89.965c0,0,112.457-148.871-2.142-306.311
			c0,0-12.124,82.468-54.258,97.463c0,0,24.269-108.173-30.352-182.073c0,0-25.704,74.971-50.338,89.965
			c0,0,7.497-55.693-17.136-106.031c0,0-19.278,39.628-34.273,46.054c0,0-25.169-56.228-17.136-89.43
			c0,0-37.486,37.486-39.628,78.184c0,0-20.885-25.704-16.601-56.764c0,0-29.453,48.196-28.382,100.676
			c0,0-26.24-29.988-25.169-60.512c0,0-38.557,59.441-34.273,146.194c0,0-40.699-40.699-35.879-95.32
			c0,0-59.977,74.436-35.344,234.553c0,0-48.731-32.666-52.48-106.031c0,0-71.223,85.681,0,231.875c0,0-31.595,2.142-57.835-29.988
			c0,0,20.349,103.353,99.605,170.827c0,0-46.054-3.213-72.294-25.704c0,0,22.491,87.823,125.309,91.036
			c0,0-21.42,31.595-54.622,32.666c0,0,11.781,18.207,114.063,14.459c0,0-16.601,21.174-41.77,23.171
			c0,0,53.551,41.09,151.549-8.177l6.962-4.82c50.338,21.42,194.925,39.628,242.05-146.729c0,0-43.912,22.491-73.9,19.278
			C674.989,731.558,809.937,607.32,798.156,483.083z M649.113,547.701c-17.136,19.992-38.824,19.188-38.824,19.188
			s1.312,18.421-25.217,37.797c-14.362,10.49-33.377,10.838-48.415,8.729v149.202H488.46V618.549
			c-44.72,14.446-69.259-18.726-69.259-18.726s-25.347,4.642-44.625-19.636c-19.278-24.276,1.784-50.338,1.784-50.338
			s-26.716-27.131-10.352-62.832c19.861-43.332,52.48-38.557,52.48-38.557s-10.135-33.335,22.848-50.695
			c33.916-17.85,58.549,6.426,58.549,6.426s16.065-24.276,51.766-16.421c35.7,7.853,33.139,48.551,33.139,48.551
			s29.056-11.242,55.829,17.795c25.348,27.489,3.497,63.602,3.497,63.602C651.255,502.719,666.249,527.708,649.113,547.701z"/>
	</g>
</g>
</svg>
