<?xml version="1.0" encoding="iso-8859-1"?>
<!-- Generator: Adobe Illustrator 19.1.0, SVG Export Plug-In . SVG Version: 6.00 Build 0)  -->
<svg version="1.1" xmlns="http://www.w3.org/2000/svg" xmlns:xlink="http://www.w3.org/1999/xlink" x="0px" y="0px"
	 viewBox="0 0 1024 1024" style="enable-background:new 0 0 1024 1024;" xml:space="preserve">
<g id="template">
	<g id="Hexigon">
		<g>
			<polygon style="fill:#42AA48;" points="257.289,953.174 2.577,512 257.289,70.828 766.711,70.828 1021.423,512 766.711,953.174 
							"/>
			<g>
				<path style="fill:#00A651;" d="M766.423,71.328L1020.845,512L766.423,952.673H257.577L3.155,512L257.577,71.328H766.423
					 M767,70.328H257L2,512l255,441.673h510L1022,512L767,70.328L767,70.328z"/>
			</g>
		</g>
	</g>
</g>
<g id="crownew">
	<g>
		<polygon style="fill:#FFFFFF;" points="741.245,176.285 653.115,102.188 653.092,154.783 401.01,154.783 401.033,102.188 
			312.838,176.122 400.967,250.221 400.99,197.624 653.073,197.624 653.05,250.219 		"/>
		<path style="fill:#FFFFFF;" d="M864.08,469.026c-26.774-48.183-62.123-37.469-62.123-37.469s15.979-45.87-23.793-73.865
			c-39.773-27.993-102.411,9.135-102.411,9.135s4.782-74.977-111.292-90.432c-116.074-15.452-146.712,58.965-146.712,58.965
			S394.791,303,353.008,316.762c-41.783,13.764-42.625,52.549-42.625,52.549s-55.039-22.332-87.426,16.4
			c-32.387,38.73,16.935,77.343,16.935,77.343s-64.134,4.286-65.383,54.576c-1.249,50.292,53.182,49.737,53.182,49.737
			c-18.517,17.423-52.888,82.136,0.855,106.016c53.743,23.88,106.958-22.443,106.958-22.443s-30.792,88.769,56.454,102.491
			c37.247,5.859,61.946,0.282,78.058-8.024v39.732c0,36.059-55.394,64.261-55.394,64.261h55.394h85.137h55.394
			c0,0-55.394-22.491-55.394-64.261v-44.715c8.192,0.473,17.343,0.55,27.783,0.274c45.77-1.215,63.545-47.309,63.545-47.309
			s26.926,65.045,88.496,48.085c61.57-16.963,41.097-72.718,41.097-72.718s58.93,20.784,77.375-29.606
			c18.444-50.39-29.179-71.07-29.179-71.07S905.069,542.79,864.08,469.026z M463.872,599.14H339.768V451.942h121.895v31.428h-76.31
			v23.395h70.788v30.022h-70.788v29.018h78.519V599.14z M477.829,529.658h59.441v31.628h-59.441V529.658z M557.227,832.264h-2.074
			h-85.137h-4.255c11.819-12.758,21.392-28.758,21.392-47.125v-52.043c7.973-7.941,10.622-14.911,10.622-14.911
			c10.408,11.064,22.485,17.35,40.243,20.381v46.573C538.017,804.324,546.414,820.012,557.227,832.264z M715.177,599.14H670.57
			l-25.813-92.676l-25.721,92.676h-44.598l-32.75-147.198h43.201l15.555,82.406l22.763-82.406h43.046l22.822,82.295l15.567-82.295
			h42.983L715.177,599.14z"/>
	</g>
</g>
</svg>
