<?xml version="1.0" encoding="iso-8859-1"?>
<!-- Generator: Adobe Illustrator 19.1.0, SVG Export Plug-In . SVG Version: 6.00 Build 0)  -->
<svg version="1.1" xmlns="http://www.w3.org/2000/svg" xmlns:xlink="http://www.w3.org/1999/xlink" x="0px" y="0px"
	 viewBox="0 0 1024 1024" style="enable-background:new 0 0 1024 1024;" xml:space="preserve">
<g id="template">
	<g id="Hexigon">
		<g>
			<polygon style="fill:#42AA48;" points="257.289,953.174 2.577,512 257.289,70.828 766.711,70.828 1021.423,512 766.711,953.174 
							"/>
			<g>
				<path style="fill:#00A651;" d="M766.423,71.328L1020.845,512L766.423,952.673H257.577L3.155,512L257.577,71.328H766.423
					 M767,70.328H257L2,512l255,441.673h510L1022,512L767,70.328L767,70.328z"/>
			</g>
		</g>
	</g>
</g>
<g id="landscaping">
	<path style="fill:#FFFFFF;" d="M738.994,484.297l-34.392-6.624c0,0,11.336-10.666,25.739-22.193s40.352,0,40.352,0
		s-21.614-33.14-43.791-35.743c-22.177-2.603-31.135-19.01-36.582-23.333c-5.447-4.322,58.759-17.291,58.759-17.291
		s8.417-16.831,12.524-24.119c-9.257,5.008-47.106-1.966-47.106-1.966s-12.968-17.141,4.323-20.023s8.646-10.086,0-11.527
		c-8.645-1.441-17.132-11.527-17.132-11.527l11.368-8.285l-22.737-27.204l-24.811-39.437c0,0-24.495,11.527-30.259,53.313
		c-5.764,41.785-34.8,17.01-44.496,26.383c-3.183,3.077-2.951,8.089-1.045,13.228c2.652,1.806,5.702,4.257,9.44,7.702
		c5.258,4.846,9.88,8.04,13.84,10.185c1.911,1.035,3.667,1.833,5.247,2.42c6.671,2.478,10.356,1.524,10.356,1.524
		s-1.002,15.266-15.919,16.89c-0.836,0.091-1.693,0.163-2.619,0.163c-17.448,0-16.358,9.814-16.358,9.814l17.278,5.498l6.712,2.135
		l-8.403,2.61l-13.264,4.119l-4.505,1.399c0,0-10.904-3.765,1.091,11.501c11.995,15.267-15.266,24.92-15.266,24.92
		s-4.638,1.16-7.921,2.827c-3.832,1.945-5.82,4.582,3.577,6.878c2.324,0.568,4.667,1.573,6.985,2.873
		c15.073,8.452,29,29.743,29,29.743c6.543,16.357-3.271,9.589,6.543,21.697c9.815,12.108,10.904,13.198-4.361,20.831
		c-14.67,7.335-34.38,27.759-64.922,27.889c7.859,6.858,18.568,15.826,32.815,27.467c22.182,18.125,41.841,26.467,59.165,28.952
		v11.132c-7.075,0.078-12.835,3.244-13.396,7.271h-0.674c-1.664-4.225-6.511-7.285-12.237-7.285c-5.727,0-10.574,3.06-12.236,7.285
		h-5.232c-3.447-1.469-8.659-2.605-14.542-2.998c-8.918-0.596-16.536,0.703-18.881,2.998h-0.784c0-7.573-5.643-13.713-12.603-13.713
		c-6.962,0-12.604,6.139-12.604,13.713h-0.245c0-5.798-5.533-10.499-12.359-10.499c-6.826,0-12.36,4.7-12.36,10.499h-0.073
		c-1.62-1.868-3.72-3.375-6.038-4.603v-71.823c7.003-0.693,14.73-1.073,23.513-0.632c32.714,1.642,53.433-20.181,68.7-27.814
		c15.266-7.633,14.175-8.724,4.361-20.831c-9.814-12.108,0-5.34-6.543-21.697c0,0-18.538-28.352-35.985-32.616
		c-17.448-4.263,4.343-9.705,4.343-9.705s27.262-9.653,15.266-24.919c-11.995-15.267-1.09-11.502-1.09-11.502l26.17-8.127
		l-23.99-7.633c0,0-1.09-9.814,16.358-9.814c17.448,0,18.538-17.053,18.538-17.053s-10.946,2.921-29.443-14.129
		c-20.294-18.707-20.478-8.24-44.982-23.069c-7.226-4.373,1.325-15.387,5.94-20.12c5.25-5.384,43.619-22.832,43.619-22.832
		s-25.296-11.844-47.528-21.658c-22.232-9.814-3.939-13.086-0.668-18.538c3.271-5.453-6.543-6.543-6.543-6.543
		s-15.266-4.362-15.812-11.995c-0.544-7.633,7.088,0,7.088,0l-14.176-20.719l-8.581-13.086v17.448l-21.952,19.629l-20.719,7.633
		c0,0,23.99,17.448-5.453,36.592s-27.262,13.57-17.448,27.678c9.815,14.109,3.271,24.058,3.271,24.058l-19.628,17.817l7.633,10.668
		l9.815,5.064l-12.659,14.989l-23.195,5.363l14.769-17.489c-1.328-3.238-3.174-11.07,3.415-21.21l-0.97-0.5l-8.607-12.029
		l7.429-6.743c-3.591-2.236-8.343-5.143-14.508-9.152c-29.178-18.972-5.403-36.263-5.403-36.263l-20.533-7.564l-21.754-19.452
		v-17.291l-8.505,12.968l-14.048,20.533c0,0,7.564-7.565,7.024,0c-0.541,7.564-15.671,11.887-15.671,11.887
		s-9.726,1.081-6.484,6.484c3.242,5.403,21.37,8.645-0.662,18.371c-22.032,9.726-47.1,21.464-47.1,21.464
		s38.024,17.291,43.227,22.626c4.573,4.691,13.047,15.605,5.886,19.939c-24.284,14.696-24.465,4.322-44.578,22.861
		c-18.33,16.897-29.178,14.002-29.178,14.002s1.081,16.9,18.372,16.9c17.29,0,16.21,9.726,16.21,9.726l-23.775,7.565l25.936,8.054
		c0,0,10.807-3.731-1.081,11.398c-11.887,15.129,15.13,24.695,15.13,24.695s21.595,5.393,4.304,9.618
		c-17.291,4.225-35.662,32.322-35.662,32.322c-6.484,16.21,3.242,9.502-6.484,21.501c-9.726,11.999-10.807,13.08,4.322,20.644
		c15.13,7.565,35.663,29.191,68.082,27.564c8.705-0.437,16.362-0.061,23.302,0.626v31.144c-1.41,0.796-2.747,1.687-3.933,2.738
		c-2.077-0.455-4.284-0.701-6.571-0.701c-5.495,0-10.52,1.418-14.406,3.763c-2.347-1.032-5.028-1.62-7.877-1.62
		c-5.275,0-9.972,2.01-13.035,5.142h-3.678c-13.216,0-24.174,9.652-26.221,22.291c-2.71,3.053-4.419,7.41-4.419,12.263
		c0,2.85,0.589,5.53,1.62,7.878c-2.346,3.885-3.763,8.911-3.763,14.405c0,3.583,0.606,6.965,1.675,9.964
		c-1.837,2.994-3.056,6.487-3.426,10.287c-0.787,8.086,2.452,15.558,7.965,20.127v4.038c-7.177,4.801-11.513,13.479-10.498,22.849
		c0.808,7.46,4.834,13.768,10.498,17.621v7.236c-2.385,4.367-3.858,10.343-3.858,16.938s1.472,12.571,3.858,16.938v1.003
		c-1.42,0-2.571,7.387-2.571,16.499c0,9.112,1.151,16.498,2.571,16.498c0,14.674,11.894,26.569,26.568,26.569h385.244
		c14.674,0,26.569-11.895,26.569-26.569v-30.258c3.715-1.749,6.216-4.977,6.216-8.681c0-3.239-1.916-6.114-4.88-7.956
		c0.099-0.692,0.167-1.394,0.167-2.114c0-2.333-0.549-4.527-1.503-6.467v-4.345c7.295-4.06,12.216-11.703,12.216-20.47
		c0-7.545-3.646-14.257-9.312-18.571c2.05-2.19,3.312-5.101,3.312-8.307c0-4.527-2.501-8.472-6.216-10.61v-1.902
		c6.745-3.778,11.359-11.392,11.359-20.176c0-6.099-2.227-11.632-5.844-15.713c0.455-2.077,0.701-4.284,0.701-6.571
		c0-5.494-1.418-10.52-3.762-14.405c1.031-2.348,1.62-5.029,1.62-7.878c0-5.22-1.966-9.879-5.043-12.944
		c-3.106-11.224-13.387-19.467-25.6-19.467h-1.344c0.033-0.318,0.061-0.639,0.061-0.964c0-6.331-6.523-11.463-14.57-11.463
		c-7.935,0-14.377,4.995-14.552,11.205c-1.712-4.556-5.459-7.818-9.907-8.318v-8.023c22.341-0.079,40.326-9.557,54.394-18.349
		c17.291-10.807,17.291-10.807,25.936-30.259c6.386-14.367,35.662-45.388,40.345-50.791
		C789.169,478.108,738.994,484.297,738.994,484.297z M570.018,351.687c-9.24,17.298-23.777,6.362-23.777,6.362
		S579.259,334.39,570.018,351.687z M521.258,261.067c9.93,13.925-10.903,20.887-10.903,20.887S511.328,247.142,521.258,261.067z
		 M485.526,462.751c-4.414-14.733-7.467-31.552,2.147-13.698C490.393,454.105,489.12,458.682,485.526,462.751
		c1.181,3.94,2.457,7.732,3.616,10.67c5.493,13.925-56.884,11.44-56.884,11.44S473.023,476.906,485.526,462.751z M403.868,311.545
		c0,0-9.1-1.305-10.405-9.138C392.157,294.574,403.868,311.545,403.868,311.545z M329.811,382.122
		c2.309-0.867,6.063-2.454,9.76-4.793c0.722-0.457,1.439-0.953,2.146-1.467c-0.191-12.097,5.7-31.377,8.671-17.811
		c1.714,7.827-3.055,13.724-8.671,17.811c0.019,1.236,0.103,2.393,0.259,3.436c2.603-0.439,5.481-0.852,8.767-1.174
		c15.239-1.495-2.971,12.402-7.642,4.786c-0.542-0.883-0.903-2.135-1.124-3.612C336.174,380.275,332.106,381.386,329.811,382.122
		c-1.402,0.526-2.274,0.788-2.274,0.788S328.36,382.586,329.811,382.122z M343.048,487.624c-0.358,6.45,0.018,11.611,0.052,12.563
		c0.089,2.463-18.426,3.711-23.164,3.99c-0.465,0.118-0.861,0.166-1.103,0.062c0,0,0.408-0.021,1.103-0.062
		C323.514,503.272,333.276,496.155,343.048,487.624c0.702-12.688,4.299-30.455,19.301-31.609
		C375.892,454.974,359.508,473.256,343.048,487.624z M375.839,691.432l23.498-16.971c0,0,50.913,1.305,26.109,16.971
		C400.642,707.098,371.922,707.098,375.839,691.432z M403.868,811.099c0,0,35.027,6.674,47.103-3.155
		c-9.162-15.894,0.532-32.631,3.874-10.77c0.743,4.862-0.864,8.32-3.874,10.77c1.05,1.823,2.287,3.639,3.874,5.38
		C470.266,830.245,403.868,811.099,403.868,811.099z M490.782,609.163c-5.872,0.475-11.094,2.868-14.619,6.575
		c-1.698-3.948-5.036-6.635-8.878-6.635c-3.241,0-6.114,1.916-7.956,4.881c-0.692-0.099-1.395-0.167-2.115-0.167
		c-3.095,0-5.95,0.961-8.279,2.571h-0.959c-3.369-9.14-11.966-15.641-22.045-15.641c-8.183,0-15.391,4.287-19.616,10.792
		c-2.037-1.524-4.542-2.435-7.262-2.435c-4.948,0-9.202,2.987-11.158,7.285h-0.797c-3.381-6.979-10.773-11.889-19.458-12.34V577.58
		c12.469,1.848,22.612,3.684,32.824,1.325c24.333-5.622,42.163-14.72,54.379-22.953c-0.751-0.135-1.5-0.236-2.251-0.409
		c-60.663-14.016-85.913-47.037-85.913-47.037l14.755-18.571c0,0-29.467,4.222-6.147-28.154
		c25.519-35.432,33.039-45.808,18.283-56.874c-14.755-11.067,6.149-21.577,6.149-21.577l24.709-25.705l-11.478,13.591l20.719-4.791
		l-22.9,23.823c0,0-18.538,9.321-5.453,19.135c13.086,9.814,6.418,19.016-16.214,50.438c-20.681,28.712,5.453,24.968,5.453,24.968
		l-13.086,16.47c0,0,22.393,29.285,76.191,41.714c10.306,2.381,20.539,0.528,33.122-1.336V609.163z M557.297,743.65
		c-19.203,0-20.263-7.058-18.183-16.565c-6.036-2.429-11.435-4.821-14.453-6.934c-13.055-9.138,15.665-23.498,15.665-23.498
		c5.79,9.649,0.808,21.196-1.212,30.432C559.189,735.163,586.403,743.65,557.297,743.65z M678.727,655.091
		c0,0-0.134,0.459-0.465,1.217C678.427,655.914,678.585,655.511,678.727,655.091z M687.842,820.308
		c15.665,21.393-3.482,25.603-15.665,12.054C659.993,818.814,676.507,804.828,687.842,820.308z M651.289,537.139
		c-1.74,14.981-17.406,9.233-17.406,9.233C653.03,532.293,653.03,522.158,651.289,537.139z M667.89,354.993
		c-13.881,0.046-4.546-15.381,12.925-3.306C698.286,363.763,687.972,354.926,667.89,354.993z"/>
</g>
</svg>
