<?xml version="1.0" encoding="iso-8859-1"?>
<!-- Generator: Adobe Illustrator 19.1.0, SVG Export Plug-In . SVG Version: 6.00 Build 0)  -->
<svg version="1.1" xmlns="http://www.w3.org/2000/svg" xmlns:xlink="http://www.w3.org/1999/xlink" x="0px" y="0px"
	 viewBox="0 0 1024 1024" style="enable-background:new 0 0 1024 1024;" xml:space="preserve">
<g id="template">
	<g id="Hexigon">
		<g>
			<polygon style="fill:#42AA48;" points="257.289,953.174 2.577,512 257.289,70.828 766.711,70.828 1021.423,512 766.711,953.174 
							"/>
			<g>
				<path style="fill:#00A651;" d="M766.423,71.328L1020.845,512L766.423,952.673H257.577L3.155,512L257.577,71.328H766.423
					 M767,70.328H257L2,512l255,441.673h510L1022,512L767,70.328L767,70.328z"/>
			</g>
		</g>
	</g>
</g>
<g id="toothedsimpleleaf">
	<g>
		<path style="fill:#FFFFFF;" d="M671.907,497.406l25.384-114.223l-29.189,12.69l2.538-102.796l-6.347-5.076l-25.384,11.419
			l-12.686-88.835l-37.859,9.77c-3.655-4.593-7.297-9.027-10.907-13.19L512,112.861c0,0-51.065,73.57-65.461,94.309
			c-3.602,4.158-7.245,8.593-10.907,13.185l-37.851-9.77l-12.69,88.835l-25.384-11.419l-6.347,5.076l2.538,102.796l-29.189-12.69
			l25.384,114.223l-32.998,7.614l59.649,100.262h-26.651l1.267,13.957l96.502,90.845c17.019,19.151,32.941,33.603,44.373,42.96
			v158.092h35.536V753.043c11.435-9.36,27.358-23.813,44.381-42.976l96.489-90.829l1.267-13.957H645.26l59.645-100.262
			L671.907,497.406z M514.964,703.001h-5.929c-7.407-27.281-26.225-110.057-26.225-247.483c0-171.046,29.185-257.627,29.185-257.627
			s29.193,86.581,29.193,257.627C541.189,592.945,522.371,675.721,514.964,703.001z"/>
	</g>
</g>
</svg>
