<?xml version="1.0" encoding="iso-8859-1"?>
<!-- Generator: Adobe Illustrator 19.1.0, SVG Export Plug-In . SVG Version: 6.00 Build 0)  -->
<svg version="1.1" xmlns="http://www.w3.org/2000/svg" xmlns:xlink="http://www.w3.org/1999/xlink" x="0px" y="0px"
	 viewBox="0 0 1024 1024" style="enable-background:new 0 0 1024 1024;" xml:space="preserve">
<g id="template">
	<g id="Hexigon">
		<g>
			<polygon style="fill:#42AA48;" points="257.289,953.174 2.577,512 257.289,70.828 766.711,70.828 1021.423,512 766.711,953.174 
							"/>
			<g>
				<path style="fill:#00A651;" d="M766.423,71.328L1020.845,512L766.423,952.673H257.577L3.155,512L257.577,71.328H766.423
					 M767,70.328H257L2,512l255,441.673h510L1022,512L767,70.328L767,70.328z"/>
			</g>
		</g>
	</g>
</g>
<g id="yucca">
	<g>
		<path style="fill:#FFFFFF;" d="M908.92,541.231c-11.251-11.367-135.922,93.356-292.699,243.88
			c72.082-242.537,115.982-437.691,99.005-442.833c-16.987-5.142-88.758,181.747-163.337,423.688c-2.529-0.511-5.1-0.93-7.689-1.344
			c0.958-45.239,1.469-93.244,1.469-143.007c0-270.138-15.072-489.127-33.668-489.127c-18.596,0-33.668,218.99-33.668,489.127
			c0,49.763,0.516,97.768,1.474,143.007c-2.594,0.414-5.165,0.832-7.694,1.344c-74.579-241.942-146.35-428.83-163.337-423.688
			c-16.978,5.142,26.922,200.296,99.004,442.833C251.002,634.587,126.331,529.865,115.08,541.231
			c-11.85,11.952,105.941,148.246,270.654,314.972c3.068,10.674,9.577,20.567,18.689,29.307h215.154
			c9.112-8.74,15.625-18.633,18.689-29.307C802.979,689.478,920.774,553.184,908.92,541.231z"/>
	</g>
</g>
</svg>
