<?xml version="1.0" encoding="iso-8859-1"?>
<!-- Generator: Adobe Illustrator 19.1.0, SVG Export Plug-In . SVG Version: 6.00 Build 0)  -->
<svg version="1.1" xmlns="http://www.w3.org/2000/svg" xmlns:xlink="http://www.w3.org/1999/xlink" x="0px" y="0px"
	 viewBox="0 0 1024 1024" style="enable-background:new 0 0 1024 1024;" xml:space="preserve">
<g id="template">
	<g id="Hexigon">
		<g>
			<polygon style="fill:#42AA48;" points="257.289,953.174 2.577,512 257.289,70.828 766.711,70.828 1021.423,512 766.711,953.174 
							"/>
			<g>
				<path style="fill:#00A651;" d="M766.423,71.328L1020.845,512L766.423,952.673H257.577L3.155,512L257.577,71.328H766.423
					 M767,70.328H257L2,512l255,441.673h510L1022,512L767,70.328L767,70.328z"/>
			</g>
		</g>
	</g>
</g>
<g id="construction">
	<path style="fill:#FFFFFF;" d="M714.051,360.46V230.804h-51.249v85.17L518,190.28L182.703,481.331h108.702V843.72h190.399
		c-0.18-29.924-0.248-59.849-0.276-89.774c-0.035-38.548,0.033-77.096,0.027-115.644c-0.001-7.06,0.025-7.138,6.863-7.133
		c21.377,0.018,42.756,0.151,64.132-0.066c4.712-0.048,6.122,1.484,6.111,6.078c-0.122,50.312-0.061,100.624-0.1,150.936
		c-0.014,18.535-0.096,37.069-0.166,55.603h186.2V481.331h108.702L714.051,360.46z M667.601,565.441
		c0.11,10.091-7.913,17.455-17.504,17.026c-11.493-0.515-23.031-0.142-34.547,0.009c-5.751,0.076-9.571-1.683-12.615-7.268
		c-4.31-7.908-10.738-13.637-21.019-13.244c-7.563,0.289-15.167-0.5-24.019-0.861c0.239,12.972,0.303,23.88,0.705,34.775
		c0.169,4.588-0.94,6.491-6.116,6.429c-21.829-0.261-43.664-0.107-65.496,0.052c-4.016,0.029-5.855-1.153-5.565-5.462
		c0.309-4.592,0.041-9.222,0.083-13.835c0.133-14.445-6.885-20.948-19.074-25.365c-21.229-7.693-43.345-8.298-65.516-6.036
		c-24.672,2.517-48.092,9.856-70.669,19.97c-4.754,2.13-9.456,4.375-14.883,5.823c1.202-1.472,2.268-3.085,3.628-4.391
		c8.349-8.018,16.515-16.252,25.22-23.868c12.225-10.696,24.481-21.429,37.446-31.189c12.021-9.049,24.743-17.246,37.617-25.059
		c10.838-6.578,22.68-9.558,35.786-9.279c29.372,0.627,58.769,0.072,88.155,0.071c13.441-0.001,17.037,3.267,19.259,16.473
		c0.213,1.267,2.27,3.135,3.516,3.17c8.223,0.238,16.561,0.828,24.654-0.253c6.034-0.806,11.278-4.154,14.489-10.362
		c2.785-5.384,6.824-9.612,14.238-9.247c11.367,0.56,22.781,0.145,34.174,0.238c11.791,0.097,18.14,6.385,18.161,18.288
		C667.747,523.177,667.369,544.312,667.601,565.441z"/>
</g>
</svg>
