<?xml version="1.0" encoding="iso-8859-1"?>
<!-- Generator: Adobe Illustrator 19.1.0, SVG Export Plug-In . SVG Version: 6.00 Build 0)  -->
<svg version="1.1" xmlns="http://www.w3.org/2000/svg" xmlns:xlink="http://www.w3.org/1999/xlink" x="0px" y="0px"
	 viewBox="0 0 1024 1024" style="enable-background:new 0 0 1024 1024;" xml:space="preserve">
<g id="template">
	<g id="Hexigon">
		<g>
			<polygon style="fill:#42AA48;" points="257.289,953.174 2.577,512 257.289,70.828 766.711,70.828 1021.423,512 766.711,953.174 
							"/>
			<g>
				<path style="fill:#00A651;" d="M766.423,71.328L1020.845,512L766.423,952.673H257.577L3.155,512L257.577,71.328H766.423
					 M767,70.328H257L2,512l255,441.673h510L1022,512L767,70.328L767,70.328z"/>
			</g>
		</g>
	</g>
</g>
<g id="HexTree">
	<g>
		<g>
			<polygon style="fill:#FFFFFF;" points="389.386,311.754 415.815,267 486.47,267 525.357,199.43 512.333,177 411.634,177 
				361.287,263.624 			"/>
			<polygon style="fill:#FFFFFF;" points="639.152,462 591.949,462 583.995,449 574.122,449 551.398,488 491.212,488 
				489.386,484.107 489.157,484.789 529.926,556 611.445,556 652.214,484.898 			"/>
			<polygon style="fill:#FFFFFF;" points="483.597,483.767 486.596,478.548 461.113,435.258 466.894,426 430.921,426 418.237,448 
				327.93,448 376.225,531 474.828,531 492.546,499.884 			"/>
			<polygon style="fill:#FFFFFF;" points="530.808,199 488.468,273 530.808,347 615.467,347 657.806,273 615.467,199 			"/>
			<polygon style="fill:#FFFFFF;" points="457.566,360.108 495.579,294.041 482.909,272.684 483.7,272 418.59,272 375.208,346.5 
				418.59,421 492.403,421 			"/>
			<polygon style="fill:#FFFFFF;" points="690.183,292 652.286,292 636.689,318.62 660.61,360.597 609.847,449 589.562,449 
				594.732,458 690.183,458 737.908,375 			"/>
			<polygon style="fill:#FFFFFF;" points="329.846,443 415.45,443 425.359,426 415.815,426 369.634,345.737 386.596,316.651 
				373.431,294 329.846,294 287.037,368.5 			"/>
			<polygon style="fill:#FFFFFF;" points="548.619,483 568.551,449 508.328,449 495.189,426 472.464,426 466.683,435.907 
				493.991,483 			"/>
			<polygon style="fill:#FFFFFF;" points="655.041,360.246 633.913,324.227 618.256,352 528.018,352 498.355,299.465 
				463.134,360.702 511.109,444 607.066,444 			"/>
		</g>
		<path style="fill:#FFFFFF;" d="M749.439,375.5L695.947,283H663.98l5.342-9.314L621.245,190h-90.016l-13.134-23H405.873
			l-56.118,97.219L361.694,285h-37.608l-48.582,83.367l42.346,73.075l-2.358,4.877L370.462,542h93.963l6.867,11.898l-3.035,219.267
			l-12.68,36.637L394.071,857h219.91l-61.469-47.421l-12.674-36.153L536.971,566h80.252l46.508-80.677L653.638,468h42.309
			L749.439,375.5z M644.712,462l13.062,22.488L614.234,560h-87.098l-5.146-9h-0.381l3.115,225.011l14.988,43.033L569.284,842
			H438.857l29.533-22.981l14.982-43.25l3.125-226.112l-8.531-15.363l-0.36,0.707H373.448l-52.087-90.003l2.361-4.143l-42.247-73.03
			L327.059,289h43.586l-14.925-25.946L408.853,171h106.262l13.134,23h90.008l45.109,78.521L655.056,287h37.91l50.509,87.5
			L692.966,462H644.712z"/>
		<polygon style="fill:#FFFFFF;" points="532.282,774.178 529.319,560 527.136,560 495.32,504.542 477.606,535 470.015,535 
			478.895,551.248 475.815,774.124 461.984,814.041 416.464,849 591.633,849 546.113,814.128 		"/>
	</g>
</g>
</svg>
