<?xml version="1.0" encoding="iso-8859-1"?>
<!-- Generator: Adobe Illustrator 19.1.0, SVG Export Plug-In . SVG Version: 6.00 Build 0)  -->
<svg version="1.1" xmlns="http://www.w3.org/2000/svg" xmlns:xlink="http://www.w3.org/1999/xlink" x="0px" y="0px"
	 viewBox="0 0 1024 1024" style="enable-background:new 0 0 1024 1024;" xml:space="preserve">
<g id="template">
	<g id="Hexigon">
		<g>
			<polygon style="fill:#42AA48;" points="257.289,953.174 2.577,512 257.289,70.828 766.711,70.828 1021.423,512 766.711,953.174 
							"/>
			<g>
				<path style="fill:#00A651;" d="M766.423,71.328L1020.845,512L766.423,952.673H257.577L3.155,512L257.577,71.328H766.423
					 M767,70.328H257L2,512l255,441.673h510L1022,512L767,70.328L767,70.328z"/>
			</g>
		</g>
	</g>
</g>
<g id="achievement4">
	<circle style="fill:#FFFFFF;" cx="509.553" cy="227.039" r="92.642"/>
	<path style="fill:#FFFFFF;" d="M298.117,773.686c-32.844-20.706-77.433,8.925-77.433,8.925
		c87.846-63.548,126.402-194.212,126.402-194.212l34.273-22.134c6.426,100.676-44.268,251.331-44.268,251.331
		C331.556,803.852,330.961,794.393,298.117,773.686z"/>
	<path style="fill:#FFFFFF;" d="M472.521,853.686l43.763-126.411l47.705,126.026C513.116,871.508,472.521,853.686,472.521,853.686z"
		/>
	<path style="fill:#FFFFFF;" d="M691.418,791.892c0,0-47.899-135.995-39.449-234.909c0,0,17.493,170.292,134.055,185.286
		C786.024,742.269,748.717,793.362,691.418,791.892z"/>
	<path style="fill:#FFFFFF;" d="M773.41,516.091c-57-59.376-172.769-159.745-257.126-159.745
		c-84.358,0-200.126,100.369-257.127,159.745c-27.26,28.394-34.357,59.433-12.514,81.278c18.139,18.139,52.724-8.288,81.344-26.364
		c28.621-18.077,85.345-65.527,85.345-65.527s2.124,84.058-6.26,148.381c-7.667,58.819-30.145,123.724-40.221,158.623
		c-21.089,73.061,46.246,97.457,71.855,43.982c25.609-53.474,77.579-197.336,77.579-197.336s51.97,143.861,77.578,197.336
		c25.609,53.476,92.945,29.08,71.854-43.982c-10.073-34.899-32.552-99.804-40.22-158.623c-8.384-64.323-6.26-148.381-6.26-148.381
		s56.724,47.45,85.345,65.527c28.621,18.077,63.206,44.504,81.344,26.364C807.768,575.524,800.672,544.485,773.41,516.091z
		 M569.014,495.675c-27.66,39.49-65.993,66.133-87.443,48.281c0,0-0.982-23.745,21.819-33.689
		c22.801-9.942,41.264-23.779,49.125-44.293c0,0-22.03,15.185-51.329,23.612c-29.299,8.427-37.664,39.725-34.948,52.506
		c0,0-41.844-34.212,4.307-73.125c46.151-38.913,71.605-8.058,106.268-56.815C576.812,412.152,596.674,456.186,569.014,495.675z"/>
</g>
</svg>
